<?xml version="1.0" encoding="UTF-8"?>
<svg width="86px" height="20px" viewBox="0 0 86 20" version="1.1" xmlns="http://www.w3.org/2000/svg" xmlns:xlink="http://www.w3.org/1999/xlink">
    <!-- Generator: sketchtool 42 (36781) - http://www.bohemiancoding.com/sketch -->
    <title>BB9314DF-FD9B-485A-9F93-C9F77A537297</title>
    <desc>Created with sketchtool.</desc>
    <defs></defs>
    <g id="Symbols" stroke="none" stroke-width="1" fill="none" fill-rule="evenodd">
        <g id="Logo:-InvestKit" fill-rule="nonzero">
            <g id="Isolation_Mode">
                <g>
                    <path d="M2.87769784,3.97841727 C2.87938141,4.1656204 2.83957924,4.35087251 2.76115108,4.52086331 C2.68374384,4.68597987 2.57697304,4.83565401 2.44604317,4.96258993 C2.3139582,5.09160118 2.15807464,5.19373179 1.98705036,5.26330935 C1.80803544,5.33625418 1.61632022,5.37293439 1.42302158,5.37122302 C1.23816678,5.3722853 1.05504452,5.33556292 0.884892086,5.26330935 C0.71815199,5.19287798 0.566669201,5.09074926 0.438848921,4.96258993 C0.3109786,4.83526919 0.207584189,4.68554237 0.13381295,4.52086331 C0.0580601802,4.35014844 0.0197900241,4.16517602 0.0215827338,3.97841727 C0.0200567351,3.79029183 0.0583022915,3.60396732 0.13381295,3.43165468 C0.206860286,3.26529334 0.310309426,3.11402337 0.438848921,2.98561151 C0.566762138,2.85756484 0.718221576,2.75545186 0.884892086,2.68489209 C1.05506849,2.61271611 1.23817458,2.57599698 1.42302158,2.57697842 C1.61631332,2.57534334 1.80801369,2.6120207 1.98705036,2.68489209 C2.15802362,2.75456684 2.31388947,2.85668584 2.44604317,2.98561151 C2.57662076,3.11386331 2.68246268,3.26506605 2.75827338,3.43165468 C2.83745944,3.60302525 2.87821936,3.78963688 2.87769784,3.97841727 L2.87769784,3.97841727 Z M2.6028777,6.42446043 L2.6028777,15.028777 L0.300719424,15.028777 L0.300719424,6.42446043 L2.6028777,6.42446043 Z" id="Shape" fill="#272727"></path>
                    <path d="M6.70791367,7.42589928 C6.87728199,7.26154236 7.05702821,7.10822941 7.24604317,6.96690647 C7.43158459,6.82857843 7.63011784,6.7085911 7.83884892,6.60863309 C8.05495763,6.50617224 8.28176381,6.42799649 8.51510791,6.37553957 C8.773957,6.31812172 9.03846354,6.2901265 9.30359712,6.29208633 C9.73030529,6.28348558 10.1539948,6.36537926 10.5467626,6.5323741 C10.8981791,6.68642376 11.2104429,6.91754811 11.4604317,7.20863309 C11.7156276,7.51168053 11.9061061,7.86374734 12.0201439,8.24316547 C12.1494192,8.67039957 12.2129754,9.11480792 12.2086331,9.56115108 L12.2086331,15.028777 L9.90647482,15.028777 L9.90647482,9.56115108 C9.90647482,9.08153477 9.79520384,8.71031175 9.57266187,8.44748201 C9.3501199,8.18465228 9.02398082,8.05467626 8.5942446,8.05755396 C8.2790816,8.05593017 7.96782713,8.1273414 7.68489209,8.26618705 C7.38540161,8.41639723 7.11191164,8.6136209 6.87482014,8.85035971 L6.87482014,15.0374101 L4.57266187,15.0374101 L4.57266187,6.42446043 L5.99136691,6.42446043 C6.25343676,6.40575087 6.49308622,6.57230725 6.56690647,6.82446043 L6.70791367,7.42589928 Z" id="Shape" fill="#272727"></path>
                    <path d="M21.7539568,6.42446043 L18.3741007,15.028777 L16.2877698,15.028777 L12.9079137,6.42446043 L14.8201439,6.42446043 C14.9679717,6.41894183 15.1138381,6.45968381 15.2374101,6.54100719 C15.3446984,6.61434679 15.4262351,6.7195391 15.4705036,6.84172662 L16.9093525,11.0978417 C17.0052758,11.3856115 17.088729,11.6681055 17.1597122,11.9453237 C17.2306954,12.222542 17.2944844,12.4992806 17.3510791,12.7755396 C17.41247,12.4973621 17.4805755,12.2206235 17.5553957,11.9453237 C17.6302158,11.670024 17.7179856,11.38753 17.818705,11.0978417 L19.3122302,6.84172662 C19.3517274,6.71901697 19.431277,6.61311982 19.5381295,6.54100719 C19.6535701,6.46185796 19.7910078,6.42107975 19.9309353,6.42446043 L21.7539568,6.42446043 Z" id="Shape" fill="#272727"></path>
                    <path d="M24.2906475,11.0791367 C24.3625899,11.8858513 24.5923261,12.4757794 24.9798561,12.8489209 C25.3895194,13.2309253 25.9353402,13.4325628 26.494964,13.4086331 C26.7729993,13.4142522 27.0502048,13.3763852 27.3165468,13.2964029 C27.5260269,13.2300016 27.7296091,13.1462586 27.9251799,13.0460432 L28.4014388,12.7956835 C28.5305573,12.7240705 28.6753878,12.6855149 28.8230216,12.6834532 C28.9867343,12.6764886 29.1431735,12.7514716 29.2402878,12.8834532 L29.9079137,13.7179856 C29.6743214,13.9918439 29.4013132,14.2294532 29.0978417,14.4230216 C28.8102182,14.6057362 28.5021075,14.7539964 28.1798561,14.8647482 C27.8683537,14.9720991 27.5468248,15.0477813 27.2201439,15.0906475 C26.9100741,15.1317911 26.597678,15.1529379 26.2848921,15.1539568 C25.7112189,15.1580589 25.1416404,15.0571148 24.6043165,14.8561151 C24.0936251,14.6646376 23.6299549,14.365828 23.2446043,13.9798561 C22.8426688,13.5694983 22.5313945,13.0793025 22.3309353,12.5410072 C22.0970707,11.9026817 21.9838777,11.2264512 21.9971223,10.5467626 C21.9935311,9.98338752 22.0909969,9.42393382 22.2848921,8.89496403 C22.6528291,7.87208946 23.4324902,7.05015758 24.4345324,6.62877698 C24.9890389,6.39609496 25.5857812,6.28095994 26.1870504,6.29064748 C26.7062543,6.28536375 27.2220878,6.37458636 27.7093525,6.55395683 C28.159599,6.72031499 28.5691887,6.98078462 28.9107914,7.31798561 C29.257159,7.66725398 29.5245666,8.08676496 29.694964,8.54820144 C29.8895127,9.08224891 29.9841336,9.64753585 29.9741007,10.2158273 C29.9764917,10.3601163 29.9683163,10.5043868 29.9496403,10.647482 C29.9387311,10.7411091 29.9104279,10.8318745 29.8661871,10.9151079 C29.832526,10.9806014 29.7763093,11.0317074 29.7079137,11.0589928 C29.6244437,11.0865509 29.5367774,11.0992138 29.4489209,11.0964029 L24.2906475,11.0791367 Z M27.9136691,9.71223022 C27.9146307,9.4804853 27.8821622,9.24981317 27.8172662,9.02733813 C27.7563198,8.81652722 27.6524699,8.62058405 27.5122302,8.45179856 C27.3689562,8.28265631 27.1894645,8.14791462 26.9870504,8.05755396 C26.7471723,7.95530129 26.487994,7.90621449 26.2273381,7.91366906 C25.6767386,7.91366906 25.2450839,8.06954436 24.9323741,8.38129496 C24.6196643,8.69304556 24.4167866,9.1381295 24.323741,9.71654676 L27.9136691,9.71223022 Z" id="Shape" fill="#272727"></path>
                    <path d="M36.7510791,8.19280576 C36.7029755,8.27315399 36.6388075,8.34271018 36.5625899,8.3971223 C36.4827648,8.44318341 36.3913198,8.4651702 36.2992806,8.46043165 C36.1803097,8.45871129 36.0632581,8.4301861 35.9568345,8.37697842 C35.8398082,8.32134293 35.7088729,8.26139089 35.5640288,8.1971223 C35.4024387,8.12696513 35.2366528,8.06689778 35.0676259,8.01726619 C34.8569415,7.95842303 34.6388633,7.93031517 34.4201439,7.93381295 C34.1153924,7.9165698 33.813053,7.99668973 33.5568345,8.16258993 C33.3587498,8.29993439 33.2426097,8.52735297 33.247482,8.76834532 C33.244281,8.9302226 33.3077527,9.0863005 33.4230216,9.2 C33.5576957,9.32891644 33.7146845,9.43227558 33.8863309,9.50503597 C34.0964607,9.59973748 34.3122156,9.68142645 34.5323741,9.74964029 C34.7769784,9.82446043 35.028777,9.90647482 35.2877698,9.99568345 C35.5452202,10.0844213 35.7974246,10.1877051 36.0431655,10.305036 C36.2814322,10.4159407 36.5020328,10.5613917 36.6978417,10.7366906 C36.892429,10.9157417 37.0498594,11.1313529 37.1611511,11.371223 C37.2850674,11.6534183 37.3450132,11.9595348 37.3366906,12.2676259 C37.3398568,12.6630612 37.2614879,13.0549055 37.1064748,13.418705 C36.954626,13.7702461 36.7248571,14.0826728 36.4345324,14.3323741 C36.1109906,14.6044352 35.7362337,14.808937 35.3323741,14.9338129 C34.2775867,15.2560018 33.1464715,15.2251854 32.1107914,14.8460432 C31.8577854,14.7525412 31.6124403,14.63949 31.3769784,14.5079137 C31.1675494,14.3938792 30.9711843,14.2573402 30.7913669,14.1007194 L31.3251799,13.2374101 C31.3819316,13.1422323 31.4609302,13.0622462 31.5553957,13.0043165 C31.6635748,12.9447708 31.7859673,12.915914 31.9093525,12.9208633 C32.0446152,12.9200133 32.1775108,12.956348 32.2935252,13.0258993 C32.4105516,13.0959233 32.5414868,13.171223 32.6863309,13.2517986 C32.8508496,13.3415053 33.0226902,13.4170767 33.2,13.4776978 C33.43855,13.5531261 33.6880322,13.5881411 33.9381295,13.581295 C34.1326309,13.5851449 34.3266169,13.5599267 34.5136691,13.5064748 C34.6572423,13.4660577 34.7909544,13.3965078 34.9064748,13.3021583 C35.0010563,13.2241379 35.0768006,13.1257687 35.1280576,13.0143885 C35.1747601,12.9077898 35.1987702,12.7926393 35.1985612,12.676259 C35.2049488,12.5036477 35.1398836,12.3360399 35.018705,12.2129496 C34.8822754,12.0823432 34.7240042,11.9766668 34.5510791,11.9007194 C34.3365273,11.8020222 34.1147858,11.7197711 33.8877698,11.6546763 C33.6374101,11.5827338 33.3827338,11.5021583 33.123741,11.4129496 C32.8639884,11.3238059 32.6102288,11.2180727 32.3640288,11.0964029 C32.1214352,10.977467 31.8990545,10.8211207 31.705036,10.6330935 C31.5058749,10.4364641 31.3470271,10.2028357 31.2374101,9.94532374 C31.1095991,9.63034291 31.0483627,9.29231806 31.057554,8.95251799 C31.0569726,8.60599907 31.1280021,8.2630982 31.2661871,7.94532374 C31.4091814,7.61978833 31.6230095,7.3302602 31.8920863,7.09784173 C32.1972939,6.83771241 32.5501052,6.63931713 32.9309353,6.51366906 C33.3950121,6.36123122 33.8813884,6.28778839 34.3697842,6.29640288 C34.9402511,6.28897867 35.5068457,6.39106338 36.0388489,6.5971223 C36.4994065,6.77183674 36.9194817,7.03866771 37.2733813,7.38129496 L36.7510791,8.19280576 Z" id="Shape" fill="#272727"></path>
                    <path d="M41.7582734,15.1611511 C41.4058957,15.1673343 41.0553361,15.109314 40.723741,14.9899281 C40.1434442,14.7819099 39.6909186,14.3187741 39.4964029,13.7338129 C39.3863116,13.4056639 39.3327918,13.0611909 39.3381295,12.7151079 L39.3381295,8.07625899 L38.5280576,8.07625899 C38.4053221,8.07955462 38.2869908,8.03042729 38.2026793,7.94117245 C38.1183678,7.85191762 38.0760551,7.73098202 38.0863309,7.60863309 L38.0863309,6.70791367 L39.4633094,6.45755396 L39.9309353,4.22877698 C39.9761101,3.98948381 40.1983367,3.8256387 40.4402878,3.85323741 L41.6417266,3.85323741 L41.6417266,6.47482014 L43.8618705,6.47482014 L43.8618705,8.07625899 L41.6402878,8.07625899 L41.6402878,12.5654676 C41.6287368,12.7687137 41.6893815,12.9695035 41.8115108,13.1323741 C41.9327844,13.275849 42.1146336,13.3537082 42.3021583,13.342446 C42.3994425,13.3450007 42.4965306,13.3323792 42.5899281,13.305036 C42.6590708,13.2835697 42.7260342,13.2556282 42.7899281,13.2215827 L42.9438849,13.1381295 C42.988071,13.1140943 43.0374725,13.1012499 43.0877698,13.1007194 C43.1468127,13.0985695 43.2050865,13.114645 43.2546763,13.1467626 C43.3092053,13.1885338 43.3547222,13.2409027 43.3884892,13.3007194 L44.0805755,14.4028777 C43.7590605,14.6553816 43.3944026,14.8474608 43.0043165,14.9697842 C42.6014483,15.0979855 42.1810457,15.1625508 41.7582734,15.1611511 Z" id="Shape" fill="#272727"></path>
                    <g id="_Group_" transform="translate(46.618705, 0.000000)" fill="#3098FF">
                        <g id="_Group_2">
                            <path d="M8.60863309,4.23516474e-22 C5.16698806,-0.002670063 2.06296733,2.06910603 0.745165149,5.24846526 C-0.572637036,8.42782449 0.155563592,12.0880055 2.58992806,14.5208633 C4.1294964,16.0604317 8.60431655,19.9669065 8.60431655,19.9669065 C8.60431655,19.9669065 13.0805755,16.0604317 14.6201439,14.5208633 C17.0521048,12.0884199 17.7798322,8.43075311 16.4641369,5.25267812 C15.1484415,2.07460312 12.048286,0.00164643867 8.60863309,4.23516474e-22 L8.60863309,4.23516474e-22 Z M8.63309353,15.3597122 C4.87517326,15.3597122 1.82877698,12.3133159 1.82877698,8.55539568 C1.82877698,4.79747542 4.87517326,1.75107914 8.63309353,1.75107914 C12.3910138,1.75107914 15.4374101,4.79747542 15.4374101,8.55539568 C15.4366157,12.3129869 12.3906847,15.3589179 8.63309353,15.3597122 L8.63309353,15.3597122 Z" id="_Compound_Path_"></path>
                        </g>
                        <g id="_Group_3" transform="translate(2.589928, 2.446043)">
                            <path d="M5.54532374,4.14820144 C5.62807625,4.12850639 5.71228186,4.11551467 5.7971223,4.10935252 L5.7971223,5.32374101 C5.6101922,5.28862647 5.43273296,5.21460342 5.27625899,5.10647482 C5.1677603,5.01041607 5.10940667,4.86983687 5.11798561,4.72517986 C5.11886715,4.63345177 5.13999363,4.54305007 5.17985612,4.46043165 C5.21317497,4.38519407 5.2622395,4.31797566 5.32374101,4.26330935 C5.38924895,4.21064268 5.46456792,4.17151594 5.54532374,4.14820144 L5.54532374,4.14820144 Z" id="_Path_"></path>
                            <path d="M6.97266187,6.78561151 C7.09496403,6.88201439 7.09928058,7.02877698 7.09928058,7.21726619 C7.09234914,7.32810692 7.05664274,7.43522611 6.99568345,7.52805755 C6.94091882,7.61409829 6.87066504,7.68923081 6.78848921,7.74964029 C6.71223022,7.80863309 6.73381295,7.85467626 6.63453237,7.89352518 C6.57488847,7.90842053 6.51700619,7.92964403 6.4618705,7.95683453 L6.4618705,6.51798561 C6.46330935,6.59856115 6.85035971,6.68920863 6.97266187,6.78561151 Z" id="_Path_2"></path>
                            <path d="M6.01870504,0.105035971 C2.73042548,0.105035971 0.0647482014,2.77071324 0.0647482014,6.05899281 C0.0647482014,9.34727237 2.73042548,12.0129496 6.01870504,12.0129496 C9.3069846,12.0129496 11.9726619,9.34727237 11.9726619,6.05899281 C11.9726619,4.47990527 11.3453718,2.96549306 10.2287883,1.84890955 C9.11220479,0.732326051 7.59779257,0.105035971 6.01870504,0.105035971 L6.01870504,0.105035971 Z M8.02158273,7.68345324 C7.95784359,7.86534489 7.8568965,8.03195659 7.72517986,8.17266187 C7.60725792,8.34878076 7.45140964,8.49627124 7.26906475,8.60431655 C7.01427524,8.72191878 6.74220504,8.79770976 6.46330935,8.82877698 L6.46330935,9.31510791 L5.7971223,9.31510791 L5.7971223,8.82589928 C5.31149443,8.77701467 4.85275833,8.57955214 4.48345324,8.26043165 C4.16834532,7.95539568 3.98417266,7.54100719 3.9323741,6.87194245 L4.98848921,6.87194245 C4.95315163,7.38316227 5.29586932,7.84378462 5.79568345,7.95683453 L5.79568345,6.39280576 C5.79568345,6.38273381 5.73381295,6.37122302 5.69064748,6.35827338 C5.64748201,6.34532374 5.6,6.3352518 5.54676259,6.32374101 C5.36115108,6.27482014 5.17841727,6.21438849 5,6.14820144 C4.82573801,6.08377627 4.66261789,5.99250668 4.51654676,5.87769784 C4.37660616,5.767084 4.26265341,5.62709895 4.18273381,5.4676259 C4.09141526,5.27196825 4.0475412,5.05752765 4.05467626,4.84172662 C4.04963996,4.60913304 4.0989058,4.37856889 4.19856115,4.16834532 C4.2921096,3.98050637 4.42337899,3.81397058 4.58417266,3.67913669 C4.74960681,3.54397275 4.93830591,3.4401151 5.14100719,3.37266187 C5.35222252,3.2992999 5.57249932,3.25524454 5.79568345,3.24172662 L5.79568345,2.66618705 L6.4618705,2.66618705 L6.4618705,3.24172662 C6.4618705,3.2647482 6.78129496,3.31510791 6.97985612,3.38561151 C7.15193263,3.45497537 7.30918412,3.55655398 7.44316547,3.68489209 C7.58531091,3.78549605 7.70126201,3.91871646 7.78129496,4.07338129 C7.86660417,4.25699639 7.91220205,4.45654845 7.91510791,4.65899281 L6.85323741,4.65899281 C6.85323741,4.43741007 6.90071942,4.37122302 6.77985612,4.23741007 C6.696761,4.15209182 6.58077788,4.10695812 6.4618705,4.11366906 L6.4618705,5.43884892 C6.4618705,5.45467626 6.4618705,5.46906475 6.5294964,5.48489209 C6.5971223,5.50071942 6.60143885,5.51798561 6.67338129,5.5381295 C6.9675909,5.60555215 7.24636604,5.72809604 7.49496403,5.89928058 C7.66885603,6.02158451 7.81577622,6.17829937 7.92661871,6.35971223 C8.01470019,6.50573083 8.06970779,6.66928022 8.08776978,6.83884892 C8.10279978,6.98223493 8.11000471,7.12633348 8.10935252,7.2705036 C8.10069939,7.41220668 8.07112237,7.55184899 8.02158273,7.68489209 L8.02158273,7.68345324 Z" id="_Compound_Path_2"></path>
                        </g>
                    </g>
                    <path d="M68.9683453,2.58992806 L68.9683453,9.64028777 L69.352518,9.64028777 C69.4699935,9.64546819 69.5871055,9.62381725 69.694964,9.57697842 C69.7938153,9.52190449 69.8789158,9.44516641 69.9438849,9.35251799 L71.8460432,6.81582734 C71.9313153,6.69817693 72.0407039,6.60007055 72.1669065,6.52805755 C72.3073981,6.45626535 72.4639153,6.42159383 72.6215827,6.42733813 L74.723741,6.42733813 L72.2561151,9.56115108 C72.0746225,9.81040051 71.8445909,10.0203655 71.5798561,10.1784173 C71.7052011,10.2652241 71.8175927,10.3693801 71.9136691,10.4877698 C72.0135797,10.6126948 72.1053748,10.7438994 72.1884892,10.8805755 L74.8503597,15.028777 L72.781295,15.028777 C72.6237752,15.0327543 72.4672411,15.0028215 72.3223022,14.9410072 C72.1854648,14.8736827 72.0743267,14.7635549 72.0057554,14.6273381 L70.0719424,11.4633094 C70.0186873,11.355018 69.9345815,11.2649047 69.8302158,11.2043165 C69.7104475,11.1589506 69.5825857,11.138865 69.4546763,11.1453237 L68.971223,11.1453237 L68.971223,15.0302158 L66.6690647,15.0302158 L66.6690647,2.58992806 L68.9683453,2.58992806 Z" id="Shape" fill="#272727"></path>
                    <path d="M78.4172662,3.97841727 C78.4189498,4.1656204 78.3791476,4.35087251 78.3007194,4.52086331 C78.2233677,4.68601231 78.1165901,4.83569594 77.9856115,4.96258993 C77.8535265,5.09160118 77.697643,5.19373179 77.5266187,5.26330935 C77.3475929,5.33621742 77.1558851,5.3728962 76.9625899,5.37122302 C76.7777351,5.3722853 76.5946129,5.33556292 76.4244604,5.26330935 C76.2577552,5.19281364 76.1062841,5.09069281 75.9784173,4.96258993 C75.8505469,4.83526919 75.7471525,4.68554237 75.6733813,4.52086331 C75.5975858,4.35016219 75.5593137,4.16518038 75.5611511,3.97841727 C75.5595817,3.7902876 75.5978291,3.60395411 75.6733813,3.43165468 C75.7464286,3.26529334 75.8498778,3.11402337 75.9784173,2.98561151 C76.1063536,2.85759286 76.2578072,2.75548379 76.4244604,2.68489209 C76.5946368,2.61271611 76.7777429,2.57599698 76.9625899,2.57697842 C77.1558782,2.57538136 77.3475712,2.61205732 77.5266187,2.68489209 C77.697592,2.75456684 77.8534578,2.85668584 77.9856115,2.98561151 C78.1162395,3.11382063 78.2220884,3.26503331 78.2978417,3.43165468 C78.3770278,3.60302525 78.4177877,3.78963688 78.4172662,3.97841727 Z M78.142446,6.42446043 L78.142446,15.028777 L75.8402878,15.028777 L75.8402878,6.42302158 L78.142446,6.42446043 Z" id="Shape" fill="#272727"></path>
                    <path d="M83.0791367,15.1611511 C82.726759,15.1673343 82.3761994,15.109314 82.0446043,14.9899281 C81.4643075,14.7819099 81.0117819,14.3187741 80.8172662,13.7338129 C80.7071204,13.4056772 80.6535991,13.0611947 80.6589928,12.7151079 L80.6589928,8.07625899 L79.8561151,8.07625899 C79.7326778,8.08193953 79.612893,8.03354753 79.5280403,7.94371971 C79.4431875,7.85389189 79.4016916,7.73154695 79.4143885,7.60863309 L79.4143885,6.70647482 L80.7913669,6.45611511 L81.2589928,4.22733813 C81.3048015,3.98844394 81.526588,3.8249234 81.7683453,3.85179856 L82.9697842,3.85179856 L82.9697842,6.47482014 L85.1798561,6.47482014 L85.1798561,8.07625899 L82.9625899,8.07625899 L82.9625899,12.5654676 C82.951039,12.7687137 83.0116836,12.9695035 83.1338129,13.1323741 C83.254751,13.2744775 83.4352898,13.3516991 83.6215827,13.3410072 C83.7188669,13.3435618 83.815955,13.3309404 83.9093525,13.3035971 C83.9785159,13.2821878 84.0454846,13.254244 84.1093525,13.2201439 L84.2633094,13.1366906 C84.3074954,13.1126554 84.3568969,13.0998111 84.4071942,13.0992806 C84.4662371,13.0971306 84.5245109,13.1132061 84.5741007,13.1453237 C84.6286026,13.1871239 84.6741142,13.2394868 84.7079137,13.2992806 L85.4,14.4014388 C85.0759743,14.653152 84.7088406,14.8437886 84.3165468,14.9640288 C83.9167445,15.0932981 83.4993159,15.1597954 83.0791367,15.1611511 Z" id="Shape" fill="#272727"></path>
                </g>
            </g>
        </g>
    </g>
</svg>