<?xml version="1.0" encoding="UTF-8"?>
<svg width="123px" height="20px" viewBox="0 0 123 20" version="1.1" xmlns="http://www.w3.org/2000/svg" xmlns:xlink="http://www.w3.org/1999/xlink">
    <!-- Generator: sketchtool 42 (36781) - http://www.bohemiancoding.com/sketch -->
    <title>03BD158D-5023-465B-ACF6-D33694F85212</title>
    <desc>Created with sketchtool.</desc>
    <defs></defs>
    <g id="Symbols" stroke="none" stroke-width="1" fill="none" fill-rule="evenodd">
        <g id="Logo:-Joyful-Home" fill-rule="nonzero">
            <g id="Joyful-Home_Logo">
                <g id="Layer_1">
                    <g id="Group">
                        <g transform="translate(0.000000, 1.132075)" id="Shape" fill="#000000">
                            <path d="M4.94339623,4.77358491 L4.94339623,15.2830189 C4.94339623,15.754717 4.88679245,16.1886792 4.75471698,16.6037736 C4.64150943,17.0188679 4.43396226,17.3773585 4.16981132,17.6792453 C3.90566038,17.9811321 3.54716981,18.2264151 3.11320755,18.4150943 C2.67924528,18.6037736 2.13207547,18.6792453 1.49056604,18.6792453 C1.24528302,18.6792453 1.01886792,18.6603774 0.811320755,18.6226415 C0.603773585,18.5849057 0.377358491,18.5471698 0.169811321,18.490566 L0.264150943,17.0377358 C0.283018868,16.9056604 0.320754717,16.8113208 0.41509434,16.754717 C0.490566038,16.6981132 0.660377358,16.6792453 0.905660377,16.6792453 C1.1509434,16.6792453 1.35849057,16.6603774 1.50943396,16.6226415 C1.66037736,16.5849057 1.79245283,16.509434 1.88679245,16.3962264 C1.98113208,16.2830189 2.05660377,16.1509434 2.09433962,15.9622642 C2.13207547,15.7924528 2.1509434,15.5660377 2.1509434,15.3018868 L2.1509434,4.77358491 L4.94339623,4.77358491 Z M5.28301887,1.8490566 C5.28301887,2.0754717 5.24528302,2.30188679 5.1509434,2.49056604 C5.05660377,2.69811321 4.9245283,2.86792453 4.77358491,3.01886792 C4.62264151,3.16981132 4.43396226,3.28301887 4.22641509,3.37735849 C4.01886792,3.47169811 3.79245283,3.50943396 3.54716981,3.50943396 C3.32075472,3.50943396 3.11320755,3.47169811 2.90566038,3.37735849 C2.69811321,3.28301887 2.52830189,3.16981132 2.37735849,3.01886792 C2.22641509,2.86792453 2.09433962,2.69811321 2.01886792,2.49056604 C1.94339623,2.28301887 1.86792453,2.0754717 1.86792453,1.8490566 C1.86792453,1.62264151 1.90566038,1.39622642 2,1.18867925 C2.09433962,0.981132075 2.20754717,0.811320755 2.35849057,0.660377358 C2.50943396,0.509433962 2.69811321,0.396226415 2.88679245,0.301886792 C3.09433962,0.20754717 3.30188679,0.169811321 3.52830189,0.169811321 C3.77358491,0.169811321 4,0.20754717 4.20754717,0.301886792 C4.41509434,0.396226415 4.60377358,0.509433962 4.75471698,0.660377358 C4.90566038,0.811320755 5.03773585,1 5.13207547,1.18867925 C5.22641509,1.39622642 5.28301887,1.60377358 5.28301887,1.8490566 Z"></path>
                            <path d="M11.9622642,4.60377358 C12.7358491,4.60377358 13.4339623,4.73584906 14.0754717,4.98113208 C14.7169811,5.22641509 15.245283,5.58490566 15.6981132,6.03773585 C16.1509434,6.49056604 16.509434,7.05660377 16.754717,7.69811321 C17,8.35849057 17.1320755,9.09433962 17.1320755,9.90566038 C17.1320755,10.7169811 17,11.4716981 16.754717,12.1132075 C16.509434,12.7735849 16.1509434,13.3207547 15.6981132,13.7924528 C15.245283,14.245283 14.6981132,14.6037736 14.0754717,14.8490566 C13.4339623,15.0943396 12.7358491,15.2264151 11.9622642,15.2264151 C11.1886792,15.2264151 10.4716981,15.0943396 9.83018868,14.8490566 C9.18867925,14.6037736 8.64150943,14.245283 8.18867925,13.7924528 C7.73584906,13.3396226 7.37735849,12.7735849 7.13207547,12.1132075 C6.88679245,11.4528302 6.75471698,10.7169811 6.75471698,9.90566038 C6.75471698,9.09433962 6.88679245,8.35849057 7.13207547,7.69811321 C7.37735849,7.03773585 7.73584906,6.49056604 8.18867925,6.03773585 C8.64150943,5.58490566 9.18867925,5.22641509 9.83018868,4.98113208 C10.4716981,4.73584906 11.1698113,4.60377358 11.9622642,4.60377358 Z M11.9622642,13.1509434 C12.754717,13.1509434 13.3396226,12.8867925 13.7169811,12.3396226 C14.0943396,11.7924528 14.2830189,10.9811321 14.2830189,9.90566038 C14.2830189,8.83018868 14.0943396,8.03773585 13.7169811,7.49056604 C13.3396226,6.94339623 12.754717,6.67924528 11.9622642,6.67924528 C11.1509434,6.67924528 10.5660377,6.94339623 10.1886792,7.49056604 C9.81132075,8.03773585 9.62264151,8.83018868 9.62264151,9.90566038 C9.62264151,10.9811321 9.81132075,11.7924528 10.1886792,12.3396226 C10.5660377,12.8867925 11.1509434,13.1509434 11.9622642,13.1509434 Z"></path>
                            <path d="M28.0377358,4.77358491 L22.4716981,17.8490566 C22.3773585,18.0377358 22.2830189,18.1698113 22.1509434,18.2641509 C22.0188679,18.3584906 21.8301887,18.3962264 21.5660377,18.3962264 L19.509434,18.3962264 L21.4528302,14.245283 L17.3396226,4.77358491 L19.754717,4.77358491 C19.9811321,4.77358491 20.1509434,4.83018868 20.2641509,4.9245283 C20.3773585,5.01886792 20.4716981,5.13207547 20.5283019,5.28301887 L22.490566,10.2075472 C22.5660377,10.3962264 22.6226415,10.6037736 22.6792453,10.7924528 C22.7358491,10.9811321 22.7924528,11.1886792 22.8490566,11.3773585 C22.9622642,10.9811321 23.1132075,10.5849057 23.2641509,10.1886792 L25.0754717,5.26415094 C25.1320755,5.11320755 25.2264151,5 25.3584906,4.90566038 C25.490566,4.81132075 25.6603774,4.77358491 25.8113208,4.77358491 L28.0377358,4.77358491 Z"></path>
                            <path d="M29.8679245,15.0754717 L29.8679245,6.75471698 L29.0754717,6.62264151 C28.8679245,6.58490566 28.6981132,6.50943396 28.5660377,6.39622642 C28.4339623,6.28301887 28.3773585,6.13207547 28.3773585,5.94339623 L28.3773585,4.8490566 L29.8867925,4.8490566 L29.8867925,4.1509434 C29.8867925,3.56603774 29.9811321,3.03773585 30.1698113,2.54716981 C30.3584906,2.0754717 30.6226415,1.66037736 30.9622642,1.33962264 C31.3018868,1.01886792 31.7169811,0.754716981 32.2075472,0.566037736 C32.6981132,0.377358491 33.2641509,0.301886792 33.8867925,0.301886792 C34.1320755,0.301886792 34.3584906,0.320754717 34.5660377,0.339622642 C34.7735849,0.377358491 35,0.41509434 35.2264151,0.471698113 L35.1698113,1.83018868 C35.1509434,2.03773585 35.0754717,2.16981132 34.9056604,2.22641509 C34.7358491,2.28301887 34.5660377,2.32075472 34.3584906,2.32075472 C34.0754717,2.32075472 33.8301887,2.35849057 33.6037736,2.41509434 C33.3773585,2.47169811 33.1886792,2.58490566 33.0377358,2.71698113 C32.8867925,2.86792453 32.7735849,3.05660377 32.6792453,3.30188679 C32.6037736,3.54716981 32.5660377,3.8490566 32.5660377,4.20754717 L32.5660377,4.81132075 L35.0943396,4.81132075 L35.0943396,6.73584906 L32.6226415,6.73584906 L32.6226415,15.0566038 L29.8679245,15.0566038 L29.8679245,15.0754717 Z"></path>
                            <path d="M45.4150943,4.77358491 L45.4150943,15.0754717 L43.7169811,15.0754717 C43.3584906,15.0754717 43.1320755,14.9245283 43.0377358,14.6037736 L42.8490566,13.8867925 C42.6415094,14.0943396 42.4339623,14.2641509 42.2075472,14.4339623 C41.9811321,14.6037736 41.754717,14.7358491 41.509434,14.8679245 C41.2641509,15 40.9811321,15.0754717 40.6981132,15.1509434 C40.4150943,15.2264151 40.0943396,15.245283 39.754717,15.245283 C39.1886792,15.245283 38.6981132,15.1509434 38.2641509,14.9622642 C37.8301887,14.7735849 37.4716981,14.490566 37.1698113,14.1509434 C36.8679245,13.8113208 36.6603774,13.3962264 36.490566,12.9056604 C36.3396226,12.4339623 36.2641509,11.9056604 36.2641509,11.3207547 L36.2641509,4.77358491 L39.0188679,4.77358491 L39.0188679,11.3207547 C39.0188679,11.8867925 39.1509434,12.3396226 39.4150943,12.6603774 C39.6792453,12.9811321 40.0754717,13.1320755 40.5849057,13.1320755 C40.9622642,13.1320755 41.3396226,13.0377358 41.6792453,12.8679245 C42.0188679,12.6981132 42.3396226,12.4716981 42.6415094,12.1698113 L42.6415094,4.77358491 L45.4150943,4.77358491 Z"></path>
                            <polygon points="50.4716981 0.169811321 50.4716981 15.0754717 47.7169811 15.0754717 47.7169811 0.169811321 50.4716981 0.169811321"></polygon>
                        </g>
                        <g transform="translate(73.207547, 1.320755)" id="Shape" fill="#000000">
                            <g transform="translate(0.000000, 0.188679)">
                                <path d="M1.0754717,6.43396226 C1.52830189,5.86792453 2.05660377,5.43396226 2.64150943,5.09433962 C3.22641509,4.75471698 3.88679245,4.60377358 4.62264151,4.60377358 C5.16981132,4.60377358 5.64150943,4.69811321 6.0754717,4.86792453 C6.49056604,5.03773585 6.83018868,5.28301887 7.11320755,5.62264151 C7.37735849,5.94339623 7.58490566,6.33962264 7.73584906,6.81132075 C7.88679245,7.28301887 7.94339623,7.79245283 7.94339623,8.37735849 L7.94339623,14.7358491 L6.98113208,14.7358491 L6.98113208,8.33962264 C6.98113208,7.41509434 6.77358491,6.67924528 6.33962264,6.1509434 C5.90566038,5.62264151 5.26415094,5.35849057 4.39622642,5.35849057 C3.75471698,5.35849057 3.1509434,5.52830189 2.58490566,5.8490566 C2.01886792,6.16981132 1.52830189,6.64150943 1.0754717,7.22641509 L1.0754717,14.6981132 L0.113207547,14.6981132 L0.113207547,0.150943396 L1.0754717,0.150943396 L1.0754717,6.43396226 Z"></path>
                                <path d="M15.0566038,4.58490566 C15.7735849,4.58490566 16.4150943,4.69811321 16.9622642,4.94339623 C17.5283019,5.18867925 18,5.52830189 18.3962264,5.98113208 C18.7735849,6.43396226 19.0754717,6.96226415 19.2830189,7.60377358 C19.490566,8.22641509 19.5849057,8.94339623 19.5849057,9.71698113 C19.5849057,10.490566 19.490566,11.2075472 19.2830189,11.8301887 C19.0754717,12.4528302 18.7924528,13 18.3962264,13.4339623 C18.0188679,13.8867925 17.5283019,14.2264151 16.9622642,14.4716981 C16.3962264,14.7169811 15.754717,14.8301887 15.0566038,14.8301887 C14.3396226,14.8301887 13.6981132,14.7169811 13.1509434,14.4716981 C12.5849057,14.2264151 12.1132075,13.8867925 11.7169811,13.4339623 C11.3207547,12.9811321 11.0377358,12.4528302 10.8301887,11.8301887 C10.6226415,11.2075472 10.5283019,10.509434 10.5283019,9.71698113 C10.5283019,8.94339623 10.6226415,8.22641509 10.8301887,7.60377358 C11.0377358,6.98113208 11.3207547,6.43396226 11.7169811,5.98113208 C12.1132075,5.52830189 12.5849057,5.18867925 13.1509434,4.94339623 C13.7169811,4.71698113 14.3396226,4.58490566 15.0566038,4.58490566 Z M15.0566038,14.0754717 C15.6415094,14.0754717 16.1698113,13.9811321 16.6037736,13.7735849 C17.0377358,13.5660377 17.4150943,13.2830189 17.7169811,12.9056604 C18.0188679,12.5283019 18.2264151,12.0754717 18.3773585,11.5283019 C18.5283019,11 18.6037736,10.3962264 18.6037736,9.71698113 C18.6037736,9.05660377 18.5283019,8.45283019 18.3773585,7.9245283 C18.2264151,7.37735849 18,6.9245283 17.7169811,6.54716981 C17.4150943,6.16981132 17.0566038,5.86792453 16.6037736,5.66037736 C16.1509434,5.45283019 15.6415094,5.35849057 15.0566038,5.35849057 C14.4716981,5.35849057 13.9433962,5.45283019 13.509434,5.66037736 C13.0754717,5.86792453 12.6981132,6.16981132 12.3962264,6.54716981 C12.0943396,6.9245283 11.8679245,7.39622642 11.7169811,7.9245283 C11.5660377,8.47169811 11.490566,9.05660377 11.490566,9.71698113 C11.490566,10.3773585 11.5660377,10.9811321 11.7169811,11.5283019 C11.8679245,12.0566038 12.0943396,12.5283019 12.3962264,12.9056604 C12.6981132,13.2830189 13.0566038,13.5849057 13.509434,13.7735849 C13.9433962,13.9811321 14.4716981,14.0754717 15.0566038,14.0754717 Z"></path>
                                <path d="M22.2830189,14.6981132 L22.2830189,4.75471698 L22.8113208,4.75471698 C22.9811321,4.75471698 23.0754717,4.83018868 23.0943396,5 L23.1886792,6.43396226 C23.5660377,5.88679245 24.0188679,5.43396226 24.509434,5.09433962 C25,4.75471698 25.5660377,4.58490566 26.2075472,4.58490566 C26.9433962,4.58490566 27.509434,4.79245283 27.9433962,5.20754717 C28.3773585,5.62264151 28.6792453,6.20754717 28.8301887,6.96226415 C28.9433962,6.54716981 29.1132075,6.20754717 29.3396226,5.90566038 C29.5471698,5.60377358 29.8113208,5.35849057 30.0754717,5.16981132 C30.3584906,4.98113208 30.6603774,4.83018868 30.9811321,4.73584906 C31.3018868,4.64150943 31.6415094,4.60377358 32,4.60377358 C32.490566,4.60377358 32.9433962,4.67924528 33.3207547,4.8490566 C33.7169811,5.01886792 34.0566038,5.24528302 34.3207547,5.56603774 C34.5849057,5.88679245 34.8113208,6.28301887 34.9433962,6.75471698 C35.0943396,7.22641509 35.1698113,7.75471698 35.1698113,8.35849057 L35.1698113,14.7169811 L34.2264151,14.7169811 L34.2264151,8.33962264 C34.2264151,7.35849057 34.0188679,6.62264151 33.6037736,6.11320755 C33.1886792,5.60377358 32.5849057,5.33962264 31.8113208,5.33962264 C31.4716981,5.33962264 31.1320755,5.39622642 30.8113208,5.52830189 C30.490566,5.66037736 30.2075472,5.8490566 29.9622642,6.09433962 C29.7169811,6.33962264 29.5283019,6.66037736 29.3773585,7.03773585 C29.2264151,7.41509434 29.1698113,7.8490566 29.1698113,8.33962264 L29.1698113,14.6981132 L28.2075472,14.6981132 L28.2075472,8.33962264 C28.2075472,7.37735849 28.0188679,6.64150943 27.6415094,6.11320755 C27.2641509,5.60377358 26.6981132,5.33962264 25.9622642,5.33962264 C25.4150943,5.33962264 24.9245283,5.49056604 24.4528302,5.81132075 C24,6.13207547 23.5849057,6.56603774 23.2264151,7.13207547 L23.2264151,14.6792453 L22.2830189,14.6792453 L22.2830189,14.6981132 Z"></path>
                                <path d="M38.7169811,9.33962264 L38.7169811,9.52830189 C38.7169811,10.2830189 38.8113208,10.9245283 38.9811321,11.490566 C39.1509434,12.0566038 39.3962264,12.5283019 39.7169811,12.9245283 C40.0377358,13.3018868 40.4150943,13.6037736 40.8679245,13.7924528 C41.3207547,13.9811321 41.8301887,14.0754717 42.3962264,14.0754717 C42.9056604,14.0754717 43.3207547,14.0188679 43.6981132,13.9056604 C44.0754717,13.7924528 44.3773585,13.6792453 44.6226415,13.5283019 C44.8679245,13.3962264 45.0754717,13.2641509 45.2264151,13.1509434 C45.3773585,13.0377358 45.4716981,12.9811321 45.5471698,12.9811321 C45.6415094,12.9811321 45.6981132,13.0188679 45.754717,13.0754717 L46.0188679,13.3962264 C45.8679245,13.6037736 45.6415094,13.7735849 45.3773585,13.9622642 C45.1132075,14.1320755 44.8113208,14.2830189 44.490566,14.4150943 C44.1698113,14.5471698 43.8113208,14.6415094 43.4528302,14.7169811 C43.0754717,14.7924528 42.7169811,14.8301887 42.3396226,14.8301887 C41.6603774,14.8301887 41.0377358,14.7169811 40.4716981,14.4716981 C39.9056604,14.2264151 39.4339623,13.8867925 39.0377358,13.4339623 C38.6415094,12.9811321 38.3207547,12.4339623 38.1132075,11.7735849 C37.9056604,11.1132075 37.7924528,10.3584906 37.7924528,9.50943396 C37.7924528,8.79245283 37.8867925,8.13207547 38.0943396,7.52830189 C38.3018868,6.9245283 38.5849057,6.39622642 38.9811321,5.96226415 C39.3584906,5.52830189 39.8301887,5.18867925 40.3962264,4.94339623 C40.9433962,4.69811321 41.5849057,4.56603774 42.2830189,4.56603774 C42.8490566,4.56603774 43.3584906,4.66037736 43.8490566,4.8490566 C44.3207547,5.03773585 44.754717,5.32075472 45.0943396,5.69811321 C45.4528302,6.0754717 45.7169811,6.52830189 45.9245283,7.05660377 C46.1320755,7.60377358 46.2264151,8.20754717 46.2264151,8.9245283 C46.2264151,9.0754717 46.2075472,9.16981132 46.1698113,9.22641509 C46.1320755,9.28301887 46.0566038,9.30188679 45.9622642,9.30188679 L38.7169811,9.30188679 L38.7169811,9.33962264 Z M45.3584906,8.71698113 C45.3584906,8.18867925 45.2830189,7.69811321 45.1320755,7.28301887 C44.9811321,6.86792453 44.7735849,6.50943396 44.490566,6.20754717 C44.2264151,5.90566038 43.8867925,5.69811321 43.509434,5.52830189 C43.1320755,5.37735849 42.7169811,5.30188679 42.2641509,5.30188679 C41.754717,5.30188679 41.2830189,5.37735849 40.8867925,5.54716981 C40.4716981,5.69811321 40.1320755,5.94339623 39.8301887,6.24528302 C39.5283019,6.54716981 39.3018868,6.90566038 39.1132075,7.32075472 C38.9245283,7.73584906 38.8113208,8.20754717 38.754717,8.73584906 L45.3584906,8.73584906 L45.3584906,8.71698113 Z"></path>
                            </g>
                            <g transform="translate(45.471698, 0.000000)">
                                <polygon points="1.56603774 0.358490566 0.943396226 0.358490566 0.943396226 2.03773585 0.679245283 2.03773585 0.679245283 0.358490566 0.0566037736 0.358490566 0.0566037736 0.132075472 1.54716981 0.132075472 1.54716981 0.358490566"></polygon>
                                <path d="M3.81132075,0.132075472 L3.81132075,2.01886792 L3.58490566,2.01886792 L3.58490566,0.622641509 L3.58490566,0.566037736 L3.58490566,0.509433962 L2.94339623,1.69811321 C2.9245283,1.73584906 2.88679245,1.75471698 2.8490566,1.75471698 L2.81132075,1.75471698 C2.77358491,1.75471698 2.73584906,1.73584906 2.71698113,1.69811321 L2.05660377,0.509433962 L2.05660377,0.641509434 L2.05660377,2.03773585 L1.83018868,2.03773585 L1.83018868,0.150943396 L2.01886792,0.150943396 L2.0754717,0.150943396 C2.09433962,0.150943396 2.09433962,0.169811321 2.11320755,0.188679245 L2.77358491,1.35849057 C2.79245283,1.37735849 2.79245283,1.39622642 2.81132075,1.43396226 C2.83018868,1.45283019 2.83018868,1.47169811 2.8490566,1.50943396 C2.8490566,1.49056604 2.86792453,1.45283019 2.86792453,1.43396226 C2.88679245,1.41509434 2.88679245,1.39622642 2.90566038,1.35849057 L3.54716981,0.188679245 C3.56603774,0.169811321 3.56603774,0.150943396 3.58490566,0.150943396 L3.64150943,0.150943396 L3.81132075,0.150943396 L3.81132075,0.132075472 Z"></path>
                            </g>
                        </g>
                        <path d="M71.6981132,9.86792453 C71.6981132,15.3207547 67.2830189,19.7358491 61.8301887,19.7358491 C56.3773585,19.7358491 51.9622642,15.3207547 51.9622642,9.86792453 C51.9622642,4.41509434 56.3773585,0 61.8301887,0 C67.2830189,0 71.6981132,4.41509434 71.6981132,9.86792453 Z M56.1886792,11.1132075 L61.8679245,6.45283019 L67.5660377,11.1132075 L68.3962264,9.96226415 L61.8679245,4.54716981 L55.2830189,9.96226415 L56.1886792,11.1132075 Z M57.5283019,15.1698113 L60.7924528,15.1698113 L60.7924528,10.8867925 L62.9056604,10.8867925 L62.9056604,15.1698113 L66.2075472,15.1698113 L66.2075472,10.5849057 L61.8490566,7.05660377 L57.5471698,10.5849057 L57.5471698,15.1698113 L57.5283019,15.1698113 Z M61.1320755,15.1698113 L62.5283019,15.1698113 L62.5283019,12.0188679 L61.1320755,11.2641509 L61.1320755,15.1698113 Z" id="Shape" fill="#43B149"></path>
                    </g>
                </g>
            </g>
        </g>
    </g>
</svg>