<?xml version="1.0" encoding="UTF-8"?>
<svg width="170px" height="14px" viewBox="0 0 170 14" version="1.1" xmlns="http://www.w3.org/2000/svg" xmlns:xlink="http://www.w3.org/1999/xlink">
    <!-- Generator: sketchtool 42 (36781) - http://www.bohemiancoding.com/sketch -->
    <title>CF935B7B-3499-41C4-819C-92AF259782A1</title>
    <desc>Created with sketchtool.</desc>
    <defs></defs>
    <g id="Symbols" stroke="none" stroke-width="1" fill="none" fill-rule="evenodd">
        <g id="Logo:-The-Morning-Call" transform="translate(0.000000, -3.000000)" fill-rule="nonzero" fill="#519DC6">
            <g transform="translate(0.000000, 3.000000)" id="Shape">
                <path d="M35.952761,10.201625 L35.4560728,13.4983333 L25.889909,13.4983333 L25.889909,12.9733333 L26.1623324,12.9733333 C26.8647629,12.9733333 27.139181,12.6125417 27.139181,11.9233333 L27.139181,1.96875 C27.139181,1.27983333 26.8647629,0.91875 26.1623324,0.91875 L25.889909,0.91875 L25.889909,0.377416667 L34.9268989,0.377416667 L35.4557878,3.822 L35.0391739,3.822 C34.2669277,2.10029167 33.4120426,1.16491667 32.0442265,1.16491667 L30.6678616,1.16491667 C30.4085465,1.16491667 30.2689152,1.26408333 30.2689152,1.49245833 L30.2689152,6.33120833 L30.8616355,6.33120833 C32.2009555,6.33120833 33.0900359,5.68370833 33.0900359,4.55933333 L33.0900359,4.39541667 L33.5716212,4.39541667 L33.5716212,9.10233333 L33.0900359,9.10233333 L33.0900359,8.90545833 C33.0900359,7.781375 32.1981058,7.084875 30.8636303,7.084875 L30.27091,7.084875 L30.27091,12.3990417 C30.27091,12.6265417 30.411966,12.7432083 30.6718511,12.7432083 L31.9157088,12.7432083 C33.9018918,12.7432083 34.7470881,11.8944583 35.5204741,10.2027917 L35.9536159,10.2027917 L35.952761,10.201625 Z M25.2769564,13.4983333 L19.5563506,13.4983333 L19.5563506,12.9733333 L19.828489,12.9733333 C20.5317744,12.9733333 20.8059076,12.6291667 20.8059076,11.9233333 L20.8059076,7.26541667 L16.5443056,7.26541667 L16.5443056,11.9233333 C16.5443056,12.6291667 16.8190086,12.9733333 17.5217241,12.9733333 L17.7944325,12.9733333 L17.7944325,13.4983333 L12.0894995,13.4983333 L12.0894995,12.9733333 L12.4257543,12.9733333 C13.1276149,12.9733333 13.4194157,12.62975 13.4194157,11.9233333 L13.4194157,1.96875 C13.4194157,1.26233333 13.1287548,0.91875 12.4260393,0.91875 L12.0738266,0.91875 L12.0738266,0.377416667 L17.7944325,0.377416667 L17.7944325,0.91875 L17.6177562,0.91875 C16.9158956,0.91875 16.5443056,1.36120833 16.5443056,2.06675 L16.5443056,6.4295 L20.8064775,6.4295 L20.8064775,1.96875 C20.8064775,1.26291667 20.5323443,0.91875 19.8290589,0.91875 L19.5398228,0.91875 L19.5398228,0.378 L25.2604286,0.378 L25.2604286,0.91875 L25.0358788,0.91875 C24.3320235,0.91875 23.9464703,1.34458333 23.9464703,2.05041667 L23.9464703,11.9233333 C23.9464703,12.6300417 24.268477,12.9733333 24.9723324,12.9733333 L25.2766715,12.9733333 L25.2766715,13.4983333 L25.2769564,13.4983333 Z M11.9128233,3.80508333 L11.4326628,3.80508333 C10.5002682,1.94716667 9.70494013,1.164625 8.11570881,1.164625 L7.65065134,1.164625 L7.65065134,11.9233333 C7.65065134,12.62975 7.94131226,12.9733333 8.64431274,12.9733333 L8.98056753,12.9733333 L8.98056753,13.4983333 L3.14740182,13.4983333 L3.14740182,12.9733333 L3.5321001,12.9733333 C4.23510057,12.9733333 4.50951868,12.5985417 4.50951868,11.9233333 L4.50951868,1.16491667 L4.04503113,1.16491667 C2.45579981,1.16491667 1.67699952,1.94804167 0.744034962,3.805375 L0.279262452,3.805375 L0.824394157,0.377416667 L11.3679765,0.377416667 L11.9128233,3.80508333 L11.9128233,3.80508333 Z"></path>
                <path d="M28.2132016,11.72675 L28.2132016,2.14841667 C28.2132016,1.34458333 27.7002706,1.01675 27.1716667,0.918166667 L27.1075503,0.918166667 C27.3640158,1.11475 27.5079215,1.41020833 27.5079215,1.91858333 L27.5079215,11.9723333 C27.5079215,12.5469167 27.3454933,12.7744167 27.1075503,12.97275 L27.1716667,12.97275 C27.652397,12.8753333 28.2132016,12.5629583 28.2132016,11.72675 Z M21.8158118,11.72675 L21.8158118,2.14841667 C21.8158118,1.34458333 21.3028807,1.01675 20.7742768,0.918166667 L20.7101604,0.918166667 C20.966626,1.11475 21.1108166,1.41020833 21.1108166,1.91858333 L21.1108166,11.9723333 C21.1108166,12.5469167 20.9483884,12.7744167 20.7101604,12.97275 L20.7742768,12.97275 C21.2544373,12.8753333 21.8158118,12.5629583 21.8158118,11.72675 Z M14.42875,11.72675 L14.42875,2.14841667 C14.42875,1.34458333 13.915819,1.01675 13.387215,0.918166667 L13.3216739,0.918166667 C13.5781394,1.11475 13.7206202,1.41020833 13.7206202,1.91858333 L13.7206202,11.9723333 C13.7206202,12.5469167 13.558192,12.7744167 13.3188242,12.97275 L13.3815158,12.97275 C13.8602514,12.8753333 14.421626,12.5629583 14.421626,11.72675 L14.42875,11.72675 Z M5.51913793,11.6940833 L5.51913793,1.16433333 L4.81414272,1.16433333 L4.81414272,11.9239167 C4.81414272,12.4156667 4.73435345,12.6945 4.39809866,12.9733333 L4.46193008,12.9733333 C4.95833333,12.8584167 5.51913793,12.4812917 5.51913793,11.6940833 Z"></path>
                <path d="M91.0834435,0.984083333 L90.923295,0.984083333 C90.2214344,0.984083333 89.4648611,1.78033333 89.4648611,2.98491667 L89.4648611,13.5811667 L88.7923515,13.66225 L81.0847079,3.54316667 L81.0522222,3.54316667 L81.0522222,10.7765 C81.0522222,12.2085833 81.9051125,13.055875 82.6388889,13.055875 L82.8309531,13.055875 L82.8309531,13.580875 L79.0181657,13.580875 C78.6257735,13.6234583 77.7301389,13.6791667 77.2229071,13.6791667 C75.5558812,13.6791667 74.4579239,13.0229167 73.4249377,11.2186667 L71.3581106,7.61075 L71.2136351,7.61075 L71.2136351,11.9898333 C71.2136351,12.6723333 71.5205388,13.055875 72.2229693,13.055875 L72.4794349,13.055875 L72.4794349,13.580875 L66.8229454,13.580875 L66.8229454,13.055875 L67.1432423,13.055875 C67.7684483,13.055875 68.1206609,12.6504583 68.1206609,11.9898333 L68.1206609,2.034375 C68.1206609,1.35654167 67.8459579,0.984375 67.1432423,0.984375 L66.8226604,0.984375 L66.8226604,0.46025 L72.8478903,0.46025 C75.1731777,0.46025 77.2562476,1.58083333 77.2562476,3.75666667 C77.2562476,5.28791667 76.1164009,6.62958333 74.4037811,7.11870833 L76.680625,10.6945417 C78.034193,12.82225 78.2849593,13.0561667 78.7494468,13.0561667 C79.6128807,13.0561667 80.2084507,12.2056667 80.2084507,10.7765 L80.2084507,2.34558333 C79.7439631,1.656375 79.119897,1.04970833 78.2393654,0.984083333 L78.2393654,0.459083333 L82.6782136,0.459083333 L88.6074114,8.41341667 L88.6245091,8.41341667 L88.6245091,2.98491667 C88.6245091,1.77945833 87.7867217,0.984083333 87.0543702,0.984083333 L86.877694,0.984083333 L86.877694,0.459083333 L91.0922773,0.459083333 L91.0922773,0.984083333 L91.0834435,0.984083333 Z M74.1461758,4.00166667 C74.1461758,2.16066667 73.4953233,1.19729167 71.9827466,1.19729167 C71.2617936,1.19729167 71.2133501,1.24979167 71.2133501,1.50879167 L71.2133501,7.08545833 L71.5501748,7.08545833 C73.0014847,7.08545833 74.1461758,6.25858333 74.1461758,4.00195833 L74.1461758,4.00166667 Z M122.242009,8.67591667 L122.145977,8.67591667 C121.442977,8.67591667 121.168558,9.03933333 121.168558,9.72591667 L121.168558,12.8750417 C118.994871,13.7281667 116.944856,13.8754583 116.200536,13.8754583 C111.989943,13.8754583 109.342364,11.109875 109.342364,6.98716667 C109.342364,3.34891667 111.941214,0.2625 116.038963,0.2625 C117.916861,0.2625 118.931324,0.5775 120.156659,1.21391667 L120.555606,4.8055 L119.979983,4.8055 C119.199188,2.818375 118.626415,1.099 116.164346,1.099 C113.887502,1.099 112.798949,3.44458333 112.798949,7.13445833 C112.798949,10.4157083 113.790615,13.0552917 116.195692,13.0552917 C117.295644,13.0552917 118.053642,12.5740417 118.053642,11.7282083 L118.053642,9.727375 C118.053642,9.044875 117.714538,8.677375 117.010682,8.677375 L116.88245,8.677375 L116.88245,8.152375 L122.23403,8.152375 L122.23403,8.677375 L122.242009,8.67591667 Z"></path>
                <path d="M110.159634,0.984083333 L109.999485,0.984083333 C109.2962,0.984083333 108.47722,1.78033333 108.47722,2.98491667 L108.47722,13.5963333 L107.77194,13.6955 L100.11217,3.52654167 L100.063726,3.52654167 L100.063726,10.777375 C100.063726,12.2852917 100.932859,13.0582083 101.666066,13.0582083 L101.85984,13.0582083 L101.85984,13.586125 L97.4543319,13.586125 L97.4543319,13.0582083 L97.6167601,13.0582083 C98.4118032,13.0582083 99.2182447,12.378625 99.2182447,10.7802917 L99.2182447,2.29541667 C98.5770809,1.491875 98.0385034,0.982916667 97.2491595,0.982916667 L97.2491595,0.457916667 L101.688863,0.457916667 L107.633163,8.39620833 L107.650261,8.39620833 L107.650261,2.98375 C107.650261,1.77829167 106.795376,0.982916667 106.063024,0.982916667 L105.903446,0.982916667 L105.903446,0.457916667 L110.166473,0.457916667 L110.166473,0.982916667 L110.159634,0.984083333 Z M96.7601652,13.5805833 L91.5524904,13.5805833 L91.5524904,13.055 L91.712069,13.055 C92.2477969,13.055 92.5934555,12.9091667 92.5934555,11.98925 L92.5934555,2.03408333 C92.5934555,1.26525 92.3369899,0.984083333 91.7123539,0.984083333 L91.5698731,0.984083333 L91.5698731,0.459958333 L96.7447773,0.459958333 L96.7447773,0.984958333 L96.553853,0.984958333 C95.8984411,0.984958333 95.7217648,1.53270833 95.7217648,2.21520833 L95.7217648,11.9904167 C95.7217648,12.6729167 95.8528472,13.0561667 96.5567026,13.0561667 L96.7647246,13.0561667 L96.7647246,13.5811667 L96.7601652,13.5805833 Z M55.766147,13.5805833 L49.75716,13.5805833 L49.75716,13.055 L50.062069,13.055 C50.7639296,13.055 51.0548755,12.51425 51.0548755,11.6937917 C51.0548755,11.5362917 51.035783,11.0366667 51.0229598,10.7263333 L50.7345785,3.70708333 L50.7026628,3.70708333 L47.1454861,13.580875 L46.4402059,13.580875 L42.7710393,3.88733333 L42.7388386,3.88733333 L42.4823731,10.5460833 C42.4795235,10.6814167 42.468125,11.0734167 42.468125,11.31725 C42.468125,12.52475 43.271717,13.0555833 43.9755723,13.0555833 L44.1209028,13.0555833 L44.1209028,13.5811667 L39.7125455,13.5811667 L39.7125455,13.0555833 L39.872124,13.0555833 C40.6073252,13.0555833 41.3140302,12.429375 41.3938194,11.05475 L41.8440589,3.44516667 C41.8668558,3.07475 41.8754047,2.716 41.8754047,2.39516667 C41.8754047,1.60825 41.2798348,0.984666667 40.578829,0.984666667 L40.4505963,0.984666667 L40.4505963,0.459666667 L44.8732016,0.459666667 L47.9507878,8.77508333 L47.9821336,8.77508333 L50.9166691,0.459666667 L55.2255747,0.459666667 L55.2255747,0.984666667 L55.0488985,0.984666667 C54.3467529,0.984666667 53.8150144,1.58258333 53.8150144,2.88691667 C53.8150144,3.19520833 53.832682,3.73508333 53.8469301,4.00225 L54.2316284,11.202625 C54.3000192,12.462625 54.5878305,13.0547083 55.4968582,13.0547083 L55.7704215,13.0547083 L55.7704215,13.5797083 L55.766147,13.5805833 Z"></path>
                <path d="M119.053003,11.4158333 L119.053003,9.87379167 C119.053003,9.11925 118.412409,8.708875 117.963879,8.67620833 L117.88352,8.67620833 C118.155659,8.88970833 118.348008,9.08629167 118.348008,9.67720833 L118.348008,11.7742917 C118.348008,12.2497083 118.044523,12.6434583 117.723087,12.873875 L117.819974,12.873875 C118.378499,12.707625 119.051008,12.200125 119.051008,11.412625 L119.053003,11.4158333 Z M114.726715,13.5805833 C113.252323,13.08825 110.368226,11.3892917 110.368226,6.986875 C110.368226,3.056375 112.904385,1.34020833 113.796315,0.853125 L113.699713,0.853125 C112.568415,1.203125 109.674344,3.040625 109.660951,6.986875 C109.646703,11.4960417 112.722009,13.1042917 114.596487,13.5805833 L114.72529,13.5805833 L114.726715,13.5805833 Z M107.964004,13.3834167 L107.964004,12.2844167 L100.128412,1.95183333 C99.6391331,1.306375 99.1831944,1.11475 98.3496815,0.967458333 L98.2214488,0.967458333 C98.7506226,1.27954167 99.015637,1.54379167 99.4718606,2.14870833 L107.949471,13.3837083 L107.966568,13.3837083 L107.964004,13.3834167 Z M93.6190326,11.8084167 L93.6190326,2.23008333 C93.6190326,1.42683333 93.1061015,1.09841667 92.5774976,1.00041667 L92.5133812,1.00041667 C92.7698467,1.19670833 92.9137524,1.491875 92.9137524,2.00083333 L92.9137524,12.0545833 C92.9137524,12.6282917 92.7518942,12.8566667 92.5133812,13.055 L92.5774976,13.055 C93.057943,12.957 93.6190326,12.6449167 93.6190326,11.8084167 Z M88.9200144,13.3834167 L88.9200144,12.2844167 L81.0849928,1.95183333 C80.5954286,1.306375 80.1397749,1.11475 79.306262,0.967458333 L79.1780292,0.967458333 C79.7066331,1.27954167 79.9716475,1.54379167 80.4278712,2.14870833 L88.9054813,13.3837083 L88.922579,13.3837083 L88.9200144,13.3834167 Z M75.155795,3.96958333 C75.155795,2.19770833 73.9375838,1.44375 73.2801772,1.246875 L73.1525144,1.246875 C73.7611925,1.59104167 74.4505148,2.21433333 74.4505148,3.985625 C74.4505148,5.82895833 73.713319,6.57708333 72.8478903,7.03645833 L72.961875,7.03645833 C74.084624,6.75733333 75.1589296,5.70733333 75.1589296,3.96929167 L75.155795,3.96958333 Z M76.3574784,13.39975 C75.7168846,13.0643333 75.1121959,12.2453333 74.4510848,11.1200833 C74.4510848,11.1200833 73.0200072,8.67533333 72.3680148,7.57720833 L71.6621648,7.60929167 C72.2671384,8.64470833 73.7777203,11.1997083 73.7777203,11.1997083 C74.4678975,12.3722083 75.3971576,13.2442917 76.2454885,13.3959583 L76.3574784,13.3959583 L76.3574784,13.39975 Z M69.1146073,11.8087083 L69.1146073,2.230375 C69.1146073,1.42654167 68.6016762,1.09870833 68.0727874,1.000125 L68.0089559,1.000125 C68.2654215,1.19554167 68.4096121,1.490125 68.4096121,2.00054167 L68.4096121,12.0542917 C68.4096121,12.6259583 68.2471839,12.856375 68.0089559,13.0547083 L68.0727874,13.0547083 C68.5532328,12.9555417 69.1143223,12.6434583 69.1143223,11.806375 L69.1146073,11.8087083 Z"></path>
                <path d="M67.2558022,7.08516667 C67.2558022,11.3939583 64.2699737,13.8751667 60.9741068,13.8751667 C57.2787237,13.8751667 54.8371719,11.0705 54.8371719,7.08516667 C54.8371719,3.21475 57.626092,0.22925 60.9741068,0.22925 C64.6045187,0.22925 67.2558022,3.32383333 67.2558022,7.08516667 Z M63.954806,7.08516667 C63.954806,3.64058333 63.1056202,0.984083333 60.9581489,0.984083333 C58.7952898,0.984083333 58.0897246,3.49941667 58.0897246,6.90491667 C58.0897246,10.5049583 58.7593846,13.1209167 60.9763865,13.1209167 C63.0110129,13.1209167 63.9570857,10.3156667 63.9570857,7.08516667 L63.954806,7.08516667 Z"></path>
                <path d="M52.0482519,11.6940833 C52.0482519,11.4671667 52.025455,10.9649167 52.0169061,10.726625 L51.6316379,0.885791667 L51.102749,0.885791667 L50.9426006,1.36120833 L51.311341,10.7592917 C51.3207447,10.9955417 51.3432567,11.4797083 51.3432567,11.675125 C51.3432567,12.2934583 51.2685967,12.7017917 50.8143678,13.0517917 L50.8941571,13.0517917 C51.4555316,12.952625 52.0482519,12.558875 52.0482519,11.6897083 L52.0482519,11.6940833 Z M47.1452011,12.8420833 L43.2668726,2.50920833 C42.8776149,1.47145833 42.177749,1.11504167 41.5850287,1.00041667 L41.4724689,1.00041667 C42.0176006,1.351 42.2455699,1.743 42.6265637,2.73875 L46.6644708,13.3011667 L47.0007256,13.3011667 L47.1452011,12.8420833 Z M64.9798132,7.10208333 C64.9798132,3.21475 63.6319444,1.76225 62.5604885,1.21333333 L62.4641715,1.21333333 C63.3931466,1.967875 64.275103,3.444 64.275103,7.08516667 C64.275103,10.4965 63.3618008,12.2680833 62.2880651,12.9733333 L62.40034,12.9733333 C63.8422462,12.2190833 64.9800982,10.775625 64.9800982,7.10208333 L64.9798132,7.10208333 Z M59.7721384,13.5805833 C58.4621695,13.138125 55.8465062,11.4718333 55.8465062,7.06883333 C55.8465062,3.13833333 58.1347486,1.32475 58.9525886,0.852833333 L58.8727993,0.852833333 C57.8298396,1.22995833 55.1398012,3.21416667 55.1398012,7.06883333 C55.1398012,11.578 58.1347486,13.2521667 59.5937524,13.5805833 L59.7704286,13.5805833 L59.7721384,13.5805833 Z"></path>
                <path d="M159.175323,9.98841667 L158.613949,13.6129583 L143.375623,13.6129583 L143.375623,13.0879583 L143.615845,13.0879583 C144.299753,13.0879583 144.62461,12.7225 144.62461,12.2844167 C144.62461,12.0210417 144.556789,11.6666667 144.448788,11.3169583 L143.791382,9.184875 L140.377541,9.184875 L139.750625,11.0894583 C139.63949,11.4219583 139.573949,11.7690417 139.573949,12.0577917 C139.573949,12.8569583 140.109677,13.0902917 140.824931,13.0902917 L141.001607,13.0902917 L141.001607,13.6152917 L136.596099,13.6152917 L136.596099,13.0902917 L136.772775,13.0902917 C137.505127,13.0902917 138.288772,12.1890417 138.679169,11.0894583 L141.676966,2.66029167 C141.548733,2.421125 141.354959,2.202375 141.226727,2.071125 L141.226727,2.02154167 C142.187047,1.563625 143.623254,0.493208333 144.141885,0.006125 L144.204576,0.006125 L147.923611,12.075 C148.123084,12.7230833 148.325407,13.0914583 148.980819,13.0914583 L149.300831,13.0914583 C150.002977,13.0914583 150.293922,12.7134583 150.293922,12.026 L150.293922,2.0825 C150.293922,1.39416667 150.003261,1.01645833 149.299406,1.01645833 L149.042941,1.01645833 L149.042941,0.491458333 L154.665235,0.491458333 L154.665235,1.01645833 L154.47317,1.01645833 C153.77131,1.01645833 153.432205,1.45979167 153.432205,2.148125 L153.432205,12.4964583 C153.432205,12.7248333 153.557589,12.8415 153.816904,12.8415 L155.468827,12.8415 C156.829234,12.8415 157.8967,12.0411667 158.737337,9.98783333 L159.170479,9.98783333 L159.175323,9.98841667 Z M143.535771,8.36383333 L142.140884,3.90366667 L142.109538,3.90366667 L140.651104,8.364125 L143.534916,8.364125 L143.535771,8.36383333 Z"></path>
                <path d="M169.318534,9.98841667 L168.741487,13.6129583 L159.175323,13.6129583 L159.175323,13.0879583 L159.431789,13.0879583 C160.134789,13.0879583 160.409207,12.7099583 160.409207,12.0225 L160.409207,2.083375 C160.409207,1.39504167 160.134789,1.01733333 159.431789,1.01733333 L159.175323,1.01733333 L159.175323,0.492333333 L164.815855,0.492333333 L164.815855,1.01733333 L164.653427,1.01733333 C163.949571,1.01733333 163.596219,1.46066667 163.596219,2.149 L163.596219,12.4979167 C163.596219,12.7254167 163.718752,12.8420833 163.980917,12.8420833 L165.59665,12.8420833 C166.955917,12.8420833 168.041621,12.04175 168.882258,9.98841667 L169.31255,9.98841667 L169.318534,9.98841667 Z M136.757387,9.34879167 L136.244456,12.8260417 C135.306932,13.313125 133.865026,13.8760417 132.398329,13.8760417 C128.430807,13.8760417 125.796621,11.0191667 125.796621,7.13504167 C125.796621,3.003875 128.606343,0.295458333 132.159816,0.295458333 C133.789796,0.295458333 135.163312,0.578375 136.21482,1.27954167 L136.616616,4.83904167 L136.055242,4.83904167 C135.149064,2.657375 134.396765,1.099875 132.194011,1.099875 C130.464294,1.099875 128.956846,2.90529167 128.956846,7.137375 C128.956846,10.9115417 130.159385,13.0902917 132.436228,13.0902917 C134.148848,13.0902917 135.277296,12.0402917 136.314557,9.351125 L136.764796,9.351125 L136.757387,9.34879167 Z"></path>
                <path d="M161.402299,11.8416667 L161.402299,2.26333333 C161.402299,1.4595 160.889368,1.13166667 160.360479,1.03308333 L160.296363,1.03308333 C160.552828,1.23025 160.695309,1.52541667 160.695309,2.0335 L160.695309,12.08725 C160.695309,12.6618333 160.532881,12.8899167 160.293513,13.0876667 L160.356205,13.0876667 C160.83779,12.9896667 161.396315,12.6781667 161.396315,11.8416667 L161.402299,11.8416667 Z M151.274761,11.8416667 L151.274761,2.26333333 C151.274761,1.4595 150.76183,1.13166667 150.233795,1.03308333 L150.169109,1.03308333 C150.425575,1.23025 150.569765,1.52541667 150.569765,2.0335 L150.569765,12.08725 C150.569765,12.6618333 150.407337,12.8899167 150.169109,13.0876667 L150.233795,13.0876667 C150.714811,12.9896667 151.274761,12.6781667 151.274761,11.8416667 Z M145.602598,12.2190833 C145.602598,11.9294583 145.559284,11.67075 145.490038,11.4479167 L143.006597,3.37866667 C142.774923,2.62616667 142.510194,2.08308333 142.253159,1.73833333 L141.64619,2.099125 C141.919753,2.41120833 142.09073,2.74079167 142.304452,3.42766667 L144.789318,11.4479167 C144.849159,11.6351667 144.91755,11.9653333 144.91755,12.30075 C144.91755,12.6781667 144.757972,12.9243333 144.47016,13.0876667 L144.535702,13.0876667 C145.017287,13.0876667 145.610007,12.7435 145.610007,12.2190833 L145.602598,12.2190833 Z M131.117141,13.61325 C129.67324,13.1710833 126.789998,11.53775 126.789998,7.13445833 C126.789998,3.20570833 128.910113,1.49654167 130.026592,0.886958333 L129.946803,0.886958333 C128.607483,1.33029167 126.084717,3.191125 126.084717,7.137375 C126.084717,11.6815417 129.466073,13.3207083 131.004581,13.6182083 L131.117141,13.6182083 L131.117141,13.61325 Z"></path>
            </g>
        </g>
    </g>
</svg>