<?xml version="1.0" encoding="UTF-8"?>
<svg width="130px" height="18px" viewBox="0 0 130 18" version="1.1" xmlns="http://www.w3.org/2000/svg" xmlns:xlink="http://www.w3.org/1999/xlink">
    <!-- Generator: sketchtool 42 (36781) - http://www.bohemiancoding.com/sketch -->
    <title>F5CB456B-F8DC-4154-9A17-118EDA448B48</title>
    <desc>Created with sketchtool.</desc>
    <defs>
        <path d="M12.3680001,0.391311101 L6.99341942,0.391311101 L1.58566235,0.391311101 C0.955310304,0.391311101 0.424487525,0.888957457 0.424487525,1.48613308 L0.424487525,1.98377944 L0.424487525,2.05013229 L0.524016796,5.96495028 C0.55719322,7.82283001 1.15436885,9.64753332 2.21601441,11.2068252 C3.17813069,12.600235 4.67106976,13.9604684 6.960243,14.7235261 C9.24941623,13.9604684 10.7423553,12.600235 11.7044716,11.2068252 C12.7661171,9.68070974 13.3632928,7.85600644 13.3964692,5.96495028 L13.4959985,2.05013229 L13.4959985,1.98377944 L13.4959985,1.48613308 C13.4959985,0.855781033 12.9983521,0.391311101 12.3680001,0.391311101 Z" id="path-1"></path>
    </defs>
    <g id="Symbols" stroke="none" stroke-width="1" fill="none" fill-rule="evenodd">
        <g id="Logo:-Homerun-Loyal" transform="translate(-1.000000, -1.000000)">
            <g id="Layer_1">
                <g>
                    <g id="Group">
                        <path d="M33.37,6.294 L33.37,15 L31.558,15 L31.558,11.25 L27.724,11.25 L27.724,15 L25.912,15 L25.912,6.294 L27.724,6.294 L27.724,9.99 L31.558,9.99 L31.558,6.294 L33.37,6.294 Z M43.606,10.644 C43.606,11.2800032 43.4990011,11.8699973 43.285,12.414 C43.0709989,12.9580027 42.7690019,13.427998 42.379,13.824 C41.988998,14.220002 41.5200027,14.5309989 40.972,14.757 C40.4239973,14.9830011 39.8160033,15.096 39.148,15.096 C38.4799967,15.096 37.8720027,14.9830011 37.324,14.757 C36.7759973,14.5309989 36.306002,14.220002 35.914,13.824 C35.521998,13.427998 35.2190011,12.9580027 35.005,12.414 C34.7909989,11.8699973 34.684,11.2800032 34.684,10.644 C34.684,10.0079968 34.7909989,9.41900271 35.005,8.877 C35.2190011,8.33499729 35.521998,7.86600198 35.914,7.47 C36.306002,7.07399802 36.7759973,6.76300113 37.324,6.537 C37.8720027,6.31099887 38.4799967,6.198 39.148,6.198 C39.8160033,6.198 40.4239973,6.31099887 40.972,6.537 C41.5200027,6.76300113 41.988998,7.07499801 42.379,7.473 C42.7690019,7.87100199 43.0709989,8.34099729 43.285,8.883 C43.4990011,9.42500271 43.606,10.0119968 43.606,10.644 Z M41.764,10.644 C41.764,10.1879977 41.7040006,9.77900181 41.584,9.417 C41.4639994,9.05499819 41.2910011,8.74700127 41.065,8.493 C40.8389989,8.23899873 40.5650016,8.04500067 40.243,7.911 C39.9209984,7.77699933 39.556002,7.71 39.148,7.71 C38.739998,7.71 38.3740016,7.77699933 38.05,7.911 C37.7259984,8.04500067 37.4510011,8.23899873 37.225,8.493 C36.9989989,8.74700127 36.8260006,9.05499819 36.706,9.417 C36.5859994,9.77900181 36.526,10.1879977 36.526,10.644 C36.526,11.1040023 36.5859994,11.5149982 36.706,11.877 C36.8260006,12.2390018 36.9989989,12.5459987 37.225,12.798 C37.4510011,13.0500013 37.7259984,13.2429993 38.05,13.377 C38.3740016,13.5110007 38.739998,13.578 39.148,13.578 C39.556002,13.578 39.9209984,13.5110007 40.243,13.377 C40.5650016,13.2429993 40.8389989,13.0500013 41.065,12.798 C41.2910011,12.5459987 41.4639994,12.2390018 41.584,11.877 C41.7040006,11.5149982 41.764,11.1040023 41.764,10.644 Z M54.526,6.294 L54.526,15 L52.936,15 L52.936,9.654 C52.936,9.54199944 52.939,9.42200064 52.945,9.294 C52.951,9.16599936 52.9619999,9.03600066 52.978,8.904 L50.488,13.626 C50.3519993,13.8860013 50.1420014,14.016 49.858,14.016 L49.606,14.016 C49.4659993,14.016 49.3420005,13.9830003 49.234,13.917 C49.1259995,13.8509997 49.0400003,13.7540006 48.976,13.626 L46.474,8.886 C46.4860001,9.0260007 46.496,9.16099935 46.504,9.291 C46.512,9.42100065 46.516,9.54199944 46.516,9.654 L46.516,15 L44.926,15 L44.926,6.294 L46.294,6.294 C46.3700004,6.294 46.4379997,6.29599998 46.498,6.3 C46.5580003,6.30400002 46.6109998,6.31499991 46.657,6.333 C46.7030002,6.35100009 46.7449998,6.37899981 46.783,6.417 C46.8210002,6.45500019 46.8579998,6.50799966 46.894,6.576 L49.33,11.22 C49.4060004,11.3600007 49.4769997,11.5039993 49.543,11.652 C49.6090003,11.8000007 49.6719997,11.9519992 49.732,12.108 C49.7920003,11.9479992 49.8549997,11.7920008 49.921,11.64 C49.9870003,11.4879992 50.0579996,11.3420007 50.134,11.202 L52.552,6.576 C52.5880002,6.50799966 52.6259998,6.45500019 52.666,6.417 C52.7060002,6.37899981 52.7489998,6.35100009 52.795,6.333 C52.8410002,6.31499991 52.8929997,6.30400002 52.951,6.3 C53.0090003,6.29599998 53.0779996,6.294 53.158,6.294 L54.526,6.294 Z M58.156,7.704 L58.156,9.942 L61.06,9.942 L61.06,11.304 L58.156,11.304 L58.156,13.59 L61.888,13.59 L61.888,15 L56.344,15 L56.344,6.294 L61.888,6.294 L61.888,7.704 L58.156,7.704 Z M65.956,10.416 C66.2480015,10.416 66.4999989,10.3790004 66.712,10.305 C66.9240011,10.2309996 67.0979993,10.1290006 67.234,9.999 C67.3700007,9.86899935 67.4699997,9.71600088 67.534,9.54 C67.5980003,9.36399912 67.63,9.17200104 67.63,8.964 C67.63,8.55199794 67.4930014,8.23200114 67.219,8.004 C66.9449986,7.77599886 66.5280028,7.662 65.968,7.662 L65.032,7.662 L65.032,10.416 L65.956,10.416 Z M70.174,15 L68.548,15 C68.2439985,15 68.0240007,14.8840012 67.888,14.652 L66.232,11.982 C66.1639997,11.8779995 66.0890004,11.8020002 66.007,11.754 C65.9249996,11.7059998 65.8040008,11.682 65.644,11.682 L65.032,11.682 L65.032,15 L63.232,15 L63.232,6.294 L65.968,6.294 C66.576003,6.294 67.0959978,6.35699937 67.528,6.483 C67.9600022,6.60900063 68.3139986,6.78399888 68.59,7.008 C68.8660014,7.23200112 69.0679994,7.49899845 69.196,7.809 C69.3240006,8.11900155 69.388,8.45999814 69.388,8.832 C69.388,9.12000144 69.3470004,9.39299871 69.265,9.651 C69.1829996,9.90900129 69.0640008,10.1439989 68.908,10.356 C68.7519992,10.5680011 68.5600011,10.7559992 68.332,10.92 C68.1039989,11.0840008 67.8440015,11.2159995 67.552,11.316 C67.6680006,11.3800003 67.7759995,11.4569995 67.876,11.547 C67.9760005,11.6370004 68.0659996,11.7439994 68.146,11.868 L70.174,15 Z M74.59,13.56 C74.8820015,13.56 75.1439988,13.5110005 75.376,13.413 C75.6080012,13.3149995 75.8039992,13.1760009 75.964,12.996 C76.1240008,12.8159991 76.2459996,12.5980013 76.33,12.342 C76.4140004,12.0859987 76.456,11.7980016 76.456,11.478 L76.456,6.294 L78.256,6.294 L78.256,11.478 C78.256,12.0060026 78.1710008,12.4909978 78.001,12.933 C77.8309991,13.3750022 77.5880016,13.7559984 77.272,14.076 C76.9559984,14.3960016 76.5720023,14.6459991 76.12,14.826 C75.6679977,15.0060009 75.1580028,15.096 74.59,15.096 C74.0219972,15.096 73.5110023,15.0060009 73.057,14.826 C72.6029977,14.6459991 72.2180016,14.3960016 71.902,14.076 C71.5859984,13.7559984 71.3430008,13.3750022 71.173,12.933 C71.0029991,12.4909978 70.918,12.0060026 70.918,11.478 L70.918,6.294 L72.718,6.294 L72.718,11.478 C72.718,11.7980016 72.7599996,12.0859987 72.844,12.342 C72.9280004,12.5980013 73.0499992,12.8159991 73.21,12.996 C73.3700008,13.1760009 73.5659988,13.3149995 73.798,13.413 C74.0300012,13.5110005 74.2939985,13.56 74.59,13.56 Z M87.43,6.294 L87.43,15 L86.5,15 C86.3599993,15 86.2420005,14.9770002 86.146,14.931 C86.0499995,14.8849998 85.9560005,14.8060006 85.864,14.694 L81.526,9.174 C81.5380001,9.3140007 81.547,9.45199932 81.553,9.588 C81.559,9.72400068 81.562,9.84999942 81.562,9.966 L81.562,15 L79.972,15 L79.972,6.294 L80.92,6.294 C80.9960004,6.294 81.0609997,6.29699997 81.115,6.303 C81.1690003,6.30900003 81.2179998,6.32299989 81.262,6.345 C81.3060002,6.36700011 81.3479998,6.39599982 81.388,6.432 C81.4280002,6.46800018 81.4719998,6.5159997 81.52,6.576 L85.888,12.12 C85.8719999,11.9679992 85.86,11.8210007 85.852,11.679 C85.844,11.5369993 85.84,11.4020006 85.84,11.274 L85.84,6.294 L87.43,6.294 Z M97.492,14.478 L97.492,15 L92.854,15 L92.854,6.51 L93.472,6.51 L93.472,14.478 L97.492,14.478 Z M106.468,10.752 C106.468,11.4080033 106.370001,12.0029973 106.174,12.537 C105.977999,13.0710027 105.702002,13.5269981 105.346,13.905 C104.989998,14.2830019 104.563002,14.574999 104.065,14.781 C103.566998,14.987001 103.018003,15.09 102.418,15.09 C101.817997,15.09 101.270002,14.987001 100.774,14.781 C100.277998,14.574999 99.8520018,14.2830019 99.496,13.905 C99.1399982,13.5269981 98.864001,13.0710027 98.668,12.537 C98.471999,12.0029973 98.374,11.4080033 98.374,10.752 C98.374,10.0999967 98.471999,9.50700267 98.668,8.973 C98.864001,8.43899733 99.1399982,7.98300189 99.496,7.605 C99.8520018,7.22699811 100.277998,6.93400104 100.774,6.726 C101.270002,6.51799896 101.817997,6.414 102.418,6.414 C103.018003,6.414 103.566998,6.51699897 104.065,6.723 C104.563002,6.92900103 104.989998,7.2219981 105.346,7.602 C105.702002,7.9820019 105.977999,8.43899733 106.174,8.973 C106.370001,9.50700267 106.468,10.0999967 106.468,10.752 Z M105.832,10.752 C105.832,10.159997 105.750001,9.62800236 105.586,9.156 C105.421999,8.68399764 105.190001,8.28400164 104.89,7.956 C104.589998,7.62799836 104.230002,7.37700087 103.81,7.203 C103.389998,7.02899913 102.926003,6.942 102.418,6.942 C101.913997,6.942 101.452002,7.02899913 101.032,7.203 C100.611998,7.37700087 100.251002,7.62799836 99.949,7.956 C99.6469985,8.28400164 99.4130008,8.68399764 99.247,9.156 C99.0809992,9.62800236 98.998,10.159997 98.998,10.752 C98.998,11.348003 99.0809992,11.8809976 99.247,12.351 C99.4130008,12.8210023 99.6469985,13.2199984 99.949,13.548 C100.251002,13.8760016 100.611998,14.1259991 101.032,14.298 C101.452002,14.4700009 101.913997,14.556 102.418,14.556 C102.926003,14.556 103.389998,14.4700009 103.81,14.298 C104.230002,14.1259991 104.589998,13.8760016 104.89,13.548 C105.190001,13.2199984 105.421999,12.8210023 105.586,12.351 C105.750001,11.8809976 105.832,11.348003 105.832,10.752 Z M111.046,11.502 L111.046,15 L110.434,15 L110.434,11.502 L107.29,6.51 L107.83,6.51 C107.886,6.51 107.932,6.52299987 107.968,6.549 C108.004,6.57500013 108.034,6.61199976 108.058,6.66 L110.488,10.56 C110.54,10.6520005 110.588,10.7409996 110.632,10.827 C110.676,10.9130004 110.714,10.9979996 110.746,11.082 C110.778,10.9979996 110.814,10.9130004 110.854,10.827 C110.894,10.7409996 110.94,10.6520005 110.992,10.56 L113.422,6.66 C113.442,6.61599978 113.471,6.58000014 113.509,6.552 C113.547,6.52399986 113.594,6.51 113.65,6.51 L114.19,6.51 L111.046,11.502 Z M120.142,11.916 L118.414,7.626 C118.354,7.4859993 118.296,7.31800098 118.24,7.122 C118.216,7.21800048 118.19,7.30899957 118.162,7.395 C118.134,7.48100043 118.104,7.55999964 118.072,7.632 L116.344,11.916 L120.142,11.916 Z M122.02,15 L121.546,15 C121.49,15 121.444,14.9850001 121.408,14.955 C121.372,14.9249998 121.344,14.8860002 121.324,14.838 L120.328,12.372 L116.158,12.372 L115.162,14.838 C115.146,14.8820002 115.118,14.9199998 115.078,14.952 C115.038,14.9840002 114.99,15 114.934,15 L114.466,15 L117.94,6.51 L118.546,6.51 L122.02,15 Z M128.068,14.478 L128.068,15 L123.43,15 L123.43,6.51 L124.048,6.51 L124.048,14.478 L128.068,14.478 Z" id="HOMERUN-LOYAL" fill="#1E1E1E"></path>
                        <g transform="translate(0.803888, 0.898863)">
                            <g transform="translate(-0.000000, 0.000000)" id="XMLID_3_" fill-rule="nonzero">
                                <g transform="translate(-0.000000, 0.000000)">
                                    <path d="M15.3275078,2.78681959 L9.68751572,2.78681959 L4.04752369,2.78681959 C3.38399522,2.78681959 2.81999602,3.28446595 2.81999602,3.914818 L2.81999602,4.41246435 L2.81999602,4.4788172 L2.91952529,8.59269374 C2.95270171,10.5501027 3.58305376,12.4743353 4.67787574,14.0668037 C5.70634488,15.5265663 7.26563679,16.9531525 9.6543393,17.7493867 C12.0762182,16.9531525 13.6355101,15.5265663 14.6308029,14.0668037 C15.7588013,12.4743353 16.3559769,10.5501027 16.3891533,8.59269374 L16.4886826,4.4788172 L16.4886826,4.41246435 L16.4886826,3.914818 C16.5550354,3.28446595 15.9910362,2.78681959 15.3275078,2.78681959 Z M16.0905655,4.14705296 L16.0242127,8.42681162 C15.9910362,10.1519857 15.5265663,11.8439833 14.6308029,13.3037459 C14.56445,13.4032752 14.4980972,13.5028044 14.4317443,13.6355101 C13.3037459,15.3275078 11.7112776,16.5550354 9.72069215,17.2849168 C7.6969303,16.5882119 6.13763839,15.3606842 5.00963998,13.6355101 C4.94328713,13.5359809 4.87693429,13.4364516 4.81058144,13.3037459 C3.914818,11.8439833 3.45034807,10.1519857 3.41717164,8.42681162 L3.31764237,4.14705296 L3.31764237,3.914818 C3.31764237,3.54987734 3.64940661,3.25128952 4.08070012,3.25128952 L9.72069215,3.25128952 L15.3606842,3.25128952 C15.7588013,3.25128952 16.1237419,3.54987734 16.1237419,3.914818 L16.1237419,4.14705296 L16.0905655,4.14705296 Z" id="XMLID_18_" fill="#FFFFFF"></path>
                                    <g id="XMLID_9_" transform="translate(13.934098, 13.602334)" fill="#272727">
                                        <path d="M4.11387654,3.18493668 L4.11387654,3.18493668 C4.04752369,3.01905456 3.88164157,2.88634886 3.71575946,2.85317244 L3.48352449,2.85317244 C3.25128952,2.6541139 2.18964396,1.62564476 0.862587016,0.298587813 C0.829410593,0.364940661 0.796234169,0.431293508 0.729881322,0.497646356 C0.530822779,0.796234169 0.298587813,1.09482198 0.0331764237,1.3934098 C1.29388052,2.6541139 2.28917324,3.68258303 2.48823178,3.88164157 C2.45505535,3.94799442 2.45505535,4.01434727 2.48823178,4.11387654 C2.5214082,4.27975866 2.6541139,4.44564078 2.81999602,4.51199362 L2.81999602,4.51199362 C2.98587813,4.57834647 3.15176025,4.51199362 3.28446595,4.41246435 L3.98117084,3.64940661 C4.11387654,3.51670091 4.18022939,3.35081879 4.11387654,3.18493668 Z M3.68258303,3.31764237 C3.58305376,3.41717164 3.48352449,3.54987734 3.35081879,3.68258303 C3.2181131,3.81528873 3.0854074,3.94799442 2.98587813,4.01434727 C2.88634886,4.11387654 2.81999602,4.14705296 2.81999602,4.14705296 C2.81999602,4.14705296 2.88634886,4.08070012 2.95270171,3.98117084 C3.05223098,3.88164157 3.15176025,3.74893588 3.28446595,3.61623018 C3.41717164,3.48352449 3.54987734,3.35081879 3.64940661,3.28446595 C3.74893588,3.18493668 3.81528873,3.15176025 3.81528873,3.15176025 C3.81528873,3.15176025 3.7821123,3.2181131 3.68258303,3.31764237 Z" id="XMLID_11_"></path>
                                    </g>
                                    <g id="XMLID_4_" transform="translate(-0.000000, -0.000000)" fill="#272727">
                                        <path d="M1.49293907,17.2517403 L2.18964396,17.9484452 C2.32234966,18.0811509 2.48823178,18.1143273 2.6541139,18.0479745 L2.6541139,18.0479745 C2.81999602,17.9816216 2.95270171,17.848916 2.98587813,17.6498574 L2.98587813,17.4176224 C3.18493668,17.2185639 4.14705296,16.1900948 5.44093349,14.9293907 C5.1755221,14.6308029 4.94328713,14.332215 4.74422859,14.0336272 C4.71105217,13.9672744 4.64469932,13.9009215 4.6115229,13.8345687 C3.28446595,15.1616256 2.22282039,16.1900948 1.99058542,16.3891533 C1.92423258,16.3559769 1.85787973,16.3559769 1.75835046,16.3891533 C1.59246834,16.4223297 1.42658622,16.5550354 1.36023337,16.7209175 L1.36023337,16.7209175 C1.32705695,16.9531525 1.36023337,17.1190346 1.49293907,17.2517403 Z M1.65882119,16.754094 C1.65882119,16.754094 1.72517403,16.8204468 1.8247033,16.8867997 C1.92423258,16.9863289 2.05693827,17.0858582 2.18964396,17.2185639 C2.32234966,17.3512696 2.45505535,17.4839753 2.5214082,17.5835046 C2.62093747,17.6830338 2.6541139,17.7493867 2.6541139,17.7493867 C2.6541139,17.7493867 2.58776105,17.6830338 2.48823178,17.616681 C2.38870251,17.5171517 2.25599681,17.4176224 2.12329112,17.2849168 C1.99058542,17.1522111 1.85787973,17.0195054 1.79152688,16.9199761 C1.72517403,16.8204468 1.65882119,16.754094 1.65882119,16.754094 Z" id="XMLID_6_"></path>
                                        <path d="M16.4886826,4.14705296 C16.6877411,3.94799442 16.7872704,3.84846515 16.7872704,3.84846515 L18.9769144,1.65882119 C19.0100908,1.62564476 19.0432672,1.55929191 19.0100908,1.49293907 C19.0100908,1.45976264 18.9769144,1.42658622 18.9769144,1.3934098 L16.6877411,3.54987734 L18.8773851,1.22752768 C18.8442087,1.19435125 18.8442087,1.16117483 18.8110322,1.12799841 L17.7493867,2.05693827 L18.711503,0.962116288 C18.6783265,0.928939864 18.6451501,0.89576344 18.6119737,0.862587016 C18.3465623,0.597175627 18.1475038,0.497646356 18.0147981,0.464469932 C17.9484452,0.431293508 17.8820924,0.464469932 17.848916,0.497646356 L15.659272,2.68729032 C15.659272,2.68729032 15.5597427,2.75364317 15.427037,2.91952529 L15.2279785,2.91952529 L15.1948021,2.91952529 C15.3938606,2.72046674 15.5265663,2.58776105 15.5265663,2.58776105 L17.7162103,0.398117084 C17.8157395,0.298587813 17.9484452,0.26541139 18.0479745,0.298587813 C18.2138566,0.331764237 18.4460916,0.464469932 18.711503,0.729881322 C18.9769144,0.995292711 19.1096201,1.2607041 19.1427965,1.3934098 C19.1759729,1.52611549 19.1427965,1.65882119 19.0432672,1.72517403 L16.9199761,3.94799442 C16.9199761,3.94799442 16.754094,4.11387654 16.4886826,4.37928793 L16.4886826,4.14705296 Z" id="XMLID_5_" stroke="#272727" stroke-width="0.2"></path>
                                        <path d="M3.01905456,4.14705296 C2.81999602,3.94799442 2.72046674,3.84846515 2.72046674,3.84846515 L0.497646356,1.65882119 C0.464469932,1.59246834 0.464469932,1.52611549 0.464469932,1.49293907 C0.464469932,1.45976264 0.497646356,1.42658622 0.497646356,1.3934098 L2.78681959,3.54987734 L0.597175627,1.22752768 C0.597175627,1.19435125 0.63035205,1.16117483 0.663528474,1.12799841 L1.72517403,2.05693827 L0.763057745,0.962116288 C0.796234169,0.928939864 0.829410593,0.89576344 0.862587016,0.862587016 C1.12799841,0.63035205 1.32705695,0.530822779 1.45976264,0.497646356 C1.52611549,0.464469932 1.59246834,0.497646356 1.62564476,0.530822779 L3.81528873,2.72046674 C3.81528873,2.72046674 3.914818,2.78681959 4.04752369,2.95270171 L4.24658223,2.95270171 L4.27975866,2.95270171 C4.08070012,2.75364317 3.94799442,2.62093747 3.94799442,2.62093747 L1.75835046,0.398117084 C1.65882119,0.331764237 1.52611549,0.298587813 1.42658622,0.331764237 C1.2607041,0.364940661 1.02846913,0.497646356 0.763057745,0.763057745 C0.497646356,1.02846913 0.364940661,1.29388052 0.331764237,1.42658622 C0.298587813,1.55929191 0.331764237,1.69199761 0.431293508,1.75835046 L2.62093747,3.94799442 L3.05223098,4.37928793 L3.05223098,4.14705296 L3.01905456,4.14705296 Z" id="XMLID_10_" stroke="#272727" stroke-width="0.2"></path>
                                    </g>
                                </g>
                            </g>
                            <g id="Shape" transform="translate(2.727273, 2.727273)">
                                <mask id="mask-2" fill="white">
                                    <use xlink:href="#path-1"></use>
                                </mask>
                                <use id="Mask" fill="#C02529" fill-rule="nonzero" xlink:href="#path-1"></use>
                                <path d="M15.6856424,22.38728 C15.6856424,22.1550451 15.5197603,21.524693 15.1879961,21.1929288 C15.1548197,20.7616353 15.0884668,20.5294003 14.6239969,20.429871 C14.3254091,19.6999897 13.9936448,18.4392856 13.3301163,17.9416392 L13.3301163,17.8089335 C13.3301163,17.37764 13.0315285,17.3444636 12.7661171,17.2117579 L12.7661171,17.2117579 L12.7661171,16.9463465 C12.6665879,16.8468173 12.5670586,16.7804644 12.4343529,16.6809351 C12.2021179,16.0505831 11.9035301,15.4534075 11.5717659,14.8562318 C11.505413,14.7567026 10.5101203,13.4296456 9.97929755,13.064705 C9.97929755,13.0315285 10.012474,12.9983521 10.012474,12.9651757 C10.012474,12.83247 9.87976828,12.7329407 9.78023901,12.600235 C9.97929755,12.4343529 10.1120032,12.2021179 10.1120032,12.1025887 C10.1120032,11.9367066 9.97929755,11.9035301 9.87976828,11.8371773 L9.87976828,11.737648 C9.87976828,11.5385895 9.74706259,11.3727073 9.74706259,11.2068252 C9.84659186,11.0741195 9.94612113,10.9414138 10.0456504,10.7755317 C10.0456504,10.7423553 10.875061,8.55271133 10.875061,8.18777067 L10.875061,8.0882414 C10.8087081,7.78965359 10.7091789,7.49106577 10.4437675,7.32518366 C9.84659186,6.99341942 9.51482762,6.99341942 9.21623981,6.79436088 C9.28259265,6.66165518 9.3489455,6.59530233 9.3489455,6.59530233 L9.3489455,6.56212591 C9.3489455,6.56212591 9.41529835,6.39624379 9.41529835,6.19718525 C9.94612113,6.1308324 9.4816512,6.06447956 9.4816512,5.5668332 C9.4816512,5.53365678 9.4816512,5.50048035 9.51482762,5.4341275 C9.64753332,5.4341275 9.78023901,5.46730393 9.91294471,5.46730393 C10.0456504,5.46730393 10.1783561,5.46730393 10.2778854,5.4341275 C10.2778854,5.40095108 10.2447089,5.36777466 10.2115325,5.33459823 C10.012474,5.20189254 9.78023901,5.13553969 9.61435689,5.002834 C9.58118047,4.57154049 9.54800404,3.84165917 8.48635849,3.84165917 C7.29200723,3.84165917 6.8275373,4.47201122 6.8275373,5.33459823 C6.8275373,5.4341275 6.8275373,5.86542101 6.92706657,5.86542101 L7.02659584,5.86542101 C7.02659584,5.89859744 7.05977227,5.93177386 7.09294869,5.96495028 C7.19247796,6.06447956 7.29200723,6.1308324 7.35836008,6.23036167 C7.29200723,6.36306737 7.25883081,6.49577306 7.19247796,6.66165518 L7.05977227,6.66165518 C6.52894949,6.66165518 6.52894949,6.72800803 6.19718525,6.72800803 L5.66636247,6.72800803 C5.63318605,6.72800803 5.53365678,6.72800803 5.4341275,6.76118445 C5.50048035,6.62847876 5.53365678,6.52894949 5.5668332,6.46259664 C5.73271532,6.09765598 6.52894949,4.60471691 6.86071372,3.70895347 C7.19247796,2.81319003 7.49106577,2.11648513 7.49106577,1.98377944 C7.49106577,1.85107374 7.29200723,1.75154447 7.25883081,1.75154447 C7.22565438,1.75154447 7.02659584,1.6520152 6.92706657,1.75154447 C6.8275373,1.85107374 6.56212591,2.54777864 6.19718525,3.44354208 C5.83224459,4.33930552 5.40095108,5.93177386 5.26824539,6.32989094 C5.23506896,6.42942022 5.16871612,6.62847876 5.06918684,6.86071372 C4.43883479,7.02659584 3.50989493,7.35836008 2.97907215,7.5242422 C2.48142579,7.5242422 1.95060302,7.62377147 1.75154447,7.98871213 C1.75154447,8.15459425 1.7847209,8.35365279 1.7847209,8.51953491 L1.7847209,8.58588776 L1.7847209,8.58588776 C1.7847209,8.6522406 1.81789732,8.75176988 1.88425017,8.7849463 C2.14966156,8.88447557 2.38189652,8.91765199 2.48142579,8.91765199 C2.64730791,8.91765199 2.81319003,8.85129915 2.97907215,8.85129915 L3.01224857,8.85129915 C3.045425,9.08353411 3.07860142,9.28259265 3.21130712,9.28259265 C3.34401281,9.28259265 3.67577705,9.08353411 3.94118844,9.08353411 C4.07389413,9.08353411 4.10707056,9.11671054 4.1734234,9.11671054 C4.27295268,9.11671054 4.37248195,9.05035769 4.43883479,8.98400484 C4.50518764,9.01718127 4.57154049,9.01718127 4.63789334,9.01718127 C4.77059903,9.01718127 4.8701283,8.98400484 4.93648115,8.85129915 C5.002834,8.88447557 5.10236327,8.91765199 5.20189254,8.91765199 L5.33459823,8.91765199 C5.33459823,8.98400484 5.36777466,9.05035769 5.40095108,9.11671054 C5.5668332,9.4816512 5.53365678,9.87976828 5.5668332,10.2778854 C5.5668332,10.4437675 5.69953889,10.4769439 5.69953889,10.6760025 C5.69953889,10.8087081 5.66636247,10.9414138 5.60000962,11.0409431 C5.63318605,11.2068252 5.66636247,11.3727073 5.66636247,11.5385895 C5.66636247,11.9035301 5.5668332,12.0030594 5.5668332,12.1357651 C5.5668332,12.3348236 5.73271532,12.5007058 5.86542101,12.600235 C5.79906817,12.7661171 5.79906817,12.83247 5.79906817,12.83247 C5.79906817,12.83247 5.79906817,12.83247 5.79906817,12.8656464 C5.76589174,12.8988228 5.73271532,12.9651757 5.73271532,13.0315285 C5.73271532,13.0315285 5.73271532,13.064705 5.76589174,13.064705 C5.76589174,13.0978814 5.73271532,13.1310578 5.73271532,13.1642342 C5.16871612,13.6618806 4.43883479,14.0268212 4.07389413,14.7567026 C3.77530632,15.3207018 3.67577705,15.9510538 3.37718923,16.515053 C3.27765996,16.7141116 3.11177785,16.747288 3.07860142,17.0458758 C2.97907215,17.0458758 2.9127193,17.0790522 2.9127193,17.2117579 L2.9127193,17.2781108 C2.68048434,17.3112872 2.54777864,17.4108165 2.54777864,17.7094043 L2.54777864,17.9084628 C2.28236725,18.1075214 2.05013229,18.3729328 1.98377944,18.7378734 C1.98377944,18.7710498 1.7847209,19.9322247 1.6520152,20.5625767 C1.18754527,20.7616353 1.28707454,21.0602231 1.22072169,21.5910459 C1.05483958,21.8896337 0.855781033,22.1882215 0.855781033,22.4204564 C0.855781033,22.5199857 0.888957457,22.619515 0.955310304,22.7190443 C1.15436885,22.7522207 1.35342739,22.7853971 1.48613308,22.7853971 L1.81789732,22.7853971 C1.91742659,22.7853971 1.98377944,22.7522207 2.08330871,22.7522207 C2.14966156,22.6526914 2.21601441,22.5199857 2.21601441,22.38728 C2.48142579,22.2877507 2.3487201,22.1550451 2.58095507,21.9559865 C2.54777864,21.8232808 2.51460222,21.7237515 2.51460222,21.7237515 C2.51460222,21.7237515 2.58095507,21.5578694 2.58095507,21.4251637 C2.58095507,21.1265759 2.44824937,21.0933995 2.44824937,20.8611645 L2.44824937,20.8611645 C2.44824937,20.8611645 2.38189652,20.7284588 2.3487201,20.5625767 C2.48142579,20.2971653 2.61413149,20.0317539 2.84636646,19.8326954 C3.31083639,19.4345783 3.84165917,19.0032848 3.84165917,18.3397563 C3.97436486,18.3065799 4.04071771,18.2070506 4.07389413,17.84211 C4.57154049,17.5435222 5.13553969,16.979523 5.40095108,16.6477587 C5.46730393,16.6145823 5.5668332,16.5814059 5.63318605,16.515053 C6.06447956,16.1169359 6.36306737,16.0837595 6.52894949,15.9842302 C6.62847876,15.9178774 7.19247796,15.4534075 8.02188855,15.4534075 C9.05035769,15.4534075 9.94612113,16.6145823 10.2778854,16.8136408 C10.5764732,16.979523 10.6760025,16.9463465 10.9414138,17.0790522 C11.0741195,17.3444636 11.2731781,17.5766986 11.4058838,17.84211 C11.4390602,17.9084628 11.5385895,17.9084628 11.6049423,17.9748157 C11.7708244,18.2070506 11.8703537,18.1738742 11.969883,18.2070506 C11.969883,18.3729328 12.0030594,18.4392856 12.2021179,18.5388149 C12.6665879,20.1312832 13.6618806,19.9654011 14.0268212,20.7948117 C13.927292,20.9606938 13.8609391,21.1265759 13.8609391,21.3256345 C13.8609391,21.4251637 13.8941156,21.524693 13.8941156,21.6242223 C13.8277627,21.7237515 13.8277627,21.8232808 13.8277627,21.9228101 L13.8277627,21.9891629 C13.8941156,22.0886922 13.9936448,22.2213979 14.0931741,22.3209272 C14.2258798,22.4536329 14.3917619,22.4536329 14.5244676,22.4536329 C14.5908204,22.6526914 14.6903497,22.7190443 15.0552904,22.7190443 C15.7188189,22.6858678 15.6856424,22.5531621 15.6856424,22.38728 Z" fill="#FFFFFF" fill-rule="nonzero" mask="url(#mask-2)"></path>
                            </g>
                        </g>
                    </g>
                    <g id="Group" transform="translate(127.233766, 5.123967)" fill-rule="nonzero" fill="#272727">
                        <polygon id="Shape" points="1.00008951 2.1447695 1.00008951 0.884065403 0.535619582 0.884065403 0.535619582 0.718183284 1.66361799 0.718183284 1.66361799 0.884065403 1.19914806 0.884065403 1.19914806 2.1447695"></polygon>
                        <path d="M1.86267653,2.1447695 L1.86267653,0.718183284 L2.16126434,0.718183284 L2.49302858,1.713476 C2.526205,1.81300527 2.55938143,1.87935811 2.55938143,1.91253454 C2.55938143,1.84618169 2.59255785,1.77982884 2.62573428,1.68029957 L2.95749851,0.685006861 L3.2229099,0.685006861 L3.2229099,2.11159308 L3.05702778,2.11159308 L3.05702778,0.917241827 L2.6589107,2.11159308 L2.49302858,2.11159308 L2.0949115,0.884065403 L2.0949115,2.11159308 L1.86267653,2.11159308 L1.86267653,2.1447695 Z" id="Shape"></path>
                    </g>
                </g>
            </g>
        </g>
    </g>
</svg>