<?xml version="1.0" encoding="UTF-8"?>
<svg width="84px" height="18px" viewBox="0 0 84 18" version="1.1" xmlns="http://www.w3.org/2000/svg" xmlns:xlink="http://www.w3.org/1999/xlink">
    <!-- Generator: sketchtool 42 (36781) - http://www.bohemiancoding.com/sketch -->
    <title>42F98B26-B863-4B11-8F28-1F0F14164768</title>
    <desc>Created with sketchtool.</desc>
    <defs></defs>
    <g id="Symbols" stroke="none" stroke-width="1" fill="none" fill-rule="evenodd">
        <g id="Logo:-Sun-Sentinel" fill-rule="nonzero" fill="#1E1E1E">
            <g id="Shape">
                <path d="M58.3810582,1.43296359 C58.3810582,2.03400048 58.8769689,2.50160759 59.5088841,2.50160759 C60.1458562,2.50160759 60.664523,2.02180961 60.664523,1.43296359 C60.664523,0.837620234 60.1458562,0.353535354 59.508751,0.353535354 C58.8769689,0.353535354 58.3810582,0.828309621 58.3810582,1.43296359 L58.3810582,1.43296359 Z M9.66643258,7.04880369 C9.70329485,8.97522975 7.97988376,10.0834606 4.79602132,10.0912976 C2.10986612,10.0984648 0.170271765,9.54049782 0.172267917,9.54123463 L0.014638448,6.6801972 L0.818422318,6.6801972 L1.46730479,8.44586448 C2.10440997,8.74293331 3.02849527,9.19044557 4.59041767,9.19044557 C5.83535113,9.19044557 6.95253086,8.99036787 6.94121934,8.09092249 C6.93190396,7.30588377 6.34969296,6.76935134 5.15532868,6.38821906 L2.65155523,5.57297109 C1.34207953,5.14026204 0.240869008,4.45181256 0.240869008,2.93049862 C0.240735931,1.42070573 1.62699695,0.0408595236 5.02710919,0.0673177397 C7.33146705,0.0845323259 8.70734808,0.509069475 8.70435386,0.509069475 L8.85772487,3.15569488 L8.13179093,3.15569488 L7.46940115,1.51394582 C7.11940917,1.29089302 6.21541847,0.919339281 5.07867645,0.919339281 C3.93501443,0.919339281 2.95397226,1.22632157 2.95397226,2.01095839 C2.95397226,2.61420572 3.55667709,3.06526807 4.39173401,3.34291188 L7.3478355,4.35488841 C8.98268398,4.91868285 9.64341029,5.83031911 9.66669873,7.04880369 L9.66643258,7.04880369 Z M18.1701066,9.8638909 L14.8218943,9.86683814 L14.824822,9.20337326 L14.7995374,9.20337326 C14.2891879,9.59187364 13.6051732,10.0848672 12.3575782,10.0788388 C11.2264254,10.0734802 10.6655067,9.57311845 10.6701643,8.31049219 L10.6901259,4.39534603 L9.47047699,4.12942422 L9.47180776,3.50112531 L12.8226816,3.22917504 L12.7834239,7.92065214 C12.7814278,8.46991131 13.2405427,8.71037966 13.7129654,8.70033223 C14.3251186,8.68693567 14.7250144,8.28369906 14.9811873,8.04457037 L15.0251026,4.43084693 L13.7595422,4.14817941 L13.7615384,3.52055033 L17.1124122,3.24056212 L17.0851315,8.95821611 L18.1743651,9.2328457 L18.1723689,9.86181443 L18.1701066,9.8638909 Z M27.7127778,9.86603435 L24.3441382,9.87253168 L24.3220475,5.41884361 C24.3220475,4.75571364 23.9866939,4.51524529 23.4490637,4.51524529 C23.0619432,4.51524529 22.4399423,4.96470005 22.1226872,5.27750985 L22.1246833,8.96290491 L23.4055475,9.20471291 L23.4358225,9.86516357 L18.7302269,9.86516357 L18.7398084,9.21543016 L20.029988,8.96290491 L20.0333149,4.44558315 L18.6353431,4.16023632 L18.6353431,3.55605123 L22.0327938,3.26400611 L22.0327938,4.34778823 L22.2590244,4.18702945 C22.989616,3.64111942 23.694923,3.10994561 24.6743683,3.10994561 C25.9718671,3.10994561 26.3983782,3.62035474 26.3983782,5.02565442 L26.3877321,8.97429199 L27.7111809,9.23552501 L27.7111809,9.86516357 L27.7127778,9.86603435 Z M36.7282652,7.02087185 C36.7612017,8.93805428 35.2109235,10.0424671 32.3436508,10.0505051 C29.9246473,10.0576052 28.1792785,9.5003751 28.1804762,9.50178174 L28.0384832,6.653672 L28.762421,6.653672 L29.3462955,8.4130429 C29.9191911,8.70776733 30.7521188,9.1517295 32.1587406,9.1517295 C33.2799126,9.1517295 34.2866386,8.95299145 34.2759925,8.05937358 C34.2673425,7.27540659 33.7436853,6.74329502 32.6677593,6.36243067 L30.4141037,5.55059883 C29.2350433,5.11882753 28.2436211,4.43312435 28.2436211,2.91978137 C28.2436211,1.41507917 29.4912161,0.0408595236 32.5526479,0.0673847226 C34.6265833,0.0830587037 35.8648629,0.507729818 35.861536,0.507729818 L36.0001355,3.14216435 L35.345198,3.14216435 L34.7500786,1.5081853 C34.4346865,1.28580232 33.6211881,0.917128848 32.5976944,0.917128848 C31.5673473,0.917128848 30.6843827,1.22203467 30.6843827,2.00446106 C30.6843827,2.60261769 31.2269368,3.05234038 31.9785546,3.33005117 L34.6400906,4.33613322 C36.1129181,4.89778421 36.7067733,5.80721003 36.7277329,7.02080487 L36.7282652,7.02087185 Z M43.6043434,6.33724513 L39.1126688,6.32652788 C39.1126688,7.96539667 39.9590372,8.73054149 41.3057744,8.76135359 C42.0436853,8.77943895 42.6917693,8.49322134 43.1888111,7.93813466 L43.6406069,8.33835705 C43.1043074,9.10731988 42.0017661,10.0303432 40.3629253,10.0008708 C38.5584039,9.97072851 36.9428515,8.58726523 36.9428515,6.58474667 C36.9428515,4.43808108 38.3428195,3.04309675 40.4168214,3.08690352 C42.793573,3.13553305 43.6060069,4.54645929 43.6060069,6.33731211 L43.6043434,6.33724513 Z M41.5566242,5.68556922 C41.5566242,4.2983549 40.9977016,3.58364815 40.390206,3.58364815 C39.7540989,3.58364815 39.1386187,4.262854 39.1386187,5.67485197 L41.5572896,5.68623905 L41.5566242,5.68556922 Z M52.4482949,9.84386303 L49.0801211,9.85123114 L49.0581634,5.39888273 C49.0581634,4.73508292 48.7228098,4.49461458 48.1831834,4.49461458 C47.7979261,4.49461458 47.175792,4.94339951 46.8570731,5.25553948 L46.8604,8.94294403 L48.142595,9.1840822 L48.1725373,9.84453286 L43.4662763,9.84453286 L43.4755916,9.19546928 L44.7657712,8.94294403 L44.7690981,4.42562227 L43.370461,4.14027543 L43.370461,3.53609035 L46.7712386,3.24471506 L46.7712386,4.32581786 L46.9968038,4.16773839 C47.7287262,3.62048871 48.4327024,3.09132438 49.4121477,3.09132438 C50.7096465,3.09132438 51.1388191,3.60173352 51.1388191,5.00636337 L51.1275076,8.95567077 L52.450291,9.21824344 L52.450291,9.84587252 L52.4482949,9.84386303 Z M57.4519825,8.97040699 C56.8271869,9.49890148 56.1491607,10.0139994 54.6221044,10.0139994 C53.2427633,10.0139994 52.8741406,9.3475203 52.8741406,7.95494735 L52.8974291,4.24811778 L51.6105764,4.24811778 L51.6105764,3.67876376 C52.5986716,3.28959355 53.6027361,2.27681323 54.4171661,0.78845484 L54.9441502,0.78845484 L54.9501387,3.41686092 L56.9981906,3.42489886 L56.9981906,4.27022212 L54.9501387,4.25615572 L54.9388272,8.13513115 C54.9388272,8.75874126 55.461819,8.8853388 55.9587278,8.8853388 C56.3588897,8.8853388 56.8077577,8.70716448 57.1823689,8.47339442 L57.4531802,8.97107682 L57.4519825,8.97040699 Z M62.2726896,9.84386303 L57.5690236,9.84386303 L57.5690236,9.21623396 L58.8856854,8.946963 L58.8856854,4.43560271 L57.6187943,4.17524047 L57.6187943,3.54761139 L60.9603527,3.26005412 L60.9603527,8.95761327 L62.2719577,9.21583206 L62.2726896,9.84386303 Z M71.8535538,9.84386303 L68.4860454,9.85123114 L68.4627569,5.39888273 C68.4627569,4.73508292 68.1280688,4.49461458 67.5891077,4.49461458 C67.2025196,4.49461458 66.5797202,4.94339951 66.2629974,5.25553948 L66.2649936,8.94294403 L67.5465232,9.1840822 L67.5777962,9.84453286 L62.8715352,9.84453286 L62.8821813,9.19546928 L64.1716955,8.94294403 L64.1743571,4.42562227 L62.7770507,4.14027543 L62.7770507,3.53609035 L66.1764975,3.24471506 L66.1764975,4.32581786 L66.4020627,4.16773839 C67.1330536,3.62048871 67.8376952,3.09132438 68.8187374,3.09132438 C70.1162362,3.09132438 70.5434127,3.60173352 70.5434127,5.00636337 L70.5314358,8.95567077 L71.8555499,9.21824344 L71.8555499,9.84587252 L71.8535538,9.84386303 Z M77.8586444,6.13234467 L73.366637,6.12162741 C73.366637,7.76136699 74.2143362,8.52765051 75.5610734,8.55913244 C76.2969881,8.57654797 76.9464029,8.29053131 77.4427794,7.73457386 L77.8952405,8.13580098 C77.3582756,8.90543365 76.2563997,9.82711733 74.6168935,9.79831471 C72.8110414,9.76750261 71.1974852,8.38497709 71.1974852,6.38152078 C71.1974852,4.23539105 72.5961223,2.83946896 74.6694589,2.88434745 C77.0462105,2.93391474 77.8593098,4.34323339 77.8593098,6.13368432 L77.8586444,6.13234467 Z M75.8092617,5.48328109 C75.8092617,4.09606677 75.2510045,3.38002036 74.6441743,3.38002036 C74.006071,3.38002036 73.3919216,4.0612357 73.3919216,5.47189401 L75.8092617,5.48395091 L75.8092617,5.48328109 Z M82.5110093,9.84587252 L77.8220483,9.84587252 L77.8220483,9.18140289 L79.1235394,8.8853388 L79.1235394,1.15545374 L77.8699559,0.894220722 L77.8699559,0.370415026 L81.2035297,0.0676526539 L81.2035297,8.88239155 L82.5116747,9.17845564 L82.5110093,9.84587252 Z"></path>
                <path d="M54.3795719,15.2367843 C45.3773922,14.1938617 36.020962,13.096549 25.937866,12.648233 C21.0905435,12.4323473 16.0513244,12.3878707 11.2143819,12.6418026 C7.08101651,12.8581572 3.32705307,13.1507382 0,13.6646304 L0,14.2609785 C5.67945166,13.634823 17.4340588,12.7873563 27.6444428,13.4078182 C39.2367629,14.1135493 45.314713,15.651274 54.3496296,16.7249417 C60.3849287,17.4421938 67.3415849,17.8833427 74.31095,17.5963883 C77.2569376,17.4751494 80.0476912,17.2306621 82.5961785,16.9013745 L82.5961785,14.6385607 C80.1202846,15.0958524 77.3469641,15.4821424 74.3527361,15.7158455 C67.6183846,16.2423305 60.5613219,15.9525628 54.3799046,15.2367843 L54.3795719,15.2367843 Z M65.5530327,13.9837366 C54.7565119,14.3523431 45.4424667,13.6746108 36.5363019,12.870616 C32.4907672,12.5051577 28.2110173,12.2179353 23.8114983,12.0504783 C15.9054056,11.6132814 7.63800946,11.5322321 0.000731922399,12.0131688 L0.000731922399,12.8505881 C4.6757199,12.3843876 9.73596521,12.1244943 14.8833758,12.1017201 C22.376265,12.066889 29.7380736,12.5089757 36.5196673,13.1808134 C39.5711183,13.4835758 49.4121477,14.2270852 49.4121477,14.2270852 C54.7185851,14.582764 60.1966915,14.7850521 65.7014133,14.6517563 C72.3552533,14.4896579 78.0808826,13.7394502 82.5968438,12.7219811 L82.5968438,11.5022238 C78.2312594,12.6322241 72.6287262,13.7414597 65.5536981,13.9825979 L65.5530327,13.9837366 Z"></path>
            </g>
        </g>
    </g>
</svg>