<?xml version="1.0" encoding="UTF-8"?>
<svg width="158px" height="20px" viewBox="0 0 158 20" version="1.1" xmlns="http://www.w3.org/2000/svg" xmlns:xlink="http://www.w3.org/1999/xlink">
    <!-- Generator: sketchtool 42 (36781) - http://www.bohemiancoding.com/sketch -->
    <title>A4AF52BC-F49B-46DC-9A1F-3C3EF05C718D</title>
    <desc>Created with sketchtool.</desc>
    <defs></defs>
    <g id="Symbols" stroke="none" stroke-width="1" fill="none" fill-rule="evenodd">
        <g id="Logo:-Carroll-County-Times" fill-rule="nonzero" fill="#003C00">
            <g id="Shape">
                <path d="M4.97305172,0.765934066 C2.95655305,1.8978022 1.81277705,4.22857143 1.81277705,6.78131868 C1.81277705,10.7549451 3.69353325,13.818022 7.41555299,13.818022 C8.05520432,13.818022 8.53990638,13.7514286 9.00518582,13.618022 L9.00518582,2.32 C8.26842143,2.32 7.58992488,2.05362637 7.02774818,1.4989011 L6.42694207,1.96483516 L6.42694207,9.64505495 C6.42694207,11.0657143 5.63277308,12.0868132 4.46957447,12.3527473 L4.39188403,12.0421978 C4.70264581,11.7314286 4.79975886,11.2430769 4.79975886,10.7993407 L4.79975886,3.45208791 L2.86181387,5.04989011 L2.86181387,4.58395604 L8.09491277,0.010989011 L8.3085615,0.010989011 C8.5597606,0.210989011 9.1221531,0.721538462 9.85870168,0.721538462 C10.4996479,0.721538462 11.0413229,0.521538462 11.5463108,0.188791209 L11.6434239,0.410769231 C11.3333095,1.25252747 10.3831122,2.07450549 9.35587186,2.31846154 L9.35587186,13.4832967 C10.344267,13.1052747 11.1006698,12.4613187 11.8177957,11.7074725 L12.0314445,11.9514286 C10.6567552,14.0591209 8.91087825,15.190989 6.62332626,15.190989 C2.90044329,15.1934066 0.185593841,12.5956044 0.185593841,8.24615385 C0.185593841,4.82769231 2.14339306,1.6756044 4.91564711,0.498901099 L4.97391494,0.764835165 L4.97305172,0.765934066 Z M20.1060714,7.33626374 L18.652181,8.49076923 L18.652181,12.7971429 L19.4858427,13.5962637 L19.9509063,13.2410989 L20.1447008,13.5074725 L18.3806961,14.9712088 L18.167479,14.9712088 L17.6249407,14.4175824 C17.3336015,14.129011 17.1790839,13.8626374 17.1790839,12.9525275 L14.3099326,14.9723077 L13.9797482,14.9723077 C13.2805342,14.7283516 12.4086747,13.9958242 12.4086747,12.9745055 C12.4086747,11.4650549 14.0552806,10.4661538 15.1019435,9.9778022 L13.4920248,8.15582418 C13.2201083,7.86571429 13.08415,7.53384615 13.08415,7.33384615 C13.08415,6.75582418 13.4510215,6.40197802 13.9365868,6.40197802 C14.3423036,6.40197802 14.7890237,6.73384615 14.7890237,7.24373626 C14.7890237,7.55362637 14.6336428,7.81956044 14.4394167,7.9756044 L14.4782619,8.01956044 C15.4278118,7.95142857 16.9211948,7.10967033 17.4240246,6.39758242 L17.7347864,6.39758242 C17.8901673,6.88549451 18.5095327,7.59538462 18.995098,7.59538462 C19.2670146,7.59538462 19.692154,7.17340659 19.9252253,7.01736264 L20.0978707,7.32725275 L20.1060714,7.33626374 Z M17.1790839,12.4637363 L17.1790839,8.57956044 L16.3259996,7.82483516 C15.7066341,8.2243956 15.0095782,8.46879121 14.2909416,8.51274725 L16.2871544,10.7771429 L16.0562411,11.0659341 L15.3591852,10.2659341 L14.8369328,10.5764835 C14.3146803,10.8872527 13.8873829,11.3314286 13.8873829,12.1083516 C13.8873829,13.0402198 14.7009745,13.550989 15.3807659,13.772967 L17.1849107,12.4630769 L17.1790839,12.4637363 Z M24.700598,13.6182418 L25.5340438,13.0189011 L25.8038023,13.2852747 L23.6522086,14.9723077 L23.283179,14.9723077 C22.7587685,14.3507692 22.1588256,13.707033 21.7509508,13.707033 C21.3624985,13.707033 21.1100046,14.1065934 20.8186654,14.372967 L20.5467489,14.0843956 L22.0573964,12.7971429 L22.0573964,8.57956044 L21.6495216,8.11362637 C21.5718311,8.00241758 21.4358729,7.82505495 21.280492,7.82505495 C21.0862658,7.82505495 20.930885,8.04703297 20.7755041,8.20241758 L20.4647423,7.84857143 L22.1890386,6.40681319 L22.4439064,6.40681319 L23.1034119,7.00681319 C23.4907851,7.36285714 23.5296303,8.13868132 23.5296303,8.45076923 L25.2949299,6.40901099 L25.5668465,6.40901099 C25.74165,6.78703297 26.1473667,7.34307692 26.5746642,7.34307692 C26.9242712,7.34307692 27.0796521,7.43318681 27.0796521,7.69912088 C27.0796521,7.96505495 26.2272152,8.76505495 25.6264091,8.76505495 C25.0648799,8.76505495 24.7351271,8.54307692 24.3855201,8.05516484 L23.5315726,9.01098901 L23.5315726,12.8065934 L24.6926131,13.6263736 L24.700598,13.6182418 Z M32.0596096,13.6182418 L32.8932712,13.0189011 L33.1647562,13.2852747 L31.0131625,14.9723077 L30.6445645,14.9723077 C30.121233,14.3507692 29.5202111,13.707033 29.1129837,13.707033 C28.7253947,13.707033 28.4733323,14.1065934 28.1824248,14.372967 L27.9126663,14.0843956 L29.4254719,12.7971429 L29.4254719,8.57956044 L29.0197551,8.11362637 C28.9420647,8.00241758 28.8082645,7.82505495 28.6528836,7.82505495 C28.4608155,7.82505495 28.3054347,8.04703297 28.1500538,8.20241758 L27.8390762,7.84835165 L29.5648831,6.40659341 L29.8169454,6.40659341 L30.4766668,7.00659341 C30.8644716,7.36263736 30.9033168,8.13846154 30.9033168,8.45054945 L32.6664583,6.40879121 L32.9383749,6.40879121 C33.1110203,6.78681319 33.5188951,7.34285714 33.9461926,7.34285714 C34.2936415,7.34285714 34.4490224,7.43142857 34.4490224,7.6978022 C34.4490224,7.96461538 33.5944275,8.76373626 32.9944846,8.76373626 C32.4312289,8.76373626 32.1010445,8.54175824 31.7535956,8.05340659 L30.8990007,9.00835165 L30.8990007,12.803956 L32.0621993,13.6252747 L32.0596096,13.6182418 Z M42.5862333,7.38087912 L41.3841895,8.33538462 L41.3841895,12.8637363 C41.5978382,12.9747253 41.88853,13.1745055 41.88853,13.3742857 C41.88853,13.5072527 41.6947355,13.5738462 41.4232505,13.5738462 C39.4654513,13.5738462 37.9530773,14.4397802 37.4882295,14.9738462 L37.081002,14.9738462 C36.4994027,14.4859341 35.6657411,13.798022 35.3556267,13.798022 C35.0455124,13.798022 34.8905631,14.0661538 34.6385008,14.22 L34.3475932,13.9540659 L35.5107918,13.0661538 L35.5107918,8.44615385 C35.3359883,8.37978022 34.9863813,8.06901099 34.9863813,7.91362637 C34.9863813,7.86923077 35.0058039,7.80263736 35.0834944,7.80263736 C36.246693,7.80263736 38.4177093,7.29208791 39.4061044,6.40417582 L39.7535534,6.40417582 C40.1592701,6.84813187 41.1304007,7.60197802 41.4778496,7.60197802 C41.7303436,7.60197802 42.1360603,7.31186813 42.3497091,7.06791209 L42.5806223,7.3778022 L42.5862333,7.38087912 Z M38.0888198,7.64725275 L36.983889,8.02461538 L36.983889,12.7081319 L38.7675321,13.7516484 C39.1162759,13.5736264 39.5815553,13.4186813 39.9113081,13.3520879 L39.9113081,8.69054945 L38.0888198,7.64725275 L38.0888198,7.64725275 Z M44.1955046,1.49846154 C44.1955046,1.49846154 45.5913429,1.23208791 46.1923648,0.632527473 L46.4053661,0.965934066 C45.7657148,1.76505495 45.5719203,3.0967033 45.5719203,4.11802198 L45.5719203,12.9081319 L46.4442113,13.5740659 L46.948336,13.1964835 L47.1615531,13.4628571 L45.4361778,14.9723077 L45.0693063,14.9723077 C44.6247443,14.372967 44.1003338,13.929011 43.7334622,13.929011 C43.4615457,13.929011 43.1723646,14.172967 42.9587158,14.3285714 L42.6867993,14.0178022 L44.1024918,13.176044 L44.1024918,3.38681319 C44.1024918,2.83164835 44.0248014,2.14351648 43.9276883,1.69956044 L44.1996049,1.49956044 L44.1955046,1.49846154 Z M48.9838257,1.49846154 C48.9838257,1.49846154 50.3800956,1.23208791 50.9806859,0.632527473 L51.193903,0.965934066 C50.5551149,1.76505495 50.3608888,3.0967033 50.3608888,4.11802198 L50.3608888,12.9081319 L51.2327482,13.5740659 L51.7377361,13.1964835 L51.9513849,13.4628571 L50.2270886,14.9723077 L49.860217,14.9723077 C49.4156551,14.372967 48.8912446,13.929011 48.5222149,13.929011 C48.2502984,13.929011 47.9611173,14.172967 47.7474686,14.3285714 L47.4774943,14.0175824 L48.8923236,13.1758242 L48.8923236,3.38681319 C48.8923236,2.83164835 48.8146331,2.14351648 48.7175201,1.69956044 L48.9894366,1.49956044 L48.9838257,1.49846154 Z M61.7067151,0.765934066 C59.6904322,1.8978022 58.5466562,4.22879121 58.5466562,6.78131868 C58.5466562,10.7549451 60.4271966,13.818022 64.1490006,13.818022 C64.7888677,13.818022 65.2733539,13.7514286 65.7388492,13.618022 L65.7388492,2.32 C65.00079,2.32 64.3231566,2.05362637 63.7599009,1.4989011 L63.1578,1.96483516 L63.1578,9.64505495 C63.1578,11.0657143 62.3614729,12.0868132 61.1982743,12.3527473 L61.1205838,12.0421978 C61.4313456,11.7314286 61.5263006,11.2430769 61.5263006,10.7993407 L61.5263006,3.45208791 L59.5883556,5.04989011 L59.5883556,4.58395604 L64.8262023,0.010989011 L65.0394194,0.010989011 C65.2919133,0.210989011 65.8534426,0.721318681 66.5904228,0.721318681 C67.2305057,0.721318681 67.773044,0.521318681 68.2773845,0.188571429 L68.3740659,0.410549451 C68.0639516,1.25406593 67.1137543,2.07538462 66.0865139,2.31956044 L66.0865139,13.4850549 C67.0753407,13.1076923 67.8313119,12.463956 68.5484378,11.7092308 L68.7620865,11.9531868 C67.3865341,14.0621978 65.6415203,15.1940659 63.3539683,15.1940659 C59.6323802,15.1940659 56.9186098,12.5971429 56.9186098,8.24637363 C56.9186098,4.82879121 58.8759774,1.67714286 61.6484473,0.501318681 L61.7067151,0.767252747 L61.7067151,0.765934066 Z M76.8229018,7.38087912 L75.620858,8.33538462 L75.620858,12.8637363 C75.8340751,12.9747253 76.1249827,13.1745055 76.1249827,13.3742857 C76.1249827,13.5072527 75.9311882,13.5738462 75.6597032,13.5738462 C73.701904,13.5738462 72.18953,14.4397802 71.7246822,14.9738462 L71.3174548,14.9738462 C70.7347764,14.4859341 69.9017622,13.798022 69.5910004,13.798022 C69.2802387,13.798022 69.1248578,14.0661538 68.8723638,14.22 L68.5810246,13.9518681 L69.7442233,13.063956 L69.7442233,8.44615385 C69.5694198,8.37978022 69.2198128,8.06901099 69.2198128,7.91362637 C69.2198128,7.86923077 69.2392354,7.80263736 69.3169258,7.80263736 C70.4801244,7.80263736 72.6511407,7.29208791 73.6395359,6.40417582 L73.9869848,6.40417582 C74.3927016,6.84813187 75.3638321,7.60197802 75.7112811,7.60197802 C75.9616169,7.60197802 76.3694918,7.31186813 76.5831405,7.06791209 L76.8162118,7.3778022 L76.8229018,7.38087912 Z M72.3254883,7.64725275 L71.2205575,8.02461538 L71.2205575,12.7081319 L73.0042007,13.7516484 C73.3529444,13.5736264 73.8182239,13.4186813 74.1479767,13.3520879 L74.1479767,8.69054945 L72.3254883,7.64725275 L72.3254883,7.64725275 Z M79.0716086,6.4043956 L79.3819388,6.4043956 L79.9829607,7.1367033 C80.1765394,7.38065934 80.2542298,7.62505495 80.2542298,8.22461538 L80.2542298,12.8637363 L81.2620476,13.5956044 L83.181649,12.1085714 L83.181649,8.5789011 L82.4256778,7.86901099 L81.9215531,8.22395604 L81.7855948,7.84593407 L83.4723407,6.42395604 L83.7630325,6.42395604 C84.1104814,6.88989011 84.6543145,7.53384615 85.0211861,7.53384615 C85.2931026,7.53384615 85.6988194,7.15582418 85.9318907,6.9778022 L86.1261168,7.30967033 L84.7492695,8.41956044 L84.7492695,12.6153846 L85.5822837,13.5479121 L86.0074231,13.303956 L86.1994912,13.5479121 L84.5313047,14.9683516 L84.1646489,14.9683516 L83.4667297,14.1028571 C83.2537284,13.8353846 83.1954606,13.5248352 83.1954606,12.6589011 L80.2130107,14.970989 L79.902249,14.970989 C79.3972611,14.5050549 78.8167408,13.9057143 78.408866,13.9057143 C78.156372,13.9057143 77.8261876,14.1276923 77.4593161,14.4837363 L77.26509,14.1958242 L78.7757375,12.9738462 L78.7757375,8.46835165 L78.1220587,7.69010989 L77.5210368,8.17868132 L77.2689745,7.82307692 L79.0716086,6.4021978 L79.0716086,6.4043956 Z M93.8053857,14.9723077 L93.5144782,14.9723077 C92.9717241,14.483956 92.4872378,14.0843956 92.4872378,13.1520879 L92.4872378,8.55736264 L91.633722,7.75824176 L89.462274,9.66725275 L89.462274,12.8857143 L90.3153583,13.5072527 L90.8203462,13.1520879 L91.0534175,13.4186813 L89.1737404,14.9725275 L88.9039819,14.9725275 C88.5759555,14.6171429 88.0903903,13.9958242 87.6436702,13.9958242 C87.4127569,13.9958242 87.0437273,14.2178022 86.810656,14.5958242 L86.5020523,14.3079121 L87.9954353,13.0661538 L87.9954353,8.62659341 L87.1818437,7.76285714 L86.7178591,8.20681319 L86.4265199,7.89692308 L88.2112421,6.41120879 L88.5802717,6.41120879 L89.258984,7.27714286 C89.3949423,7.43318681 89.4532102,7.76505495 89.4726328,9.07494505 L92.7291573,6.41120879 L93.05891,6.41120879 C93.3502492,6.87714286 93.9322801,7.54307692 94.2609539,7.54307692 C94.6105609,7.54307692 94.920891,7.25516484 95.1910811,6.98923077 L95.4241525,7.3210989 L93.9709095,8.47494505 L93.9709095,11.956044 C93.9709095,12.7773626 94.2810239,13.2659341 94.842769,13.5323077 L95.289489,13.1993407 L95.5031378,13.5764835 L93.8176867,14.9742857 L93.8053857,14.9723077 Z M98.8848302,7.55824176 L98.8848302,12.8857143 L99.7379144,13.5516484 L100.45504,12.9745055 L100.68768,13.2408791 L98.6910357,14.9723077 L98.458396,14.9723077 C98.0125391,14.5503297 97.31462,13.9068132 96.9268152,13.9068132 C96.6941755,13.9068132 96.4032679,14.0621978 96.170844,14.2841758 L95.9576269,13.9958242 L97.4115172,12.9101099 L97.4115172,7.56043956 L96.8104953,7.56043956 C96.5778556,7.56043956 96.3452159,7.62637363 96.1902666,7.95956044 L95.9576269,7.84835165 L96.4809583,6.40549451 L97.4132437,6.40549451 L97.4132437,3.34065934 L98.8872041,2.29758242 L98.8872041,6.4043956 L99.6835311,6.4043956 C99.9748703,6.4043956 100.285632,6.22637363 100.497123,5.96043956 L100.671926,6.11538462 L100.149674,7.55824176 L98.8893621,7.55824176 L98.8848302,7.55824176 Z M108.965597,7.38087912 L107.821821,8.29076923 L107.821821,12.2863736 C107.821821,16.2156044 102.510168,14.0621978 102.510168,16.1931868 C102.510168,16.4371429 102.702237,16.7250549 103.129534,16.7250549 C103.612941,16.7250549 104.176197,16.5250549 104.77614,16.3250549 C105.35666,16.147033 105.997606,15.947033 106.636394,15.947033 C107.488831,15.947033 108.244155,16.412967 108.244155,17.5008791 C108.244155,19.5865934 105.626419,19.9865934 104.307839,19.9865934 C103.822274,19.9865934 103.319444,19.8964835 102.892147,19.7426374 L102.892147,19.3887912 C103.375554,19.4986813 103.861119,19.5887912 104.366107,19.5887912 C105.199121,19.5887912 107.700322,19.2767033 107.700322,17.9448352 C107.700322,17.6107692 107.428405,17.3228571 107.02053,17.3228571 C106.49612,17.3228571 105.935022,17.5228571 105.352344,17.7008791 C104.750243,17.9008791 104.111455,18.1008791 103.431664,18.1008791 C102.674182,18.1008791 101.957703,17.6349451 101.957703,16.6789011 C101.957703,15.390989 103.062634,14.947033 103.992761,14.769011 L103.992761,14.7252747 C102.577069,14.5259341 101.86059,13.86 101.86059,12.4615385 L101.86059,8.29010989 L101.355602,7.62417582 L100.908882,7.91274725 L100.695233,7.62417582 L102.264149,6.40373626 L102.631668,6.40373626 C102.999834,6.60307692 103.329371,6.86967033 103.329371,7.7356044 L103.329371,8.95604396 L106.608555,6.40351648 L106.997008,6.40351648 C107.34532,6.53648352 107.791177,7.44659341 108.101938,7.44659341 C108.353353,7.44659341 108.605416,7.18021978 108.740726,7.04703297 L108.954375,7.3789011 L108.965597,7.38087912 Z M105.573114,7.73582418 L103.34383,9.46725275 L103.34383,13.0857143 C103.34383,14.0175824 103.770264,14.3951648 104.836566,14.3951648 C105.902651,14.3951648 106.347213,14.0178022 106.347213,13.0852747 L106.347213,8.31318681 L105.572683,7.73626374 L105.573114,7.73582418 Z M125.734648,0.544175824 C125.307998,1.74263736 124.513182,2.54197802 123.369406,2.89692308 L123.369406,13.22 C124.261335,12.8221978 124.959254,12.1320879 125.502008,11.2903297 L125.734648,11.5562637 C124.454914,13.8881319 122.807445,15.198022 120.151726,15.198022 C117.030513,15.198022 113.967783,13.4002198 113.967783,9.25076923 C113.967783,6.23318681 115.519434,3.63538462 117.981789,2.52549451 L118.13717,2.85956044 C116.490564,3.76945055 115.597124,5.94527473 115.597124,7.89912088 C115.597124,11.4068132 118.040057,13.7826374 121.026823,13.7826374 C121.706614,13.7826374 122.384248,13.6287912 123.023036,13.3628571 L123.023036,2.9010989 C122.442515,2.9010989 121.743301,2.85648352 121.201626,2.67912088 L120.502412,3.18725275 L120.502412,10.1125275 C120.502412,11.5784615 119.688821,12.3775824 118.603313,12.6215385 L118.486777,12.2879121 C118.642158,12.1547253 118.875229,11.9327473 118.875229,11.578022 L118.875229,4.54065934 L117.459537,5.65054945 L117.248046,5.25120879 L120.737642,2.54351648 C119.516175,2.2989011 117.364582,1.43296703 116.084847,1.43296703 C114.960494,1.43296703 112.983704,1.98791209 112.983704,3.83032967 C112.983704,4.49626374 113.158507,5.09582418 113.780031,5.20681319 L113.663495,5.60681319 C113.082975,5.54087912 112.636255,4.76505495 112.636255,4.05296703 C112.636255,1.36725275 115.506485,0.0134065934 117.502698,0.0134065934 C118.568784,0.0134065934 119.634869,0.257362637 120.720377,0.525494505 C121.825308,0.791428571 122.930239,1.03538462 124.054592,1.03538462 C124.501312,1.03538462 125.219949,0.835384615 125.489707,0.391428571 L125.742201,0.547472527 L125.734648,0.544175824 Z"></path>
                <path d="M127.441032,6.31516484 L127.615836,6.31516484 C127.887105,6.58153846 128.545963,7.26967033 128.836871,7.26967033 C129.050519,7.26967033 129.361281,6.98131868 129.536085,6.82571429 L129.788579,7.15868132 L128.392309,8.37978022 L128.392309,12.4637363 C128.392309,13.0410989 128.897297,13.4850549 129.208058,13.6182418 L129.868427,13.1298901 L130.062653,13.42 L128.202399,14.9738462 L127.736256,14.9738462 C127.447075,14.7079121 126.922664,14.22 126.922664,13.641978 L126.922664,8.33626374 L126.342144,7.7589011 L125.761624,8.18087912 L125.470285,7.91428571 L127.449233,6.3156044 L127.441032,6.31516484 Z M127.576991,2.09758242 L127.809415,2.09758242 L128.739973,2.96351648 L129.282943,2.49758242 L129.495945,2.78549451 L127.828837,4.40615385 L127.576775,4.40615385 L126.665639,3.47384615 L126.122669,3.96241758 L125.851184,3.69428571 L127.576775,2.09648352 L127.576991,2.09758242 Z M133.528295,12.8857143 L134.303904,13.4852747 L134.885288,13.1520879 L135.117927,13.4628571 L133.121283,14.9723077 L132.946479,14.9723077 C132.597736,14.5503297 131.860971,13.7958242 131.667177,13.7958242 C131.473382,13.7958242 131.124423,14.1738462 130.833731,14.3298901 L130.639936,14.02 L132.055197,12.9320879 L132.055197,9.0021978 C132.055197,8.29230769 131.512227,7.82571429 131.240958,7.82571429 C131.107158,7.82571429 130.9712,7.9589011 130.815819,8.02571429 L130.679861,7.67032967 L132.212089,6.40483516 L132.542273,6.40483516 L133.163797,7.02637363 C133.552249,7.51472527 133.532826,7.95868132 133.532826,8.6021978 L136.403057,6.40483516 L136.713819,6.40483516 L137.39361,7.18131868 C137.646104,7.46967033 137.76264,7.80285714 137.782062,8.69054945 L140.591867,6.40483516 L140.863783,6.40483516 C141.096855,6.84879121 141.677375,7.40351648 142.026982,7.40351648 C142.298898,7.40351648 142.648505,7.20351648 142.995954,6.91516484 L143.209603,7.20395604 L141.949291,8.20285714 L141.949291,12.4204396 C141.949291,13.0863736 142.279476,13.3083516 142.667928,13.6193407 L143.191691,13.1753846 L143.462313,13.5307692 L141.660326,14.9734066 L141.446677,14.9734066 C141.09707,14.6393407 140.477705,14.1953846 140.477705,13.3514286 L140.477705,8.44615385 L139.508732,7.78021978 L137.743433,9.2232967 L137.743433,12.9516484 L138.423224,13.5065934 L139.082082,13.0846154 L139.276308,13.3512088 L137.299518,14.9716484 L137.105292,14.9716484 C136.621237,14.5057143 136.000361,14.1518681 135.573064,13.7958242 L136.271846,13.241978 L136.271846,9.2021978 C136.271846,8.53626374 135.981586,8.02571429 135.380564,7.71494505 L133.539085,9.1356044 L133.539085,12.8872527 L133.528295,12.8857143 Z M144.675794,8.37978022 C144.423732,8.24659341 144.210515,7.9578022 144.210515,7.73582418 C145.315446,7.73582418 147.039742,6.95912088 147.661266,6.40395604 L147.872756,6.40395604 L149.635898,9.0232967 L149.635898,9.35626374 L146.146302,11.6441758 L146.146302,12.7540659 L147.773485,13.7101099 L149.303555,12.7342857 L149.575472,13.0463736 L146.569283,14.9782418 L146.258521,14.9782418 C145.811801,14.6024176 145.056478,13.7804396 144.55149,13.7804396 C144.298996,13.7804396 143.951547,14.0243956 143.815589,14.1145055 L143.543672,13.8705495 L144.668025,13.1167033 L144.668025,8.38021978 L144.675794,8.37978022 Z M148.339546,9.71164835 L146.807965,7.3810989 C146.614387,7.46967033 146.342902,7.60307692 146.148892,7.66945055 L146.148892,11.1767033 L148.341489,9.71164835 L148.339546,9.71164835 Z M157.121372,6.60395604 L154.465438,9.86703297 L157.082527,9.86703297 C157.276321,9.86703297 157.354012,9.93362637 157.354012,10.110989 C157.354012,10.2221978 157.140795,10.4217582 156.908155,10.4885714 L156.908155,12.9523077 C157.121372,13.0410989 157.315382,13.2854945 157.315382,13.4408791 C157.315382,13.5738462 157.198847,13.5738462 156.985845,13.5962637 C155.744956,13.7072527 154.543344,14.2621978 154.000374,14.9725275 L153.69026,14.9725275 C153.166713,14.572967 152.391103,14.2626374 151.770874,14.2626374 C151.266965,14.2626374 150.782479,14.5953846 150.375036,14.9061538 L150.122974,14.7061538 L152.972486,11.221978 L150.530201,11.221978 C150.37482,11.221978 150.200664,11.1331868 150.200664,10.978022 C150.200664,10.8668132 150.356045,10.667033 150.530201,10.578022 L150.762841,10.4672527 L150.762841,8.33626374 C150.493082,8.09186813 150.240588,8.00285714 150.240588,7.82549451 C150.240588,7.62549451 150.55135,7.62549451 150.959225,7.58153846 C151.889352,7.51472527 152.84106,7.04857143 153.596384,6.40483516 L153.887723,6.40483516 C154.315021,6.64879121 154.837273,7.00417582 155.400529,7.00417582 C156.00263,7.00417582 156.447192,6.71406593 156.893912,6.40417582 L157.126983,6.60197802 L157.121372,6.60395604 Z M155.434842,10.8435165 L153.709682,10.8435165 L151.402708,13.7072527 L151.441553,13.7512088 C151.848781,13.4628571 152.682442,12.9745055 153.457836,12.9745055 C154.057779,12.9745055 154.774257,13.2408791 155.143287,13.6404396 L155.434626,13.6404396 L155.434626,10.8435165 L155.434842,10.8435165 Z M153.825787,10.1331868 L155.919544,7.53604396 L155.880699,7.48989011 C155.279677,7.86571429 154.600965,8.26571429 153.864416,8.26571429 C153.244187,8.26571429 153.011548,8.02175824 152.565259,7.53164835 L152.236154,7.70967033 L152.236154,10.1318681 L153.825787,10.1318681 L153.825787,10.1331868 Z"></path>
            </g>
        </g>
    </g>
</svg>