<?xml version="1.0" encoding="utf-8"?>
<!-- Generator: Adobe Illustrator 20.0.0, SVG Export Plug-In . SVG Version: 6.00 Build 0)  -->
<svg version="1.1" id="Layer_1" xmlns="http://www.w3.org/2000/svg" xmlns:xlink="http://www.w3.org/1999/xlink" x="0px" y="0px"
	 viewBox="0 0 72 52" style="enable-background:new 0 0 72 52;" xml:space="preserve">
<style type="text/css">
	.st0{fill:#FFFFFF;}
</style>
<g>
	<path class="st0" d="M68.8,11.2c0,6.2-5,11.2-11.2,11.2s-11.2-5-11.2-11.2C46.4,5,51.4,0,57.6,0S68.8,5,68.8,11.2"/>
	<path class="st0" d="M31.8,16.8C30.2,18.8,27.8,20,25,20c-2.7,0-5.1-1.2-6.7-3.1c-1.3-1.5-2.1-3.5-2.1-5.7c0-4.9,4-8.8,8.8-8.8
		c4.9,0,8.8,4,8.8,8.8C33.9,13.3,33.1,15.3,31.8,16.8z M58,27.4c-0.1,0-0.3,0-0.4,0v0c-12.2,0-16.6-5.3-24.6-8.4
		c2.9-2.8,3.2-5.4,3.2-7.8C36.2,5,31.2,0,25,0c-6.2,0-11.2,5-11.2,11.2c0,2.4,0.8,5.5,3.6,7.9C9.4,22.1,1.8,27.7,0,36.2v1.3
		c0,2.9,2.3,5.2,5.2,5.2c1.5,0,2.9-0.7,3.9-1.8V52h2.4V35.9c0-0.3,0.9-8,13.6-8c12.6,0,12.8,8.2,12.8,8.2V52H72V36.8
		C72,36.8,72.1,27.4,58,27.4z"/>
</g>
</svg>
