<?xml version="1.0" encoding="utf-8"?>
<!-- Generator: Adobe Illustrator 20.0.0, SVG Export Plug-In . SVG Version: 6.00 Build 0)  -->
<svg version="1.1" id="Layer_1" xmlns="http://www.w3.org/2000/svg" xmlns:xlink="http://www.w3.org/1999/xlink" x="0px" y="0px"
	 viewBox="0 0 82.4 82.4" style="enable-background:new 0 0 82.4 82.4;" xml:space="preserve">
<g>
	<path d="M41.2,0C18.4,0,0,18.4,0,41.2c0,22.7,18.4,41.2,41.2,41.2c22.7,0,41.2-18.5,41.2-41.2C82.4,18.4,63.9,0,41.2,0z M41.2,9.1
		c8.9,0,16.9,3.5,22.6,9.2c-5.4,3.5-11.5,6.6-18.1,8.9c-2.7-4.3-5.8-8.2-9.4-11.9c-1.6-1.6-3.3-3.2-5.1-4.7
		C34.3,9.6,37.8,9.1,41.2,9.1z M26.4,12.7c5.7,4.4,10.8,9.9,14.7,16.1c-8.2,2.3-17.1,3.7-26.4,3.7c-1.4,0-2.9-0.1-4.3-0.1
		C12.8,23.8,18.6,16.7,26.4,12.7z M16.3,61.5c-4.6-5.6-7.2-12.7-7.2-20.3c0-1.5,0.1-2.9,0.3-4.3c1.8,0,3.5,0.1,5.3,0.1
		c10,0,19.6-1.4,28.8-4.2c1.6,3,3,6.3,4.3,9.6c-3.2,0.9-6.1,1.9-9.1,3.2c-8,3.4-15.1,8.4-21.3,14.7C17,60.7,16.7,61.1,16.3,61.5z
		 M50.8,71.7c-3,1-6.2,1.5-9.6,1.5c-8.4,0-16-3.3-21.7-8.5c7.9-8.5,18.1-14.8,29.5-17.9c1.5,5.3,2.3,11,2.3,16.9
		C51.3,66.4,51.1,69.1,50.8,71.7z M55.6,69.8c0.1-2,0.3-4.1,0.3-6.1c0-6.1-0.8-12-2.4-17.9c3.7-0.8,7.5-1,11.3-1
		c2.8,0,5.6,0.1,8.2,0.5C71.6,56.1,64.9,65.1,55.6,69.8z M64.8,40.3c-4.2,0-8.5,0.4-12.5,1.1c-0.5-1.4-1-2.9-1.6-4.3
		c-0.8-2-1.6-3.9-2.7-5.8c6.8-2.4,13.2-5.6,18.9-9.5c4.1,5.3,6.5,11.9,6.5,19C70.5,40.4,67.7,40.3,64.8,40.3z"/>
</g>
</svg>
