<?xml version="1.0" encoding="utf-8"?>
<!-- Generator: Adobe Illustrator 20.0.0, SVG Export Plug-In . SVG Version: 6.00 Build 0)  -->
<svg version="1.1" id="Isolation_Mode" xmlns="http://www.w3.org/2000/svg" xmlns:xlink="http://www.w3.org/1999/xlink" x="0px"
	 y="0px" viewBox="0 0 118.2 138.8" style="enable-background:new 0 0 118.2 138.8;" xml:space="preserve">
<style type="text/css">
	.st0{fill:#FFFFFF;}
</style>
<g id="XMLID_1_">
	<g id="XMLID_19_">
		<path id="XMLID_20_" class="st0" d="M59.1,0C26.5,0,0,26.5,0,59.1c0,16.3,6.6,31.1,17.3,41.8s41.8,37.9,41.8,37.9
			s31.1-27.2,41.8-37.9c10.7-10.7,17.3-25.5,17.3-41.8C118.2,26.5,91.8,0,59.1,0z M59.3,106.7C33.2,106.7,12,85.6,12,59.5
			s21.2-47.3,47.3-47.3s47.3,21.2,47.3,47.3S85.4,106.7,59.3,106.7z"/>
	</g>
	<g id="XMLID_13_">
		<path id="XMLID_18_" class="st0" d="M55.8,45.8c0.6-0.2,1.7-0.3,1.7-0.3V54c-1.5-0.4-2.9-0.9-3.6-1.5c-0.7-0.6-1.1-1.5-1.1-2.6
			c0-0.7,0.1-1.4,0.4-1.9c0.3-0.5,0.6-1,1.1-1.3C54.8,46.3,55.3,46,55.8,45.8z"/>
		<path id="XMLID_17_" class="st0" d="M65.7,64.2c0.9,0.7,0.9,1.7,0.9,3c0,0.8-0.4,1.5-0.7,2.2c-0.4,0.6-0.9,1.1-1.4,1.5
			c-0.5,0.4-0.4,0.7-1.1,1c-0.7,0.2-1.2,0.4-1.2,0.4v-10C62.2,62.9,64.9,63.5,65.7,64.2z"/>
		<path id="XMLID_14_" class="st0" d="M59.1,17.7c-22.9,0-41.4,18.5-41.4,41.4s18.5,41.4,41.4,41.4s41.4-18.5,41.4-41.4
			S82,17.7,59.1,17.7z M73,70.4c-0.4,1.2-1.1,2.3-2.1,3.4c-1,1.1-1.5,2.1-3.2,3c-1.7,0.9-4.1,1.4-5.6,1.6v3.4h-4.6v-3.4
			c-3.1-0.3-6.9-1.8-9.1-3.9c-2.2-2.1-3.5-5-3.8-9.7H52c0,1.5,0.5,3.9,1.6,5c1.1,1.1,2.5,2.2,4,2.5V61.4c0-0.1-0.4-0.2-0.7-0.2
			c-0.3-0.1-0.6-0.2-1-0.2c-1.3-0.3-2.6-0.8-3.8-1.2c-1.3-0.5-2.4-1.1-3.4-1.9c-1-0.8-1.8-1.8-2.4-2.9c-0.6-1.2-0.9-2.6-0.9-4.4
			c0-1.8,0.3-3.3,1-4.7c0.7-1.3,1.6-2.5,2.7-3.4c1.1-0.9,2.4-1.6,3.9-2.1c1.5-0.5,3-0.8,4.5-0.9v-4h4.6v4c0,0.2,2.2,0.5,3.6,1
			c1.4,0.5,2.2,1.2,3.2,2.1c1,0.9,1.7,1.4,2.4,2.7c0.6,1.3,0.8,2.5,0.9,4.1h-7.4c0-1.5,0.3-2-0.5-2.9c-0.8-1-2.2-0.9-2.2-0.9v9.2
			c0,0.1,0,0.2,0.5,0.3c0.4,0.1,0.5,0.2,1,0.4c2.6,0.7,4.3,1.5,5.7,2.6c1.4,1,2.3,2.1,3,3.2c0.7,1.1,1,2.2,1.1,3.3
			c0.1,1.1,0.2,2.1,0.2,3C73.6,68.3,73.4,69.2,73,70.4z"/>
	</g>
</g>
</svg>
