<?xml version="1.0" encoding="utf-8"?>
<!-- Generator: Adobe Illustrator 20.0.0, SVG Export Plug-In . SVG Version: 6.00 Build 0)  -->
<svg version="1.1" id="Layer_1" xmlns="http://www.w3.org/2000/svg" xmlns:xlink="http://www.w3.org/1999/xlink" x="0px" y="0px"
	 viewBox="0 0 72 62.1" style="enable-background:new 0 0 72 62.1;" xml:space="preserve">
<style type="text/css">
	.st0{fill:#FFFFFF;}
</style>
<g>
	<path class="st0" d="M71.9,49.7h-6V54c0,1.1-0.9,2-2,2c-1.1,0-2-0.9-2-2V29.2H0V62h15.3V49.9h19.2v12.2H49V44.3c0-1.1,0.9-2,2-2
		c1.1,0,2,0.9,2,2l-0.1,8.3c0,5.3,4.3,9.5,9.5,9.5c5.3,0,9.5-4.3,9.5-9.5L71.9,49.7z"/>
	<path class="st0" d="M49.4,18.2L48,22.7l-1.4-4.4h-4.7l3.8-2.7L44.2,11l3.8,2.7l3.8-2.7l-1.4,4.4l3.8,2.7H49.4z M32.3,18.2
		l-1.4,4.4l-1.4-4.4h-4.7l3.8-2.7L27.1,11l3.8,2.7l3.8-2.7l-1.4,4.4l3.8,2.7H32.3z M15.2,18.2l-1.4,4.4l-1.4-4.4H7.7l3.8-2.7L10,11
		l3.8,2.7l3.8-2.7l-1.4,4.4l3.8,2.7H15.2z M31.9,0h-1.8c-32.9,0-30,21.1-30,26.8H62C62,21.1,64.8,0,31.9,0z"/>
</g>
</svg>
