<?xml version="1.0" standalone="no"?>
<!DOCTYPE svg PUBLIC "-//W3C//DTD SVG 1.1//EN" "http://www.w3.org/Graphics/SVG/1.1/DTD/svg11.dtd">
<svg xmlns="http://www.w3.org/2000/svg">
<metadata>Generated by Fontastic.me</metadata>
<defs>
<font id="deepdive-bar" horiz-adv-x="512">
<font-face font-family="deepdive-bar" units-per-em="512" ascent="480" descent="-32"/>
<missing-glyph horiz-adv-x="512" />

<glyph glyph-name="news" unicode="&#98;" d="M27 267l63-112-21 144-37-17c-5-3-7-9-5-15z m95-153c0-5 4-9 7-12 3-1 6-2 9-1l32 5 49 9 255 43c8 1 13 9 12 18l-28 203c-1 7-8 13-15 13 0 0-1 0-2 0l-82-14-14-2-14-3-166-28-50-8-10-2c-4-1-7-3-10-6 0-1 0-2-1-2-1-3-2-7-1-10l1-6z m-21 249l57 10 131 63c5 2 10 4 15 4 14 0 27-9 33-23l7-12 93 16c22 4 43-14 46-38l28-202c4-25-11-47-33-51l-336-57c-2 0-4 0-7 0-3 0-6 0-8 1-1 0-1 0-1 0-15 0-28 8-34 23l-89 158c-8 20 1 44 19 53l46 22c1 6 3 11 7 16 6 9 15 16 26 17z m213 41c-2 6-9 9-14 6l-43-20 59 10z m112-144l-14-3-14-2-43-6-2 14 37 5 14 3 14 2 25 4 2-14z m-17 29l-14-2-13-3-31-5-2 14 25 4 14 3 14 2 37 6 2-14z m-18 33l-14-3-14-1-241-40-4 29 230 36 14 3 14 2 64 10 4-28z m13-83l13 2 13 3 17 2 2-14-21-3-16-3-38-6-15-2-2 14z m-31-50l-10-2-1 11 7 4 46 8 37 5 1-13z m-4 13l-7-4-1 3z m-27 27l2-14-90-14-2 14z m-4 31l2-14-90-15-2 15z m-94 16l90 15 2-14-91-15z m80-95l-48-8-18-3-2 14 65 10 25 4 1-6 1-7z m-96 91l12-107-96-14-13 107z"/>
<glyph glyph-name="box-scores" unicode="&#99;" d="M246 364l0-216 20 0 0 216z m79-49l0-19 49 0 0 19z m-20-69l0-29 20 0 0 29z m69 49l0-29 20 0 0 29z m-49-29l0-20 49 0 0 20z m0-49l0-20 49 0 0 20z m-187 98l0-19 49 0 0 19z m-20-20l0-79 20 0 0 79z m69 0l0-79 20 0 0 79z m-49-78l0-20 49 0 0 20z m-69 157c-5 0-10-4-10-10l0-216c0-6 4-10 10-10l148 0c5 0 9 4 9 9 0 6-4 10-9 10 0 0 0 0 0 0l-138 0 0 197 167 0 0-207c0-5 5-10 10-10l187 0c6 0 10 5 10 10l0 217c0 5-4 10-10 10l-148 0c-5 0-9-4-9-10 0-5 4-10 9-10 0 0 0 0 0 0l138 0 0-197-167 0 0 207c0 6-4 10-10 10z m-59 49c-5 0-10-4-10-10l0-83c0-6 4-10 10-10 5 0 10 4 10 9 0 0 0 1 0 1l0 74 482 0c5 0 10 4 10 9 0 6-5 10-10 10 0 0 0 0 0 0z m0-167c-6 0-10-4-10-10l0-147c0-6 4-10 10-10l492 0c5 0 10 4 10 9 0 6-4 10-10 10 0 0 0 0 0 0l-482 0 0 138c0 6-5 10-10 10 0 0 0 0 0 0z m0 49c-6 0-10-4-10-10l0-14c0-6 4-10 10-10 5 0 10 4 10 9 0 0 0 1 0 1l0 14c0 6-5 10-10 10 0 0 0 0 0 0z m0 118c-5 0-10-4-10-9 0-6 4-10 10-10 0 0 0 0 0 0l482 0 0-138c0-6 4-10 10-10 5 0 10 4 10 9 0 0 0 1 0 1l0 147c0 6-5 10-10 10z m492-231c-5 0-10-4-10-10l0-74-482 0c-5 0-10-4-10-9 0-6 4-10 10-10 0 0 0 0 0 0l492 0c5 0 10 4 10 10l0 83c0 6-4 10-10 10z m0 49c-5 0-10-4-10-10l0-14c0-6 5-10 10-10 5 0 10 4 10 9 0 0 0 1 0 1l0 14c0 6-4 10-10 10z"/>
<glyph glyph-name="trophy" unicode="&#100;" d="M393 133c-2 6-8 9-14 9l-69 0 0 51c45 17 80 55 93 102 39 19 91 89 91 154 0 35-25 63-57 63-11 0-21-4-29-9-2 5-7 9-13 9l-277 0c-6 0-11-4-13-9-9 5-19 9-30 9-31 0-57-28-57-63 0-65 52-135 92-154 12-47 48-85 93-102l0-51-70 0c-6 0-12-3-14-9l-41-114c-2-4-6-19 13-19l330 0c21 0 13 19 12 21z m44 351c16 0 29-16 29-35 0-46-32-93-58-115 0 0 0 115 0 115 1 19 13 35 29 35z m-390-35c0 19 12 35 28 35 16 0 29-16 29-35 0 0 0 0 0-1 0 0 0-114 0-114-26 22-57 69-57 115z m184-264c16-3 34-3 51 0l0-43-51 0z m-99 150l0 149 248 0 0-149c0-68-56-123-124-123-68 0-124 55-124 123z m-20-307l31 86 227 0 31-86z"/>
<glyph glyph-name="calendar" unicode="&#101;" d="M374 450l-194 0c0-7 0-10-1-14l193 0c1 4 2 9 2 14z m-7 48c9 0 20-20 20-48 0-5-1-10-1-14-2-21-13-35-19-35l0-13c13 0 30 19 33 48 1 4 1 9 1 14 0 35-15 62-34 62-18 0-31-20-34-48l14 0c3 20 11 34 20 34z m-235 0c9 0 20-20 20-48 0-5-1-10-1-14-2-21-13-35-19-35l0-13c13 0 30 19 33 48 1 4 1 9 1 14 0 35-15 62-34 62-18 0-31-21-34-48l14 0c3 20 11 34 20 34z m-90-498l428 0c16 0 28 12 28 28l0 394c0 15-12 28-28 28l-55 0c0-5 0-10-1-14l56 0c8 0 14-6 14-14l0-76-456 0 0 76c0 8 6 14 14 14l95 0c1 7 2 7 2 14l-98 0c-15 0-27-13-27-28l0-394c0-16 12-28 28-28z m-14 332l456 0 0-304c0-8-6-14-14-14l-428 0c-8 0-14 6-14 14z m173-83c0-11-10-20-21-20-11 0-21 9-21 20 0 12 10 21 21 21 11 0 21-9 21-21z m152 0c0-11-10-20-21-20-11 0-21 9-21 20 0 12 10 21 21 21 11 0 21-9 21-21z m76 0c0-11-9-20-21-20-11 0-20 9-20 20 0 12 9 21 20 21 12 0 21-9 21-21z m-152 0c0-11-10-20-21-20-11 0-21 9-21 20 0 12 10 21 21 21 11 0 21-9 21-21z m-153-76c0-12-9-21-20-21-12 0-21 9-21 21 0 11 9 20 21 20 11 0 20-9 20-20z m77 0c0-12-10-21-21-21-11 0-21 9-21 21 0 11 10 20 21 20 11 0 21-9 21-20z m152 0c0-12-10-21-21-21-11 0-21 9-21 21 0 11 10 20 21 20 11 0 21-9 21-20z m76 0c0-12-9-21-21-21-11 0-20 9-20 21 0 11 9 20 20 20 12 0 21-9 21-20z m-152 0c0-12-10-21-21-21-11 0-21 9-21 21 0 11 10 20 21 20 11 0 21-9 21-20z m-153-76c0-12-9-21-20-21-12 0-21 9-21 21 0 11 9 20 21 20 11 0 20-9 20-20z m77 0c0-12-10-21-21-21-11 0-21 9-21 21 0 11 10 20 21 20 11 0 21-9 21-20z m76 0c0-12-10-21-21-21-11 0-21 9-21 21 0 11 10 20 21 20 11 0 21-9 21-20z"/>
<glyph glyph-name="list" unicode="&#102;" d="M512 375c0-14-12-26-26-26l-336 0c-15 0-26 12-26 26 0 15 11 26 26 26l335 0c15 1 27-11 27-26z m-424 0c0-24-20-44-44-44-24 0-44 20-44 44 0 24 20 44 44 44 24 0 44-20 44-44z m424-119c0-15-12-26-26-26l-336 0c-15 0-26 11-26 26 0 15 11 26 26 26l335 0c15 0 27-11 27-26z m-424 0c0-24-20-44-44-44-24 0-44 20-44 44 0 24 20 44 44 44 24 0 44-20 44-44z m424-119c0-15-12-26-26-26l-336 0c-15 0-26 11-26 26 0 14 11 26 26 26l335 0c15 0 27-12 27-26z m-424 0c0-24-20-44-44-44-24 0-44 20-44 44 0 24 20 44 44 44 24 0 44-20 44-44z"/>
<glyph glyph-name="team" unicode="&#103;" d="M111 264c8 0 16 1 23 3 5 4 11 7 17 9 16 10 28 25 33 43l-1 1c-21 21-33 49-33 80 0 1 0 2 0 2-12 7-25 11-39 11-41 0-74-33-74-75 0-41 33-74 74-74z m357-24l-51 0c5-10 8-21 8-33l0-198 24 0c25 0 48 12 63 29l0 158c0 24-20 44-44 44z m-93 160c0-32-12-60-33-80-3-4-7-7-11-10 6-12 14-23 25-32 15 0 29-6 40-14l5 0c41 0 74 33 74 74 0 42-33 75-74 75-9 0-18-1-26-4 0-3 0-6 0-9z m-214 2c0-56 46-102 102-102 56 0 101 46 101 102 0 56-45 101-101 101-56 0-102-45-102-101z m11-133c-33 0-60-27-60-60l0-200 301 0 0 199c0 33-27 60-60 60 0 1-181 1-181 1z m-63-29l-65 0c-24 0-44-20-44-44l0-158c15-18 38-29 63-29l37 0 0 198c0 12 3 23 9 33z"/>
<glyph glyph-name="profile" unicode="&#104;" d="M479 512l-446 0c-18 0-33-15-33-33l0-446c0-18 15-33 33-33l446 0c18 0 33 15 33 33l0 446c0 18-15 33-33 33z m-389-39l385 0c5 0 9-4 9-9 0-5-4-9-9-9l-385 0c-6 0-10 4-10 9 0 5 5 9 10 9z m-40 7c9 0 16-7 16-16 0-9-7-16-16-16-8 0-16 7-16 16 0 9 8 16 16 16z m429-452l-446 0c-2 0-5 3-5 5l0 388 456 0 0-388c0-2-3-5-5-5z m-223 280c14 0 25 11 25 24 0 14-11 25-25 25-14 0-25-11-25-25 0-13 11-24 25-24m61-55l0 24c0 18-15 23-33 23l-56 0c-18 0-33-5-33-23l0-24z m127-65l-376 0c-5 0-9 4-9 9 0 5 4 9 9 9l376 0c4 0 8-4 8-9 1-5-3-9-8-9z m0-40l-376 0c-5 0-9 4-9 8 0 5 4 9 9 9l376 0c4 0 8-4 8-9 0-4-3-8-8-8z m0-41l-376 0c-5 0-9 4-9 9 0 5 4 8 9 8l376 0c4 0 8-3 8-8 1-5-3-9-8-9z m0-40l-376 0c-5 0-9 4-9 8 0 5 4 9 9 9l376 0c4 0 8-4 8-9 1-4-3-8-8-8z"/>
<glyph glyph-name="football" unicode="&#106;" d="M476 475c-24 24-61 37-109 37-89 0-191-45-256-112-44-46-82-117-100-186-20-79-11-142 24-178 23-24 59-36 104-36 87 0 197 47 261 111 65 66 111 173 111 260 1 44-12 80-35 104z m-348-326c0 0-31-15-44-11-11 4-17 36-8 79 9 45 25 105 78 165 28 29 65 55 107 72 39 17 81 26 116 26 27 0 49-5 65-14 6-4 6-28-8-54-14-27-58-86-110-132-52-46-168-121-196-131z m250 6c-36-36-89-66-143-83-1 0-3-1-5-1-20-3-45-5-55-3-14 3-11 16 0 23 11 7 97 75 143 122 42 44 129 136 154 186 1 2 2 2 2 0 1-6 1-13 1-18 0-74-41-169-97-226z"/>
<glyph glyph-name="bars" unicode="&#107;" d="M475 128l0-37c0-5-1-9-5-12-4-4-8-6-13-6l-402 0c-5 0-9 2-13 6-4 3-5 7-5 12l0 37c0 5 1 9 5 13 4 3 8 5 13 5l402 0c5 0 9-2 13-5 4-4 5-8 5-13z m0 146l0-36c0-5-1-10-5-13-4-4-8-6-13-6l-402 0c-5 0-9 2-13 6-4 3-5 8-5 13l0 36c0 5 1 10 5 13 4 4 8 6 13 6l402 0c5 0 9-2 13-6 4-3 5-8 5-13z m0 147l0-37c0-5-1-9-5-13-4-3-8-5-13-5l-402 0c-5 0-9 2-13 5-4 4-5 8-5 13l0 37c0 5 1 9 5 12 4 4 8 6 13 6l402 0c5 0 9-2 13-6 4-3 5-7 5-12z"/>
<glyph glyph-name="close-round" unicode="&#108;" d="M438 125l-131 131 131 131c14 14 14 36 0 50-15 15-37 15-51 0l-131-130-131 130c-14 15-36 15-50 0-15-14-15-36 0-50l130-131-130-131c-15-14-15-36 0-51 14-14 36-14 50 0l131 131 131-131c14-14 36-14 51 0 14 15 14 37 0 51z"/>
<glyph glyph-name="search" unicode="&#110;" d="M347 274c0 36-12 66-37 91-25 25-55 37-91 37-35 0-65-12-90-37-25-25-38-55-38-91 0-35 13-65 38-90 25-25 55-38 90-38 36 0 66 13 91 38 25 25 37 55 37 90z m147-237c0-10-4-19-11-26-7-7-16-11-26-11-10 0-19 4-26 11l-98 98c-34-24-72-36-114-36-27 0-53 5-78 16-25 11-46 25-64 43-18 18-32 39-43 64-10 25-16 51-16 78 0 28 6 54 16 78 11 25 25 47 43 65 18 18 39 32 64 43 25 10 51 15 78 15 28 0 54-5 79-15 24-11 46-25 64-43 18-18 32-40 43-65 10-24 16-50 16-78 0-42-12-80-36-114l98-98c7-7 11-15 11-25z"/>
<glyph glyph-name="angle-left" unicode="&#111;" d="M344 357c0-3-1-5-3-7l-112-112 112-113c2-1 3-4 3-6 0-3-1-5-3-7l-14-14c-2-2-5-3-7-3-2 0-5 1-7 3l-133 133c-2 2-3 4-3 7 0 2 1 4 3 6l133 133c2 2 5 3 7 3 2 0 5-1 7-3l14-14c2-2 3-4 3-6z"/>
<glyph glyph-name="angle-right" unicode="&#112;" d="M335 238c0-3-1-5-3-7l-133-133c-2-2-5-3-7-3-2 0-5 1-7 3l-14 14c-2 2-3 4-3 7 0 2 1 5 3 6l112 113-112 112c-2 2-3 4-3 7 0 2 1 4 3 6l14 14c2 2 5 3 7 3 2 0 5-1 7-3l133-133c2-2 3-4 3-6z"/>
<glyph glyph-name="plus" unicode="&#113;" d="M448 288l-160 0 0 160-64 0 0-160-160 0 0-64 160 0 0-160 64 0 0 160 160 0z"/>
<glyph glyph-name="map-marker" unicode="&#109;" d="M329 329c0 20-7 38-21 52-15 14-32 21-52 21-20 0-37-7-52-21-14-14-21-32-21-52 0-20 7-37 21-52 15-14 32-21 52-21 20 0 37 7 52 21 14 15 21 32 21 52z m73 0c0-21-3-38-9-51l-104-221c-3-6-8-11-14-15-6-4-12-5-19-5-7 0-13 1-19 5-6 4-11 9-14 15l-104 221c-6 13-9 30-9 51 0 41 14 75 43 104 28 28 63 42 103 42 40 0 75-14 103-42 29-29 43-63 43-104z"/>
<glyph glyph-name="caret-down" unicode="&#114;" d="M402 311c0-5-2-9-5-13l-128-128c-4-4-8-5-13-5-5 0-9 1-13 5l-128 128c-3 4-5 8-5 13 0 5 2 9 5 13 4 3 8 5 13 5l256 0c5 0 9-2 13-5 3-4 5-8 5-13z"/>
<glyph glyph-name="caret-up" unicode="&#115;" d="M402 165c0-5-2-10-5-13-4-4-8-6-13-6l-256 0c-5 0-9 2-13 6-3 3-5 8-5 13 0 5 2 9 5 12l128 128c4 4 8 6 13 6 5 0 9-2 13-6l128-128c3-3 5-7 5-12z"/>
<glyph glyph-name="thumbs-o-down" unicode="&#116;" d="M110 384c0 5-2 9-6 13-3 3-8 5-13 5-5 0-9-2-12-5-4-4-6-8-6-13 0-5 2-9 6-13 3-3 7-5 12-5 5 0 10 2 13 5 4 4 6 8 6 13z m329-165c0 7-2 15-6 24-4 8-9 13-16 13 3 3 6 8 8 14 1 5 2 11 2 15 0 14-5 25-15 34 4 7 5 13 5 20 0 7-1 14-5 21-3 7-7 12-13 15 1 6 1 11 1 16 0 16-4 28-14 36-9 8-22 12-39 12l-36 0c-25 0-58-7-98-21-1 0-4-1-8-3-5-2-8-3-10-4-2 0-6-1-10-3-5-1-8-2-11-3-3-1-6-1-10-2-3 0-6-1-9-1l-9 0 0-183 9 0c3 0 7 0 11-2 3-2 7-4 11-8 4-3 8-7 11-10 3-3 7-8 11-13 5-5 8-9 10-12 3-3 6-7 9-11 4-5 6-8 7-9 10-13 18-22 22-26 8-8 13-19 17-31 3-13 6-25 9-36 2-11 5-19 10-24 19 0 31 4 37 13 6 9 9 23 9 41 0 12-4 27-14 46-9 20-13 35-13 46l100 0c10 0 18 4 26 11 7 7 11 16 11 25z m36 0c0-19-7-37-21-51-15-14-32-22-52-22l-50 0c9-19 14-37 14-55 0-22-4-40-10-53-7-13-17-23-29-29-13-6-28-9-44-9-9 0-18 4-25 11-7 6-12 14-16 23-4 9-6 18-7 26-1 8-3 16-5 24-2 8-5 14-9 18-9 10-19 22-30 37-20 25-33 39-40 44l-78 0c-10 0-19 3-26 11-7 7-10 15-10 25l0 183c0 10 3 19 10 26 7 7 16 11 26 11l82 0c5 0 18 4 40 11 24 9 45 15 64 19 18 4 37 6 57 6l32 0c26 0 48-7 64-22 17-15 25-36 25-62l0-1c11-15 17-32 17-51 0-4 0-8-1-12 7-13 11-27 11-42 0-6-1-13-3-19 10-14 14-30 14-47z"/>
<glyph glyph-name="dribbble" unicode="&#117;" d="M329 83c-8 46-21 94-40 143l0 0-1-1c-3-1-7-2-12-4-5-2-15-7-29-14-14-8-27-15-39-24-12-8-25-19-38-32-13-14-22-28-29-43l-4 3c35-28 74-42 119-42 25 0 50 5 73 14z m-53 174c-4 9-9 20-15 32-59-18-123-27-192-27 0-1 0-3 0-6 0-24 4-46 12-68 9-21 20-40 36-57 9 17 21 33 35 47 14 15 27 27 41 36 13 9 25 17 37 23 12 7 21 11 28 14l11 4c1 0 2 0 4 1 1 0 3 0 3 1z m-30 60c-23 41-46 77-70 108-26-12-49-30-67-53-18-23-30-49-36-77 57 0 115 7 173 22z m195-91c-40 12-79 14-117 9 17-46 29-91 37-134 21 14 39 32 53 54 14 22 23 45 27 71z m-230 212c0 0 0 0 0 0 0 0 0 0 0 0z m169-41c-36 31-77 46-124 46-14 0-29-1-44-5 25-32 48-69 70-109 13 5 26 11 37 17 12 7 21 13 28 18 6 5 13 10 18 16 6 6 10 10 11 12z m63-139c0 44-14 83-42 117l0 0c-2-2-4-5-6-7-2-3-6-7-12-13-7-6-13-12-21-17-7-6-16-12-28-19-12-7-25-13-38-18 5-10 9-19 13-27 0-1 1-3 2-5 1-2 1-4 2-5 7 1 14 2 21 2 7 0 14 1 21 1 7 0 13-1 20-1 6 0 12-1 18-1 6 0 11-1 16-2 5 0 10-1 14-1 4-1 8-2 10-2 3-1 6-1 8-1z m32-2c0-40-9-77-29-110-20-34-46-60-80-80-33-20-70-29-110-29-40 0-77 9-110 29-34 20-60 46-80 80-20 33-29 70-29 110 0 40 9 77 29 110 20 34 46 60 80 80 33 20 70 29 110 29 40 0 77-9 110-29 34-20 60-46 80-80 20-33 29-70 29-110z"/>
<glyph glyph-name="life-ring" unicode="&#118;" d="M256 512c35 0 68-7 99-20 32-14 59-32 82-55 23-23 41-50 55-82 13-31 20-64 20-99 0-35-7-68-20-99-14-32-32-59-55-82-23-23-50-41-82-55-31-13-64-20-99-20-35 0-68 7-99 20-32 14-59 32-82 55-23 23-41 50-55 82-13 31-20 64-20 99 0 35 7 68 20 99 14 32 32 59 55 82 23 23 50 41 82 55 31 13 64 20 99 20z m0-37c-36 0-71-8-103-25l55-56c16 6 32 8 48 8 16 0 32-2 48-8l55 56c-32 17-67 25-103 25z m-194-322l56 55c-6 16-8 32-8 48 0 16 2 32 8 48l-56 55c-17-32-25-67-25-103 0-36 8-71 25-103z m194-116c36 0 71 8 103 25l-55 56c-16-6-32-8-48-8-16 0-32 2-48 8l-55-56c32-17 67-25 103-25z m0 109c30 0 56 11 78 32 21 22 32 48 32 78 0 30-11 56-32 78-22 21-48 32-78 32-30 0-56-11-78-32-21-22-32-48-32-78 0-30 11-56 32-78 22-21 48-32 78-32z m138 62l56-55c17 32 25 67 25 103 0 36-8 71-25 103l-56-55c6-16 8-32 8-48 0-16-2-32-8-48z"/>
<glyph glyph-name="magic" unicode="&#119;" d="M358 346l84 84-31 30-83-83z m128 84c0-5-2-10-5-13l-368-368c-3-3-7-5-12-5-6 0-10 2-13 5l-57 57c-3 3-5 8-5 13 0 5 2 9 5 13l368 367c3 4 7 5 12 5 6 0 10-1 13-5l57-56c3-4 5-8 5-13z m-386 54l28-9-28-8-9-28-8 28-28 8 28 9 8 28z m100-46l56-17-56-18-17-56-17 56-56 18 56 17 17 56z m266-137l28-8-28-9-9-28-8 28-28 9 28 8 8 28z m-183 183l28-9-28-8-9-28-8 28-28 8 28 9 8 28z"/>
<glyph glyph-name="basketball" unicode="&#97;" d="M256 512c-141 0-256-114-256-256 0-142 114-256 256-256 142 0 256 114 256 256 0 142-115 256-256 256z m-226-230c4 38 18 75 41 107 3-19 4-36 4-52 0-11 0-24-2-38-14-5-29-11-43-17z m39-15c-6-30-14-60-27-88-9 23-13 46-14 71 14 6 27 12 41 17z m299 147c26 0 50-8 71-23 29-40 45-86 45-135 0-11-1-23-3-36-66 57-145 91-230 99 12 55 61 95 117 95z m0 28c-71 0-133-51-146-121l-4 0c-17 1-35 0-53-2 13 60 39 116 77 164l1 0c4 0 9 1 13 1 48 0 95-15 133-44-7 2-14 2-21 2z m-207-152c19 2 38 4 57 3l2 0c0-24 5-41 17-73 11-32 81-115 136-158-35-21-76-33-117-33-13 0-26 2-40 4-39 62-59 133-59 207 0 15 1 31 4 50z m237-212c-57 40-126 127-135 150-10 29-15 44-15 63 85-9 162-44 226-102-14-44-40-82-76-111z m-296 230c1 11 2 20 2 29 0 26-3 53-8 81 30 29 66 50 107 60-34-49-57-105-68-163-11-2-21-5-33-7z m-2-31c11 4 22 6 32 8-3-17-3-32-3-45 0-69 17-137 49-197-51 18-93 54-120 102 21 41 35 86 42 132z"/>
<glyph glyph-name="baseball" unicode="&#105;" d="M257 506c-139 0-253-112-253-250 0-138 114-250 253-250 140 0 254 112 254 250 0 138-114 250-254 250z m-167-189l11 21c8-5 16-10 24-16l-16-16 15-14 15 16c6-5 11-10 15-15l-17-10 11-17 19 11c4-6 7-11 11-17l-21-9 8-18 22 10c5-10 8-20 12-30l-24-8 7-18 21 7c2-8 2-18 3-26l-22-4 3-20 20 3c0-9-1-18-3-27l-19 0 1-20 15 0c-2-5-3-9-4-14l-16 4-6-19 14-3c-2-5-4-10-7-15-83 31-142 110-142 202 0 36 9 70 25 100 6-2 12-5 18-7l-12-21z m120-254l26-6 5 19-25 6c2 6 3 12 4 18l29 0-1 20-24 0c2 10 2 20 2 30l23 3-3 20-20-3c-1 10-2 20-5 29l20 7-7 19-17-6c-3 11-7 22-12 32l17 7-8 18-19-8c-3 6-7 13-11 18l18 10-10 17-20-11c-6 7-12 13-19 20l14 14-15 14-15-15c-8 7-18 13-27 19l9 17-17 9-10-16c-6 2-11 5-17 7 39 59 106 99 184 99 28 0 54-5 79-15-3-5-7-10-10-16l-27 8-6-19 25-8c-3-6-5-12-7-18l-28 2-1-20 23-1c-2-10-4-19-5-29l-22-2 2-20 20 2c0-10 0-21 2-31l-20-4 5-19 18 5c2-11 6-22 10-32l-18-7 7-19 19 7c2-7 6-13 10-19l-20-9 9-18 21 9c5-7 11-14 17-21l-16-13 14-15 16 14c8-8 17-14 26-21l-11-16 17-11 11 16c4-3 8-5 12-7-40-51-102-84-173-84-20 0-39 3-57 8 3 5 6 10 9 16z m220 83l13 20-17 10-12-19c-8 5-15 11-23 18l17 14-14 14-17-13c-4 5-9 10-13 16l17 8-8 18-21-9c-3 5-6 11-9 17l21 7-6 19-23-8c-4 10-7 20-9 31l24 6-5 19-22-5c0 8-1 17-1 26l22 1-1 20-20-1c1 9 3 18 5 27l19-2 1 20-15 1c2 5 4 9 6 13l16-6 6 20-14 4c3 6 6 10 9 15 71-35 121-109 121-193 0-43-13-82-34-116-4 4-8 6-13 8z"/>
<glyph glyph-name="chevron-left" unicode="&#120;" d="M408 426l-152-152 152-151c3-4 5-8 5-13 0-5-2-10-5-13l-48-48c-3-3-8-5-13-5-5 0-9 2-12 5l-212 212c-4 4-6 8-6 13 0 5 2 10 6 13l212 212c3 4 7 6 12 6 5 0 10-2 13-6l48-47c3-4 5-8 5-13 0-5-2-9-5-13z"/>
<glyph glyph-name="chevron-right" unicode="&#121;" d="M389 261l-212-212c-3-3-7-5-12-5-5 0-10 2-13 5l-48 48c-3 3-5 8-5 13 0 5 2 9 5 13l152 151-152 152c-3 4-5 8-5 13 0 5 2 9 5 13l48 47c3 4 8 6 13 6 5 0 9-2 12-6l212-212c4-3 6-8 6-13 0-5-2-9-6-13z"/>
</font>
</defs>
</svg>
