<svg width="44" height="32" viewBox="0 0 44 32" xmlns="http://www.w3.org/2000/svg"><title>8EBD23AB-6B9C-4C08-8AF2-8EA868B8A31C</title><defs><filter x="-4%" y="-7.1%" width="108.1%" height="114.2%" filterUnits="objectBoundingBox" id="a"><feOffset in="SourceAlpha" result="shadowOffsetOuter1"/><feGaussianBlur stdDeviation="4" in="shadowOffsetOuter1" result="shadowBlurOuter1"/><feColorMatrix values="0 0 0 0 0 0 0 0 0 0 0 0 0 0 0 0 0 0 0.15 0" in="shadowBlurOuter1" result="shadowMatrixOuter1"/><feMerge><feMergeNode in="shadowMatrixOuter1"/><feMergeNode in="SourceGraphic"/></feMerge></filter></defs><path d="M42.851.53a.552.552 0 0 0-.318.166c-17.188 17.083-18.66 19-29.194 29.483L1.451 18.296a.54.54 0 0 0-.765-.01.54.54 0 0 0-.162.378.527.527 0 0 0 .155.382l12.275 12.266a.541.541 0 0 0 .77 0c11.01-10.941 12.13-12.522 29.58-29.866a.529.529 0 0 0 .118-.625.54.54 0 0 0-.57-.292z" filter="url(#a)" fill-rule="nonzero" fill="#4A4A4A"/></svg>