<?xml version="1.0" encoding="utf-8"?>
<!-- Generator: Adobe Illustrator 20.0.0, SVG Export Plug-In . SVG Version: 6.00 Build 0)  -->
<svg version="1.1" id="Layer_1" xmlns="http://www.w3.org/2000/svg" xmlns:xlink="http://www.w3.org/1999/xlink" x="0px" y="0px"
	 viewBox="0 0 72 72" style="enable-background:new 0 0 72 72;" xml:space="preserve">
<style type="text/css">
	.st0{fill:#FFFFFF;}
</style>
<g>
	<path class="st0" d="M31.7,70.4c-2.1,2.1-5.6,2.1-7.7,0L18.6,65c3.2-3.2,3.2-8.4,0-11.6c-3.2-3.2-8.4-3.2-11.6,0L1.6,48
		c-2.1-2.1-2.1-5.6,0-7.7L40.4,1.6c2.1-2.1,5.6-2.1,7.7,0l5.3,5.3c-3.2,3.2-3.2,8.4,0,11.6c3.2,3.2,8.4,3.2,11.6,0l5.4,5.3
		c2.1,2.1,2.1,5.6,0,7.7L31.7,70.4z M58.9,32.5c1.1-1.1,1.1-2.8,0-3.8L43.4,13.1c-1-1-2.8-1-3.8,0L13.1,39.5c-1.1,1.1-1.1,2.8,0,3.8
		l15.5,15.5c0.5,0.5,1.2,0.8,1.9,0.8c0.7,0,1.4-0.3,1.9-0.8L58.9,32.5z M55,30.5L30.5,55L17,41.5L41.5,17L55,30.5z"/>
</g>
</svg>
