<?xml version="1.0" encoding="utf-8"?>
<!-- Generator: Adobe Illustrator 20.0.0, SVG Export Plug-In . SVG Version: 6.00 Build 0)  -->
<svg version="1.1" id="Layer_1" xmlns="http://www.w3.org/2000/svg" xmlns:xlink="http://www.w3.org/1999/xlink" x="0px" y="0px"
	 viewBox="0 0 72 63" style="enable-background:new 0 0 72 63;" xml:space="preserve">
<style type="text/css">
	.st0{fill:#FFFFFF;}
</style>
<g>
	<path class="st0" d="M25.7,7.3c-1.9,5.6,1.2,11.7,6.8,13.5c1.1,0.4,2.2,0.6,3.4,0.6c4.6,0,8.7-2.9,10.2-7.3
		c1.9-5.6-1.2-11.7-6.8-13.5C38.2,0.2,37,0,35.9,0C31.3,0,27.2,2.9,25.7,7.3z M28,8.1c0.3-0.9,0.7-1.6,1.2-2.3
		c1,1.1,1.5,2.5,1.5,3.9c0,1.8-0.7,3.6-2,5.2C27.6,12.9,27.2,10.4,28,8.1z M41.5,4.6c2.3,2.1,3.3,5.5,2.2,8.7
		c-0.5,1.5-1.4,2.7-2.5,3.7c-2.4-1.1-3.9-3.3-3.9-5.9C37.3,8.4,38.9,5.9,41.5,4.6z M39.7,3.4c-2.8,1.8-4.4,4.6-4.4,7.8
		c0,2.9,1.5,5.5,4,7.1c-1.1,0.5-2.2,0.8-3.4,0.8c-0.9,0-1.8-0.1-2.6-0.4c-1.3-0.4-2.4-1.2-3.3-2.1c1.8-2,2.8-4.4,2.8-6.9
		c0-2-0.8-3.9-2.2-5.3c1.5-1.2,3.3-1.9,5.2-1.9c0.9,0,1.8,0.1,2.6,0.4C38.9,3,39.3,3.2,39.7,3.4z"/>
	<path class="st0" d="M56.7,56.5c-0.3,0-0.5,0.1-0.8,0.2c-1.2-0.9-2.4-2.2-4.2-3.9l-3-3l-3.4,3.4l3,3c1.8,1.8,3,3,3.9,4.2
		c-0.3,0.7-0.2,1.5,0.4,2.1c0.4,0.4,0.9,0.6,1.3,0.6c0.5,0,1-0.2,1.3-0.6l2.7-2.7c0.7-0.7,0.7-1.9,0-2.7
		C57.6,56.7,57.2,56.5,56.7,56.5z"/>
	<path class="st0" d="M44.4,45.4c-7.5-7.5-9.8-14.8-21.3-26.2C20.9,17,10,6.1,10,6.1C8.9,5,7.4,4.5,5.8,4.5c-1.6,0-3.1,0.5-4.2,1.6
		c-2.1,2.1-2.4,6,0,8.4c0,0,10.9,10.9,13.1,13.1C26.9,39.7,33.5,41.4,41,48.8l2.5,2.5l3.4-3.4L44.4,45.4z"/>
	<path class="st0" d="M20.4,52.4c-1.8,1.8-3,3-4.2,3.9c-0.7-0.3-1.5-0.2-2.1,0.4c-0.7,0.7-0.7,1.9,0,2.7l2.7,2.7
		c0.4,0.4,0.9,0.6,1.3,0.6c0.5,0,1-0.2,1.3-0.6c0.6-0.6,0.7-1.4,0.4-2.1c0.9-1.2,2.2-2.4,3.9-4.2l2.3-2.3l-3.4-3.4L20.4,52.4z"/>
	<path class="st0" d="M27.7,45.1l-3.2,3.2l3.4,3.4l3.2-3.2c0.9-0.9,1.8-1.7,2.7-2.5c-1.3-1-2.7-1.9-4.2-3
		C29,43.7,28.4,44.4,27.7,45.1z"/>
	<path class="st0" d="M38.3,33.7c1.4,2.1,2.8,3.9,4.2,5.8c4.2-3,9-6.4,14.8-12.2c2.3-2.3,13.1-13.1,13.1-13.1c2.2-2.2,2.1-6.3,0-8.4
		c-2.1-2.1-6-2.4-8.4,0c0,0-10.9,10.9-13.1,13.1c-5.5,5.5-8.8,9.8-11.5,13.6C37.7,32.9,38,33.3,38.3,33.7z"/>
</g>
</svg>
