<?xml version="1.0" encoding="UTF-8"?>
<svg width="50px" height="43px" viewBox="0 0 50 43" version="1.1" xmlns="http://www.w3.org/2000/svg" xmlns:xlink="http://www.w3.org/1999/xlink">
    <!-- Generator: Sketch 40.3 (33839) - http://www.bohemiancoding.com/sketch -->
    <title>Health</title>
    <desc>Created with Sketch.</desc>
    <defs></defs>
    <g id="Page-1" stroke="none" stroke-width="1" fill="none" fill-rule="evenodd">
        <g id="UI:-NFL/NCAAF-Navigation-Bar---1280PX" transform="translate(-748.000000, -310.000000)" fill="#ffffff">
            <path d="M783.714286,335.083333 L792.22433,335.083333 C792.131324,335.195313 792.038319,335.293294 791.945312,335.377279 C791.852306,335.461263 791.768602,335.53125 791.694196,335.58724 L791.610491,335.699219 L774.227679,352.496094 C773.892855,352.832033 773.483633,353 773,353 C772.516367,353 772.107145,352.832033 771.772321,352.496094 L754.361607,335.643229 C754.268601,335.605903 754.07329,335.419273 753.77567,335.083333 L764.071429,335.083333 C764.480657,335.083333 764.848027,334.957358 765.173549,334.705404 C765.499072,334.453449 765.708333,334.131512 765.801339,333.739583 L767.754464,325.873047 L773.055804,344.545573 C773.167411,344.918839 773.381323,345.226778 773.697545,345.469401 C774.013766,345.712024 774.376486,345.833333 774.785714,345.833333 C775.176341,345.833333 775.52976,345.712024 775.845982,345.469401 C776.162204,345.226778 776.376116,344.918839 776.487723,344.545573 L780.561384,330.968099 L782.123884,334.103516 C782.458707,334.756731 782.988836,335.083333 783.714286,335.083333 L783.714286,335.083333 Z M798,323.101562 C798,325.807739 797.042048,328.60719 795.126116,331.5 L784.830357,331.5 L781.733259,325.313151 C781.584449,324.995875 781.347286,324.743925 781.021763,324.557292 C780.696241,324.370659 780.356773,324.296007 780.003348,324.333333 C779.16629,324.42665 778.645462,324.855899 778.440848,325.621094 L774.841518,337.658854 L769.372768,318.454427 C769.26116,318.081161 769.042598,317.773222 768.717076,317.530599 C768.391553,317.287976 768.024184,317.166667 767.614955,317.166667 C767.205727,317.166667 766.843008,317.292642 766.526786,317.544596 C766.210564,317.796551 766.005953,318.118488 765.912946,318.510417 L762.676339,331.5 L750.873884,331.5 C748.957952,328.60719 748,325.807739 748,323.101562 C748,318.995639 749.181164,315.785602 751.543527,313.471354 C753.90589,311.157106 757.170366,310 761.337054,310 C762.490333,310 763.666847,310.200627 764.866629,310.601888 C766.066412,311.003149 767.182473,311.544376 768.214844,312.225586 C769.247215,312.906796 770.135413,313.546004 770.879464,314.143229 C771.623516,314.740454 772.330354,315.374997 773,316.046875 C773.669646,315.374997 774.376484,314.740454 775.120536,314.143229 C775.864587,313.546004 776.752785,312.906796 777.785156,312.225586 C778.817527,311.544376 779.933588,311.003149 781.133371,310.601888 C782.333153,310.200627 783.509667,310 784.662946,310 C788.829634,310 792.09411,311.157106 794.456473,313.471354 C796.818836,315.785602 798,318.995639 798,323.101562 L798,323.101562 Z" id="Health"></path>
        </g>
    </g>
</svg>