<?xml version="1.0" encoding="utf-8"?>
<!-- Generator: Adobe Illustrator 20.0.0, SVG Export Plug-In . SVG Version: 6.00 Build 0)  -->
<svg version="1.1" id="Layer_1" xmlns="http://www.w3.org/2000/svg" xmlns:xlink="http://www.w3.org/1999/xlink" x="0px" y="0px"
	 viewBox="0 0 99 58.2" style="enable-background:new 0 0 99 58.2;" xml:space="preserve">
<style type="text/css">
	.st0{fill:#FFFFFF;}
</style>
<g>
	<path class="st0" d="M85.2,15c-0.7,2-1.3,4-2,6c2.1,0.3,4.2,0.8,6.1,1.6c0.7-2,1.3-4,2-6C89.4,15.8,87.3,15.3,85.2,15z"/>
	<path class="st0" d="M76.8,20.3c0.7-2,1.3-4,2-6c-2.2-0.2-4.3-0.3-6.4-0.7c-0.7,2-1.3,4-2,6C72.5,20,74.7,20.1,76.8,20.3z"/>
	<path class="st0" d="M70.4,19.6c-2.1-0.3-4.2-0.8-6.1-1.6c-0.7,2-1.3,4-2,6c1.9,0.8,4,1.3,6.1,1.6C69.1,23.6,69.8,21.6,70.4,19.6z"
		/>
	<path class="st0" d="M74.9,26.2c2.2,0.2,4.3,0.3,6.4,0.7c0.7-2,1.3-4,2-6c-2.1-0.3-4.3-0.5-6.4-0.7C76.2,22.3,75.5,24.3,74.9,26.2z
		"/>
	<path class="st0" d="M79.3,32.9c2.1,0.3,4.2,0.8,6.1,1.6c0.7-2,1.3-4,2-6c-1.9-0.8-4-1.3-6.1-1.6C80.6,28.9,80,30.9,79.3,32.9z"/>
	<path class="st0" d="M68.4,25.6c-0.7,2-1.3,4-2,6c2.1,0.3,4.3,0.5,6.4,0.7c0.7-2,1.3-4,2-6C72.7,26.1,70.6,25.9,68.4,25.6z"/>
	<path class="st0" d="M94.6,26c-1.6-1.5-3.4-2.6-5.3-3.4c-0.7,2-1.3,4-2,6c1.9,0.8,3.6,1.9,5.3,3.4l-2,6c-1.6-1.5-3.4-2.6-5.3-3.4
		c-0.6,1.9-1.3,3.8-1.9,5.8c-0.5-0.2-1-0.4-1.5-0.5c-1.5-0.5-3.1-0.8-4.6-1.1c0.6-1.9,1.3-3.8,1.9-5.8c-2.1-0.3-4.3-0.5-6.4-0.7
		c-0.6,1.9-1.3,3.8-1.9,5.8c0,0,0,0-0.1,0c-2.1-0.2-4.3-0.3-6.4-0.6c0.6-1.9,1.3-3.8,1.9-5.8c-2.1-0.3-4.2-0.8-6.1-1.6
		c-0.6,1.9-1.3,3.8-1.9,5.8c-2-0.8-3.6-1.9-5.1-3.3l1.9-5.7c1.6,1.5,3.3,2.5,5.1,3.3c0.7-2,1.3-4,2-6c-1.8-0.8-3.5-1.8-5.1-3.3l2-6
		c1.6,1.5,3.3,2.5,5.1,3.3c0.7-2,1.3-4,2-6c-1.8-0.8-3.5-1.8-5.1-3.3L63.1,3c1.5,1.4,3.2,2.5,5.1,3.3c-0.6,1.9-1.3,3.8-1.9,5.8
		c1.9,0.8,4,1.3,6.1,1.6c0.6-1.9,1.3-3.8,1.9-5.8c2.1,0.3,4.3,0.5,6.4,0.7c-0.6,1.9-1.3,3.8-1.9,5.8c2.2,0.2,4.3,0.3,6.4,0.7
		c0.6-1.9,1.3-3.8,1.9-5.8c1.6,0.2,3.1,0.6,4.6,1.1c0.5,0.2,1,0.3,1.5,0.6c-0.6,1.9-1.3,3.8-1.9,5.8c1.9,0.8,3.6,1.9,5.3,3.4
		L94.6,26z M40.5,35.7c-0.6-1.9-1.3-3.8-1.9-5.8c-1.9,0.8-4,1.3-6.1,1.6c0.6,1.9,1.3,3.8,1.9,5.8c-2.1,0.3-4.2,0.5-6.4,0.6
		c0,0,0,0-0.1,0c-0.6-1.9-1.3-3.8-1.9-5.8c-2.2,0.2-4.3,0.3-6.4,0.7c0.6,1.9,1.3,3.8,1.9,5.8c-1.6,0.2-3.1,0.6-4.6,1.1
		c-0.5,0.2-1,0.3-1.5,0.5c-0.6-1.9-1.3-3.8-1.9-5.8c-1.9,0.8-3.6,1.9-5.3,3.4l-2-6c1.6-1.5,3.4-2.6,5.3-3.4c-0.7-2-1.3-4-2-6
		C7.8,23.3,6,24.4,4.4,26l-2-6c1.6-1.5,3.4-2.6,5.3-3.4c-0.6-1.9-1.3-3.8-1.9-5.8c0.5-0.2,1-0.4,1.5-0.6c1.5-0.5,3-0.8,4.6-1.1
		c0.6,1.9,1.3,3.8,1.9,5.8c2.1-0.3,4.3-0.5,6.4-0.7c-0.6-1.9-1.3-3.8-1.9-5.8c2.1-0.2,4.3-0.3,6.4-0.7c0.6,1.9,1.3,3.8,1.9,5.8
		c2.1-0.3,4.2-0.8,6.1-1.6c-0.6-1.9-1.3-3.8-1.9-5.8c1.9-0.8,3.6-1.9,5.1-3.3l1.9,5.7c-1.6,1.5-3.3,2.5-5.1,3.3c0.7,2,1.3,4,2,6
		c1.8-0.8,3.5-1.8,5.1-3.3l2,6c-1.6,1.5-3.3,2.5-5.1,3.3c0.7,2,1.3,4,2,6c1.8-0.8,3.5-1.8,5.1-3.3l1.9,5.7
		C44.2,33.8,42.5,34.9,40.5,35.7z M98.9,14c-1.9-1.9-4.2-3.3-7-4.2c-3.5-1.2-7.4-1.5-11.1-1.7c-3.7-0.3-7.5-0.6-11-1.7
		c-2.6-0.9-4.7-2.1-6.6-3.9l0.7-2L62.2,0L49.5,38.3L36.8,0l-1.7,0.6l0.7,2c-1.8,1.7-4,3-6.6,3.9c-3.5,1.1-7.3,1.4-11,1.7
		c-3.7,0.3-7.6,0.6-11.1,1.7c-2.8,0.9-5,2.3-7,4.2L0,14.1l10.1,30.3l0.3-0.2c1.9-1.8,4.1-3.2,6.8-4.1c3.5-1.1,7.3-1.4,11-1.7
		c3.7-0.3,7.6-0.6,11.1-1.7c2.6-0.9,4.7-2.1,6.6-3.8l2.7,8.2l-5.5,16.5l1.7,0.6l4.7-14.3l4.7,14.3l1.7-0.6l-5.5-16.5l2.7-8.2
		c1.9,1.7,4,3,6.6,3.8c3.5,1.2,7.4,1.5,11.1,1.7c3.7,0.3,7.5,0.6,11,1.7c2.7,0.9,4.9,2.2,6.8,4.1l0.3,0.2L98.9,14L98.9,14z"/>
	<path class="st0" d="M13.8,15c-2.1,0.3-4.2,0.8-6.1,1.6c0.7,2,1.3,4,2,6c1.9-0.8,4-1.3,6.1-1.6C15.1,18.9,14.4,16.9,13.8,15z"/>
	<path class="st0" d="M28.6,19.6c-0.7-2-1.3-4-2-6c-2.1,0.3-4.3,0.5-6.4,0.7c0.7,2,1.3,4,2,6C24.3,20.1,26.5,20,28.6,19.6z"/>
	<path class="st0" d="M30.6,25.6c2.1-0.3,4.2-0.8,6.1-1.6c-0.7-2-1.3-4-2-6c-1.9,0.8-4,1.3-6.1,1.6C29.2,21.6,29.9,23.6,30.6,25.6z"
		/>
	<path class="st0" d="M15.8,20.9c0.7,2,1.3,4,2,6c2.1-0.3,4.3-0.5,6.4-0.7c-0.7-2-1.3-4-2-6C20,20.4,17.9,20.6,15.8,20.9z"/>
	<path class="st0" d="M11.6,28.5c0.7,2,1.3,4,2,6c1.9-0.8,4-1.3,6.1-1.6c-0.7-2-1.3-4-2-6C15.6,27.2,13.6,27.7,11.6,28.5z"/>
	<path class="st0" d="M24.1,26.2c0.7,2,1.3,4,2,6c2.2-0.2,4.3-0.3,6.4-0.7c-0.7-2-1.3-4-2-6C28.5,25.9,26.3,26.1,24.1,26.2z"/>
</g>
</svg>
