<?xml version="1.0" encoding="utf-8"?>
<!-- Generator: Adobe Illustrator 20.0.0, SVG Export Plug-In . SVG Version: 6.00 Build 0)  -->
<svg version="1.1" id="Layer_1" xmlns="http://www.w3.org/2000/svg" xmlns:xlink="http://www.w3.org/1999/xlink" x="0px" y="0px"
	 viewBox="0 0 72 82.6" style="enable-background:new 0 0 72 82.6;" xml:space="preserve">
<style type="text/css">
	.st0{fill:#FFFFFF;}
</style>
<g>
	<polygon class="st0" points="72,82.6 0,82.6 3.6,76.3 67.5,76.3 	"/>
	<path class="st0" d="M18.2,67.7v-7.8c0-0.3-0.1-0.5-0.3-0.7C17.6,59.1,17.3,59,17,59c-0.7,0-1.2,0.4-1.2,1v7.8
		c0,0.3,0.1,0.5,0.3,0.7c0.2,0.2,0.5,0.3,0.8,0.3C17.6,68.7,18.2,68.2,18.2,67.7z M24.2,66v-8.4c0-0.3-0.1-0.5-0.3-0.7
		c-0.2-0.2-0.5-0.3-0.8-0.3c-0.7,0-1.2,0.5-1.2,1V66c0,0.3,0.1,0.5,0.3,0.7c0.2,0.2,0.5,0.3,0.8,0.3C23.7,67,24.2,66.5,24.2,66z
		 M30.3,64.8v-8.4c0-0.3-0.1-0.5-0.3-0.7c-0.2-0.2-0.5-0.3-0.8-0.3c-0.7,0-1.2,0.5-1.2,1v8.4c0,0.3,0.1,0.5,0.3,0.7
		c0.2,0.2,0.5,0.3,0.8,0.3C29.8,65.8,30.3,65.3,30.3,64.8z M36.3,64v-8.1c0-0.3-0.1-0.5-0.3-0.7c-0.2-0.2-0.5-0.3-0.8-0.3
		c-0.7,0-1.2,0.4-1.2,1V64c0,0.3,0.1,0.5,0.3,0.7c0.2,0.2,0.5,0.3,0.8,0.3C35.8,64.9,36.3,64.5,36.3,64z M42.4,64.6v-8.4
		c0-0.3-0.1-0.5-0.3-0.7c-0.2-0.2-0.5-0.3-0.8-0.3c-0.7,0-1.2,0.5-1.2,1v8.4c0,0.3,0.1,0.5,0.3,0.7c0.2,0.2,0.5,0.3,0.8,0.3
		C41.9,65.7,42.4,65.2,42.4,64.6z M48.4,66v-8.4c0-0.3-0.1-0.5-0.3-0.7c-0.2-0.2-0.5-0.3-0.8-0.3c-0.7,0-1.2,0.5-1.2,1V66
		c0,0.3,0.1,0.5,0.3,0.7c0.2,0.2,0.5,0.3,0.8,0.3C47.9,67,48.4,66.5,48.4,66z M54.5,67.7v-7.8c0-0.3-0.1-0.5-0.3-0.7
		C54,59.1,53.7,59,53.3,59c-0.7,0-1.2,0.4-1.2,1v7.8c0,0.3,0.1,0.5,0.3,0.7c0.2,0.2,0.5,0.3,0.8,0.3C54,68.7,54.5,68.2,54.5,67.7z
		 M64.6,72.3l1.8,2.6h-8.7l-22.5-9.3L15,73.8l0,0l-2.6,1.1H4.4l1.5-2.7l6.2-0.3V58.2c4.6-3.8,16.9-5.5,23-5.4v0l0.3,0h0l0.4,0v0
		c5.6-0.1,17.3,1.5,22.3,4.9L58.2,72L64.6,72.3z"/>
	<path class="st0" d="M60.1,54.7c0.4,1.2,0.3,2.2,0.1,2.8c-0.3-0.3-0.6-0.5-0.9-0.8c-5.5-4-18.4-5.5-23.8-5.4c0,0,0,0,0,0
		c-5.9-0.1-19.5,1.5-24.5,5.9c0,0-0.6-1.2-0.1-2.5c1-0.8,2.3-1.6,4.1-2.4c6.1-2.6,15.6-3.8,20.4-3.7v0c0.1,0,0.1,0,0.2,0
		c0,0,0,0,0,0c0.1,0,0.1,0,0.2,0v0c4-0.1,12.1,0.8,18.5,3C56.8,52.6,58.8,53.6,60.1,54.7z"/>
	<path class="st0" d="M56,44c-4.1-4.6-15.6-6.7-21-6.5c0,0,0,0,0,0c-5-0.1-16.7,1.7-21,6.5c0,0,0,0,0,0c-0.3-2.3,0.6-3.4,0.6-3.4
		c1.1-1.1,2.7-2.1,4.8-3c5.4-2.4,12.2-3.3,15.5-3.2v0c0.1,0,0.1,0,0.2,0c0,0,0,0,0,0c0.1,0,0.1,0,0.2,0v0c3.3-0.1,10.1,0.8,15.5,3.2
		c2.4,1,4.2,2.2,5.3,3.5C56.3,42.3,56.1,43.5,56,44z"/>
	<path class="st0" d="M55,45.1v5.2c-0.1,0-0.2-0.1-0.4-0.1c-1.4-0.5-2.9-0.9-4.4-1.3c0,0,0-0.1,0-0.1v-4.2c0-0.3-0.4-0.5-0.9-0.5
		c-0.5,0-0.9,0.2-0.9,0.5v3.8c-1-0.2-2-0.4-3-0.5c0,0,0-0.1,0-0.1v-4.5c0-0.3-0.4-0.6-0.9-0.6c-0.5,0-0.9,0.2-0.9,0.6v4.4
		c-1-0.1-2-0.3-2.9-0.3c0,0,0-0.1,0-0.1v-4.8c0-0.3-0.4-0.6-0.9-0.6c-0.5,0-0.9,0.3-0.9,0.6v4.8c-1.1-0.1-2.1-0.1-2.9-0.1
		c0,0,0-0.1,0-0.1v-5c0-0.3-0.4-0.6-0.9-0.6S34,41.7,34,42.1v5c0,0,0,0.1,0,0.1c-0.9,0-1.9,0.1-2.9,0.2v-4.8c0-0.3-0.4-0.6-0.9-0.6
		c-0.5,0-0.9,0.3-0.9,0.6v4.8c0,0,0,0.1,0,0.1c-0.9,0.1-1.9,0.2-2.9,0.4v-4.5c0-0.3-0.4-0.5-0.9-0.5c-0.5,0-0.9,0.2-0.9,0.5v4.5
		c0,0.1,0,0.2,0.1,0.3c-1,0.2-2,0.4-3.1,0.6v-4c0-0.3-0.4-0.5-0.9-0.5c-0.5,0-0.9,0.2-0.9,0.5v4.2c0,0.1,0.1,0.2,0.2,0.3
		c-1.6,0.4-3.2,0.9-4.6,1.5v-5.8c3.9-4.1,14.3-5.9,19.4-5.8v0c0.1,0,0.2,0,0.3,0h0.1l0.3,0v0C40.5,38.9,51.4,40.9,55,45.1z"/>
	<polygon class="st0" points="53.8,74.8 16.4,74.8 35.1,67.1 	"/>
	<path class="st0" d="M38.4,19.9c5.3,1.9,9.4,7.6,11.5,15.8c-5-1.9-11.3-2.9-14.9-2.8c0,0,0,0,0,0c0,0,0,0,0,0
		c-3.1-0.1-9.6,0.7-15,2.8c1.8-8.4,6.2-14.3,11.8-16C33.9,19,36.2,19.1,38.4,19.9z"/>
	<path class="st0" d="M38.1,11.3v6.9c-2-0.6-4-0.6-5.9-0.2v-6.5c0.4-0.4,0.8-0.7,1.3-0.8c1-0.4,2.1-0.4,3.2,0
		C37.3,10.8,37.7,11.1,38.1,11.3z"/>
	<path class="st0" d="M35,0c0.3,0.8,0.9,3.1,1.1,9.4c-0.7-0.1-1.5-0.1-2.2,0C33.9,4.3,34.5,1.1,35,0z"/>
</g>
</svg>
