<?xml version="1.0" encoding="utf-8"?>
<!-- Generator: Adobe Illustrator 20.0.0, SVG Export Plug-In . SVG Version: 6.00 Build 0)  -->
<svg version="1.1" id="Layer_1" xmlns="http://www.w3.org/2000/svg" xmlns:xlink="http://www.w3.org/1999/xlink" x="0px" y="0px"
	 viewBox="0 0 72 71.4" style="enable-background:new 0 0 72 71.4;" xml:space="preserve">
<style type="text/css">
	.st0{fill:#FFFFFF;}
</style>
<g>
	<path class="st0" d="M61.8,33.2l-3-2.2l-3,2.2l1.2-3.6l-3-2.2h3.8l1.2-3.6l1.2,3.6h3.8l-3,2.2L61.8,33.2z M49.8,33.2l-3-2.2l-3,2.2
		l1.2-3.6l-3-2.2h3.8l1.2-3.6l1.2,3.6h3.8l-3,2.2L49.8,33.2z M37.7,33.2l-3-2.2l-3,2.2l1.2-3.6l-3-2.2h3.8l1.2-3.6l1.2,3.6h3.8
		l-3,2.2L37.7,33.2z M25.7,33.2l-3-2.2l-3,2.2l1.2-3.6l-3-2.2h3.8l1.2-3.6l1.2,3.6h3.8l-3,2.2L25.7,33.2z M49.1,17.2
		c-20.2,5.6-19.1,2.9-24.4-1.1c-2.4-1.8-6.6-4.2-10.9-5.4l0,0C13,10.4,13,9.5,13,9.5c0.9-3.5-0.7-6.1-1.5-8.4
		c-0.8-2.3-3.6-1-3.9,5.4c-0.3,6.3-3.3-1.8-4.1-4.1C2.8,0,1.5,1.7,1.5,1.7s-3.8,6.3,1.6,11c-0.6,0.8-1.1,1.8-1.4,3
		c-0.5,1.7,0.1,3.9-0.2,5.7c-3.9,10.2,0.2,16,9.3,7.9c0,0,2.6-2.8,6.5,6.2H66C66,35.5,69.3,11.6,49.1,17.2z"/>
	<path class="st0" d="M71.9,46.6c-0.3-1.1-0.9-2-2-2c0,0-0.1,0-0.1,0c-3.1-3.1-3.9-6.9-3.9-6.9H18.2c0.8,2.5,3,13.5,3,16.8
		s-1.1,6.8-1.1,7.6c0,0.8-0.5,1.4-0.5,1.4s-2.2,3.5-3.2,5c-1.1,1.5,0.7,1.9,0.7,1.9s3.8,0,5.6,0c1.8,0,1.9-0.4,2.1-1.2
		c0.1-0.8,0.8-1.5,1.4-0.8c0.7,0.8,1.5-0.3,1.5-0.3s1.6-1.6,3.1-3.5c1.5-1.8-0.3-2.6-0.3-2.6c-6.7-7.1,0.7-16.2,0.7-16.2
		c4.5,1.2,8.9-0.5,11-1.1c2.2-0.5,2.8,1.1,2.8,1.1l1.5,2.6c2.8,5.4,0.9,7,0.9,7s-4.3,6.6-6.1,8.5c-1.7,2-1.5,2.6-1.5,2.6
		c0.2,3.1,6.3,2.5,7.1,1.2c0.9-1.3,2.2-4,3.7-5.5c1.5-1.5,1.2-2.4,1.2-2.4c0.2-3.6,1.1-4.4,1.1-4.4c4.5-4.1,3.4-8.2,3-9
		c-0.3-0.8-0.1-1,0.4-1.2c0.5-0.2,0.9,0.7,0.9,0.7c3.5,7.3,2.6,11.7,2.6,13.1c0,1.4-1.1,2.9-1.1,4.3c0,1.4,0,1.6-2.2,3.9
		s-1.2,4.1,2.6,4.1c3.8,0,4.8-3.6,5.5-4.7c0.8-1.1,1.1-2.7,1.1-2.7s-0.1-2.8,0-5.2c0.1-2.4,1.4-4.7,0.5-6.5
		c-0.9-1.8-1.7-7.4-1.8-8.1c-0.1-0.8,0.3-3.2,1.5-1.5c0.8,1.2,1.9,2.1,2.5,2.6c-0.3,0.4-0.5,0.8-0.5,1.3c0,0,0.1,1.2,1,2.2
		c0.9,1,0.8,1.8,0.8,1.8s0.1,1.6,1.1,0.2C71.8,49.4,72.2,47.6,71.9,46.6z"/>
</g>
</svg>
