<?xml version="1.0" encoding="utf-8"?>
<!-- Generator: Adobe Illustrator 20.1.0, SVG Export Plug-In . SVG Version: 6.00 Build 0)  -->
<svg version="1.1" id="Layer_1" xmlns="http://www.w3.org/2000/svg" xmlns:xlink="http://www.w3.org/1999/xlink" x="0px" y="0px"
	 viewBox="0 0 100 125" style="enable-background:new 0 0 100 125;" xml:space="preserve">
<path d="M78.1,57.1c-2.8,6.2-7.9,6.6-7.9,6.6s5.6-19.9-5.9-27.6c-1.5,6.9-6.1,8.7-6.1,8.7S47.5,29,58.1,7.4
	c-26.3,4.3-24.8,44.2-24.8,44.2S29,52,28.1,41.9C17.1,56.4,27.5,72,27.5,72s-4.4-1-7.7-3.5c-0.7,3.5,2.6,24,30.4,24
	C77.9,92.6,84.4,62.2,78.1,57.1z M52,89.4c-14.1,1.2-16.9-20.7-13.8-24.7c2.6,6.4,6.6,5.3,6.6,5.3s-3-23,2.8-27.6
	c2,15.4,11.7,21.9,13.8,27.8C63.5,76.1,66,88.3,52,89.4z"/>
</svg>
