<?xml version="1.0" encoding="utf-8"?>
<!-- Generator: Adobe Illustrator 20.0.0, SVG Export Plug-In . SVG Version: 6.00 Build 0)  -->
<svg version="1.1" id="Layer_1" xmlns="http://www.w3.org/2000/svg" xmlns:xlink="http://www.w3.org/1999/xlink" x="0px" y="0px"
	 viewBox="0 0 72 71" style="enable-background:new 0 0 72 71;" xml:space="preserve">
<g>
	<path d="M67,5c-2-2.1-4.5-3.4-7.4-4C56.7,0.3,54,0,51.6,0c-2.5,0-5.3,0.3-8.4,0.8c-3,0.5-6.2,1.4-9.4,2.7c-3.2,1.2-6.4,2.8-9.5,4.8
		c-3.2,2-6.1,4.4-8.9,7.3c-2.8,2.9-5.1,6-7.1,9.4c-2,3.3-3.6,6.7-4.9,10.1c-1.3,3.4-2.2,6.7-2.7,9.9C0.2,48.2,0,51.1,0,53.8
		c0.1,2.9,0.5,5.5,1.3,7.7c0.8,2.2,1.9,4,3.4,5.4c1.9,1.7,4.2,2.9,6.9,3.4c2.7,0.5,5.2,0.8,7.5,0.8c2.6,0,5.5-0.3,8.7-0.8
		c3.2-0.5,6.4-1.4,9.7-2.7c3.3-1.2,6.6-2.8,9.8-4.8c3.3-2,6.3-4.4,9.2-7.2c4.1-4.1,7.3-8.6,9.8-13.5c2.4-4.9,4.1-9.7,4.9-14.5
		c0.8-4.7,0.9-9.1,0.2-13.1C70.8,10.4,69.3,7.3,67,5z M47.2,4c0.7-0.1,1.3-0.2,2-0.2c1.2-0.1,2.4-0.2,3.6-0.2c0.6,0,2.2,0.2,3.6,0.3
		C57,4,57.1,4.8,56.5,5.1c-0.4,0.2-0.8,0.3-1.1,0.5c-0.5,0.2-1,0.5-1.5,0.7c-1,0.5-2.2,0.5-3.2,0c-0.6-0.3-1.2-0.5-1.8-0.8
		C48.3,5.2,47.6,5,47,4.8C46.4,4.6,46.6,4.1,47.2,4z M8.9,33c0.9-1.9,1.9-3.8,3-5.6c1.9-3.2,4.2-6.2,6.8-8.9
		c0.6-0.6,1.1-1.2,1.7-1.7c0.6-0.6,1.2-1.1,1.8-1.6c0.2-0.2,0.3-0.3,0.5-0.5c0.2-0.2,0.4-0.3,0.6-0.5c0.5-0.3,0.9-0.7,1.4-1
		c0.5-0.3,0.9-0.6,1.4-0.9c0.2-0.1,0.4-0.3,0.6-0.5c0.2-0.1,0.4-0.3,0.6-0.4c0.6-0.3,1.1-0.7,1.7-1c0.6-0.3,1.1-0.6,1.7-0.9
		c0.1-0.1,0.2-0.1,0.3-0.2c0.1-0.1,0.2-0.1,0.3-0.2c0.7-0.3,1.3-0.7,2-1c0.7-0.3,1.3-0.6,2-0.8c0.2-0.1,0.4-0.2,0.6-0.2
		c0.2-0.1,0.4-0.1,0.5-0.2l0,0c1.9-0.6,4-0.8,6-0.4c0.6,0.1,1.2,0.3,1.8,0.4c1,0.3,1.9,0.6,2.9,0.9c0.9,0.3,1,1.5,0.2,2
		C47.2,9.8,47.1,10,47,10c-0.6,0.5-1.3,1.1-2,1.2c-0.8,0.1-1.6-0.6-2.4-0.9c-1-0.4-2-0.6-2.8-0.6c-1.5-0.1-2.3-0.1-2.4-0.1
		c-0.3,0.1-0.6,0.2-0.8,0.5c-0.2,0.3-0.3,0.6-0.3,0.9c0.1,0.3,0.2,0.6,0.5,0.9c0.3,0.2,0.6,0.3,0.9,0.3c0.1,0,0.5,0,1.4,0
		c0.5,0,1.1,0.1,1.7,0.3c0.6,0.2,0.8,1,0.2,1.4c-0.6,0.4-1.2,0.9-1.8,1.4c-0.7,0.5-1.4,1.1-2,1.6c-0.5,0.4-1.2,0.5-1.8,0.2
		c-1.3-0.6-2.6-1-3.7-1c-1.4,0-2.1,0-2.2,0c-0.4,0.1-0.6,0.2-0.8,0.5c-0.2,0.3-0.3,0.6-0.2,0.9c0,0.4,0.1,0.6,0.4,0.9
		c0.3,0.2,0.6,0.3,0.9,0.3c1.2,0,2.2,0.2,3.1,0.4c0.6,0.2,0.9,1,0.4,1.4c-0.5,0.5-1,0.9-1.5,1.4c-0.6,0.6-1.2,1.1-1.7,1.7
		c-0.4,0.4-0.9,0.5-1.4,0.3c-1.2-0.5-2.3-0.7-3.3-0.7c-1.2,0-1.8,0-1.9,0c-0.4,0.1-0.6,0.2-0.8,0.5c-0.2,0.3-0.3,0.6-0.3,0.9
		c0.1,0.3,0.2,0.6,0.5,0.9c0.3,0.2,0.6,0.3,0.9,0.3c1,0,1.9,0.1,2.7,0.3c0.5,0.1,0.7,0.7,0.3,1.1c-0.6,0.7-1.2,1.4-1.8,2
		c-0.5,0.6-1,1.1-1.5,1.7c-0.6,0.7-1.4,0.9-2.3,0.7c-0.9-0.3-1.7-0.4-2.4-0.4c-1.1,0-1.6,0-1.7,0c-0.4,0-0.6,0.1-0.8,0.4
		c-0.2,0.3-0.3,0.6-0.2,0.9c0.1,0.3,0.2,0.6,0.4,0.8c0.2,0.2,0.6,0.3,0.9,0.3c0-0.1,0.4-0.1,1.1-0.1c0.1,0,0.1,0,0.2,0
		c1.1,0,1.7,1.3,1,2.2c-0.3,0.4-0.5,0.7-0.8,1.1c-0.3,0.4-0.6,0.8-0.9,1.2c-0.6,0.9-1.8,1.2-2.8,0.8c-1-0.4-2-0.7-3-0.9
		c-0.4-0.1-0.8-0.2-1.1-0.2C9.1,37,8,34.8,8.9,33z M25.1,63.8C25,64.2,25,64.6,24.9,65c-0.3,1.1-1.3,1.9-2.4,1.9h0
		c-0.2,0.1-0.4,0.1-0.6,0.1s-0.4,0-0.6,0.1c-0.5,0.1-1,0.1-1.4,0.1c-0.4,0-0.9,0-1.3,0.1c-0.1,0-0.2,0-0.3,0c-0.1,0-0.2,0-0.3,0
		c-0.1,0-0.2,0-0.3,0c-0.1,0-0.2,0-0.3,0c-0.1,0-0.2,0-0.3,0c-0.1,0-0.2,0-0.2,0c-0.4,0-0.8,0-1.2,0c-0.4,0-0.7-0.1-1.1-0.1
		c-0.1,0-0.1,0-0.1,0c0,0-0.1,0-0.1,0c-0.4,0-0.7-0.1-1.1-0.2c-0.3-0.1-0.7-0.1-1.1-0.2c-0.1,0-0.2,0-0.3,0c-0.1,0-0.1,0-0.2,0
		c-0.3-0.1-0.7-0.2-1-0.3c-0.3-0.1-0.6-0.2-0.8-0.3H9.9c-0.3-0.1-0.6-0.2-0.8-0.3c-0.2-0.1-0.5-0.2-0.8-0.3c0,0-0.2-0.1-0.3-0.3
		c-0.7-0.5-1-1.5-0.6-2.3c0.8-1.8,1.9-4,3.2-6.7c0.9-1.7,1.8-3.5,2.9-5.4c0.4-0.7,0.2-1.5-0.3-2c-0.8-0.7-2-0.5-2.5,0.4
		c-0.8,1.3-1.5,2.6-2.1,3.9c-1.2,2.3-2.2,4.4-3.1,6.2c-0.2,0.5-0.9,0.4-1-0.1c-0.4-1.9-0.6-4.1-0.5-6.6c0.1-3,0.6-6.2,1.4-9.6
		c0.1-0.5,0.6-0.9,1.1-0.9c0.1,0,0.2,0,0.3,0c1.3,0,2.6,0.1,3.8,0.4c0.8,0.2,1.5,0.4,2.3,0.6c0.7,0.2,0.9,1,0.5,1.6
		c-0.1,0.2-0.3,0.4-0.4,0.6c-0.4,0.7-0.3,1.5,0.3,2.1l0.2,0.2c0.6,0.5,1.6,0.4,2.1-0.3c0,0,0,0,0,0c0.7-1.2,2.3-1.4,3.3-0.5
		c1.6,1.4,3,3.1,4.1,5.1c1.6,2.7,2.3,5.7,2.3,9C25.4,61.8,25.3,62.8,25.1,63.8z M67.9,22c-0.1,0.8-1.1,1-1.4,0.3
		c-1-2.2-2.3-4.3-3.8-6.3c-1-1.3-2.1-2.5-3.2-3.6c-0.3-0.3-0.8-0.4-1.3-0.3l-0.3,0.1c-0.8,0.3-1,1.4-0.4,2c0,0,0,0,0,0
		c1.5,1.5,2.9,3,4,4.7c1.2,1.7,2.2,3.5,3,5.5c0.1,0.2,0.2,0.4,0.3,0.7c1.2,3.2,1.2,6.8-0.1,10c-0.1,0.3-0.3,0.6-0.4,1
		c-0.8,1.9-1.7,3.7-2.7,5.6c-1.1,1.8-2.2,3.6-3.6,5.4c-1.3,1.8-2.8,3.5-4.5,5.1c-0.6,0.6-1.1,1.2-1.8,1.7c-0.6,0.6-1.3,1.1-1.9,1.7
		c-0.2,0.2-0.4,0.3-0.6,0.4c-0.2,0.1-0.4,0.3-0.5,0.4c-0.5,0.4-1,0.8-1.5,1.1c-0.5,0.4-1,0.7-1.5,1c-0.2,0.1-0.4,0.3-0.6,0.4
		c-0.2,0.1-0.4,0.2-0.5,0.3c-0.7,0.4-1.4,0.8-2.1,1.2c-0.7,0.4-1.4,0.8-2.1,1.1c0,0.1-0.1,0.1-0.1,0.1c-0.1,0-0.1,0-0.2,0
		c-0.7,0.3-1.3,0.6-2,0.9c-0.7,0.3-1.3,0.6-2,0.8c-0.2,0.1-0.4,0.2-0.6,0.3c-0.2,0.1-0.4,0.1-0.7,0.2c-0.5,0.2-1,0.4-1.5,0.6
		c-0.2,0.1-0.6,0.2-1.1,0.3c-1,0.3-1.9-0.5-1.8-1.5c0-0.1,0-0.2,0-0.2c0.1-0.8,0.1-1.6,0.1-2.4c0-4.2-1-8-2.9-11.5
		c-1.6-2.8-3.5-5.1-6-7c-1-0.8-1.2-2.3-0.4-3.4c0.2-0.2,0.4-0.5,0.5-0.7c0.4-0.6,0.8-1.1,1.3-1.7c0.5-0.6,1.3-0.7,1.9-0.2
		c0.3,0.3,0.6,0.5,0.8,0.8c0.6,0.7,1.2,1.6,1.8,2.6c0.1,0.2,0.2,0.4,0.5,0.5c0.2,0.1,0.4,0.2,0.6,0.2c0.1,0,0.2,0,0.3,0
		c0.1,0,0.2-0.1,0.3-0.1c0.3-0.2,0.5-0.4,0.6-0.7c0.1-0.3,0.1-0.6-0.1-0.9c-0.6-1.2-1.3-2.2-2-3.1c-0.5-0.6-1-1.1-1.5-1.5
		c-0.4-0.4-0.5-1-0.1-1.4c0.6-0.7,1.2-1.3,1.7-2c0.7-0.7,1.3-1.5,2-2.2c0.3-0.4,0.9-0.4,1.2-0.1c0.4,0.3,0.8,0.7,1.1,1.1
		c0.6,0.7,1.1,1.5,1.6,2.4c0.2,0.2,0.3,0.4,0.5,0.5c0.2,0.1,0.4,0.2,0.6,0.2c0.1,0,0.2,0,0.3,0c0.1,0,0.2-0.1,0.3-0.1
		c0.3-0.2,0.5-0.4,0.6-0.7c0.1-0.3,0.1-0.6-0.1-0.9c-0.6-1.1-1.2-2-1.8-2.8c-0.3-0.4-0.6-0.7-0.9-1c-0.6-0.6-0.6-1.6,0-2.2
		c0.4-0.4,0.8-0.8,1.2-1.2c0.4-0.4,0.8-0.8,1.3-1.2c0.7-0.7,1.8-0.6,2.5,0.2c0.1,0.1,0.2,0.2,0.2,0.3c0.5,0.6,0.9,1.3,1.3,2
		c0.1,0.2,0.3,0.4,0.5,0.5c0.2,0.1,0.4,0.1,0.6,0.1c0.1,0,0.2,0,0.3,0c0.1,0,0.2,0,0.3,0c0.3-0.2,0.5-0.5,0.6-0.8
		c0.1-0.3,0.1-0.6-0.1-0.9c-0.5-0.9-0.9-1.6-1.5-2.3c-0.3-0.3-0.5-0.6-0.8-0.9c-0.4-0.5-0.4-1.3,0.2-1.7c0.7-0.5,1.3-1,2-1.5
		c0.6-0.5,1.3-0.9,1.9-1.4c0.7-0.5,1.7-0.4,2.3,0.3c0.1,0.1,0.2,0.2,0.3,0.4c0.4,0.6,0.8,1.2,1.2,1.9c0.1,0.2,0.3,0.4,0.5,0.5
		c0.2,0.1,0.4,0.1,0.7,0.1c0.1,0,0.2,0,0.3,0c0.1,0,0.2,0,0.2-0.1c0.3-0.2,0.6-0.5,0.7-0.8c0.1-0.3,0.1-0.6-0.1-0.9
		c-0.4-0.8-0.8-1.4-1.3-2.1c-0.2-0.3-0.5-0.7-0.7-1c-0.3-0.4-0.2-1,0.2-1.3c0.6-0.3,1.1-0.7,1.7-1l0,0c1.4-0.8,3.1-0.9,4.5-0.1
		c0.4,0.2,1,0.3,1.5,0.1l0.3-0.1c0.8-0.3,1.2-1.1,1.1-2c-0.1-0.9,0.3-1.8,1.2-2.1c0.2-0.1,0.4-0.2,0.7-0.3C60.1,7,61,6.7,61.9,6.4
		c1-0.3,2.1-0.1,2.8,0.6c1.2,1.2,2.8,3.3,3,7.1C67.9,16.6,68.1,19.2,67.9,22z"/>
</g>
</svg>
