<?xml version="1.0" encoding="utf-8"?>
<!-- Generator: Adobe Illustrator 20.0.0, SVG Export Plug-In . SVG Version: 6.00 Build 0)  -->
<svg version="1.1" id="Layer_1" xmlns="http://www.w3.org/2000/svg" xmlns:xlink="http://www.w3.org/1999/xlink" x="0px" y="0px"
	 viewBox="0 0 74.1 55.1" style="enable-background:new 0 0 74.1 55.1;" xml:space="preserve">
<style type="text/css">
	.st0{fill:#FFFFFF;}
</style>
<g>
	<path class="st0" d="M39.5,22.5c-28.6,5.9-33.8,0-34.2-1.9C4.9,18.7,9.9,11.7,35,6.9C60,2.1,67.4,6.4,67.8,8.3
		C68.1,10.1,68.1,16.7,39.5,22.5z M73.9,7.6C73.3,4.4,64-3.7,34.3,1.9C4.6,7.5-0.6,19,0,22.2c0.6,3.2,7.5,13.7,41.3,6.7
		C75.2,21.9,74.6,10.8,73.9,7.6z"/>
	<path class="st0" d="M14.3,37.4c0,0,5.6,4.6,18.8,4.6c13.2,0,17.8-5.2,17.8-5.2s3.9,8.6-16.8,8.6C17.8,45.4,14.3,37.4,14.3,37.4z"
		/>
	<path class="st0" d="M18.6,43.8c0,0,5.3,4.6,14.5,4.6c6.3,0,7.2-1,7.2-1s-1.1,3.9-9.2,3.9C23,51.3,18.6,45.7,18.6,43.8z"/>
	<path class="st0" d="M20.6,49.6c0,0,3,4.7,10.6,4c0,0-3.5,3-7.6,0.7C20,52.3,20.6,49.6,20.6,49.6z"/>
	<path class="st0" d="M59.3,25c-2.9,5.8-23.5,9.5-34.3,9.4c-10.3-0.1-17.5-3.2-17.5-3.2s3.5,6.9,22.9,7.1
		c19.4,0.2,35.8-7.3,35.8-13.5c0-0.9-0.3-1.8-0.8-2.5C63.7,23.2,61.7,24.1,59.3,25z"/>
	<path class="st0" d="M41.8,15.9c-11.8-0.1-24.4,4.4-24.4,4.4c9.4-2.9,23.1-2.9,32.4-1.3c2-0.6,3.7-1.2,5.2-1.8
		C51,16.3,46.3,15.9,41.8,15.9z"/>
</g>
</svg>
