<?xml version="1.0" encoding="UTF-8"?>
<svg width="18px" height="12px" viewBox="0 0 18 12" version="1.1" xmlns="http://www.w3.org/2000/svg" xmlns:xlink="http://www.w3.org/1999/xlink">
    <!-- Generator: sketchtool 41.2 (35397) - http://www.bohemiancoding.com/sketch -->
    <title>D5FF5ECB-E3E5-4D12-8A9F-AB7FBDD79D65</title>
    <desc>Created with sketchtool.</desc>
    <defs>
        <rect id="path-1" x="0" y="0" width="300" height="600"></rect>
        <mask id="mask-2" maskContentUnits="userSpaceOnUse" maskUnits="objectBoundingBox" x="0" y="0" width="300" height="600" fill="white">
            <use xlink:href="#path-1"></use>
        </mask>
        <ellipse id="path-3" cx="15" cy="15" rx="15" ry="15"></ellipse>
        <mask id="mask-4" maskContentUnits="userSpaceOnUse" maskUnits="objectBoundingBox" x="0" y="0" width="30" height="30" fill="white">
            <use xlink:href="#path-3"></use>
        </mask>
    </defs>
    <g id="KBB_SideKicks" stroke="none" stroke-width="1" fill="none" fill-rule="evenodd">
        <g id="300x600_Story" transform="translate(-266.000000, -24.000000)">
            <g transform="translate(0.000000, -1.000000)">
                <use id="Rectangle-6" stroke="#CCCCCC" mask="url(#mask-2)" stroke-width="2" fill="#FFFFFF" xlink:href="#path-1"></use>
                <g id="Social-Icons" transform="translate(190.000000, 16.000000)">
                    <g id="Google" transform="translate(70.000000, 0.000000)">
                        <use id="Button-BG" stroke="#DD4B39" mask="url(#mask-4)" stroke-width="4" fill="#DD4B39" xlink:href="#path-3"></use>
                        <g id="Icon:-Google" transform="translate(6.000000, 9.000000)" fill="#FFFFFF">
                            <path d="M11.2265625,6.1328125 C11.2265625,7.21615125 11.0000023,8.18098535 10.546875,9.02734375 C10.0937477,9.87370215 9.44792086,10.5351539 8.609375,11.0117188 C7.77082914,11.4882836 6.80990125,11.7265625 5.7265625,11.7265625 C4.95051695,11.7265625 4.20833688,11.5755223 3.5,11.2734375 C2.79166312,10.9713527 2.18229422,10.5651067 1.671875,10.0546875 C1.16145578,9.54426828 0.755209844,8.93489938 0.453125,8.2265625 C0.151040156,7.51822562 0,6.77604555 0,6 C0,5.22395445 0.151040156,4.48177438 0.453125,3.7734375 C0.755209844,3.06510062 1.16145578,2.45573172 1.671875,1.9453125 C2.18229422,1.43489328 2.79166312,1.02864734 3.5,0.7265625 C4.20833688,0.424477656 4.95051695,0.2734375 5.7265625,0.2734375 C7.21615328,0.2734375 8.49478633,0.7734325 9.5625,1.7734375 L8.0078125,3.265625 C7.39843445,2.67708039 6.63802539,2.3828125 5.7265625,2.3828125 C5.0859343,2.3828125 4.4934923,2.54426922 3.94921875,2.8671875 C3.4049452,3.19010578 2.97395992,3.62890348 2.65625,4.18359375 C2.33854008,4.73828402 2.1796875,5.34374672 2.1796875,6 C2.1796875,6.65625328 2.33854008,7.26171598 2.65625,7.81640625 C2.97395992,8.37109652 3.4049452,8.80989422 3.94921875,9.1328125 C4.4934923,9.45573078 5.0859343,9.6171875 5.7265625,9.6171875 C6.15885633,9.6171875 6.55598777,9.55729227 6.91796875,9.4375 C7.27994973,9.31770773 7.57812383,9.16796965 7.8125,8.98828125 C8.04687617,8.80859285 8.25130121,8.60416781 8.42578125,8.375 C8.60026129,8.14583219 8.72786418,7.92968852 8.80859375,7.7265625 C8.88932332,7.52343648 8.94531234,7.33073008 8.9765625,7.1484375 L5.7265625,7.1484375 L5.7265625,5.1796875 L11.1328125,5.1796875 C11.1953128,5.50781414 11.2265625,5.8255193 11.2265625,6.1328125 Z M18,5.1796875 L18,6.8203125 L16.3671875,6.8203125 L16.3671875,8.453125 L14.7265625,8.453125 L14.7265625,6.8203125 L13.09375,6.8203125 L13.09375,5.1796875 L14.7265625,5.1796875 L14.7265625,3.546875 L16.3671875,3.546875 L16.3671875,5.1796875 L18,5.1796875 Z"></path>
                        </g>
                    </g>
                </g>
            </g>
        </g>
    </g>
</svg>