<?xml version="1.0" encoding="UTF-8"?>
<svg width="26px" height="18px" viewBox="0 0 26 18" version="1.1" xmlns="http://www.w3.org/2000/svg" xmlns:xlink="http://www.w3.org/1999/xlink">
    <!-- Generator: Sketch 40.3 (33839) - http://www.bohemiancoding.com/sketch -->
    <title>Automotive</title>
    <desc>Created with Sketch.</desc>
    <defs></defs>
    <g id="Page-1" stroke="none" stroke-width="1" fill="none" fill-rule="evenodd">
        <g id="Automotive" fill="white">
            <g id="Page-1">
                <g id="Icon_Automotive">
                    <g id="Symbols">
                        <g id="Section-Header:-Automotive">
                            <g id="Icon:-Car">
                                <g id="Layer_1">
                                    <path d="M20.5472222,10.64 C20.9083333,9.57333333 21.3777778,8.75555556 21.3777778,8.75555556 C21.3777778,8.75555556 23.0027778,8.36444444 24.5916667,8.54222222 C24.2305556,8.96888889 23.3277778,10.5333333 20.5472222,10.64 L20.5472222,10.64 L20.5472222,10.64 L20.5472222,10.64 Z M12.675,7.08444444 C8.63055556,7.08444444 5.95833333,7.65333333 5.59722222,7.72444444 C5.30833333,7.51111111 5.01944444,7.40444444 4.65833333,7.40444444 L3.71944444,7.26222222 L6.57222222,3.88444444 C6.57222222,3.88444444 10.0388889,2.88888889 12.7833333,2.88888889 C15.5277778,2.88888889 18.9944444,3.88444444 18.9944444,3.88444444 L21.8472222,7.26222222 L20.9083333,7.40444444 C20.5472222,7.40444444 20.2222222,7.54666667 19.9333333,7.76 C20.0055556,7.72444444 17.1166667,7.08444444 12.675,7.08444444 L12.675,7.08444444 L12.675,7.08444444 L12.675,7.08444444 Z M17.55,14.2666667 L8.08888889,14.2666667 L7.18611111,11.7422222 L18.4166667,11.7422222 L17.55,14.2666667 L17.55,14.2666667 L17.55,14.2666667 L17.55,14.2666667 Z M1.08333333,8.54222222 C2.67222222,8.4 4.29722222,8.75555556 4.29722222,8.75555556 C4.29722222,8.75555556 4.80277778,9.60888889 5.12777778,10.64 C2.38333333,10.5333333 1.44444444,8.96888889 1.08333333,8.54222222 L1.08333333,8.54222222 L1.08333333,8.54222222 L1.08333333,8.54222222 Z M24.1944444,6.76444444 C24.8083333,6.76444444 25.3138889,6.48 25.3138889,6.08888889 C25.3138889,5.69777778 24.8083333,5.41333333 24.1944444,5.41333333 C23.5805556,5.41333333 23.075,5.69777778 23.075,6.08888889 C23.075,6.19555556 23.1111111,6.30222222 23.2194444,6.40888889 L22.5,6.5 L19.5,1.28 C19.5,1.28 15.8166667,0.248888889 12.8555556,0.248888889 C9.89444444,0.213333333 6.21111111,1.28 6.21111111,1.28 L3,6.37333333 L2.6,6.37333333 C2.67222222,6.26666667 2.74444444,6.16 2.74444444,6.05333333 C2.74444444,5.66222222 2.23888889,5.37777778 1.625,5.37777778 C1.01111111,5.37777778 0.505555556,5.66222222 0.505555556,6.05333333 C0.505555556,6.44444444 1.01111111,6.72888889 1.625,6.72888889 C1.80555556,6.72888889 2.02222222,6.69333333 2.20277778,6.65777778 L2.88888889,7.04888889 L1.58888889,6.87111111 C0.758333333,6.87111111 0.0361111111,7.54666667 0.0361111111,8.4 L0.0361111111,14.16 C0.0361111111,14.5511111 0.180555556,14.8711111 0.397222222,15.1555556 L0.397222222,17.68 L3.9,17.68 L3.9,15.7244444 L21.9194444,15.7244444 L21.9194444,17.68 L25.4222222,17.68 L25.4222222,15.1555556 C25.6388889,14.8711111 25.7833333,14.5511111 25.7833333,14.16 L25.7833333,8.47111111 C25.675,7.61777778 24.9888889,6.94222222 24.1583333,6.94222222 L22.9305556,7.08444444 L23.6166667,6.69333333 C23.7611111,6.72888889 23.9777778,6.76444444 24.1944444,6.76444444 Z" id="Shape"></path>
                                </g>
                            </g>
                        </g>
                    </g>
                </g>
            </g>
        </g>
    </g>
</svg>
