<?xml version="1.0" encoding="utf-8"?>
<!-- Generator: Adobe Illustrator 20.0.0, SVG Export Plug-In . SVG Version: 6.00 Build 0)  -->
<svg version="1.1" id="Layer_1" xmlns="http://www.w3.org/2000/svg" xmlns:xlink="http://www.w3.org/1999/xlink" x="0px" y="0px"
	 viewBox="0 0 72 68.9" style="enable-background:new 0 0 72 68.9;" xml:space="preserve">
<path stroke="#272727" d="M68.2,23.3c-1.9,0-3.5,1.4-3.8,3.3l-18.4-2.7L37.7,7.3C39.1,6.7,40,5.4,40,3.8C40,1.7,38.3,0,36.2,0c-2.1,0-3.8,1.7-3.8,3.8
	c0,1.5,0.8,2.7,2,3.4l-8.3,16.7L7.6,26.6c-0.3-1.9-1.9-3.3-3.8-3.3C1.7,23.3,0,25,0,27.2C0,29.3,1.7,31,3.8,31
	c1.1,0,2.1-0.4,2.8-1.2l13.3,13l-3.2,18.4c-0.3-0.1-0.5-0.1-0.8-0.1c-2.1,0-3.8,1.7-3.8,3.8c0,2.1,1.7,3.8,3.8,3.8
	c2.1,0,3.8-1.7,3.8-3.8c0-0.6-0.2-1.2-0.4-1.8L36,54.5l16.5,8.7C52.2,63.7,52,64.3,52,65c0,2.1,1.7,3.8,3.8,3.8
	c2.1,0,3.8-1.7,3.8-3.8c0-2.1-1.7-3.8-3.8-3.8c-0.2,0-0.4,0-0.6,0.1l-3.1-18.3l13.3-13c0.7,0.7,1.7,1.2,2.8,1.2
	c2.1,0,3.8-1.7,3.8-3.8C72,25,70.3,23.3,68.2,23.3z"/>
</svg>
