<?xml version="1.0" encoding="UTF-8"?>
<svg width="13px" height="10px" viewBox="0 0 13 10" version="1.1" xmlns="http://www.w3.org/2000/svg" xmlns:xlink="http://www.w3.org/1999/xlink">
    <!-- Generator: sketchtool 41.2 (35397) - http://www.bohemiancoding.com/sketch -->
    <title>90DF5BDD-D491-4051-9863-75311308D888</title>
    <desc>Created with sketchtool.</desc>
    <defs>
        <rect id="path-1" x="0" y="0" width="300" height="600"></rect>
        <mask id="mask-2" maskContentUnits="userSpaceOnUse" maskUnits="objectBoundingBox" x="0" y="0" width="300" height="600" fill="white">
            <use xlink:href="#path-1"></use>
        </mask>
        <ellipse id="path-3" cx="15" cy="15" rx="15" ry="15"></ellipse>
        <mask id="mask-4" maskContentUnits="userSpaceOnUse" maskUnits="objectBoundingBox" x="0" y="0" width="30" height="30" fill="white">
            <use xlink:href="#path-3"></use>
        </mask>
    </defs>
    <g id="KBB_SideKicks" stroke="none" stroke-width="1" fill="none" fill-rule="evenodd">
        <g id="300x600_Story" transform="translate(-234.000000, -25.000000)">
            <g transform="translate(0.000000, -1.000000)">
                <use id="Rectangle-6" stroke="#CCCCCC" mask="url(#mask-2)" stroke-width="2" fill="#FFFFFF" xlink:href="#path-1"></use>
                <g id="Social-Icons" transform="translate(190.000000, 16.000000)">
                    <g id="Twitter" transform="translate(35.000000, 0.000000)">
                        <use id="Button-BG" stroke="#00ACED" mask="url(#mask-4)" stroke-width="4" fill="#00ACED" xlink:href="#path-3"></use>
                        <g id="Icon:-Twitter" transform="translate(9.000000, 10.000000)" fill="#FFFFFF">
                            <path d="M12.65625,1.1875 C12.3072899,1.69791922 11.8854191,2.1328107 11.390625,2.4921875 C11.3958334,2.56510453 11.3984375,2.67447844 11.3984375,2.8203125 C11.3984375,3.49739922 11.2994802,4.17317371 11.1015625,4.84765625 C10.9036448,5.52213879 10.6028666,6.16926773 10.1992188,6.7890625 C9.7955709,7.40885727 9.31510695,7.95702887 8.7578125,8.43359375 C8.20051805,8.91015863 7.52864977,9.29036316 6.7421875,9.57421875 C5.95572523,9.85807434 5.11458781,10 4.21875,10 C2.80728461,10 1.51563086,9.62239961 0.34375,8.8671875 C0.526042578,8.88802094 0.729165547,8.8984375 0.953125,8.8984375 C2.12500586,8.8984375 3.16926625,8.53906609 4.0859375,7.8203125 C3.53905977,7.80989578 3.04948133,7.64192871 2.6171875,7.31640625 C2.18489367,6.99088379 1.88802164,6.57552336 1.7265625,6.0703125 C1.89843836,6.0963543 2.05729094,6.109375 2.203125,6.109375 C2.42708445,6.109375 2.64843641,6.08072945 2.8671875,6.0234375 C2.28385125,5.90364523 1.80078316,5.61328355 1.41796875,5.15234375 C1.03515434,4.69140395 0.84375,4.15625305 0.84375,3.546875 L0.84375,3.515625 C1.19791844,3.71354266 1.57812297,3.82031242 1.984375,3.8359375 C1.64062328,3.60676969 1.36718852,3.30729352 1.1640625,2.9375 C0.960936484,2.56770648 0.859375,2.16666883 0.859375,1.734375 C0.859375,1.27603937 0.973957187,0.851564453 1.203125,0.4609375 C1.83333648,1.23698305 2.6002559,1.85807059 3.50390625,2.32421875 C4.4075566,2.79036691 5.37499484,3.04947891 6.40625,3.1015625 C6.36458313,2.90364484 6.34375,2.71093844 6.34375,2.5234375 C6.34375,1.82551734 6.58984129,1.23047121 7.08203125,0.73828125 C7.57422121,0.246091289 8.16926734,0 8.8671875,0 C9.59635781,0 10.210935,0.265622344 10.7109375,0.796875 C11.2786487,0.687499453 11.8124975,0.484376484 12.3125,0.1875 C12.1197907,0.786461328 11.7500027,1.24999836 11.203125,1.578125 C11.6875024,1.52604141 12.1718726,1.39583437 12.65625,1.1875 Z"></path>
                        </g>
                    </g>
                </g>
            </g>
        </g>
    </g>
</svg>