<?xml version="1.0" encoding="utf-8"?>
<!-- Generator: Adobe Illustrator 20.0.0, SVG Export Plug-In . SVG Version: 6.00 Build 0)  -->
<svg version="1.1" id="Layer_1" xmlns="http://www.w3.org/2000/svg" xmlns:xlink="http://www.w3.org/1999/xlink" x="0px" y="0px"
	 viewBox="0 0 72 58.9" style="enable-background:new 0 0 72 58.9;" xml:space="preserve">
<style type="text/css">
	.st0{fill-rule:evenodd;clip-rule:evenodd;fill:#FFFFFF;}
</style>
<path class="st0" d="M34.7,12.3c1.3,0.6,2.5,1.2,3.8,1.8c-0.7,2.4-1.3,4.7-2,7c5.4,0,10.8,0,16.2,0c0.7-2.2,0.5-11.6-2.1-14
	c-2.2-2-6.7-2.5-9.1-2.7c-1.9,0-1.7,2.7-0.1,3.4c-0.8,1-1.7,2.1-2.5,3.1c-5.9-1.9-8.5,0.2-11,2.4c-0.9-4.2,0.3-7.5,8.6-7.9
	c-0.1-2.6,1.2-4.8,3-5c7.6-0.1,14.8,0,18.6-0.5c-1.1,2.4-2.6,4.6-4.5,6.8c1.1,4.4,2.3,8.8,3.4,13.2c0.5,1.7,2.5,1,4.1,1
	c3-0.2,6.2,2.2,9.5,6.6c0.6,0.7,0.8,1.2,1.6,1.8c-1.9-0.4-4.4,0.3-5.8,0.2c-1.9-0.1-5.9-3.6-7.9-2.9c-4,0.7-8.3,9.7-13.2,20.4
	c-3.3,7.2-7.5,11.1-12.7,11.8c-10.8,0-21.6,0-32.4,0c5.9-0.1,10.6-5,13.6-11.5c3.9-8.5,6.8-18.7,10.2-21.7c2.3-2,5.5-3.9,8.7-4.7
	C33.2,18.2,33.9,15.1,34.7,12.3z"/>
</svg>
