<?xml version="1.0" encoding="utf-8"?>
<!-- Generator: Adobe Illustrator 20.1.0, SVG Export Plug-In . SVG Version: 6.00 Build 0)  -->
<svg version="1.1" id="Layer_1" xmlns="http://www.w3.org/2000/svg" xmlns:xlink="http://www.w3.org/1999/xlink" x="0px" y="0px"
	 viewBox="0 0 115 86" style="enable-background:new 0 0 115 86;" xml:space="preserve">
<style type="text/css">
	.st0{fill:#FFFFFF;}
</style>
<g>
	<path class="st0" d="M114.3,78.3v7.1H0V-0.3h7.1v78.6H114.3z M107.1,8.6v24.3c0,0.8-0.4,1.3-1.1,1.6s-1.4,0.2-2-0.4l-6.8-6.8
		L62,62.7c-0.4,0.4-0.8,0.6-1.3,0.6s-0.9-0.2-1.3-0.6l-13-13L23.2,72.9L12.5,62.2l32.6-32.6c0.4-0.4,0.8-0.6,1.3-0.6
		c0.5,0,0.9,0.2,1.3,0.6l13,13l25.9-25.9l-6.8-6.8c-0.6-0.6-0.7-1.3-0.4-2c0.3-0.7,0.9-1.1,1.6-1.1h24.3c0.5,0,0.9,0.2,1.3,0.5
		C107,7.7,107.1,8.1,107.1,8.6z"/>
</g>
</svg>
