<svg xmlns="http://www.w3.org/2000/svg" viewBox="0 0 486 486"><title>Asset 2</title><g id="Layer_2" data-name="Layer 2"><g id="Layer_1-2" data-name="Layer 1"><path d="M243,486C109,486,0,377,0,243S109,0,243,0,486,109,486,243,377,486,243,486Zm0-462.1C122.19,23.9,23.9,122.19,23.9,243S122.19,462.1,243,462.1,462.1,363.81,462.1,243,363.81,23.9,243,23.9Z"/><path d="M359.46,235.13,197.32,104.66a8.65,8.65,0,0,0-14.07,6.74V372.33a8.65,8.65,0,0,0,14.07,6.74L359.46,248.6A8.65,8.65,0,0,0,359.46,235.13Z"/></g></g></svg>