<?xml version="1.0" encoding="UTF-8"?>
<svg width="170px" height="13px" viewBox="0 0 170 13" version="1.1" xmlns="http://www.w3.org/2000/svg" xmlns:xlink="http://www.w3.org/1999/xlink">
    <!-- Generator: sketchtool 42 (36781) - http://www.bohemiancoding.com/sketch -->
    <title>C7694DA8-0675-4D0F-8454-592AD94919C8</title>
    <desc>Created with sketchtool.</desc>
    <defs></defs>
    <g id="Symbols" stroke="none" stroke-width="1" fill="none" fill-rule="evenodd">
        <g id="Logo:-Baltimore-sun" transform="translate(0.000000, -4.000000)" fill-rule="nonzero" fill="#1E1E1E">
            <g id="Logo:-Baltimore-Sun" transform="translate(0.000000, 4.000000)">
                <path d="M2.58877193,11.72 C2.46350877,11.72 2.42175439,11.72 2.42175439,11.6 C2.42175439,11.48 2.46350877,11.48 2.58877193,11.48 L3.50736842,11.48 C3.92491228,11.48 3.92491228,11.44 3.92491228,10.2 L3.92491228,0.56 L2.6722807,0.56 C1.16912281,0.56 0.250526316,1.48 0.250526316,3.32 L0.250526316,3.8 C0.250526316,3.92 0.250526316,3.96 0.125263158,3.96 C0,3.96 0,3.88 0,3.8 L0,0.36 C0,0.24 0,0.24 0.167017544,0.24 L9.72877193,0.24 C9.85403509,0.24 9.89578947,0.28 9.89578947,0.36 L9.89578947,3.8 C9.89578947,3.92 9.89578947,3.96 9.77052632,3.96 L9.72877193,3.96 C9.64526316,3.96 9.60350877,3.92 9.60350877,3.8 L9.60350877,3.32 C9.60350877,1.48 8.68491228,0.56 7.18175439,0.56 L5.92912281,0.56 L5.92912281,10.2 C5.92912281,11.44 5.92912281,11.48 6.34666667,11.48 L7.26526316,11.48 C7.39052632,11.48 7.4322807,11.48 7.4322807,11.6 L7.4322807,11.64 C7.4322807,11.72 7.39052632,11.76 7.26526316,11.76 L2.58877193,11.76 L2.58877193,11.72 Z M17.5785965,11.72 C17.4533333,11.72 17.4115789,11.72 17.4115789,11.6 C17.4115789,11.48 17.4533333,11.48 17.5785965,11.48 L18.497193,11.48 C18.9147368,11.48 18.9147368,11.44 18.9147368,10.2 L18.9147368,5.76 L13.5701754,5.76 L13.5701754,10.2 C13.5701754,11.44 13.5701754,11.48 13.9877193,11.48 L14.9063158,11.48 C15.0315789,11.48 15.0733333,11.48 15.0733333,11.6 L15.0733333,11.64 C15.0733333,11.72 15.0315789,11.76 14.9063158,11.76 L10.2298246,11.76 C10.1045614,11.76 10.062807,11.76 10.062807,11.64 L10.062807,11.6 C10.062807,11.48 10.1045614,11.48 10.2298246,11.48 L11.1484211,11.48 C11.5659649,11.48 11.5659649,11.44 11.5659649,10.2 L11.5659649,1.8 C11.5659649,0.56 11.5659649,0.52 11.1484211,0.52 L10.2298246,0.52 C10.1045614,0.52 10.062807,0.52 10.062807,0.4 L10.062807,0.32 C10.062807,0.24 10.1045614,0.24 10.2298246,0.24 L14.9480702,0.24 C15.0733333,0.24 15.1150877,0.24 15.1150877,0.32 L15.1150877,0.36 C15.1150877,0.48 15.0733333,0.48 14.9480702,0.48 L14.0294737,0.48 C13.6119298,0.48 13.6119298,0.52 13.6119298,1.76 L13.6119298,5.4 L18.9564912,5.4 L18.9564912,1.8 C18.9564912,0.56 18.9564912,0.52 18.5389474,0.52 L17.6203509,0.52 C17.4950877,0.52 17.4533333,0.52 17.4533333,0.4 L17.4533333,0.32 C17.4533333,0.24 17.4950877,0.24 17.6203509,0.24 L22.3385965,0.24 C22.4638596,0.24 22.505614,0.24 22.505614,0.32 L22.505614,0.36 C22.505614,0.48 22.4638596,0.48 22.3385965,0.48 L21.42,0.48 C21.0024561,0.48 21.0024561,0.52 21.0024561,1.76 L21.0024561,10.16 C21.0024561,11.4 21.0024561,11.44 21.42,11.44 L22.3385965,11.44 C22.4638596,11.44 22.505614,11.44 22.505614,11.56 L22.505614,11.6 C22.505614,11.68 22.4638596,11.72 22.3385965,11.72 L17.5785965,11.72 Z M30.2301754,5.48 C30.3554386,5.48 30.397193,5.48 30.397193,5.6 L30.397193,5.8 C30.397193,5.92 30.3554386,5.92 30.2301754,5.92 L26.3887719,5.88 L26.3887719,11.44 L28.9775439,11.44 C30.7312281,11.44 31.4410526,10.08 31.5245614,8.84 L31.6080702,7.68 C31.6080702,7.56 31.6498246,7.52 31.6915789,7.52 L31.7333333,7.52 C31.8168421,7.52 31.8585965,7.56 31.8585965,7.68 L31.6080702,11.6 C31.6080702,11.72 31.6080702,11.72 31.4410526,11.72 L23.0066667,11.72 C22.8814035,11.72 22.8396491,11.72 22.8396491,11.6 C22.8396491,11.48 22.8814035,11.48 23.0066667,11.48 L23.9252632,11.48 C24.342807,11.48 24.342807,11.44 24.342807,10.2 L24.342807,1.8 C24.342807,0.56 24.342807,0.52 23.9252632,0.52 L23.0066667,0.52 C22.8814035,0.52 22.8396491,0.52 22.8396491,0.4 L22.8396491,0.32 C22.8396491,0.24 22.8814035,0.24 23.0066667,0.24 L30.7729825,0.24 C30.8982456,0.24 30.94,0.28 30.94,0.36 L30.94,3.8 C30.94,3.92 30.94,3.96 30.8147368,3.96 L30.7729825,3.96 C30.6894737,3.96 30.6477193,3.92 30.6477193,3.8 L30.6477193,3.28 C30.6477193,1.44 29.7291228,0.56 28.2259649,0.56 L26.3470175,0.56 L26.3470175,5.52 L30.2301754,5.48 L30.2301754,5.48 Z M44.0508772,11.44 C45.6792982,11.44 46.514386,10.68 46.514386,8.68 C46.514386,6.6 45.7210526,5.92 43.4663158,5.92 L42.1719298,5.92 L42.1719298,11.44 L44.0508772,11.44 Z M42.1301754,5.6 L43.5080702,5.6 C45.1782456,5.6 45.9715789,4.96 45.9715789,3.08 C45.9715789,1.04 45.1364912,0.64 43.6333333,0.64 L42.1301754,0.64 L42.1301754,5.6 L42.1301754,5.6 Z M38.7898246,11.76 C38.6645614,11.76 38.622807,11.76 38.622807,11.64 L38.622807,11.6 C38.622807,11.48 38.6645614,11.48 38.7898246,11.48 L39.7084211,11.48 C40.1259649,11.48 40.1259649,11.44 40.1259649,10.2 L40.1259649,1.84 C40.1259649,0.6 40.1259649,0.56 39.7084211,0.56 L38.7898246,0.56 C38.7063158,0.56 38.622807,0.52 38.622807,0.44 L38.622807,0.4 C38.622807,0.32 38.6645614,0.28 38.7898246,0.28 L43.6333333,0.28 C45.5540351,0.28 48.1010526,0.64 48.1010526,2.96 C48.1010526,4.48 46.8901754,5.24 45.0529825,5.64 L45.0529825,5.68 C46.8484211,5.72 48.7691228,6.32 48.7691228,8.48 C48.7691228,10.84 46.3473684,11.76 43.9673684,11.76 L38.7898246,11.76 L38.7898246,11.76 Z M52.9863158,2.2 L51.065614,7.04 L54.8235088,7.04 L52.9863158,2.2 L52.9863158,2.2 Z M55.7421053,9.48 L54.9487719,7.32 L50.9403509,7.32 L50.8568421,7.56 C50.5645614,8.32 50.2722807,9.32 50.2722807,10.12 C50.2722807,10.96 50.6480702,11.44 51.4414035,11.44 L51.9842105,11.44 C52.1094737,11.44 52.1512281,11.44 52.1512281,11.56 L52.1512281,11.6 C52.1512281,11.68 52.1094737,11.72 51.9842105,11.72 L48.0175439,11.72 C47.9340351,11.72 47.8505263,11.72 47.8505263,11.6 L47.8505263,11.56 C47.8505263,11.44 47.8922807,11.44 48.0175439,11.44 L48.2263158,11.44 C48.7691228,11.44 48.8526316,11.24 49.4789474,9.88 C49.7294737,9.32 50.1052632,8.44 50.3975439,7.64 L53.3203509,0.16 C53.3621053,0.04 53.4038596,8.8817842e-16 53.5708772,8.8817842e-16 L53.9049123,8.8817842e-16 C54.0301754,8.8817842e-16 54.0719298,8.8817842e-16 54.1554386,0.16 L57.9968421,9.44 C58.7066667,11.2 58.8319298,11.44 59.5,11.44 L59.6252632,11.44 C59.7505263,11.44 59.7922807,11.44 59.7922807,11.56 L59.7922807,11.6 C59.7922807,11.68 59.7505263,11.72 59.6252632,11.72 L56.6189474,11.72 C56.4936842,11.72 56.4936842,11.68 56.4519298,11.6 C56.2849123,11.12 55.9926316,10.28 55.7421053,9.48 L55.7421053,9.48 Z M60.4185965,11.76 C60.2933333,11.76 60.2515789,11.76 60.2515789,11.64 L60.2515789,11.6 C60.2515789,11.48 60.2933333,11.48 60.4185965,11.48 L61.337193,11.48 C61.7547368,11.48 61.7547368,11.44 61.7547368,10.2 L61.7547368,1.84 C61.7547368,0.6 61.7547368,0.56 61.337193,0.56 L60.4185965,0.56 C60.2933333,0.56 60.2515789,0.52 60.2515789,0.44 L60.2515789,0.4 C60.2515789,0.32 60.2933333,0.28 60.4185965,0.28 L65.4291228,0.28 C65.554386,0.28 65.5961404,0.28 65.5961404,0.4 L65.5961404,0.44 C65.5961404,0.56 65.554386,0.56 65.4291228,0.56 L64.1764912,0.56 C63.7589474,0.56 63.7589474,0.6 63.7589474,1.84 L63.7589474,11.44 L65.9719298,11.44 C67.4750877,11.44 68.3936842,10.28 68.477193,8.36 L68.5189474,7.68 C68.5189474,7.56 68.5189474,7.52 68.6442105,7.52 L68.6859649,7.52 C68.8112281,7.52 68.8112281,7.56 68.8112281,7.68 L68.6024561,11.6 C68.6024561,11.72 68.6024561,11.72 68.4354386,11.72 L60.4185965,11.72 L60.4185965,11.76 Z M70.7319298,11.76 C70.6066667,11.76 70.5649123,11.76 70.5649123,11.64 L70.5649123,11.6 C70.5649123,11.48 70.6066667,11.48 70.7319298,11.48 L71.6505263,11.48 C72.0680702,11.48 72.0680702,11.44 72.0680702,10.2 L72.0680702,0.6 L70.8154386,0.6 C69.3122807,0.6 68.3936842,1.52 68.3936842,3.36 L68.3936842,3.8 C68.3936842,3.92 68.3936842,3.96 68.2684211,3.96 L68.2266667,3.96 C68.1014035,3.96 68.1014035,3.92 68.1014035,3.8 L68.1014035,0.44 C68.1014035,0.36 68.1014035,0.32 68.2684211,0.32 L77.7884211,0.32 C77.9136842,0.32 77.9554386,0.36 77.9554386,0.44 L77.9554386,3.84 C77.9554386,3.96 77.9554386,4 77.8301754,4 L77.7884211,4 C77.7049123,4 77.6631579,3.96 77.6631579,3.84 L77.6631579,3.4 C77.6631579,1.56 76.7445614,0.64 75.2414035,0.64 L73.9887719,0.64 L73.9887719,10.24 C73.9887719,11.48 73.9887719,11.52 74.4063158,11.52 L75.3249123,11.52 C75.4501754,11.52 75.4919298,11.52 75.4919298,11.64 L75.4919298,11.68 C75.4919298,11.76 75.4501754,11.8 75.3249123,11.8 L70.7319298,11.8 L70.7319298,11.76 Z M78.6652632,11.76 C78.54,11.76 78.4982456,11.76 78.4982456,11.64 L78.4982456,11.6 C78.4982456,11.48 78.54,11.48 78.6652632,11.48 L79.5838596,11.48 C80.0014035,11.48 80.0014035,11.44 80.0014035,10.2 L80.0014035,1.84 C80.0014035,0.6 80.0014035,0.56 79.5838596,0.56 L78.6652632,0.56 C78.54,0.56 78.4982456,0.52 78.4982456,0.44 L78.4982456,0.4 C78.4982456,0.32 78.54,0.28 78.6652632,0.28 L83.3417544,0.28 C83.4670175,0.28 83.5087719,0.28 83.5087719,0.4 L83.5087719,0.44 C83.5087719,0.56 83.4670175,0.56 83.3417544,0.56 L82.4231579,0.56 C82.005614,0.56 82.005614,0.6 82.005614,1.84 L82.005614,10.2 C82.005614,11.44 82.005614,11.48 82.4231579,11.48 L83.3417544,11.48 C83.4670175,11.48 83.5087719,11.48 83.5087719,11.6 L83.5087719,11.64 C83.5087719,11.72 83.4670175,11.76 83.3417544,11.76 L78.6652632,11.76 Z M95.6175439,0.2 C95.6592982,0.08 95.742807,0.08 95.8680702,0.08 L96.4108772,0.08 C96.5361404,0.08 96.5778947,0.12 96.5778947,0.2 L96.9119298,10.2 C96.9536842,11.44 96.9954386,11.48 97.3712281,11.48 L98.1645614,11.48 C98.2480702,11.48 98.3315789,11.48 98.3315789,11.6 L98.3315789,11.64 C98.3315789,11.72 98.2898246,11.76 98.1645614,11.76 L93.6133333,11.76 C93.4880702,11.76 93.4463158,11.76 93.4463158,11.64 L93.4463158,11.6 C93.4463158,11.48 93.4880702,11.48 93.6133333,11.48 L94.4901754,11.48 C94.9077193,11.48 94.9494737,11.44 94.9077193,10.2 L94.6989474,3.36 L94.657193,3.36 L90.9410526,11.84 C90.8992982,11.92 90.8575439,11.96 90.7322807,11.96 L90.3564912,11.96 C90.2312281,11.96 90.2312281,11.96 90.1894737,11.84 L86.4315789,3.24 L86.3898246,3.24 L86.222807,8.12 C86.0975439,11.04 86.5150877,11.48 87.5589474,11.48 L88.0182456,11.48 C88.1435088,11.48 88.1852632,11.48 88.1852632,11.6 L88.1852632,11.64 C88.1852632,11.72 88.1435088,11.76 88.0182456,11.76 L84.5108772,11.76 C84.385614,11.76 84.3438596,11.76 84.3438596,11.64 L84.3438596,11.6 C84.3438596,11.48 84.385614,11.48 84.5108772,11.48 L84.7614035,11.48 C85.4712281,11.48 85.7635088,11 85.8887719,8.12 L86.2645614,0.2 C86.2645614,0.12 86.3063158,0.08 86.4315789,0.08 L86.974386,0.08 C87.0996491,0.08 87.1831579,0.08 87.2249123,0.2 L91.525614,9.92 L95.6175439,0.2 Z M104.177193,0.36 C101.29614,0.36 100.878596,3.08 100.878596,6.2 C100.878596,9.04 101.254386,11.68 104.135439,11.68 C107.016491,11.68 107.434035,9 107.434035,5.88 C107.434035,3.04 107.058246,0.36 104.177193,0.36 L104.177193,0.36 Z M104.093684,11.96 C100.502807,11.96 98.5821053,9.76 98.5821053,6.2 C98.5821053,2.6 100.62807,0.04 104.260702,0.04 C107.851579,0.04 109.772281,2.24 109.772281,5.76 C109.772281,9.44 107.684561,11.96 104.093684,11.96 L104.093684,11.96 Z M116.035439,5.76 C116.995789,5.76 117.830877,5.08 117.830877,3.16 C117.830877,1.04 116.912281,0.6 115.95193,0.6 L113.697193,0.6 L113.697193,5.76 L116.035439,5.76 L116.035439,5.76 Z M117.329825,9.12 C116.494737,6.76 116.118947,6.08 114.782807,6.08 L113.738947,6.08 L113.738947,10.2 C113.738947,11.44 113.738947,11.48 114.156491,11.48 L115.075088,11.48 C115.158596,11.48 115.242105,11.48 115.242105,11.6 L115.242105,11.64 C115.242105,11.72 115.200351,11.76 115.075088,11.76 L110.356842,11.76 C110.231579,11.76 110.189825,11.76 110.189825,11.64 L110.189825,11.6 C110.189825,11.48 110.231579,11.48 110.356842,11.48 L111.275439,11.48 C111.692982,11.48 111.692982,11.44 111.692982,10.2 L111.692982,1.84 C111.692982,0.6 111.692982,0.56 111.275439,0.56 L110.356842,0.56 C110.231579,0.56 110.189825,0.52 110.189825,0.44 L110.189825,0.4 C110.189825,0.32 110.231579,0.28 110.356842,0.28 L116.411228,0.28 C117.997895,0.28 120.002105,0.88 120.002105,3.16 C120.002105,4.76 118.457193,5.76 116.870526,5.92 L116.870526,5.96 C118.290175,6.48 118.707719,7.32 119.375789,8.88 L119.960351,10.24 C120.461404,11.36 120.628421,11.52 121.129474,11.52 L121.505263,11.52 C121.630526,11.52 121.672281,11.52 121.672281,11.64 L121.672281,11.68 C121.672281,11.76 121.630526,11.8 121.505263,11.8 L118.457193,11.8 C118.33193,11.8 118.33193,11.8 118.290175,11.68 L117.329825,9.12 L117.329825,9.12 Z M129.480351,5.52 C129.605614,5.52 129.647368,5.56 129.647368,5.64 L129.647368,5.84 C129.647368,5.96 129.605614,5.96 129.480351,5.96 L125.638947,5.92 L125.638947,11.44 L128.227719,11.44 C129.981404,11.44 130.691228,10.08 130.732982,8.84 L130.816491,7.68 C130.816491,7.56 130.858246,7.52 130.941754,7.52 L130.983509,7.52 C131.108772,7.52 131.108772,7.56 131.108772,7.68 L130.858246,11.6 C130.858246,11.72 130.858246,11.72 130.691228,11.72 L122.298596,11.72 C122.173333,11.72 122.131579,11.72 122.131579,11.6 L122.131579,11.56 C122.131579,11.44 122.173333,11.44 122.298596,11.44 L123.217193,11.44 C123.634737,11.44 123.634737,11.4 123.634737,10.16 L123.634737,1.84 C123.634737,0.6 123.634737,0.56 123.217193,0.56 L122.298596,0.56 C122.173333,0.56 122.131579,0.52 122.131579,0.44 L122.131579,0.4 C122.131579,0.32 122.173333,0.28 122.298596,0.28 L130.023158,0.28 C130.148421,0.28 130.190175,0.32 130.190175,0.4 L130.190175,3.8 C130.190175,3.92 130.190175,3.96 130.064912,3.96 L130.023158,3.96 C129.939649,3.96 129.897895,3.92 129.897895,3.8 L129.897895,3.32 C129.897895,1.48 128.979298,0.6 127.47614,0.6 L125.597193,0.6 L125.597193,5.56 L129.480351,5.52 L129.480351,5.52 Z M138.875088,11.28 L138.70807,7.68 C138.70807,7.56 138.70807,7.52 138.833333,7.52 L138.875088,7.52 C138.958596,7.52 139.000351,7.56 139.000351,7.68 L139.000351,8.04 C139.08386,9.88 140.211228,11.72 142.424211,11.72 C144.052632,11.72 145.012982,10.96 145.012982,9.88 C145.012982,8.28 143.84386,7.64 142.006667,6.68 C140.378246,5.88 139.042105,5.04 139.042105,3.16 C139.042105,1.36 140.42,0.08 142.632982,0.08 C143.718596,0.08 145.054737,0.4 145.639298,0.6 C145.722807,0.64 145.764561,0.68 145.764561,0.76 L145.764561,3.88 C145.764561,4 145.764561,4.04 145.639298,4.04 L145.597544,4.04 C145.514035,4.04 145.472281,4 145.472281,3.88 L145.472281,3.48 C145.472281,1.2 144.13614,0.32 142.507719,0.32 C141.08807,0.32 140.42,1.08 140.42,2.08 C140.42,3.48 141.547368,4.08 143.175789,4.88 C145.138246,5.88 146.51614,6.68 146.51614,8.72 C146.51614,10.64 144.929474,12 142.465965,12 C141.255088,12 139.835439,11.68 139.042105,11.44 C138.875088,11.4 138.875088,11.36 138.875088,11.28 L138.875088,11.28 Z M157.915088,0.48 C157.205263,0.48 156.787719,0.96 156.787719,3.88 L156.787719,7.24 C156.787719,10.36 155.74386,11.96 152.654035,11.96 C149.94,11.96 148.22807,10.64 148.22807,7.8 L148.22807,1.76 C148.22807,0.52 148.22807,0.48 147.810526,0.48 L146.89193,0.48 C146.766667,0.48 146.724912,0.48 146.724912,0.36 L146.724912,0.32 C146.724912,0.24 146.766667,0.2 146.89193,0.2 L151.568421,0.2 C151.693684,0.2 151.735439,0.2 151.735439,0.32 L151.735439,0.36 C151.735439,0.48 151.693684,0.48 151.568421,0.48 L150.649825,0.48 C150.232281,0.48 150.232281,0.52 150.232281,1.76 L150.232281,7.52 C150.232281,10.12 150.900351,11.44 153.322105,11.44 C155.36807,11.44 156.370175,10.28 156.370175,7.24 L156.370175,3.88 C156.370175,0.96 155.910877,0.48 154.867018,0.48 L154.115439,0.48 C153.990175,0.48 153.948421,0.48 153.948421,0.36 L153.948421,0.32 C153.948421,0.24 153.990175,0.2 154.115439,0.2 L158.249123,0.2 C158.374386,0.2 158.41614,0.2 158.41614,0.32 L158.41614,0.36 C158.41614,0.48 158.374386,0.48 158.249123,0.48 L157.915088,0.48 L157.915088,0.48 Z M169.355789,0.2 L165.222105,0.2 C165.096842,0.2 165.055088,0.2 165.055088,0.32 L165.055088,0.36 C165.055088,0.48 165.096842,0.48 165.222105,0.48 L165.973684,0.48 C167.017544,0.48 167.476842,0.96 167.476842,3.88 L167.476842,9.12 L167.435088,9.12 L160.295088,0.12 C160.211579,0.04 160.169825,0 160.086316,0 L159.710526,0 C159.585263,0 159.543509,0.04 159.543509,0.12 L159.543509,8.08 C159.543509,11 159.125965,11.48 158.41614,11.48 L158.040351,11.48 C157.915088,11.48 157.873333,11.48 157.873333,11.6 L157.873333,11.64 C157.873333,11.72 157.915088,11.76 158.040351,11.76 L162.174035,11.76 C162.299298,11.76 162.341053,11.76 162.341053,11.64 L162.341053,11.6 C162.341053,11.48 162.299298,11.48 162.174035,11.48 L161.422456,11.48 C160.378596,11.48 159.919298,11 159.919298,8.08 L159.919298,2.88 L159.961053,2.88 L167.142807,11.84 C167.226316,11.92 167.26807,11.96 167.351579,11.96 L167.727368,11.96 C167.852632,11.96 167.894386,11.92 167.894386,11.84 L167.894386,3.84 C167.894386,0.96 168.31193,0.44 169.021754,0.44 L169.397544,0.44 C169.522807,0.44 169.564561,0.44 169.564561,0.32 L169.564561,0.28 C169.522807,0.2 169.481053,0.2 169.355789,0.2 L169.355789,0.2 Z" id="Shape"></path>
            </g>
        </g>
    </g>
</svg>