<?xml version="1.0" encoding="UTF-8"?>
<svg width="170px" height="17px" viewBox="0 0 170 17" version="1.1" xmlns="http://www.w3.org/2000/svg" xmlns:xlink="http://www.w3.org/1999/xlink">
    <!-- Generator: sketchtool 42 (36781) - http://www.bohemiancoding.com/sketch -->
    <title>F98B09D2-3CD9-49CB-B71B-CD7933A57659</title>
    <desc>Created with sketchtool.</desc>
    <defs></defs>
    <g id="Symbols" stroke="none" stroke-width="1" fill="none" fill-rule="evenodd">
        <g id="Logo:-San-Diego-Union-Tribune" transform="translate(0.000000, -2.000000)" fill-rule="nonzero" fill="#004E87">
            <g transform="translate(0.000000, 2.000000)" id="Shape">
                <path d="M163.668107,11.7069677 C163.251083,12.1599355 162.522254,13.0247419 162.180701,13.4442581 C161.182486,13.1042581 160.586973,12.3568065 160.586973,11.4464839 L160.586973,6.5916129 C160.102189,6.30096774 159.3056,5.68403226 158.928791,5.37419355 L158.912264,5.37419355 L158.912264,11.1541935 C159.055496,11.414129 159.383276,11.6411613 159.633931,11.6411613 C159.804708,11.6411613 159.868611,11.5929032 160.103842,11.3505161 L160.243768,11.4782903 C159.764493,11.9992581 158.899593,12.9534516 158.464389,13.4305484 C157.858409,12.8821613 157.24692,12.3940968 156.651958,11.9882903 L156.651958,11.9773226 C156.949439,11.8347419 157.032072,11.5550645 157.032072,11.0834516 L157.032072,6.21925806 C156.905368,5.99441935 156.673993,5.76409677 156.514235,5.76409677 C156.376512,5.76409677 156.260825,5.84087097 156.090049,6.04925806 L155.941308,5.87925806 C156.580342,5.29796774 157.351589,4.51377419 157.709669,4.09151613 L158.91612,5.2486129 C159.230128,5.00732258 159.885689,4.43151613 160.23275,4.097 C160.767114,4.55216129 161.923986,5.34732258 162.910081,5.93409677 L162.910081,5.95054839 C162.66218,6.0986129 162.50793,6.27409677 162.50793,6.65248387 L162.50793,11.1986129 C162.50793,11.6044194 162.854992,11.9279677 163.102893,11.9279677 C163.262651,11.9279677 163.389356,11.8128065 163.554624,11.6044194 L163.697855,11.7360323 L163.668107,11.7069677 Z M156.192514,11.6422581 C155.599205,12.2438387 154.87919,13.0060968 154.520009,13.4283548 L153.319066,12.2750968 C153.010567,12.5180323 152.355007,13.0921935 152.007945,13.4283548 C151.47909,12.9742903 150.322218,12.179129 149.336123,11.5934516 L149.336123,11.5824839 C149.589533,11.4344194 149.743783,11.2589355 149.743783,10.8860323 L149.743783,6.33990323 C149.743783,5.93409677 149.40223,5.61054839 149.154329,5.61054839 C149.00008,5.61054839 148.873375,5.72570968 148.702598,5.93409677 L148.564876,5.80796774 C148.978044,5.35829032 149.710729,4.49183871 150.052282,4.07506452 C151.054904,4.41506452 151.649866,5.16635484 151.649866,6.07119355 L151.649866,10.9244194 C152.13465,11.2150645 152.933442,11.8347419 153.308048,12.1418387 L153.324575,12.1418387 L153.324575,6.24064516 C153.175834,5.97358065 153.005058,5.78 152.801228,5.78 C152.661302,5.78 152.553327,5.8693871 152.382551,6.04651613 L152.233811,5.86006452 C152.79572,5.35883871 153.611038,4.55216129 154.046242,4.07780645 C154.575098,4.64703226 155.12048,5.19651613 155.67688,5.70267742 L155.67688,5.71912903 C155.362872,5.82880645 155.218539,6.03719355 155.218539,6.60751613 L155.218539,11.2633226 C155.344142,11.4881613 155.549074,11.7349355 155.703323,11.7349355 C155.8438,11.7349355 155.939104,11.6965484 156.126407,11.5210645 L156.223915,11.6362258 L156.192514,11.6422581 Z M141.19891,1.82064516 C140.6673,2.2906129 140.181414,2.85983871 139.66578,3.37916129 C139.073572,2.77758065 138.774438,2.45348387 138.525435,2.45348387 C138.354659,2.45348387 138.261008,2.4863871 138.103453,2.64816129 L137.949203,2.48364516 C138.450514,2.01203226 139.216253,1.23332258 139.486189,0.942677419 C140.020554,1.50751613 140.428213,1.84751613 140.615516,1.84751613 C140.802819,1.84751613 140.896471,1.79816129 141.056229,1.66654839 L141.215988,1.80912903 L141.19891,1.82064516 Z M142.26213,11.4788387 L140.479997,13.4283548 C139.916986,12.9249355 139.135823,12.2931935 138.681888,11.9833548 L138.681888,11.968 C138.918772,11.8692903 139.039968,11.5934516 139.039968,11.0247742 L139.039968,6.2516129 C138.902245,5.92806452 138.731469,5.78164516 138.527639,5.78164516 C138.42297,5.78164516 138.279738,5.831 138.092435,6.04158065 L137.921659,5.86280645 C138.47255,5.38022581 139.276851,4.61248387 139.767144,4.08054839 C140.081152,4.46990323 140.863417,5.2486129 141.392273,5.70377419 L141.392273,5.72022581 C141.111318,5.8353871 140.946051,6.02732258 140.946051,6.37280645 L140.946051,11.1657097 C141.210479,11.5221613 141.414308,11.6537742 141.651192,11.6537742 C141.777897,11.6537742 141.921128,11.6428065 142.135976,11.363129 L142.279208,11.4947419 L142.26213,11.4788387 Z M137.930473,5.37529032 C137.587268,5.7163871 137.132782,6.28451613 136.757075,7.29135484 L136.74165,7.29135484 C136.427642,6.60970968 135.909804,5.79754839 135.579269,5.47345161 L135.562743,5.47345161 L135.562743,11.2205484 C135.639867,11.4179677 135.920822,11.7579677 136.218303,11.7579677 C136.460695,11.7579677 136.670034,11.4947419 136.901408,11.2699032 L137.039131,11.4179677 C136.526802,11.9389355 135.601305,12.9479677 135.177119,13.4305484 C134.708861,13.0302258 133.739293,12.2899032 133.237982,11.9389355 L133.237982,11.9224839 C133.55199,11.747 133.662168,11.450871 133.662168,10.9189355 L133.662168,6.27409677 C133.563008,5.98345161 133.331634,5.79151613 133.160857,5.79151613 C133.017626,5.79151613 132.885412,5.85732258 132.698109,6.05474194 L132.532841,5.87925806 C133.023134,5.457 133.926596,4.56312903 134.3618,4.097 L135.485618,5.28151613 L136.873864,4.06409677 C137.04464,4.33829032 137.468826,4.9086129 137.90403,5.39667742 L137.930473,5.37529032 Z M123.835923,8.00535484 C123.366564,8.54277419 122.818978,9.17451613 122.351822,9.70974194 C121.803134,9.384 120.710166,8.78406452 120.396158,8.78406452 C120.178006,8.78406452 120.036427,8.93212903 119.739496,9.24032258 L119.583594,9.09225806 C119.849124,8.79996774 120.880392,7.61490323 121.069347,7.37032258 C121.772285,7.74487097 122.773805,8.29709677 123.070735,8.29709677 C123.258038,8.29709677 123.429916,8.18358065 123.678919,7.8583871 L123.835923,8.00535484 L123.835923,8.00535484 Z"></path>
                <path d="M120.162581,11.7069677 C119.746107,12.1599355 119.016727,13.0247419 118.675175,13.4442581 C117.675858,13.1042581 117.080896,12.3568065 117.080896,11.4464839 L117.080896,6.5916129 C116.596111,6.30096774 115.798421,5.68403226 115.422713,5.37419355 L115.408941,5.37419355 L115.408941,11.1541935 C115.549969,11.414129 115.877198,11.6411613 116.127854,11.6411613 C116.299732,11.6411613 116.363084,11.5929032 116.597764,11.3505161 L116.739343,11.4782903 C116.254559,11.9992581 115.393516,12.9534516 114.956659,13.4305484 C114.346823,12.8821613 113.736435,12.3940968 113.142575,11.9882903 L113.142575,11.9773226 C113.440056,11.8347419 113.52269,11.5550645 113.52269,11.0834516 L113.52269,6.24667742 C113.395985,6.02183871 113.153593,5.78054839 112.999343,5.78054839 C112.86162,5.78054839 112.751442,5.87377419 112.564139,6.04925806 L112.40989,5.87925806 C113.037905,5.30893548 113.842207,4.51377419 114.200286,4.09151613 L115.406737,5.2486129 C115.715236,5.00732258 116.370797,4.43151613 116.723367,4.097 C117.257732,4.55216129 118.409094,5.34732258 119.400698,5.93409677 L119.400698,5.95054839 C119.152797,6.0986129 118.993039,6.27409677 118.993039,6.65248387 L118.993039,11.1986129 C118.993039,11.6044194 119.3401,11.9279677 119.588001,11.9279677 C119.74776,11.9279677 119.874465,11.8182903 120.045241,11.6044194 L120.182964,11.7360323 L120.162581,11.7069677 Z M105.431751,1.82064516 C104.900692,2.2906129 104.415357,2.85983871 103.900274,3.37916129 C103.305312,2.77758065 103.010034,2.45348387 102.758277,2.45348387 C102.593009,2.45348387 102.499358,2.4863871 102.339599,2.64816129 L102.18535,2.48364516 C102.686661,2.01203226 103.452399,1.23332258 103.716827,0.942677419 C104.251192,1.50751613 104.653342,1.84751613 104.846154,1.84751613 C105.033457,1.84751613 105.127109,1.79816129 105.286867,1.66654839 L105.446625,1.80912903 L105.431751,1.82064516 Z M106.214017,11.4788387 L104.431333,13.4283548 C103.869424,12.9249355 103.102584,12.308 102.651955,12.0003548 L102.651955,11.9674516 C102.886083,11.8698387 102.993507,11.5934516 102.993507,11.0242258 L102.993507,6.2516129 C102.853581,5.92806452 102.681703,5.78164516 102.477322,5.78164516 C102.372653,5.78164516 102.229421,5.831 102.042118,6.04158065 L101.893378,5.86280645 C102.444269,5.38022581 103.226534,4.61248387 103.716827,4.08054839 C104.025326,4.46990323 104.807592,5.2486129 105.341956,5.70377419 L105.341956,5.72022581 C105.061002,5.8353871 104.890225,6.07667742 104.890225,6.37280645 L104.890225,11.1657097 C105.154653,11.5221613 105.358483,11.6537742 105.595366,11.6537742 C105.722071,11.6537742 105.881829,11.6428065 106.096677,11.363129 L106.223382,11.4947419 L106.214017,11.4788387 Z M102.366593,11.7069677 C101.95067,12.1599355 101.220739,13.0247419 100.882492,13.4442581 C99.8798704,13.1042581 99.2871115,12.3568065 99.2871115,11.4464839 L99.2871115,6.5916129 C98.8023273,6.30096774 98.0046369,5.68403226 97.6300309,5.37419355 L97.6135042,5.37419355 L97.6135042,11.1541935 C97.7550832,11.414129 98.0845161,11.6411613 98.3340698,11.6411613 C98.5059479,11.6411613 98.5698512,11.5929032 98.80398,11.3505161 L98.9439063,11.4782903 C98.4591221,11.9992581 97.5997319,12.9534516 97.1628752,13.4305484 C96.5899484,12.9150645 95.9509147,12.3940968 95.3901075,11.9992581 L95.3901075,11.9663548 C95.5911828,11.8786129 95.7228458,11.6811935 95.7228458,11.1053871 L95.7228458,6.24119355 C95.5977935,6.01635484 95.3702754,5.78603226 95.2138224,5.78603226 C95.073896,5.78603226 94.9510473,5.86280645 94.7664987,6.04377419 L94.6177581,5.87377419 C95.2485285,5.31441935 96.0352011,4.50829032 96.3954839,4.08603226 L97.6019355,5.24312903 C97.9104345,5.00183871 98.5715039,4.42603226 98.9185653,4.09151613 C99.4529297,4.54667742 100.609801,5.34183871 101.595896,5.9286129 L101.595896,5.94506452 C101.347995,6.09312903 101.188237,6.2686129 101.188237,6.647 L101.188237,11.193129 C101.188237,11.5989355 101.535298,11.9224839 101.788708,11.9224839 C101.942958,11.9224839 102.069663,11.8128065 102.240439,11.5989355 L102.378162,11.7305484 L102.366593,11.7069677 Z M169.359364,6.36677419 C168.890004,6.62616129 166.200554,8.41225806 166.012149,9.38454839 L166.012149,10.634871 C166.012149,11.3993226 167.217499,11.9499032 167.842209,11.9499032 C168.107739,11.9499032 168.467471,11.5934516 168.810676,11.2205484 L168.983656,11.4015161 L166.920018,13.4305484 C165.119705,13.0740968 164.120389,12.0376452 164.120389,10.9628065 L164.120389,7.37087097 C164.120389,7.05829032 163.948511,6.78958065 163.619078,6.69087097 L163.619078,6.67441935 C164.525845,6.15893548 166.261703,4.9086129 167.294624,4.08054839 C167.793731,4.70022581 168.780377,5.78603226 169.359364,6.37280645 L169.359364,6.36677419 Z M167.546932,7.16083871 C167.062148,6.64206452 166.359761,5.78109677 166.030328,5.35883871 L166.016556,5.35883871 L166.016556,8.60529032 L166.030328,8.60529032 C166.374635,8.07006452 167.047274,7.5183871 167.547483,7.16083871 L167.546932,7.16083871 Z M148.515846,10.8953548 C147.500003,11.56 146.0148,12.5843871 145.153207,13.4431613 C144.262967,12.8092258 143.12152,12.2246452 142.41693,11.9493548 L142.41693,11.9329032 C142.653814,11.8341935 142.797045,11.6247097 142.797045,11.0390323 L142.797045,3.05451613 C142.659322,2.72987097 142.483037,2.584 142.279208,2.584 C142.169029,2.584 142.031307,2.63335484 141.844004,2.84448387 L141.673227,2.66570968 C142.21861,2.18312903 143.02842,1.4153871 143.518713,0.883451613 C143.832721,1.27280645 144.614986,2.05151613 145.143842,2.50667742 L145.143842,2.52312903 C144.862887,2.63829032 144.692111,2.87958065 144.692111,3.17570968 L144.692111,5.33087097 C145.006119,5.04022581 145.55701,4.45893548 145.898562,4.06409677 C147.589798,4.92506452 148.228832,5.44603226 148.228832,6.74570968 L148.228832,10.2882903 C148.228832,10.6611935 148.38859,10.8257097 148.526313,10.8915161 L148.526313,10.9079677 L148.515846,10.8953548 Z M146.327707,12.079871 L146.327707,7.07967742 C146.327707,6.4983871 145.888646,5.89406452 144.700925,5.44 L144.6855,5.44 L144.6855,11.1377419 C145.120704,11.348871 145.90297,11.7886774 146.310629,12.0793226 L146.327156,12.077129 L146.327707,12.079871 Z M133.921638,1.98241935 C133.921638,3.16693548 133.141025,4.07616129 131.824395,4.07616129 C131.556111,4.07616129 131.290031,4.04435484 131.028909,3.98841935 L131.028909,11.7464516 C132.070093,11.535871 132.554877,11.05 133.177384,10.428129 L133.331634,10.6293871 C132.532841,12.0365484 131.243756,13.5895806 129.194441,13.5895806 C126.439985,13.5895806 124.456777,11.6428065 124.456777,8.64312903 C124.456777,5.90119355 126.318789,4.26151613 128.285471,3.17022581 L128.43972,3.31829032 C127.359973,4.14635484 126.357352,5.8353871 126.357352,8.0453871 C126.357352,9.73990323 126.897225,10.6666774 127.696017,11.1986129 C128.103677,10.7873226 128.142239,10.3760323 128.142239,9.71796774 L128.142239,6.50441935 C128.142239,5.31990323 129.210968,4.49183871 130.252152,3.77893548 C128.918995,3.30732258 127.618892,2.46280645 126.120468,2.46280645 C124.743241,2.46280645 124.08768,2.90151613 124.08768,3.64732258 C124.08768,4.21764516 124.478813,4.54119355 124.886472,4.54119355 C125.1509,4.54119355 125.35473,4.49183871 125.508979,4.38216129 L125.415328,4.83732258 C125.288623,4.87022581 125.134373,4.88667742 125.007668,4.88667742 C124.269474,4.88667742 123.773672,4.41506452 123.773672,3.46087097 C123.773672,1.83764516 124.941561,0.669580645 126.880698,0.669580645 C129.359708,0.669580645 130.968311,2.53958065 132.58793,2.53958065 C133.260018,2.53958065 133.557499,2.33119355 133.557499,1.87603226 C133.557499,1.47022581 133.304089,1.2453871 132.879903,1.13022581 L133.237982,0.872483871 C133.565211,1.037 133.893542,1.45925806 133.893542,2.01312903 L133.921638,1.98241935 Z M130.793678,11.7831935 L130.793678,3.93467742 C130.705535,3.91274194 130.617393,3.88532258 130.527598,3.859 C129.987724,4.36132258 129.872037,4.8153871 129.872037,5.7163871 L129.872037,8.96283871 C129.872037,10.0596129 129.238512,10.5120323 127.899847,11.3329677 C128.544389,11.6822903 129.321146,11.8210323 130.197063,11.8210323 C130.406402,11.8210323 130.599213,11.8084194 130.786516,11.7837419 L130.793678,11.7831935 Z M112.233053,5.70158065 C112.030326,5.78109677 111.888196,6.00867742 111.888196,6.33332258 L111.888196,10.8410645 C111.888196,11.0988065 111.968075,11.329129 112.171354,11.4388065 L112.171354,11.4552581 C111.218312,11.713 109.857611,12.4752581 108.747565,13.4184839 C107.243632,12.6726774 106.433822,11.9213871 106.433822,10.6052581 L106.433822,7.21622581 C106.433822,6.953 106.323644,6.72816129 106.072989,6.613 L106.072989,6.59654839 C107.167058,6.00977419 108.730488,4.79235484 109.481903,4.04654839 C109.983214,4.45235484 111.405615,5.29687097 112.234155,5.66977419 L112.234155,5.68622581 L112.233053,5.70158065 Z M109.997537,12.2273871 L109.997537,6.494 C109.558477,6.26696774 108.636836,5.69993548 108.340457,5.423 L108.326133,5.423 L108.326133,10.3913871 C108.326133,11.2523548 109.262648,11.883 109.983214,12.223 L109.997537,12.223 L109.997537,12.2273871 Z"></path>
                <path d="M95.2011519,11.5676774 C95.2011519,11.5676774 93.9076594,13.031871 93.5347061,13.4760645 C92.8626189,13.2643871 92.1442569,12.8092258 91.8765238,12.0305161 L90.3918721,13.5407742 C88.3904846,13.0044516 86.905833,12.0946774 86.905833,10.2285161 L86.905833,3.16748387 C86.905833,2.58345161 86.6700516,2.25880645 86.2645957,2.25880645 C85.8899897,2.25880645 85.5264015,2.43429032 85.5264015,2.93880645 C85.5264015,3.22945161 85.6255619,3.45429032 85.746758,3.6846129 L85.4547857,3.66816129 C85.3611342,3.48719355 85.2564649,3.20751613 85.2564649,2.88945161 C85.2564649,1.62267742 86.1158551,0.926225806 87.3223067,0.926225806 C88.3414553,0.926225806 88.980489,1.7213871 88.980489,2.873 L88.980489,9.85396774 C88.980489,10.4297742 89.1622831,10.7807419 89.5919782,11.1262258 L89.5919782,2.27580645 C89.5919782,1.9336129 89.4983267,1.80583871 89.355095,1.69232258 C89.542398,1.51354839 89.669103,1.33587097 89.7958079,1.0753871 L89.8288614,1.0753871 L89.8288614,5.87925806 C90.1704139,6.02732258 90.4844219,6.09312903 90.7984298,6.09312903 C91.1124378,6.09312903 91.4870437,6.02732258 91.784525,5.88474194 L91.784525,3.35064516 C91.6302754,3.02709677 91.3768655,2.73370968 91.095911,2.73370968 C90.9581882,2.73370968 90.8755546,2.7666129 90.7213051,2.92729032 L90.5835823,2.81322581 L92.2858359,0.962419355 L94.395749,2.79787097 L94.395749,2.81432258 C94.0707232,2.9283871 93.8613846,3.17077419 93.8613846,3.60948387 L93.8613846,10.8098065 C93.8613846,11.4163226 94.2855708,11.8122581 94.6271233,11.8122581 C94.6987391,11.8122581 94.8089174,11.7387742 94.891551,11.6477419 L95.0898719,11.4393548 L95.2220857,11.5709677 L95.2011519,11.5676774 Z M91.7668965,7.43667742 L91.7668965,6.10958065 C91.4969598,6.22474194 91.171934,6.29054839 90.7808013,6.29054839 C90.4006864,6.29054839 90.1032052,6.23022581 89.8112329,6.11506452 L89.8112329,7.44764516 C90.1032052,7.33796774 90.4006864,7.27216129 90.7808013,7.27216129 C91.171934,7.27216129 91.4969598,7.33796774 91.7613875,7.45312903 L91.7668965,7.43667742 Z M91.8274945,11.8237742 C91.794441,11.6318387 91.7613875,11.3740968 91.7613875,11.2260323 L91.7613875,7.667 C91.4639063,7.52441935 91.0893003,7.4586129 90.7752924,7.4586129 C90.4612844,7.4586129 90.1472765,7.52441935 89.805724,7.67248387 L89.805724,11.3082903 C89.8828487,11.363129 89.9765002,11.4179677 90.0701517,11.4782903 C90.5439181,11.7579677 91.1168449,11.9005484 91.5079776,11.9005484 C91.6346826,11.9005484 91.7283341,11.8840968 91.8219856,11.8347419 L91.8274945,11.8237742 Z M62.8456621,1.97419355 C62.3256209,2.43264516 61.8529563,2.98651613 61.3499926,3.49322581 C60.7699043,2.90809677 60.4795846,2.59058065 60.2355398,2.59058065 C60.067518,2.59058065 59.976621,2.62348387 59.824575,2.78141935 L59.6703255,2.6223871 C60.1606186,2.16448387 60.9070762,1.40496774 61.165995,1.11980645 C61.6893416,1.67367742 62.0804743,2.00545161 62.2677773,2.00545161 C62.4495714,2.00545161 62.5432229,1.95883871 62.6974724,1.8316129 L62.8517219,1.97419355 L62.8456621,1.97419355 Z M63.8813375,11.39 L62.1421741,13.2896129 C61.5934865,12.7988065 60.8299514,12.181871 60.3870349,11.8824516 L60.3870349,11.866 C60.614553,11.7727742 60.7368508,11.5040645 60.7368508,10.9501935 L60.7368508,6.29548387 C60.599128,5.97741935 60.4316571,5.83483871 60.2327854,5.83483871 C60.1281161,5.83483871 59.9903933,5.88254839 59.8074974,6.08709677 L59.6394756,5.91435484 C60.17384,5.44 60.9671233,4.69583871 61.4408897,4.17377419 C61.7460834,4.55216129 62.5079658,5.31441935 63.0274562,5.7586129 L63.0274562,5.77506452 C62.7520106,5.89022581 62.5845397,6.07667742 62.5845397,6.41119355 L62.5845397,11.0779677 C62.8434585,11.4289355 63.0417793,11.5550645 63.2692974,11.5550645 C63.3904934,11.5550645 63.5282162,11.5386129 63.7375549,11.2699032 L63.8752777,11.3960323 L63.8813375,11.39 Z M47.6774252,11.6131935 C47.2642569,12.0557419 46.5646251,12.8936774 46.2285815,13.3066129 C45.2507497,12.9720968 44.6706614,12.2454839 44.6706614,11.3598387 L44.6706614,6.62725806 C44.1985477,6.34209677 43.4201385,5.74106452 43.0543467,5.44 L43.0394727,5.44 L43.0394727,11.0719355 C43.1771955,11.3252903 43.4967123,11.5462903 43.7391044,11.5462903 C43.908228,11.5462903 43.9682752,11.4980323 44.1963441,11.261129 L44.3340669,11.3872581 C43.8619532,11.892871 43.0229459,12.8267742 42.5954544,13.2846774 C42.000492,12.7472581 41.4055295,12.2718065 40.8270938,11.8780645 L40.8270938,11.8632581 C41.1190661,11.7206774 41.1961909,11.4503226 41.1961909,10.9913226 L41.1961909,6.27519355 C41.0749948,6.05474194 40.876674,5.81729032 40.7279334,5.81729032 C40.5902106,5.81729032 40.5020681,5.85019355 40.3147651,6.02348387 L40.2266225,5.91380645 C40.8050582,5.32703226 41.5101989,4.58341935 41.8627692,4.17212903 L43.0245986,5.29193548 C43.3292414,5.05612903 43.9699278,4.50225806 44.3059714,4.1693871 C44.8249109,4.61358065 45.953136,5.38790323 46.9160937,5.95822581 L46.9160937,5.97303226 C46.6720489,6.1156129 46.5194521,6.29 46.5194521,6.65303226 L46.5194521,11.0861935 C46.5194521,11.4810323 46.8543939,11.7990968 47.0978878,11.7990968 C47.2504846,11.7990968 47.3733333,11.6872258 47.5408042,11.4810323 L47.678527,11.6093548 L47.6774252,11.6131935 Z M16.417658,11.6131935 C16.0122021,12.0535484 15.2993489,12.8964194 14.9688143,13.3066129 C13.9915334,12.9720968 13.411445,12.2454839 13.411445,11.3598387 L13.411445,6.62725806 C12.9376786,6.34209677 12.1609221,5.74106452 11.7940286,5.44 L11.7775018,5.44 L11.7775018,11.0554839 C11.9152246,11.3077419 12.201688,11.5462903 12.449589,11.5462903 C12.6644366,11.5462903 12.7085079,11.4985806 12.9398822,11.261129 L13.0776049,11.3872581 C12.6038386,11.8780645 11.7775018,12.7944194 11.3367889,13.2857742 C10.896076,12.8596774 10.1744086,12.3041613 9.57944616,11.8780645 L9.57944616,11.8627097 C9.85489174,11.7365806 9.92650759,11.4349677 9.92650759,10.9759677 L9.92650759,3.75809677 C9.92650759,2.25222581 11.3808602,1.26841935 12.3118663,0.745258065 L12.4275534,0.909774194 C12.014385,1.21687097 11.7554662,1.80912903 11.7554662,2.85654839 L11.7554662,5.2913871 C12.0529474,5.05009677 12.6974901,4.49074194 13.0335337,4.16719355 C13.5513713,4.6113871 14.6806982,5.3846129 15.6392488,5.95493548 L15.6392488,5.96590323 C15.3913478,6.10848387 15.2426072,6.28396774 15.2426072,6.64590323 L15.2426072,11.076871 C15.2426072,11.4717097 15.5786508,11.7897742 15.8210429,11.7897742 C15.9697835,11.7897742 16.0964884,11.6746129 16.2617558,11.4717097 L16.3994786,11.5978387 L16.417658,11.6131935 Z M82.315257,5.75641935 C82.1169362,5.83483871 81.9792134,6.0563871 81.9792134,6.37335484 L81.9792134,10.7714194 C81.9792134,11.0253226 82.0563382,11.2463226 82.254659,11.3581935 L82.254659,11.3724516 C81.323653,11.6247097 79.9960053,12.3705161 78.9124024,13.2863226 C77.447032,12.5602581 76.6537487,11.832 76.6537487,10.549871 L76.6537487,7.23870968 C76.6537487,6.98535484 76.5468758,6.76380645 76.3022802,6.65193548 L76.3022802,6.63767742 C77.371009,6.06735484 78.8969775,4.88009677 79.6296627,4.15348387 C80.1172014,4.54832258 81.5065488,5.372 82.315257,5.73558065 L82.315257,5.75203226 L82.315257,5.75641935 Z M80.1337281,12.1177097 L80.1337281,6.52964516 C79.704033,6.31029032 78.8060804,5.75641935 78.5141081,5.48606452 L78.4997849,5.48606452 L78.4997849,10.3447742 C78.4997849,11.1810645 79.4142643,11.7842903 80.1155487,12.1160645 L80.1320754,12.1160645 L80.1337281,12.1177097 Z M75.7530417,13.2896129 C75.7530417,13.7173548 75.3894535,14.1615484 74.1207512,15.0636452 C73.3588688,15.6010645 71.9733775,16.1549355 71.6538607,16.4565484 C71.257219,15.8697742 71.2021299,15.6010645 70.7779437,15.6010645 C70.0893298,15.6010645 68.8553336,15.8862258 68.6129415,16.0726774 L68.5027633,15.963 C68.7782089,15.3597742 70.2986684,14.2355806 71.5657181,14.2355806 C72.3700191,14.2355806 73.2294093,14.646871 73.5158727,15.0746129 C73.8353896,14.773 74.0447282,14.5646129 74.0447282,14.1423548 C74.0447282,13.3800968 73.5268906,13.2046129 73.372641,12.1900968 L73.3561143,12.1900968 C73.0476153,12.4423548 72.4085815,13.0126774 72.0890647,13.2813871 C71.0478804,12.4697742 70.1168744,11.839129 69.4778406,11.4881613 L69.4778406,11.4717097 C69.6761614,11.3620323 69.8744823,11.1207419 69.8744823,10.7423548 L69.8744823,7.23267742 C69.8744823,6.97493548 69.764304,6.75558065 69.5219119,6.64590323 L69.5219119,6.62945161 C70.5906407,6.05912903 72.1166092,4.86912903 72.8492944,4.14525806 C73.3340787,4.54009677 74.7223243,5.36267742 75.5321343,5.7246129 L75.5321343,5.74106452 C75.3338135,5.81783871 75.1960907,6.04267742 75.1960907,6.35525806 L75.1960907,11.4826774 C75.1960907,12.2888065 75.7304551,12.3820323 75.7304551,13.2704194 L75.7530417,13.2896129 Z M73.3720901,12.0228387 L73.3720901,6.528 C72.947904,6.30754839 72.0460952,5.75367742 71.7563264,5.48387097 L71.7397997,5.48387097 L71.7397997,10.8317419 C72.0449934,10.9907742 72.7159788,11.4969355 73.357767,12.019 L73.372641,12.019 L73.372641,12.0146129 L73.3720901,12.0228387 Z M69.3147768,6.4046129 C68.8575372,6.65687097 66.23199,8.40074194 66.049645,9.34945161 L66.049645,10.566871 C66.049645,11.3071935 67.2230432,11.8500968 67.8328797,11.8500968 C68.0929003,11.8500968 68.4443688,11.499129 68.7793106,11.1371935 L68.9500869,11.3126774 L66.9393342,13.286871 C65.1875004,12.9359032 64.212423,11.926871 64.212423,10.8794516 L64.212423,7.38074194 C64.212423,7.07912903 64.0471557,6.81041935 63.7221299,6.71719355 L63.7221299,6.70074194 C64.6090647,6.19622581 66.3058094,4.97332258 67.3084313,4.16719355 C67.7987244,4.76493548 68.757275,5.82880645 69.3246929,6.39912903 L69.3147768,6.4046129 Z M67.5442127,7.17783871 C67.0704463,6.66783871 66.3818324,5.82880645 66.0623155,5.423 L66.0457888,5.423 L66.0457888,8.58719355 L66.0568066,8.58719355 C66.3928502,8.06622581 67.0484107,7.52880645 67.5387038,7.17783871 L67.5442127,7.17783871 Z M59.3965326,10.6271935 C58.190081,11.3839677 56.6475858,12.5410645 55.7606511,13.3800968 C55.2538312,12.7439677 54.3558786,12.0200968 53.1329003,12.0200968 C51.8989041,12.0200968 51.0890941,12.5520323 50.5547297,13.2813871 L50.3729356,13.1388065 C51.529807,11.6800968 51.9429754,11.2413871 51.9429754,10.2433226 L51.9429754,6.38267742 C51.9429754,5.17622581 52.7197319,4.58945161 54.1410311,3.64074194 L54.2897717,3.78332258 C53.7223538,4.28783871 53.6176845,4.71558065 53.6176845,5.62041935 L53.6176845,9.22880645 C53.6176845,9.94170968 53.2485874,10.5284839 52.8519458,10.8575161 L52.8519458,10.8739677 C53.1824805,10.7094516 53.771934,10.5339677 54.4054588,10.5284839 C54.5486905,10.5284839 54.6974311,10.5504194 54.8461717,10.566871 L54.8461717,3.24645161 C54.1410311,3.33419355 53.3918191,3.48774194 52.52692,3.48774194 C51.4581912,3.48774194 50.7420327,2.82419355 50.7420327,1.84258065 C50.7585594,0.767741935 51.4141199,0.230322581 52.4993755,0.197419355 L52.587518,0.608709677 C52.1412962,0.548387097 51.3975932,0.608709677 51.3975932,1.17903226 C51.3975932,1.59032258 51.7446546,1.68903226 52.52692,1.68903226 C53.3477478,1.68903226 54.769047,1.32380645 55.9589719,1.32380645 C58.2176256,1.32380645 59.0219266,2.55767742 59.0219266,4.26316129 L59.0219266,9.758 C59.0219266,10.4544516 59.1596494,10.564129 59.3855148,10.5970323 L59.3855148,10.6299355 L59.3965326,10.6271935 Z M57.0001561,5.92203226 L57.0001561,4.97935484 C57.0001561,3.69612903 56.7687819,3.18996774 55.8212491,3.18996774 C55.5513124,3.18996774 55.3144292,3.20312903 55.0885639,3.22506452 L55.0885639,5.9286129 C55.4190985,6.07119355 55.7275976,6.137 56.0305877,6.137 C56.3335778,6.137 56.7026749,6.07667742 56.9891383,5.93409677 L57.0001561,5.92203226 Z M57.0001561,7.44106452 L57.0001561,6.14193548 C56.7412373,6.25490323 56.4217204,6.31741935 56.0360966,6.31741935 C55.6669996,6.31741935 55.3805362,6.25490323 55.0885639,6.14193548 L55.0885639,7.4416129 C55.3750272,7.33193548 55.6669996,7.26832258 56.0305877,7.26832258 C56.4107026,7.26832258 56.7302195,7.33083871 56.9891383,7.44106452 L57.0001561,7.44106452 Z M57.0001561,11.6197742 L57.0001561,7.66041935 C56.7081838,7.51783871 56.3390868,7.45751613 56.0360966,7.45751613 C55.7275976,7.45751613 55.4246075,7.51783871 55.0885639,7.66041935 L55.0885639,10.6107419 C55.887356,10.7807419 56.4878274,11.1097742 56.9781205,11.6197742 L56.9891383,11.6197742 L57.0001561,11.6197742 Z M40.6111445,11.3784839 C38.9915245,13.1333226 38.8703285,13.2759032 38.8703285,13.2759032 C38.4241066,12.8646129 37.8015996,12.3546129 37.465556,12.1188065 C37.0083164,12.563 36.8375401,12.7659032 36.3803005,13.2704194 C34.9920548,13.0784839 34.1547003,12.096871 34.1547003,10.8300968 C34.1547003,9.05880645 35.6806687,7.97848387 36.6832906,7.55074194 C36.0112034,6.61848387 35.0801974,5.79041935 34.5899043,5.49429032 L34.5899043,5.48387097 L35.9230608,4.16225806 C36.1489262,4.54064516 36.5620946,4.85870968 36.8981382,4.85870968 C37.3829224,4.85870968 37.8456709,4.5263871 38.088063,4.16225806 C38.3635086,4.47867742 39.2945147,5.3336129 39.7517543,5.729 L39.7517543,5.74545161 C39.4322374,5.95 39.3110414,5.99770968 39.3110414,6.64590323 L39.3110414,11.0604194 C39.399184,11.1865484 39.6305583,11.5320323 39.9941464,11.5320323 C40.203485,11.5320323 40.2971365,11.4333226 40.4624039,11.246871 L40.6001267,11.373 L40.6111445,11.3784839 Z M37.465556,8.13203226 L37.465556,5.90009677 L37.1129857,5.53816129 C36.7328708,5.933 36.1323995,5.97687097 35.72474,5.99332258 L35.72474,6.00977419 C36.2095242,6.4046129 37.2011283,7.56170968 37.4490293,8.13203226 L37.460598,8.13203226 L37.465556,8.13203226 Z M37.465556,11.756871 L37.465556,9.45912903 C37.465556,8.92170968 37.2672352,8.33493548 36.8540669,7.79751613 C36.3197025,8.143 35.785338,8.80654839 35.785338,10.013 C35.785338,11.0549355 36.407845,11.8610645 37.2011283,11.8610645 C37.2892709,11.8610645 37.3663956,11.8446129 37.4600471,11.7459032 L37.465556,11.756871 Z M34.10512,7.79751613 C34.10512,9.91429032 31.6922168,11.9871935 30.061579,13.4952581 C29.6318839,12.9852581 28.5631551,12.1955806 27.450355,12.1955806 C26.1061806,12.1955806 25.5277449,12.6836452 24.9768537,13.3800968 L24.8666755,13.2978387 C25.2633171,11.7952581 26.392644,10.6074516 27.9792105,10.6074516 C29.565777,10.6074516 30.6510326,11.3039032 31.185397,11.824871 C32.5736427,10.3990645 32.9372308,9.78487097 32.9372308,8.91293548 C32.9372308,8.33164516 32.8160348,7.58583871 31.5049138,6.96067742 C31.0972544,6.76874194 30.5739078,6.58229032 29.9018206,6.40132258 L29.6594285,6.76325806 C30.4692385,6.97712903 31.0531831,7.18551613 31.4718604,7.43229032 C32.2871793,7.91487097 32.4799912,8.49616129 32.4799912,9.22003226 C32.4799912,9.64777419 32.0668228,10.3113226 31.7142525,10.6129355 L31.6977257,10.6129355 C31.6536544,9.58580645 31.2955752,9.08677419 28.7504581,8.52358065 L28.5356105,8.47696774 C28.3923788,8.69632258 28.2546561,8.90470968 28.1279511,9.11309677 C27.6541847,9.87096774 26.9986242,9.87535484 26.9986242,9.87535484 C26.6130004,9.87535484 26.3100103,9.62529032 26.3100103,9.30503226 C26.3100103,8.89374194 26.5689292,8.70180645 26.9159906,8.70180645 C27.2481779,8.70180645 27.4999352,9.11090323 27.6927471,9.11090323 C27.7478362,9.11090323 27.7974164,9.08896774 27.8436913,9.01767742 L28.2403329,8.41116129 C27.1054971,8.13696774 25.7558138,7.59406452 25.7558138,6.18470968 C25.7558138,5.58148387 25.9679069,5.14112903 26.2422507,4.82470968 L26.2587774,4.82470968 C26.4102725,5.68567742 26.9661217,6.09696774 29.3746178,6.70403226 L29.6170099,6.33935484 L29.4484372,6.29548387 C27.9830667,5.92806452 26.413027,5.53322581 26.413027,3.74548387 C26.413027,2.06741935 27.8783974,1.10225806 29.8450788,1.10225806 C31.2212049,1.10225806 32.076188,1.51354839 32.6766593,1.90290323 L32.9576138,1.51354839 L33.1559346,1.65612903 C32.4397761,2.64870968 31.7456533,3.65774194 31.0570393,4.67225806 C31.28621,4.73806452 31.4977522,4.7983871 31.6960731,4.86967742 C33.6407188,5.54035484 34.0924496,6.30645161 34.0924496,7.79806452 L34.10512,7.79751613 Z M31.741797,3.2513871 C31.2570128,2.703 30.248882,2.03396774 29.2242245,2.03396774 C27.7863986,2.03396774 27.3016144,2.46170968 27.3016144,3.01558065 C27.3016144,3.83816129 28.4639947,4.00816129 30.1827751,4.4413871 C30.4031315,4.49622581 30.6069613,4.54558065 30.8052821,4.60041935 C31.11929,4.13429032 31.433298,3.67912903 31.7307792,3.2513871 L31.741797,3.2513871 Z M21.90839,6.38816129 C21.4511504,6.64041935 18.8233996,8.38429032 18.6416055,9.333 L18.6416055,10.5504194 C18.6416055,11.2962258 19.8150037,11.8336452 20.4264929,11.8336452 C20.6854117,11.8336452 21.037982,11.4826774 21.3740256,11.1207419 L21.539293,11.2962258 L19.5230314,13.2704194 C17.7656886,12.9194516 16.7906113,11.9104194 16.7906113,10.863 L16.7906113,7.36977419 C16.7906113,7.06267742 16.619835,6.79945161 16.3003182,6.70622581 L16.3003182,6.68977419 C17.1872529,6.18525806 18.8784887,4.96235484 19.8866195,4.15622581 C20.3714037,4.75396774 21.3354632,5.81783871 21.9028811,6.38816129 L21.90839,6.38816129 Z M20.1400295,7.16687097 C19.6662631,6.65687097 18.9776491,5.81783871 18.6581323,5.40654839 L18.6416055,5.40654839 L18.6416055,8.57074194 L18.6581323,8.57074194 C18.9941759,8.04977419 19.6497363,7.50687097 20.1400295,7.1613871 L20.1400295,7.16687097 Z M9.87196936,2.16064516 C9.87196936,3.31445161 9.1227574,4.16993548 7.8408337,4.16993548 C7.57640595,4.16993548 7.31913978,4.13922581 7.0629754,4.08548387 L7.0629754,11.6488387 C8.34104286,11.4097419 8.93049639,10.7110968 9.38773604,9.91593548 L9.58054795,10.1056774 C8.85337163,11.7343871 7.63039328,13.4453548 5.27808808,13.4453548 C2.5952482,13.4453548 0.656111357,11.5462903 0.656111357,8.61845161 C0.656111357,5.94451613 2.47405214,4.34541935 4.39666225,3.28374194 L4.55091177,3.42741935 C3.49870968,4.23354839 2.52363235,5.87870968 2.52363235,8.0283871 C2.52363235,9.67574194 3.00841656,10.6222581 3.79068199,11.142129 C4.18732361,10.7418065 4.26444837,10.2992581 4.26444837,9.65874194 L4.26444837,6.52580645 C4.26444837,5.37035484 5.31114155,4.56477419 6.32478126,3.87051613 C5.02467816,3.41316129 3.75211961,2.58564516 2.29225806,2.58564516 C0.953592576,2.58564516 0.309049934,3.0133871 0.309049934,3.74274194 C0.309049934,4.29551613 0.694673737,4.61193548 1.09131536,4.61193548 C1.35574311,4.61193548 1.55406393,4.56477419 1.70280454,4.454 L1.60915304,4.89709677 C1.48795699,4.92890323 1.33921638,4.94425806 1.21802033,4.94425806 C0.490293121,4.94535484 0,4.48690323 0,3.55245161 C0,1.85793548 1.14254824,0.830258065 3.036512,0.830258065 C5.4576786,0.830258065 7.02496391,2.65090323 8.60602151,2.65090323 C9.26158197,2.65090323 9.55135071,2.44470968 9.55135071,2.00051613 C9.55135071,1.60567742 9.30785683,1.38358065 8.89579025,1.27390323 L9.2472588,1.01945161 C9.56787745,1.14558065 9.87307114,1.61719355 9.87307114,2.16009677 L9.87196936,2.16064516 Z M6.83655914,11.6822903 L6.83655914,4.03064516 C6.74951834,4.00870968 6.66357932,3.98458065 6.5776403,3.95825806 C6.05098836,4.44741935 5.93530122,4.89051613 5.93530122,5.76903226 L5.93530122,8.93322581 C5.93530122,10.0047742 5.29516571,10.4698065 3.98735013,11.2693548 C4.60985712,11.6104516 5.39763146,11.720129 6.25702165,11.720129 C6.45534247,11.720129 6.65366328,11.7080645 6.83545736,11.6844839 L6.83655914,11.6822903 Z"></path>
            </g>
        </g>
    </g>
</svg>