<?xml version="1.0" encoding="UTF-8"?>
<svg width="150px" height="20px" viewBox="0 0 150 20" version="1.1" xmlns="http://www.w3.org/2000/svg" xmlns:xlink="http://www.w3.org/1999/xlink">
    <!-- Generator: sketchtool 42 (36781) - http://www.bohemiancoding.com/sketch -->
    <title>ED7B8B8E-4206-4B72-8F30-112774D92415</title>
    <desc>Created with sketchtool.</desc>
    <defs></defs>
    <g id="Symbols" stroke="none" stroke-width="1" fill="none" fill-rule="evenodd">
        <g id="Logo:-Los-Angeles-Times" fill-rule="nonzero" fill="#1B1B1B">
            <g id="Logo:-LA-Times">
                <path d="M28.4877639,13.0700104 C27.0104046,13.7140644 24.8849191,14.8878288 23.8472527,15.8166169 C23.3178639,15.3052315 22.6095116,14.8315678 21.6879035,14.8315678 C20.8241638,14.8315678 20.4383744,15.1444859 20.4383744,15.4381146 C20.4383744,15.6202929 20.7984445,15.5924303 20.7984445,15.8549815 C20.7984445,15.9760765 20.6944957,16.1207475 20.5337501,16.1207475 C20.3322823,16.1207475 20.1361726,15.8228324 20.1361726,15.457404 C20.1361726,14.7758427 20.4383744,14.1767974 21.5196564,13.0526499 L23.4143112,11.0829805 C22.632016,10.6832597 21.4917939,10.1849484 20.8573846,9.90953757 L20.8573846,9.81523349 C21.0417062,9.76272326 21.1799474,9.57947327 21.1799474,9.36085926 L21.1799474,7.73197051 C21.1799474,7.55407872 21.0856433,7.27759628 20.8584562,7.20258167 L20.8584562,7.12649542 C22.4498376,6.55852764 24.4763038,5.42152043 25.6315289,4.60707605 C25.8908651,4.8953465 26.5692115,5.49760668 27.2989966,5.49760668 C27.9141164,5.49760668 28.0566442,5.20076314 28.0566442,4.98643567 C28.0566442,4.86426901 27.829457,4.7978275 27.829457,4.60814769 C27.829457,4.44633045 27.9162597,4.38096058 28.0384263,4.38096058 C28.219533,4.38096058 28.379207,4.548136 28.379207,4.89213158 C28.379207,5.91554524 27.3965156,7.22187114 25.8608593,7.22187114 C24.8503053,7.22187114 24.2319705,6.76749691 23.7583068,6.10415341 L23.7207995,6.12344288 L23.7207995,8.65882964 L25.1225011,9.34071248 L25.7479087,8.67779762 C26.4037507,9.09252127 27.7700883,9.82659284 28.4945152,10.136296 L28.4945152,10.1930928 C28.3526304,10.2531045 28.1724881,10.4206014 28.1724881,10.7235533 L28.1724881,12.5228324 C28.1724881,12.7793823 28.3618465,12.9399136 28.4939793,12.9964961 L28.4939793,13.0721537 L28.4877639,13.0700104 Z M25.6275638,14.2634929 L25.6275638,11.2139345 C25.2678152,11.0433299 24.657732,10.7520588 24.3019484,10.5698805 L21.3659836,13.6004709 L21.3848445,13.6193317 C21.8293596,13.3771417 22.3696792,13.1263785 23.2790706,13.1263785 C24.2071085,13.1263785 25.1447912,13.7961518 25.5895207,14.2816036 L25.627028,14.2623141 L25.6275638,14.2634929 Z M19.7938917,13.0700104 C18.5268948,13.5880399 16.0812041,14.8885789 15.0206047,15.8166169 C13.9028869,15.0021725 12.2694973,13.9298922 11.2323667,13.3352406 L11.2323667,13.2786582 C11.4974898,13.1839254 11.5731474,12.9755991 11.5731474,12.653465 L11.5731474,7.88007079 C11.5731474,7.44048516 11.4595538,7.27416705 11.2323667,7.19850945 L11.2323667,7.12263753 C12.974849,6.47858349 14.6230272,5.56940638 16.0244074,4.60321816 C16.9903812,5.32292979 18.6762811,6.38374359 19.7938917,7.04687277 L19.7938917,7.12263753 C19.5916737,7.20354615 19.4527895,7.40662142 19.4527895,7.72843411 L19.4527895,12.4637852 C19.4527895,12.8048873 19.5854582,12.9376632 19.7938917,12.9942456 L19.7938917,13.0700104 Z M16.9147236,14.3202897 L16.9147236,8.03160031 C16.0434825,7.55793661 14.7553744,6.6109307 14.1491492,6.08079171 L14.1113204,6.09965253 L14.1113204,12.463035 C14.9447327,12.9174092 16.1949049,13.7511431 16.8767877,14.3384003 L16.9147236,14.3191109 L16.9147236,14.3202897 Z M11.061762,12.6532506 L9.31927973,15.8733065 C8.34623303,15.1949601 6.78035656,14.7748782 5.45495551,14.7748782 C2.84123206,14.7748782 1.04163149,15.2485419 0.113593557,15.8354777 L0,15.7027018 C0.828911476,14.9775248 2.216146,13.8117978 2.216146,11.1568163 C2.216146,10.0380269 1.76562967,8.7700656 1.43963759,7.93697474 C1.0616711,6.97121517 0.776615574,6.48169124 0.776615574,5.13357147 C0.776615574,2.7873287 2.03396766,1.45635513 4.01542508,0.455124375 L4.16716893,0.644804183 C3.48346431,1.21362928 3.1696889,1.95005845 3.06852634,2.69013119 L6.23157109,0.0383646165 C7.04280055,1.17783659 7.80880691,1.61045658 8.80778723,1.61045658 C9.62758979,1.61045658 9.86849386,1.25510164 9.86849386,0.966402546 C9.86849386,0.757969085 9.58429564,0.715960901 9.58429564,0.51181399 C9.58429564,0.318169124 9.71782165,0.265551731 9.8305579,0.265551731 C10.081964,0.265551731 10.1524778,0.590043515 10.1524778,0.833733844 C10.1524778,2.43175943 8.88344483,3.54251153 7.46266805,3.54251153 C7.21651296,3.54251153 6.99436254,3.55108463 6.83768916,3.52354355 L6.83768916,12.5017211 C7.97930441,12.5017211 9.37596934,12.8805449 10.3798792,13.3161655 L10.8156069,12.5398714 L11.061762,12.6532506 Z M6.64843801,12.5017211 L6.64843801,3.50103916 C5.44531077,3.34243684 4.67909008,2.51920504 4.26168734,2.02721634 L3.06841917,2.99308307 C3.074849,4.34120283 3.45913814,5.51786062 3.92090667,6.59206988 C4.34291745,7.57443983 4.8111158,8.85536793 4.8111158,9.73625382 C4.8111158,11.1876794 4.01553225,12.1040365 2.10255245,13.9035299 L2.15934922,13.9603267 C3.29582061,13.108375 5.12135481,12.5286192 6.64843801,12.5018283 L6.64843801,12.5017211 Z M94.720202,13.0700104 C93.2427356,13.7140644 91.1173573,14.8878288 90.0794765,15.8166169 C89.549016,15.3052315 88.8417354,14.8315678 87.9201273,14.8315678 C87.0561733,14.8315678 86.6701695,15.1444859 86.6701695,15.4381146 C86.6701695,15.6202929 87.0299182,15.5924303 87.0299182,15.8549815 C87.0299182,15.9760765 86.9259693,16.1207475 86.7652237,16.1207475 C86.5626843,16.1207475 86.3676463,15.8228324 86.3676463,15.457404 C86.3676463,14.7758427 86.669848,14.1767974 87.7511301,13.0526499 L89.6457849,11.0829805 C88.8645613,10.6832597 87.7243392,10.1849484 87.0888582,9.90953757 L87.0888582,9.81523349 C87.2731798,9.76272326 87.4114211,9.57947327 87.4114211,9.36085926 L87.4114211,7.73197051 C87.4114211,7.55407872 87.3160453,7.27759628 87.0888582,7.20258167 L87.0888582,7.12649542 C88.6802397,6.55852764 90.7077775,5.42152043 91.8619309,4.60707605 C92.1212671,4.8953465 92.7996136,5.49760668 93.5293986,5.49760668 C94.1445184,5.49760668 94.2870462,5.20076314 94.2870462,4.98643567 C94.2870462,4.86426901 94.0598591,4.7978275 94.0598591,4.60814769 C94.0598591,4.44633045 94.1466617,4.38096058 94.2688283,4.38096058 C94.4499351,4.38096058 94.609609,4.548136 94.609609,4.89213158 C94.609609,5.91554524 93.6269176,7.22187114 92.0901896,7.22187114 C91.0796356,7.22187114 90.4613009,6.76749691 89.9876372,6.10415341 L89.9501299,6.12344288 L89.9501299,8.65882964 L91.3518315,9.34071248 L91.9765961,8.67779762 C92.6324381,9.09252127 93.9998474,9.82659284 94.7232026,10.136296 L94.7232026,10.1930928 C94.5817464,10.2531045 94.4017114,10.4206014 94.4017114,10.7235533 L94.4017114,12.5228324 C94.4017114,12.7793823 94.5913912,12.9399136 94.7242742,12.9964961 L94.7242742,13.0721537 L94.720202,13.0700104 Z M91.8596805,14.2634929 L91.8596805,11.2139345 C91.5002533,11.0433299 90.8898487,10.7520588 90.5342794,10.5698805 L87.5982074,13.6004709 L87.6170683,13.6193317 C88.0615834,13.3771417 88.601903,13.1263785 89.5114016,13.1263785 C90.4394395,13.1263785 91.3781938,13.7961518 91.8221732,14.2816036 L91.8596805,14.2623141 L91.8596805,14.2634929 Z M86.4047249,8.0697506 L81.9156362,10.8727252 L81.9156362,12.7855978 C82.4842469,13.0320744 83.8288303,13.6943463 84.4350555,14.0919238 L85.4009223,13.0877996 C85.6666883,12.8113171 85.5891018,12.3483698 85.9692115,12.3483698 C86.1020946,12.3483698 86.1963986,12.4244561 86.1963986,12.5755569 C86.1963986,12.7373742 86.0849484,12.8198902 86.0070403,12.8970481 L83.0711827,15.8140449 C82.0670585,15.1699909 80.0405923,14.2226635 79.0364681,13.8057966 L79.0364681,13.7297103 C79.1988212,13.668627 79.3777846,13.55932 79.3777846,13.1424531 L79.3777846,7.82295252 C79.3777846,7.38701046 79.2207898,7.23248035 79.0365753,7.19765214 L79.0365753,7.12220887 C80.5529421,6.63032734 82.8633922,5.39901604 83.9618205,4.62207898 C84.7194681,5.75908619 85.686085,7.16078782 86.4051536,8.06953627 L86.4047249,8.0697506 Z M84.1124927,9.22476132 C83.5826752,8.4864032 82.5596902,7.06648373 81.9724329,6.19524258 L81.9156362,6.21453205 L81.9156362,10.5889556 L84.1124927,9.22476132 Z M73.5815126,8.07060791 L69.0924238,10.8740112 L69.0924238,12.7879554 C69.660606,13.034432 71.0055108,13.6977755 71.6115217,14.095353 L72.5776028,13.0923004 C72.8422972,12.8168897 72.7651393,12.3539423 73.1455706,12.3539423 C73.277382,12.3539423 73.3727577,12.4300286 73.3727577,12.5811294 C73.3727577,12.7429467 73.2613074,12.8254628 73.1830779,12.9036923 L70.2467916,15.8206891 C69.2426674,15.1777067 67.2162012,14.2293077 66.212077,13.8135124 L66.212077,13.7374261 C66.3738943,13.6774144 66.5528577,13.5670358 66.5528577,13.1501689 L66.5528577,7.82413132 C66.5528577,7.38904657 66.3963986,7.23473079 66.212077,7.19936676 L66.212077,7.12435215 C67.7273722,6.63139897 70.0378223,5.40008768 71.1362506,4.62315061 C71.8938982,5.75908619 72.8594434,7.16078782 73.5795837,8.07060791 L73.5815126,8.07060791 Z M71.2896019,9.22465415 C70.7591414,8.48586738 69.7363707,7.06573358 69.1490063,6.19427811 L69.0922095,6.21356758 L69.0922095,10.5888485 L71.2894947,9.22465415 L71.2896019,9.22465415 Z M65.5692018,14.9643437 C65.5085471,17.3694194 63.4347146,19.0368871 61.1881341,19.0368871 C59.4306488,19.0368871 59.0212834,18.1277099 57.4243294,18.1277099 C56.4945769,18.1277099 55.1055206,18.42884 54.8427551,18.7524745 L54.7291615,18.6763883 C54.8236799,16.9328343 56.9278398,15.9672891 58.5041112,15.9672891 C60.2418783,15.9672891 61.5143405,17.0850068 63.3532701,17.0850068 C64.5274631,17.0850068 65.1336884,16.4591706 65.2473891,15.8344061 L65.2284211,15.7958271 C64.9821589,15.946928 64.6601318,16.1366078 64.1864681,16.1366078 C63.2393551,16.1366078 62.2165844,15.4732643 62.0461941,14.3180392 C61.5936416,14.6331006 60.5780509,15.423969 60.1328928,15.8140449 C59.0237481,15.0971196 57.2341138,14.1937293 56.3639443,13.8057966 L56.3639443,13.7297103 C56.5461226,13.6696986 56.6672176,13.4392966 56.6672176,13.2185393 L56.6672176,7.80366305 C56.6672176,7.48088589 56.5482659,7.23783854 56.326437,7.19765214 L56.326437,7.12199454 C57.9371079,6.53473729 60.0010814,5.45452686 61.1187991,4.58328571 C62.0875593,5.3495064 63.8514743,6.4318601 64.8888193,7.02661882 L64.8888193,7.12092291 C64.6616321,7.21522699 64.5480386,7.36739949 64.5480386,7.8785705 L64.5480386,13.730782 C64.5480386,14.4819997 64.6112652,14.9996006 65.1545853,14.9996006 C65.2413879,14.9996006 65.3442651,14.8667175 65.4396408,14.8281386 L65.5725239,14.9610216 L65.5692018,14.9643437 Z M62.0081509,14.111749 L62.0081509,8.03160031 C61.2695785,7.61494772 60.0572352,6.78153536 59.2427908,6.08079171 L59.2048548,6.09965253 L59.2048548,12.7470189 C59.9442846,13.0877996 61.2506105,13.8647366 61.8003605,14.2816036 L62.0082581,14.1101416 L62.0081509,14.111749 Z M45.6806845,13.600578 L43.2751802,15.816724 C42.5554686,15.3052315 41.9302754,14.8886861 41.0210983,14.3202897 L41.0210983,14.2253426 C41.2268526,14.150328 41.3404462,13.9396441 41.3425895,13.6952036 C41.3436611,13.5876112 41.3211567,13.4669449 41.2857927,13.3539943 L40.5463629,11.0433299 L35.4517991,11.0433299 L34.7691661,12.975492 C35.8215139,12.975492 36.5287946,13.1769598 37.0421089,13.3923589 L37.4396863,12.6540008 L37.6861629,12.7868838 L36.0379847,15.8367637 C35.3478502,15.4445444 34.5698415,15.1359128 33.6889556,15.1359128 C32.6494674,15.1359128 31.8746736,15.4198967 31.4910275,15.7799669 C31.4138696,15.8528382 31.2831298,15.8217607 31.338855,15.6663733 C31.8521693,14.2432389 32.8927291,13.0976586 34.5023284,12.9958531 L38.0248003,3.24073846 C37.609005,2.03300318 37.1342697,1.76402221 36.2448107,1.76402221 C35.4110768,1.76402221 34.5966325,2.14231019 34.5966325,3.16572384 C34.5966325,3.63938754 35.0510067,3.59652205 35.0510067,3.94266091 C35.0510067,4.06375593 34.9470579,4.20842697 34.7863123,4.20842697 C34.4830389,4.20842697 34.2740696,3.79263168 34.2740696,2.99640514 C34.2740696,1.19712606 35.6564818,0.231580827 37.1529162,0.231580827 C38.516789,0.231580827 39.0850783,0.667737222 39.5019452,1.23570501 C39.653046,0.762041307 40.1202799,0.449123206 40.5242872,0.383753329 L40.581084,0.459839579 C40.3292492,0.773829317 40.1835065,1.04709684 40.1835065,1.44574592 C40.1835065,1.65257193 40.3346074,2.11230435 40.3924758,2.27947977 L44.2192927,13.3602098 L44.9576508,13.853163 L45.4881113,13.3794993 L45.6774696,13.607758 L45.6806845,13.600578 Z M40.073878,9.5847243 L38.1230694,3.5996298 L35.9830097,9.58504579 L40.0740924,9.58504579 L40.073878,9.5847243 Z M149.460937,13.0700104 C147.983471,13.7140644 145.858092,14.8878288 144.820426,15.8166169 C144.289966,15.3052315 143.582471,14.8315678 142.661077,14.8315678 C141.797123,14.8315678 141.41069,15.1444859 141.41069,15.4381146 C141.41069,15.6202929 141.770761,15.5924303 141.770761,15.8549815 C141.770761,15.9760765 141.666812,16.1207475 141.505316,16.1207475 C141.302777,16.1207475 141.106667,15.8228324 141.106667,15.457404 C141.106667,14.7758427 141.407797,14.1767974 142.489079,13.0526499 L144.382662,11.0829805 C143.600367,10.6832597 142.460145,10.1849484 141.825736,9.90953757 L141.825736,9.81523349 C142.010057,9.76272326 142.147227,9.57947327 142.147227,9.36085926 L142.147227,7.73197051 C142.147227,7.55407872 142.052923,7.27759628 141.824664,7.20258167 L141.824664,7.12649542 C143.414974,6.55852764 145.442512,5.42152043 146.597737,4.60707605 C146.857073,4.8953465 147.534348,5.49760668 148.264133,5.49760668 C148.878181,5.49760668 149.02178,5.20076314 149.02178,4.98643567 C149.02178,4.86426901 148.794593,4.7978275 148.794593,4.60814769 C148.794593,4.44633045 148.881396,4.38096058 149.002491,4.38096058 C149.183597,4.38096058 149.343271,4.548136 149.343271,4.89213158 C149.343271,5.91554524 148.359508,7.22187114 146.823852,7.22187114 C145.812226,7.22187114 145.194963,6.76749691 144.7213,6.10415341 L144.682721,6.12344288 L144.682721,8.65882964 L146.083351,9.34071248 L146.708115,8.67779762 C147.363957,9.09252127 148.730295,9.82659284 149.454722,10.136296 L149.454722,10.1930928 C149.313266,10.2531045 149.13323,10.4206014 149.13323,10.7235533 L149.13323,12.5228324 C149.13323,12.7793823 149.32291,12.9399136 149.454722,12.9964961 L149.454722,13.0721537 L149.460937,13.0700104 Z M146.600737,14.2634929 L146.600737,11.2139345 C146.241203,11.0433299 145.63112,10.7520588 145.274693,10.5698805 L142.339157,13.6004709 L142.358018,13.6193317 C142.802319,13.3771417 143.342853,13.1263785 144.25203,13.1263785 C145.180496,13.1263785 146.118822,13.7961518 146.562694,14.2816036 L146.60063,14.2623141 L146.600737,14.2634929 Z M141.145782,8.0697506 L136.656371,10.8727252 L136.656371,12.7855978 C137.225411,13.0320744 138.570316,13.6943463 139.175791,14.0919238 L140.142408,13.0877996 C140.408174,12.8113171 140.331016,12.3483698 140.711447,12.3483698 C140.84433,12.3483698 140.938634,12.4244561 140.938634,12.5755569 C140.938634,12.7373742 140.827184,12.8198902 140.748954,12.8970481 L137.812668,15.8151166 C136.809616,15.1710625 134.782078,14.2237351 133.779025,13.8068682 L133.779025,13.730782 C133.941914,13.6696986 134.119806,13.5603916 134.119806,13.1435247 L134.119806,7.82295252 C134.119806,7.38711762 133.963347,7.23269468 133.779025,7.1977593 L133.779025,7.12274469 C135.29432,6.63086316 137.605842,5.39955186 138.70427,4.6226148 C139.461918,5.759622 140.427463,7.16078782 141.147603,8.07007209 L141.145782,8.0697506 Z M138.853549,9.22476132 C138.323518,8.4864032 137.300747,7.06648373 136.71349,6.19524258 L136.656371,6.21453205 L136.656371,10.5889556 L138.8543,9.22476132 L138.853549,9.22476132 Z M112.544424,1.47778788 C112.544424,3.0027278 111.376661,3.82210171 110.119523,4.01617523 L110.119523,13.5437813 C111.653894,12.6911866 112.146632,11.750932 112.146632,11.3087744 C112.146632,11.2128629 111.956953,11.0837306 111.956953,10.9106612 C111.956953,10.7764922 112.065188,10.6645061 112.18414,10.6645061 C112.356995,10.6645061 112.430402,10.8160356 112.430402,11.1000195 C112.430402,13.3163798 110.308989,16.3092486 105.800932,16.3092486 C102.41863,16.3092486 99.5500714,13.636585 99.5500714,10.2098104 C99.5500714,5.32271546 103.641583,3.6371371 106.482493,3.46663961 C105.440862,3.23838085 103.777145,2.87938235 102.391196,2.87938235 C100.781168,2.87938235 99.4553387,3.82670975 99.4553387,4.67866143 C99.4553387,5.00015263 99.7200331,5.05694941 99.7200331,5.28413652 C99.7200331,5.40951809 99.6653796,5.56812041 99.4917744,5.56812041 C99.2260083,5.56812041 99.188501,5.32057219 99.188501,5.11374618 C99.188501,3.25659869 100.329795,0.509992206 103.12784,0.509992206 C105.964464,0.509992206 108.117383,1.53233422 110.326028,1.53233422 C111.785598,1.53233422 112.219611,1.09617783 112.162814,0.244226148 L112.408219,0.338530233 C112.465016,0.471413262 112.541102,0.906498019 112.541102,1.47446581 L112.544424,1.47778788 Z M109.930272,13.6762356 L109.930272,4.05400403 C109.816464,4.06193414 109.610924,4.07307917 109.494544,4.07307917 C108.843632,4.07307917 107.714019,3.82681691 106.975125,3.61838345 C104.77784,4.01617523 102.220806,5.87021498 102.220806,9.35743002 C102.220806,12.3483698 104.348435,14.2633857 107.373238,14.2633857 C108.396116,14.2633857 109.302185,14.0490583 109.930165,13.6761285 L109.930272,13.6762356 Z M133.607027,13.7328181 C133.000695,14.2443106 131.84547,15.2674027 131.277073,15.8164025 C130.746827,15.3438105 129.648185,14.4714977 128.966409,13.9796162 L128.966409,13.9046015 C129.163376,13.83816 129.307618,13.6495519 129.307618,13.2037507 L129.307618,7.93761772 C128.75819,7.54004027 127.678408,6.85794311 127.091472,6.47911931 L126.674605,6.83886796 L126.674605,13.4685523 L127.602429,14.1506495 C127.602429,14.1506495 126.314535,15.2683672 125.746353,15.817367 C125.234754,15.3249497 124.477106,14.7566604 123.795545,14.2452751 L123.795545,14.1694031 C123.992512,14.1029616 124.13654,13.9143534 124.13654,13.4685523 L124.13654,7.93761772 C123.587111,7.53971878 122.507329,6.85783594 121.920179,6.47911931 L121.409008,6.91452556 L121.409008,13.4682308 L122.336725,14.1497922 C122.336725,14.1497922 121.085267,15.1957102 120.480649,15.7968987 C119.91236,15.2857277 119.286845,14.8227804 118.52984,14.2430246 L118.52984,14.1862278 C118.74256,14.0994252 118.870835,13.8443755 118.870835,13.5421738 L118.870835,7.19808079 L118.056391,6.47794051 L117.544898,6.91302526 L117.355433,6.70512762 C117.923722,6.23146392 118.870728,5.39773008 119.685172,4.62079301 L121.408901,6.17359551 L121.408901,6.60868026 L123.756858,4.61972137 C124.495217,5.15018185 126.673855,6.53259401 126.673855,6.53259401 L128.92858,4.61864974 C129.647649,5.18661752 131.295827,6.21003117 132.204576,6.73942002 L132.204576,6.81486329 C131.901302,6.89630772 131.863795,7.28852699 131.863795,7.49663896 L131.863795,13.1988212 L132.905426,13.974901 L133.397308,13.5205267 L133.605206,13.7284244 L133.607027,13.7328181 Z M117.43109,2.55778398 C116.825187,3.40994999 116.332662,3.80752744 115.347506,3.80752744 C114.684377,3.80752744 114.23011,3.44788595 113.64296,2.80393908 L113.169296,3.23934533 L112.980688,3.01215821 L115.291138,0.947648893 C115.954481,2.29233942 116.806433,2.50066571 117.39369,2.4818049 L117.432269,2.55681951 L117.43109,2.55778398 Z" id="Shape"></path>
                <path d="M117.999058,13.7328181 C117.336143,14.3014288 116.273936,15.2151068 115.669319,15.8164025 C115.101137,15.3052315 114.134734,14.559372 113.377729,13.9796162 L113.377729,13.9228194 C113.589914,13.8360168 113.71851,13.5809671 113.71851,13.2787653 L113.71851,7.19818796 L112.904066,6.47836916 L112.392895,6.91377541 L112.203215,6.70587777 C112.771611,6.23221407 113.71851,5.39869455 114.532526,4.62197181 L116.597571,6.45950835 L116.597571,6.53473729 C116.351309,6.6097519 116.256147,6.76406768 116.256147,7.32989219 L116.256147,13.2024648 L117.298207,13.9601124 L117.790732,13.523956 L117.999165,13.7318536 L117.999058,13.7328181 Z M78.5817724,13.7328181 C77.9188576,14.3014288 76.8570793,15.2151068 76.2524615,15.8164025 C75.6844937,15.3052315 74.7178769,14.559372 73.9613009,13.9796162 L73.9613009,13.9228194 C74.1745567,13.8360168 74.3020816,13.5809671 74.3020816,13.2787653 L74.3020816,3.44852893 L73.4876372,2.72871014 L72.9764662,3.16443788 L72.787858,2.9554686 C73.3568974,2.4818049 74.1713418,1.64807105 74.9857862,0.871133987 L77.1826427,2.70792037 L77.1826427,2.78400662 C76.9372378,2.85902124 76.8418621,3.01333701 76.8418621,3.57916152 L76.8418621,13.2013931 L77.8845652,13.9579691 L78.3775183,13.5218127 L78.5864876,13.7297103 L78.5817724,13.7328181 Z M55.8901734,13.7328181 C55.2840553,14.2443106 54.1284016,15.2674027 53.5604339,15.8164025 C53.0299734,15.3438105 51.9506203,14.4714977 51.2686303,13.9796162 L51.2686303,13.9046015 C51.46549,13.83816 51.6096253,13.6495519 51.6096253,13.2037507 L51.6096253,7.93761772 C51.060304,7.54004027 49.9807365,6.85794311 49.3934792,6.47911931 L48.8819868,6.91463272 L48.8819868,13.4680165 L49.810239,14.1501137 C49.810239,14.1501137 48.5587809,15.1964603 47.9539488,15.7980775 C47.3856595,15.2869065 46.7601448,14.8246022 46.0030331,14.2448464 L46.0030331,14.1880496 C46.2158602,14.101247 46.3440281,13.8461973 46.3440281,13.5439956 L46.3440281,7.19818796 L45.5295837,6.47847633 L45.0180912,6.91388257 L44.8284114,6.70598493 C45.396915,6.23232123 46.3440281,5.39858739 47.1583653,4.62197181 L48.8815581,6.17520296 L48.8815581,6.61071637 L51.2305871,4.62175749 C51.9507274,5.19047542 53.5785445,6.21313892 54.4883646,6.7435994 L54.4883646,6.819257 C54.1850913,6.90037994 54.1475839,7.2929207 54.1475839,7.50113983 L54.1475839,13.2022504 L55.1892154,13.9786517 L55.681097,13.5242775 L55.8889946,13.7324966 L55.8901734,13.7328181 Z M109.059031,4.88752354 C109.059031,5.02008508 108.945973,5.0767747 108.850705,5.0767747 C108.687494,5.0767747 108.547646,4.75474768 108.093057,4.75474768 C107.424141,4.75474768 106.861746,5.37308242 106.861746,6.04178411 C106.861746,7.80355589 108.60455,8.5215529 108.60455,10.5308729 C108.60455,12.2154868 106.955085,13.1885335 105.251932,13.4103624 L104.930012,13.1831753 C105.863408,13.0610086 106.312424,12.7459473 106.312424,11.6100117 C106.312424,10.075427 104.721365,8.83018445 104.721365,7.02661882 C104.721365,5.56597714 106.084487,4.4311132 107.959853,4.4311132 C108.324209,4.4311132 108.689638,4.54042021 108.88789,4.63901085 C109.001484,4.69580762 109.058281,4.77082224 109.058281,4.8844158 L109.059031,4.88752354 Z" id="Shape"></path>
            </g>
        </g>
    </g>
</svg>