<?xml version="1.0" encoding="UTF-8"?>
<svg width="148px" height="20px" viewBox="0 0 148 20" version="1.1" xmlns="http://www.w3.org/2000/svg" xmlns:xlink="http://www.w3.org/1999/xlink">
    <!-- Generator: sketchtool 42 (36781) - http://www.bohemiancoding.com/sketch -->
    <title>9E14D3E6-60CC-40AC-9F4F-18AA45E35B97</title>
    <desc>Created with sketchtool.</desc>
    <defs></defs>
    <g id="Symbols" stroke="none" stroke-width="1" fill="none" fill-rule="evenodd">
        <g id="Logo:-Touchdown-Loyal">
            <g transform="translate(3.000000, 0.000000)">
                <g id="Text" transform="translate(16.000000, 5.000000)">
                    <polygon id="Shape" fill="#272727" fill-rule="nonzero" points="126.00009 2.1447695 126.00009 0.884065403 125.53562 0.884065403 125.53562 0.718183284 126.663618 0.718183284 126.663618 0.884065403 126.199148 0.884065403 126.199148 2.1447695"></polygon>
                    <path d="M126.862677,2.1447695 L126.862677,0.718183284 L127.161264,0.718183284 L127.493029,1.713476 C127.526205,1.81300527 127.559381,1.87935811 127.559381,1.91253454 C127.559381,1.84618169 127.592558,1.77982884 127.625734,1.68029957 L127.957499,0.685006861 L128.22291,0.685006861 L128.22291,2.11159308 L128.057028,2.11159308 L128.057028,0.917241827 L127.658911,2.11159308 L127.493029,2.11159308 L127.094911,0.884065403 L127.094911,2.11159308 L126.862677,2.11159308 L126.862677,2.1447695 Z" id="Shape" fill="#272727" fill-rule="nonzero"></path>
                    <path d="M7.84023377,2.62203306 L5.29623377,2.62203306 L5.29623377,9.87603306 L3.49023377,9.87603306 L3.49023377,2.62203306 L0.946233766,2.62203306 L0.946233766,1.17003306 L7.84023377,1.17003306 L7.84023377,2.62203306 Z M17.3382338,5.52003306 C17.3382338,6.15603624 17.2312348,6.74603034 17.0172338,7.29003306 C16.8032327,7.83403578 16.5012357,8.30403108 16.1112338,8.70003306 C15.7212318,9.09603504 15.2522365,9.40703193 14.7042338,9.63303306 C14.156231,9.85903419 13.5482371,9.97203306 12.8802338,9.97203306 C12.2122304,9.97203306 11.6042365,9.85903419 11.0562338,9.63303306 C10.508231,9.40703193 10.0382357,9.09603504 9.64623377,8.70003306 C9.25423181,8.30403108 8.95123484,7.83403578 8.73723377,7.29003306 C8.5232327,6.74603034 8.41623377,6.15603624 8.41623377,5.52003306 C8.41623377,4.88402988 8.5232327,4.29503577 8.73723377,3.75303306 C8.95123484,3.21103035 9.25423181,2.74203504 9.64623377,2.34603306 C10.0382357,1.95003108 10.508231,1.63903419 11.0562338,1.41303306 C11.6042365,1.18703193 12.2122304,1.07403306 12.8802338,1.07403306 C13.5482371,1.07403306 14.156231,1.18703193 14.7042338,1.41303306 C15.2522365,1.63903419 15.7212318,1.95103107 16.1112338,2.34903306 C16.5012357,2.74703505 16.8032327,3.21703035 17.0172338,3.75903306 C17.2312348,4.30103577 17.3382338,4.8880299 17.3382338,5.52003306 Z M15.4962338,5.52003306 C15.4962338,5.06403078 15.4362344,4.65503487 15.3162338,4.29303306 C15.1962332,3.93103125 15.0232349,3.62303433 14.7972338,3.36903306 C14.5712326,3.11503179 14.2972354,2.92103373 13.9752338,2.78703306 C13.6532322,2.65303239 13.2882358,2.58603306 12.8802338,2.58603306 C12.4722317,2.58603306 12.1062354,2.65303239 11.7822338,2.78703306 C11.4582321,2.92103373 11.1832349,3.11503179 10.9572338,3.36903306 C10.7312326,3.62303433 10.5582344,3.93103125 10.4382338,4.29303306 C10.3182332,4.65503487 10.2582338,5.06403078 10.2582338,5.52003306 C10.2582338,5.98003536 10.3182332,6.39103125 10.4382338,6.75303306 C10.5582344,7.11503487 10.7312326,7.4220318 10.9572338,7.67403306 C11.1832349,7.92603432 11.4582321,8.11903239 11.7822338,8.25303306 C12.1062354,8.38703373 12.4722317,8.45403306 12.8802338,8.45403306 C13.2882358,8.45403306 13.6532322,8.38703373 13.9752338,8.25303306 C14.2972354,8.11903239 14.5712326,7.92603432 14.7972338,7.67403306 C15.0232349,7.4220318 15.1962332,7.11503487 15.3162338,6.75303306 C15.4362344,6.39103125 15.4962338,5.98003536 15.4962338,5.52003306 Z M22.2222338,8.43603306 C22.5142352,8.43603306 22.7762326,8.38703355 23.0082338,8.28903306 C23.2402349,8.19103257 23.436233,8.05203396 23.5962338,7.87203306 C23.7562346,7.69203216 23.8782333,7.47403434 23.9622338,7.21803306 C24.0462342,6.96203178 24.0882338,6.67403466 24.0882338,6.35403306 L24.0882338,1.17003306 L25.8882338,1.17003306 L25.8882338,6.35403306 C25.8882338,6.8820357 25.8032346,7.36703085 25.6332338,7.80903306 C25.4632329,8.25103527 25.2202353,8.63203146 24.9042338,8.95203306 C24.5882322,9.27203466 24.204236,9.52203216 23.7522338,9.70203306 C23.3002315,9.88203396 22.7902366,9.97203306 22.2222338,9.97203306 C21.6542309,9.97203306 21.143236,9.88203396 20.6892338,9.70203306 C20.2352315,9.52203216 19.8502353,9.27203466 19.5342338,8.95203306 C19.2182322,8.63203146 18.9752346,8.25103527 18.8052338,7.80903306 C18.6352329,7.36703085 18.5502338,6.8820357 18.5502338,6.35403306 L18.5502338,1.17003306 L20.3502338,1.17003306 L20.3502338,6.35403306 C20.3502338,6.67403466 20.3922333,6.96203178 20.4762338,7.21803306 C20.5602342,7.47403434 20.682233,7.69203216 20.8422338,7.87203306 C21.0022346,8.05203396 21.1982326,8.19103257 21.4302338,8.28903306 C21.6622349,8.38703355 21.9262323,8.43603306 22.2222338,8.43603306 Z M33.5322338,7.73403306 C33.6322343,7.73403306 33.7162334,7.7700327 33.7842338,7.84203306 L34.4982338,8.60403306 C34.146232,9.0520353 33.7092364,9.3920319 33.1872338,9.62403306 C32.6652312,9.85603422 32.0442374,9.97203306 31.3242338,9.97203306 C30.6722305,9.97203306 30.0862364,9.86103417 29.5662338,9.63903306 C29.0462312,9.41703195 28.6042356,9.10803504 28.2402338,8.71203306 C27.8762319,8.31603108 27.5962347,7.84603578 27.4002338,7.30203306 C27.2042328,6.75803034 27.1062338,6.16403628 27.1062338,5.52003306 C27.1062338,5.0880309 27.1532333,4.67703501 27.2472338,4.28703306 C27.3412342,3.89703111 27.4782329,3.5380347 27.6582338,3.21003306 C27.8382347,2.88203142 28.0552325,2.58603438 28.3092338,2.32203306 C28.563235,2.05803174 28.8502322,1.83303399 29.1702338,1.64703306 C29.4902354,1.46103213 29.8392319,1.31903355 30.2172338,1.22103306 C30.5952357,1.12303257 30.9982316,1.07403306 31.4262338,1.07403306 C31.7462354,1.07403306 32.0492323,1.10203278 32.3352338,1.15803306 C32.6212352,1.21403334 32.8882325,1.29203256 33.1362338,1.39203306 C33.384235,1.49203356 33.6132327,1.61303235 33.8232338,1.75503306 C34.0332348,1.89703377 34.2222329,2.05203222 34.3902338,2.22003306 L33.7842338,3.04803306 C33.7482336,3.10003332 33.702234,3.14603286 33.6462338,3.18603306 C33.5902335,3.22603326 33.5142342,3.24603306 33.4182338,3.24603306 C33.3222333,3.24603306 33.2252343,3.2120334 33.1272338,3.14403306 C33.0292333,3.07603272 32.9092345,3.00003348 32.7672338,2.91603306 C32.6252331,2.83203264 32.4472348,2.7560334 32.2332338,2.68803306 C32.0192327,2.62003272 31.7482354,2.58603306 31.4202338,2.58603306 C31.0562319,2.58603306 30.7222353,2.6520324 30.4182338,2.78403306 C30.1142322,2.91603372 29.8532349,3.10703181 29.6352338,3.35703306 C29.4172327,3.60703431 29.2482344,3.91403124 29.1282338,4.27803306 C29.0082332,4.64203488 28.9482338,5.05603074 28.9482338,5.52003306 C28.9482338,5.9880354 29.0132331,6.40503123 29.1432338,6.77103306 C29.2732344,7.13703489 29.4512326,7.4460318 29.6772338,7.69803306 C29.9032349,7.95003432 30.1672323,8.14103241 30.4692338,8.27103306 C30.7712353,8.40103371 31.094232,8.46603306 31.4382338,8.46603306 C31.6422348,8.46603306 31.8272329,8.45603316 31.9932338,8.43603306 C32.1592346,8.41603296 32.3132331,8.3820333 32.4552338,8.33403306 C32.5972345,8.28603282 32.7312331,8.22403344 32.8572338,8.14803306 C32.9832344,8.07203268 33.1102331,7.97603364 33.2382338,7.86003306 C33.282234,7.82403288 33.3282335,7.79403318 33.3762338,7.77003306 C33.424234,7.74603294 33.4762335,7.73403306 33.5322338,7.73403306 Z M42.9702338,1.17003306 L42.9702338,9.87603306 L41.1582338,9.87603306 L41.1582338,6.12603306 L37.3242338,6.12603306 L37.3242338,9.87603306 L35.5122338,9.87603306 L35.5122338,1.17003306 L37.3242338,1.17003306 L37.3242338,4.86603306 L41.1582338,4.86603306 L41.1582338,1.17003306 L42.9702338,1.17003306 Z M52.6002338,5.52003306 C52.6002338,6.15603624 52.4932348,6.74103039 52.2792338,7.27503306 C52.0652327,7.80903573 51.7632357,8.26803114 51.3732338,8.65203306 C50.9832318,9.03603498 50.5142365,9.33603198 49.9662338,9.55203306 C49.418231,9.76803414 48.8102371,9.87603306 48.1422338,9.87603306 L44.7942338,9.87603306 L44.7942338,1.17003306 L48.1422338,1.17003306 C48.8102371,1.17003306 49.418231,1.27803198 49.9662338,1.49403306 C50.5142365,1.71003414 50.9832318,2.01103113 51.3732338,2.39703306 C51.7632357,2.78303499 52.0652327,3.2420304 52.2792338,3.77403306 C52.4932348,4.30603572 52.6002338,4.8880299 52.6002338,5.52003306 Z M50.7522338,5.52003306 C50.7522338,5.06403078 50.6922344,4.65403488 50.5722338,4.29003306 C50.4522332,3.92603124 50.2802349,3.61803432 50.0562338,3.36603306 C49.8322326,3.1140318 49.5592354,2.92003374 49.2372338,2.78403306 C48.9152322,2.64803238 48.5502358,2.58003306 48.1422338,2.58003306 L46.6062338,2.58003306 L46.6062338,8.46603306 L48.1422338,8.46603306 C48.5502358,8.46603306 48.9152322,8.39903373 49.2372338,8.26503306 C49.5592354,8.13103239 49.8322326,7.93703433 50.0562338,7.68303306 C50.2802349,7.42903179 50.4522332,7.12003488 50.5722338,6.75603306 C50.6922344,6.39203124 50.7522338,5.98003536 50.7522338,5.52003306 Z M62.3382338,5.52003306 C62.3382338,6.15603624 62.2312348,6.74603034 62.0172338,7.29003306 C61.8032327,7.83403578 61.5012357,8.30403108 61.1112338,8.70003306 C60.7212318,9.09603504 60.2522365,9.40703193 59.7042338,9.63303306 C59.156231,9.85903419 58.5482371,9.97203306 57.8802338,9.97203306 C57.2122304,9.97203306 56.6042365,9.85903419 56.0562338,9.63303306 C55.508231,9.40703193 55.0382357,9.09603504 54.6462338,8.70003306 C54.2542318,8.30403108 53.9512348,7.83403578 53.7372338,7.29003306 C53.5232327,6.74603034 53.4162338,6.15603624 53.4162338,5.52003306 C53.4162338,4.88402988 53.5232327,4.29503577 53.7372338,3.75303306 C53.9512348,3.21103035 54.2542318,2.74203504 54.6462338,2.34603306 C55.0382357,1.95003108 55.508231,1.63903419 56.0562338,1.41303306 C56.6042365,1.18703193 57.2122304,1.07403306 57.8802338,1.07403306 C58.5482371,1.07403306 59.156231,1.18703193 59.7042338,1.41303306 C60.2522365,1.63903419 60.7212318,1.95103107 61.1112338,2.34903306 C61.5012357,2.74703505 61.8032327,3.21703035 62.0172338,3.75903306 C62.2312348,4.30103577 62.3382338,4.8880299 62.3382338,5.52003306 Z M60.4962338,5.52003306 C60.4962338,5.06403078 60.4362344,4.65503487 60.3162338,4.29303306 C60.1962332,3.93103125 60.0232349,3.62303433 59.7972338,3.36903306 C59.5712326,3.11503179 59.2972354,2.92103373 58.9752338,2.78703306 C58.6532322,2.65303239 58.2882358,2.58603306 57.8802338,2.58603306 C57.4722317,2.58603306 57.1062354,2.65303239 56.7822338,2.78703306 C56.4582321,2.92103373 56.1832349,3.11503179 55.9572338,3.36903306 C55.7312326,3.62303433 55.5582344,3.93103125 55.4382338,4.29303306 C55.3182332,4.65503487 55.2582338,5.06403078 55.2582338,5.52003306 C55.2582338,5.98003536 55.3182332,6.39103125 55.4382338,6.75303306 C55.5582344,7.11503487 55.7312326,7.4220318 55.9572338,7.67403306 C56.1832349,7.92603432 56.4582321,8.11903239 56.7822338,8.25303306 C57.1062354,8.38703373 57.4722317,8.45403306 57.8802338,8.45403306 C58.2882358,8.45403306 58.6532322,8.38703373 58.9752338,8.25303306 C59.2972354,8.11903239 59.5712326,7.92603432 59.7972338,7.67403306 C60.0232349,7.4220318 60.1962332,7.11503487 60.3162338,6.75303306 C60.4362344,6.39103125 60.4962338,5.98003536 60.4962338,5.52003306 Z M75.3702338,1.17003306 L72.6702338,9.87603306 L71.0442338,9.87603306 L69.2622338,4.18203306 C69.2342336,4.10203266 69.2062339,4.01403354 69.1782338,3.91803306 C69.1502336,3.82203258 69.1242339,3.7200336 69.1002338,3.61203306 C69.0762336,3.7200336 69.0502339,3.82203258 69.0222338,3.91803306 C68.9942336,4.01403354 68.9662339,4.10203266 68.9382338,4.18203306 L67.1382338,9.87603306 L65.5062338,9.87603306 L62.8122338,1.17003306 L64.3242338,1.17003306 C64.4802345,1.17003306 64.6112332,1.2060327 64.7172338,1.27803306 C64.8232343,1.35003342 64.8922336,1.44603246 64.9242338,1.56603306 L66.2742338,6.47403306 C66.3062339,6.61003374 66.3392336,6.75703227 66.3732338,6.91503306 C66.4072339,7.07303385 66.4402336,7.24003218 66.4722338,7.41603306 C66.5082339,7.23603216 66.5462336,7.06803384 66.5862338,6.91203306 C66.626234,6.75603228 66.6702335,6.61003374 66.7182338,6.47403306 L68.2902338,1.56603306 C68.3222339,1.46603256 68.3912332,1.37503347 68.4972338,1.29303306 C68.6032343,1.21103265 68.732233,1.17003306 68.8842338,1.17003306 L69.4122338,1.17003306 C69.5682345,1.17003306 69.6952333,1.20703269 69.7932338,1.28103306 C69.8912343,1.35503343 69.9642335,1.45003248 70.0122338,1.56603306 L71.5782338,6.47403306 C71.626234,6.6020337 71.6702336,6.74103231 71.7102338,6.89103306 C71.750234,7.04103381 71.7882336,7.20003222 71.8242338,7.36803306 C71.8562339,7.20003222 71.8872336,7.04103381 71.9172338,6.89103306 C71.9472339,6.74103231 71.9782336,6.6020337 72.0102338,6.47403306 L73.3602338,1.56603306 C73.3882339,1.46203254 73.4562332,1.37003346 73.5642338,1.29003306 C73.6722343,1.21003266 73.802233,1.17003306 73.9542338,1.17003306 L75.3702338,1.17003306 Z M83.8062338,1.17003306 L83.8062338,9.87603306 L82.8762338,9.87603306 C82.7362331,9.87603306 82.6182342,9.85303329 82.5222338,9.80703306 C82.4262333,9.76103283 82.3322342,9.68203362 82.2402338,9.57003306 L77.9022338,4.05003306 C77.9142338,4.19003376 77.9232337,4.32803238 77.9292338,4.46403306 C77.9352338,4.60003374 77.9382338,4.72603248 77.9382338,4.84203306 L77.9382338,9.87603306 L76.3482338,9.87603306 L76.3482338,1.17003306 L77.2962338,1.17003306 C77.3722341,1.17003306 77.4372335,1.17303303 77.4912338,1.17903306 C77.545234,1.18503309 77.5942335,1.19903295 77.6382338,1.22103306 C77.682234,1.24303317 77.7242336,1.27203288 77.7642338,1.30803306 C77.804234,1.34403324 77.8482335,1.39203276 77.8962338,1.45203306 L82.2642338,6.99603306 C82.2482337,6.8440323 82.2362338,6.69703377 82.2282338,6.55503306 C82.2202337,6.41303235 82.2162338,6.2780337 82.2162338,6.15003306 L82.2162338,1.17003306 L83.8062338,1.17003306 Z M93.8682338,9.35403306 L93.8682338,9.87603306 L89.2302338,9.87603306 L89.2302338,1.38603306 L89.8482338,1.38603306 L89.8482338,9.35403306 L93.8682338,9.35403306 Z M102.844234,5.62803306 C102.844234,6.28403634 102.746235,6.87903039 102.550234,7.41303306 C102.354233,7.94703573 102.078236,8.40303117 101.722234,8.78103306 C101.366232,9.15903495 100.939236,9.45103203 100.441234,9.65703306 C99.9432313,9.86303409 99.3942368,9.96603306 98.7942338,9.96603306 C98.1942308,9.96603306 97.6462362,9.86303409 97.1502338,9.65703306 C96.6542313,9.45103203 96.2282355,9.15903495 95.8722338,8.78103306 C95.516232,8.40303117 95.2402347,7.94703573 95.0442338,7.41303306 C94.8482328,6.87903039 94.7502338,6.28403634 94.7502338,5.62803306 C94.7502338,4.9760298 94.8482328,4.38303573 95.0442338,3.84903306 C95.2402347,3.31503039 95.516232,2.85903495 95.8722338,2.48103306 C96.2282355,2.10303117 96.6542313,1.8100341 97.1502338,1.60203306 C97.6462362,1.39403202 98.1942308,1.29003306 98.7942338,1.29003306 C99.3942368,1.29003306 99.9432313,1.39303203 100.441234,1.59903306 C100.939236,1.80503409 101.366232,2.09803116 101.722234,2.47803306 C102.078236,2.85803496 102.354233,3.31503039 102.550234,3.84903306 C102.746235,4.38303573 102.844234,4.9760298 102.844234,5.62803306 Z M102.208234,5.62803306 C102.208234,5.0360301 102.126235,4.50403542 101.962234,4.03203306 C101.798233,3.5600307 101.566235,3.1600347 101.266234,2.83203306 C100.966232,2.50403142 100.606236,2.25303393 100.186234,2.07903306 C99.7662317,1.90503219 99.3022363,1.81803306 98.7942338,1.81803306 C98.2902312,1.81803306 97.8282359,1.90503219 97.4082338,2.07903306 C96.9882317,2.25303393 96.6272353,2.50403142 96.3252338,2.83203306 C96.0232323,3.1600347 95.7892346,3.5600307 95.6232338,4.03203306 C95.4572329,4.50403542 95.3742338,5.0360301 95.3742338,5.62803306 C95.3742338,6.22403604 95.4572329,6.75703071 95.6232338,7.22703306 C95.7892346,7.69703541 96.0232323,8.09603142 96.3252338,8.42403306 C96.6272353,8.7520347 96.9882317,9.0020322 97.4082338,9.17403306 C97.8282359,9.34603392 98.2902312,9.43203306 98.7942338,9.43203306 C99.3022363,9.43203306 99.7662317,9.34603392 100.186234,9.17403306 C100.606236,9.0020322 100.966232,8.7520347 101.266234,8.42403306 C101.566235,8.09603142 101.798233,7.69703541 101.962234,7.22703306 C102.126235,6.75703071 102.208234,6.22403604 102.208234,5.62803306 Z M107.422234,6.37803306 L107.422234,9.87603306 L106.810234,9.87603306 L106.810234,6.37803306 L103.666234,1.38603306 L104.206234,1.38603306 C104.262234,1.38603306 104.308234,1.39903293 104.344234,1.42503306 C104.380234,1.45103319 104.410234,1.48803282 104.434234,1.53603306 L106.864234,5.43603306 C106.916234,5.52803352 106.964234,5.61703263 107.008234,5.70303306 C107.052234,5.78903349 107.090234,5.87403264 107.122234,5.95803306 C107.154234,5.87403264 107.190234,5.78903349 107.230234,5.70303306 C107.270234,5.61703263 107.316234,5.52803352 107.368234,5.43603306 L109.798234,1.53603306 C109.818234,1.49203284 109.847234,1.4560332 109.885234,1.42803306 C109.923234,1.40003292 109.970233,1.38603306 110.026234,1.38603306 L110.566234,1.38603306 L107.422234,6.37803306 Z M116.518234,6.79203306 L114.790234,2.50203306 C114.730233,2.36203236 114.672234,2.19403404 114.616234,1.99803306 C114.592234,2.09403354 114.566234,2.18503263 114.538234,2.27103306 C114.510234,2.35703349 114.480234,2.4360327 114.448234,2.50803306 L112.720234,6.79203306 L116.518234,6.79203306 Z M118.396234,9.87603306 L117.922234,9.87603306 C117.866233,9.87603306 117.820234,9.86103321 117.784234,9.83103306 C117.748234,9.80103291 117.720234,9.7620333 117.700234,9.71403306 L116.704234,7.24803306 L112.534234,7.24803306 L111.538234,9.71403306 C111.522234,9.75803328 111.494234,9.7960329 111.454234,9.82803306 C111.414234,9.86003322 111.366234,9.87603306 111.310234,9.87603306 L110.842234,9.87603306 L114.316234,1.38603306 L114.922234,1.38603306 L118.396234,9.87603306 Z M124.444234,9.35403306 L124.444234,9.87603306 L119.806234,9.87603306 L119.806234,1.38603306 L120.424234,1.38603306 L120.424234,9.35403306 L124.444234,9.35403306 Z" id="TOUCHDOWN-LOYAL" fill="#1E1E1E"></path>
                </g>
                <g id="icon-t-d-l-(1)" fill-rule="nonzero">
                    <g id="C8B8BD0E-AC19-43DE-B26B-BAD4EA4713FB">
                        <g id="Symbols" transform="translate(-3.000000, 0.000000)">
                            <g id="Icon:-TDL">
                                <g id="Page-1">
                                    <g id="Group" transform="translate(0.121120, 0.120587)">
                                        <path d="M0.0632502833,0.72165058 L0.0632502833,14.2265055 C3.31521221,17.9823879 7.76235355,19.4185423 7.76235355,19.4185423 C7.76235355,19.4185423 12.2094532,17.9823879 15.4614152,14.2265055 L15.4614152,0.72165058 C15.4614152,0.72165058 11.1810828,2.21302568 7.76235355,2.32346722 C4.34362434,2.43390877 0.0632502833,0.72165058 0.0632502833,0.72165058" id="Fill-8" fill="#0B3656"></path>
                                        <path d="M1.14821583,2.00680278 L1.14821583,13.6551036 C3.95072356,16.8945721 7.78319741,18.1333901 7.78319741,18.1333901 C7.78319741,18.1333901 11.615713,16.8945721 14.418179,13.6551036 L14.418179,2.00680278 C14.418179,2.00680278 10.7293796,3.29313679 7.78319741,3.38837622 C4.83697349,3.48365715 1.14821583,2.00680278 1.14821583,2.00680278" id="Fill-10" fill="#FFFFFF"></path>
                                        <path d="M1.69069861,2.67010714 L1.69069861,13.3602139 C4.26407365,16.3332474 7.78321829,17.4700858 7.78321829,17.4700858 C7.78321829,17.4700858 11.3023212,16.3332474 13.8756962,13.3602139 L13.8756962,2.67010714 C13.8756962,2.67010714 10.4885185,3.85063977 7.78321829,3.93806973 C5.07787636,4.02549969 1.69069861,2.67010714 1.69069861,2.67010714" id="Fill-12" fill="#CD1143"></path>
                                        <path d="M7.78319741,4.35377017 L7.78319741,17.0140639 C7.9147872,16.9708208 11.1332315,15.8945477 13.5001313,13.1700542 L13.5001313,3.16758541 C13.5001313,3.16758541 10.3230939,4.27076626 7.78319741,4.35377017" id="Fill-14" fill="#B00F3A"></path>
                                        <path d="M6.90273024,18.5894118 L6.90273024,15.864023 C6.90218776,15.8350983 6.90519227,15.5735317 7.14225633,15.3616806 L7.14225633,14.301927 L3.30787766,14.301927 C3.28062844,14.3052469 3.23743862,14.3091063 3.18410861,14.3091063 C2.76472931,14.3091063 2.31664027,14.072439 2.31664027,13.408376 L2.31664027,2.52375197 L2.34092671,2.47059208 C2.36058119,2.42747488 2.54460734,2.04825931 2.92576262,2.04825931 C2.95559905,2.04825931 3.22233263,2.05390313 3.40514862,2.24815878 C3.51748385,2.36759218 3.57114772,2.52806784 3.56046501,2.71273727 L3.5605902,13.0934835 L7.74207305,13.1377626 L11.9221788,13.0934835 L11.9221788,2.70867041 C11.9115378,2.52682288 11.9652017,2.36771667 12.0776204,2.24824177 C12.2604781,2.05390313 12.5272951,2.04825931 12.5571315,2.04825931 C12.9389128,2.04825931 13.1224799,2.42768238 13.1420926,2.47096556 L13.1662956,2.52362748 L13.1662956,13.408376 C13.1662956,13.8286338 12.9816018,14.0464192 12.826661,14.1551045 C12.6454308,14.2823811 12.4395385,14.3091063 12.2987021,14.3091063 C12.2452887,14.3091063 12.2021406,14.3052469 12.1748913,14.301927 L8.34055443,14.301927 L8.34055443,15.3617636 C8.577076,15.5734487 8.58058127,15.8359698 8.58003878,15.8683389 L8.58008051,18.5894118 L6.90273024,18.5894118 Z" id="Fill-16" fill="#FFFFFF"></path>
                                        <path d="M12.5362659,2.33845496 C12.5362659,2.33845496 12.14689,2.33845496 12.1725536,2.72266257 L12.1725536,13.3812489 L7.72054065,13.4283515 L3.26848603,13.3812489 L3.26848603,2.72266257 C3.29414955,2.33845496 2.90489886,2.33845496 2.90489886,2.33845496 C2.68765627,2.33845496 2.56701692,2.60264438 2.56701692,2.60264438 L2.56701692,13.42914 C2.56701692,14.1734021 3.26848603,14.0530104 3.26848603,14.0530104 L7.39263201,14.0530104 L7.39263201,15.5177552 C7.14926688,15.661885 7.15310598,15.8848649 7.15310598,15.8848649 L7.15310598,18.3406727 L7.6360806,18.3406727 L7.8050007,18.3406727 L8.28797534,18.3406727 L8.28797534,15.8848649 C8.28797534,15.8848649 8.29181443,15.661885 8.0484493,15.5177552 L8.0484493,14.0530104 L12.1725536,14.0530104 C12.1725536,14.0530104 12.8741896,14.1734021 12.8741896,13.42914 L12.8741896,2.60264438 C12.8741896,2.60264438 12.7535086,2.33845496 12.5362659,2.33845496" id="Fill-20" fill="#FFFFFF"></path>
                                        <path d="M8.46041498,13.3930532 L8.03357408,13.6975422 L12.3816098,13.6975422 C12.3816098,13.6975422 12.6016308,13.6146655 12.5806765,13.3142375 L12.5806765,2.73005534 C12.5806765,2.73005534 12.372264,2.75839917 12.245951,2.54573758 L12.2263796,2.71074507 L12.2263796,13.1484841 L12.1720658,13.3556758 L8.46041498,13.3930532 Z" id="Fill-22" fill="#A1B1A8"></path>
                                        <path d="M7.74146798,13.7279353 L3.316621,13.7279353 C2.92906091,13.7279353 2.9185863,13.3446541 2.9185863,13.3446541 L2.9185863,2.88211344 C2.82431493,2.86139554 2.70909436,2.76447719 2.70909436,2.76447719 C2.91397748,2.82290167 3.06523066,2.73008547 3.06523066,2.73008547 C2.70909436,2.76447719 2.59387379,2.550627 2.59387379,2.550627 L2.58859459,2.54573758 C2.57439105,2.56964603 2.56701692,2.58559883 2.56701692,2.58559883 L2.56701692,13.395413 C2.56701692,14.1383984 3.27137075,14.0182346 3.27137075,14.0182346 L7.41223043,14.0182346 L7.41223043,15.4807114 C7.16787902,15.6245765 7.17169177,15.8472939 7.17169177,15.8472939 L7.17169177,18.2992162 L7.65666564,18.2992162 L7.74146798,18.2992162 L7.74146798,13.7279353 Z" id="Fill-24" fill="#A1B1A8"></path>
                                        <path d="M7.23656464,18.2577596 L8.24624613,18.2577596 L8.24624613,15.8642589 C8.24624613,15.8559173 8.24420138,15.673149 8.03726592,15.5505981 L8.00672009,15.5325038 L8.00672009,13.9700924 L12.204059,13.9709639 C12.2043094,13.9710469 12.2422831,13.977272 12.298701,13.977272 C12.3911313,13.977272 12.524373,13.9610868 12.6342043,13.8840618 C12.7657351,13.7916817 12.8324601,13.6317387 12.8324601,13.4085074 L12.8324601,2.59650268 C12.8083823,2.55076911 12.7083572,2.37991149 12.5571303,2.37991149 C12.5558784,2.37991149 12.40799,2.38202802 12.3208592,2.47527968 C12.2714101,2.52819283 12.2495439,2.60305976 12.2558868,2.69776393 L12.256012,13.4221196 L7.74207305,13.4698867 L3.22675707,13.4221196 L3.22675707,2.70187249 C3.23326684,2.60268626 3.21123379,2.52761181 3.1613673,2.47465716 C3.07465388,2.38248452 2.92722436,2.37991149 2.92576383,2.37991149 C2.7746204,2.37991149 2.67459533,2.5506031 2.65047581,2.59650268 L2.65047581,13.4085074 C2.65047581,13.9033596 2.98481075,13.977272 3.18410975,13.977272 C3.24052773,13.977272 3.27845964,13.9710469 3.27883521,13.9709639 L3.28935099,13.9700924 L7.47609066,13.9700924 L7.47609066,15.5325038 L7.44554483,15.5505981 C7.23856764,15.673149 7.23652291,15.8559173 7.23656464,15.8636364 L7.23656464,18.2577596 Z M8.371434,18.3821292 L7.11137675,18.3821292 L7.11137675,15.8641682 C7.11120984,15.8549966 7.11016661,15.6234276 7.3509028,15.4627818 L7.3509028,14.0945322 L3.29414941,14.0945322 C3.27958589,14.0966072 3.2389833,14.1017116 3.18410931,14.1017116 C2.98602043,14.1017116 2.52528747,14.0341914 2.52528747,13.4084569 L2.52528747,2.56849218 L2.5308792,2.55624973 C2.53647093,2.54396577 2.6711313,2.25554192 2.92576336,2.25554192 C2.93398402,2.25554192 3.12798343,2.25707742 3.2527957,2.38971089 C3.32724073,2.46885108 3.36054069,2.57529816 3.35181927,2.70614714 L3.35194446,13.2988973 L7.74207305,13.3453356 L12.1308245,13.2988973 L12.1308245,2.70199715 C12.1222283,2.57533965 12.15557,2.46889257 12.2299733,2.38975238 C12.3548273,2.25707742 12.548952,2.25554192 12.5571308,2.25554192 C12.8117629,2.25554192 12.9464232,2.54396577 12.9520151,2.55624973 L12.9576485,2.56849218 L12.9576485,13.4084569 C12.9576485,13.6744708 12.8731049,13.8686901 12.7063548,13.9856781 C12.5697749,14.0816257 12.4092423,14.1017116 12.2987014,14.1017116 C12.2437858,14.1017116 12.2031832,14.0966072 12.1886197,14.0945322 L8.13190795,14.0945322 L8.13190795,15.4627818 C8.37268587,15.6234276 8.37160092,15.8549966 8.371434,15.8652472 L8.371434,18.3821292 Z" id="Fill-26" fill="#0B3656"></path>
                                        <path d="M7.48035815,0.726002359 C7.48035815,0.726002359 5.4833963,1.16598451 4.54324645,2.85319083 C3.6030966,4.54039716 3.90778872,6.12565135 5.04031412,6.54577376 C6.17283953,6.96585472 9.00356805,7.15487456 10.22593,5.10011813 C11.4482919,3.04536171 11.2400801,1.65887065 10.6599032,1.24426252 C10.0796845,0.829654392 8.3700324,0.269933415 7.48035815,0.726002359" id="Fill-28" fill="#FFFFFF"></path>
                                        <path d="M9.21612109,0.728202685 C9.21612109,0.728202685 10.0636156,0.839850678 10.1890403,1.77762739 C10.314465,2.71544561 9.64553335,3.87801305 8.34947841,4.79145888 C8.34947841,4.79145888 8.11953318,3.88839311 7.10568373,3.1825486 C7.10568373,3.1825486 8.34734618,4.14789477 8.20206261,5.78794524 C8.20206261,5.78794524 7.99757858,4.46116517 7.46276778,4.04504908 L6.84413149,4.77721743 C6.84413149,4.77721743 6.66640472,5.49041102 5.70945628,6.01427221 C5.06310113,6.36810792 4.18437588,5.5870702 4.33471825,4.68682781 C4.33471825,4.68682781 4.12684776,6.2654283 4.31498476,6.34846883 C4.50312177,6.43150936 4.74523319,6.77446675 5.02133472,6.80020931 C5.29747804,6.82595187 5.94550551,7.01279307 6.50991655,6.90899241 C7.07432756,6.80519175 8.34772246,6.73880084 9.21612109,6.01427221 C10.0845197,5.28970207 10.878876,4.22383534 10.9415883,3.13749912 C11.0043006,2.05112138 11.0928923,1.52568242 10.6932056,1.25903928 C10.2935608,0.992354612 9.83191442,0.671652083 9.21612109,0.728202685" id="Fill-30" fill="#A1B1A8"></path>
                                        <path d="M6.57116523,3.16079945 C5.62277735,2.51802992 4.98929317,3.02748089 4.98929317,3.02748089 C4.84143007,3.23655905 4.74107201,3.47687396 4.68119977,3.64855128 C4.86257127,3.51664879 5.31865315,3.27433471 5.87300402,3.64505275 C5.87300402,3.64505275 5.23195747,3.24584678 4.65090852,3.74005421 C4.62433578,3.82451844 4.61175968,3.87766261 4.61175968,3.87766261 C5.13431518,3.28762076 5.85198815,3.48058072 6.54998225,4.35012924 C7.24793456,5.21967775 7.15564024,6.02808547 7.15564024,6.02808547 C7.15564024,6.02808547 7.38359761,6.01571571 7.53864706,6.00730262 C7.69361295,5.99888951 7.92616623,5.89126841 7.92616623,5.89126841 C8.0589046,5.04983299 7.64431131,3.88807486 6.57116523,3.16079945" id="Fill-32" fill="#0B3656"></path>
                                        <path d="M9.42871124,1.04270386 C9.42871124,1.04270386 9.43276154,1.00883557 9.41071458,0.989363389 C9.38870939,0.969891206 9.16368846,0.848190058 9.13554519,0.846192911 C9.1073184,0.844195764 9.02560271,0.860172941 9.02560271,0.860172941 C9.02560271,0.860172941 8.87611765,0.848522916 8.84722278,0.863335089 C8.81845318,0.878105656 8.8160731,0.90344446 8.8160731,0.90344446 C8.8160731,0.90344446 8.74529737,0.895747121 8.694105,0.910600903 C8.64295439,0.925454684 8.59146975,0.959780649 8.60729511,0.974509609 C8.62316224,0.989196961 8.70216383,0.973552643 8.75131017,0.986783742 C8.80054002,1.00005645 8.81841142,1.00891879 8.81841142,1.00891879 L8.70132873,1.05435388 C8.70132873,1.05435388 8.53798082,0.999973233 8.45897922,1.01557594 C8.38001939,1.03117866 8.31930676,1.08060804 8.33475632,1.09259093 C8.35024765,1.10449059 8.42653513,1.08926235 8.46674577,1.09808308 C8.50699817,1.10690381 8.55961022,1.125211 8.55961022,1.125211 L8.41375791,1.20775974 C8.41375791,1.20775974 8.28890867,1.1707293 8.22093057,1.18495898 C8.15295245,1.19914704 8.07474422,1.26472004 8.07474422,1.26472004 C8.07474422,1.26472004 8.07482772,1.28697991 8.10330504,1.29172313 C8.13182412,1.29642475 8.17545871,1.2881033 8.23258038,1.31980801 L8.10530931,1.39440977 C8.10530931,1.39440977 7.93995715,1.3680724 7.86713538,1.38850155 C7.79431361,1.40884748 7.74566835,1.46510045 7.74566835,1.46510045 C7.74566835,1.46510045 7.87636337,1.50416964 7.93072916,1.53624881 L7.79698598,1.64783941 C7.79698598,1.64783941 7.6495052,1.60814611 7.57906351,1.62541311 C7.50866357,1.64268011 7.50432099,1.67384394 7.4809796,1.68794878 C7.45763822,1.70209524 7.43158274,1.73875121 7.44636422,1.74524194 C7.46118745,1.75169105 7.55192236,1.76242572 7.61012968,1.80232706 L7.46920453,1.94545592 C7.46920453,1.94545592 7.2813461,1.8958185 7.23232503,1.92764804 C7.1833457,1.95951917 7.18894095,2.00328998 7.17077726,2.01398303 C7.15261358,2.02463449 7.14509757,2.05342669 7.14509757,2.05342669 C7.14509757,2.05342669 7.19867001,2.03545237 7.30798617,2.06054153 C7.30798617,2.06054153 7.18079861,2.17966303 7.12872938,2.23083991 C7.12872938,2.23083991 6.96195751,2.19355983 6.88951155,2.21665185 C6.81706559,2.23978547 6.86733934,2.28347306 6.83819392,2.31779903 C6.80909028,2.35208338 6.82524969,2.36947521 6.86688002,2.36697878 C6.90842684,2.36452394 6.9510593,2.37022413 6.98884813,2.38212381 C6.98884813,2.38212381 6.95598647,2.43084586 6.97014161,2.45406271 C6.98425501,2.47732115 7.08238067,2.54555701 7.08238067,2.54555701 C7.08238067,2.54555701 7.0602502,2.58458459 7.11728835,2.60792624 C7.17432649,2.6313095 7.23282608,2.67395692 7.26643934,2.65298688 C7.30009436,2.63197523 7.33779965,2.59939676 7.33779965,2.59939676 C7.33779965,2.59939676 7.44348308,2.68340175 7.47212742,2.7325815 C7.50077176,2.78184447 7.60298947,2.72987703 7.61088128,2.70387252 C7.61873133,2.6778264 7.54791383,2.53927431 7.41642545,2.42801658 C7.41642545,2.42801658 7.50820425,2.31617634 7.60733205,2.23961904 C7.60733205,2.23961904 7.73886219,2.35087678 7.79886497,2.42676836 C7.85882602,2.50265995 7.85882602,2.50265995 7.87828412,2.45843146 C7.89778398,2.41420298 7.91494554,2.3953133 7.92450757,2.38295595 C7.93411135,2.37068182 7.84437857,2.21502917 7.72558391,2.11604556 C7.72558391,2.11604556 7.79794635,2.04843382 7.89607201,1.98589816 C7.89607201,1.98589816 8.0392102,2.05679687 8.09428584,2.11654486 C8.14940322,2.17633445 8.16836026,2.19343502 8.18965561,2.18511357 C8.21095098,2.17687533 8.26514974,2.14217491 8.25537893,2.08775266 C8.24560813,2.0333304 8.18218137,1.93006125 8.06889844,1.83037033 C8.06889844,1.83037033 8.1167086,1.78813899 8.20748527,1.71258026 C8.20748527,1.71258026 8.33651006,1.80474027 8.40056314,1.86894024 C8.46457447,1.93318179 8.47392774,1.94033824 8.49484728,1.92935394 C8.5158086,1.91836962 8.56612409,1.85350395 8.55192719,1.80798564 C8.53773029,1.76246733 8.44983476,1.64284654 8.37204407,1.58035248 C8.37204407,1.58035248 8.4606077,1.53017416 8.5292539,1.49921839 C8.5292539,1.49921839 8.60804671,1.5476492 8.6638322,1.61293094 C8.71965944,1.67817108 8.73519251,1.71237223 8.7616238,1.7006806 C8.78801335,1.68894735 8.82471651,1.64813066 8.81845318,1.59886771 C8.81214808,1.54956313 8.74767743,1.46031563 8.67706872,1.38862637 L8.78584205,1.34418985 C8.78584205,1.34418985 8.91728867,1.41096945 8.96802173,1.47970459 C9.01862952,1.54839813 9.02760696,1.5528085 9.05566673,1.53254577 C9.08381001,1.51228305 9.10401971,1.47350512 9.07671156,1.4130082 C9.04944515,1.35246968 8.9640132,1.25198822 8.9640132,1.25198822 L9.05829733,1.21495779 C9.05829733,1.21495779 9.16719594,1.31244353 9.20272995,1.37198348 C9.23830572,1.43144021 9.26298328,1.42831967 9.28010306,1.40942998 C9.29730638,1.3905403 9.31563709,1.31585532 9.2955944,1.26833987 C9.27559346,1.2207828 9.20114323,1.14118817 9.20114323,1.14118817 L9.31313175,1.09916487 C9.31313175,1.09916487 9.43071551,1.16769198 9.46048725,1.22515156 C9.49013372,1.28261115 9.5447083,1.25061519 9.53460344,1.19348846 C9.52449858,1.13632013 9.46837906,1.09055217 9.42871124,1.04270386" id="Fill-34" fill="#0B3656"></path>
                                        <path d="M9.25254374,5.79669947 C7.72860637,6.99326986 5.43267191,6.53966068 5.19659665,6.44844828 C4.86810953,6.32148261 4.57379009,6.11257544 4.46831412,5.70124657 C4.27210116,4.93645925 4.30928364,4.04753326 4.89201854,2.87095977 C5.87685181,0.882537671 7.95090567,0.709300621 8.74693737,0.722271573 C9.99301108,0.742642621 10.5896894,1.28995862 10.7727545,2.19322748 C10.9559871,3.09657951 10.7564244,4.61592706 9.25254374,5.79669947 M11.3851299,2.04721209 C11.2047584,1.15701832 10.598533,0.0894747757 8.7347637,0.0590517977 C8.70697244,0.0585952455 8.6777185,0.058346217 8.64725259,0.058346217 C7.71091719,0.058346217 5.41214166,0.302684651 4.29154815,2.56581388 C3.70341834,3.75359666 3.55422319,4.793 3.82189685,5.83688584 C3.96461434,6.39350597 4.34215748,6.79373622 4.94412022,7.02645333 C5.16306515,7.11112301 5.80004907,7.23028314 6.53060382,7.23032464 L6.53077098,7.23032464 C7.39422227,7.23032464 8.63341966,7.06542628 9.63306898,6.28028103 C11.2932307,4.97640947 11.6266422,3.2386473 11.3851299,2.04721209" id="Fill-36" fill="#0B3656"></path>
                                    </g>
                                </g>
                            </g>
                        </g>
                    </g>
                </g>
            </g>
        </g>
    </g>
</svg>