<?xml version="1.0" encoding="UTF-8"?>
<svg width="85px" height="20px" viewBox="0 0 85 20" version="1.1" xmlns="http://www.w3.org/2000/svg" xmlns:xlink="http://www.w3.org/1999/xlink">
    <!-- Generator: sketchtool 42 (36781) - http://www.bohemiancoding.com/sketch -->
    <title>18314CAC-332E-48D0-8C88-4FF55A5433AF</title>
    <desc>Created with sketchtool.</desc>
    <defs></defs>
    <g id="Symbols" stroke="none" stroke-width="1" fill="none" fill-rule="evenodd">
        <g id="Logo:-Daily-Press" fill-rule="nonzero" fill="#1875AE">
            <g id="Shape">
                <path d="M21.6299436,6.32731034 L23.3874526,5.01241379 L25.362334,6.07406897 C25.362334,6.07406897 25.0200968,6.30386207 25.0200968,6.68924138 L25.0200968,12.0915862 C25.0200968,12.0915862 25.2828243,12.3885517 25.383767,12.4888276 C25.4847097,12.5892414 25.6216046,12.6966897 25.7778583,12.7446897 C25.9341121,12.7929655 25.9894231,12.7626207 26.0682414,12.7405517 C26.1456769,12.7184828 26.231409,12.6357241 26.2618301,12.6067586 C26.2922512,12.5764138 26.318524,12.5433103 26.318524,12.5433103 L26.528706,12.7502069 L24.4379479,14.6315862 L22.2462471,12.9626207 C22.2462471,12.9626207 22.450898,12.7708966 22.450898,12.4481379 L22.450898,6.98468966 C22.450898,6.82882759 22.3361276,6.61365517 22.1715771,6.48262069 C22.1715771,6.48262069 22.0637206,6.40537931 21.9600123,6.37641379 C21.8549213,6.34606897 21.770572,6.324 21.7318542,6.324 L21.6378254,6.32537931 L21.6299436,6.32731034 Z M23.6474145,2.00317241 L22.2913256,3.15310345 L23.8217827,4.17006897 L25.1623845,2.99724138 L23.6474145,2.00317241 Z M17.6254228,7.49227586 L17.6254228,8.79434483 C17.3841282,8.82055172 16.8911684,8.89365517 16.2571654,9.09227586 C15.3459156,9.37641379 14.5093358,9.80951724 14.0613162,10.1626207 C13.6132967,10.5143448 13.3090858,11.4495172 13.3533347,12.0991724 C13.3962007,12.7488276 13.7432776,13.4536552 14.2189528,13.9405517 C14.6946279,14.4274483 15.6044949,14.6315862 15.6044949,14.6315862 L17.6219658,13.1088276 L17.6219658,13.1184828 L19.5868913,14.626069 L21.6569077,12.7377931 L21.4688501,12.5474483 C21.4688501,12.5474483 21.0623138,12.9143448 20.7152369,12.6288276 C20.4760166,12.4329655 20.2782795,12.2426207 20.1773368,12.1433103 L20.1773368,7.16675862 C20.1773368,7.16675862 20.1773368,6.97641379 20.2409446,6.86744828 C20.3045523,6.75848276 20.3709256,6.71158621 20.4276194,6.70055172 C20.4843132,6.68951724 20.5465382,6.68951724 20.5465382,6.68951724 L17.6039897,4.94193103 L13.6533972,7.61503448 C13.6533972,7.61503448 13.9147419,7.7902069 14.0350435,7.94606897 C14.1553451,8.10055172 14.2687327,8.23434483 14.359996,8.45365517 C14.4512592,8.67158621 14.5010392,8.93227586 14.5010392,8.93227586 C14.5010392,8.93227586 14.8895994,8.74882759 15.0942503,8.62882759 C15.2989012,8.50882759 15.5256766,8.33917241 15.6943753,8.14882759 C15.8644568,7.95848276 15.9695479,7.78882759 15.9557201,7.5777931 C15.9405096,7.36675862 15.7994663,7.14744828 15.6445954,7.01365517 C15.4883416,6.87875862 15.4109061,6.85089655 15.4109061,6.85089655 L16.1313327,6.35848276 L17.6178175,7.48537931 L17.6254228,7.49227586 Z M16.8635129,13.2246897 C16.8635129,13.2246897 16.2855123,12.8315862 15.9677502,12.3033103 C15.650403,11.7750345 15.5490455,11.1791724 15.6791648,10.6371034 C15.8091458,10.0950345 16.1990888,9.70193103 16.7328405,9.444 C17.0840657,9.27434483 17.4283771,9.21089655 17.6233486,9.18744828 L17.6233486,12.5984828 L16.8614387,13.2233103 L16.8635129,13.2246897 Z M27.1757071,2.59158621 L27.1757071,12.3226207 C27.1757071,12.5888276 26.9356571,13.0095172 26.9356571,13.0095172 L29.1240393,14.6315862 L31.2100959,12.7557241 L31.0239742,12.5557241 C31.0239742,12.5557241 30.9860861,12.5984828 30.9432201,12.6357241 C30.9000774,12.6743448 30.795263,12.7446897 30.7044146,12.7502069 C30.6131513,12.7543448 30.5702852,12.7833103 30.3601032,12.701931 C30.1499212,12.6205517 30.0157918,12.4633103 29.9162319,12.364 C29.8152892,12.2633103 29.6922221,12.0991724 29.6922221,12.0991724 L29.6922221,2.34882759 C29.6922221,2.09641379 29.7378538,1.84262069 29.8719831,1.68951724 C30.0061124,1.53503448 30.0365335,1.49365517 30.0365335,1.49365517 L28.0882014,0.259172414 L26.1827353,1.83434483 L26.2753813,1.94882759 L26.4883289,1.78055172 C26.4883289,1.78055172 26.5948027,1.75158621 26.6874487,1.77917241 C26.7800948,1.80537931 26.9114585,1.86606897 27.0206979,2.0302069 C27.1299372,2.19296552 27.1728033,2.36813793 27.1728033,2.42193103 L27.1714205,2.58606897 L27.1757071,2.59158621 Z M31.8790832,7.32537931 L31.8790832,12.4315862 L31.6647529,12.9515862 L34.2782005,14.541931 L36.1836666,12.6702069 L36.1836666,13.7322759 C36.1836666,13.7322759 37.0734832,14.0495172 37.4686808,14.3764138 C37.8634635,14.7033103 38.2015523,15.0881379 38.3362348,15.5115862 C38.4717469,15.9350345 38.3569764,16.3391724 38.1730671,16.5695172 C37.9905406,16.7998621 37.6144254,17.0605517 36.9963243,16.964 C36.379606,16.8674483 35.7822465,16.4633103 35.5112223,16.2605517 C35.2415809,16.0591724 34.6815564,15.6067586 34.2487474,15.2991724 C33.8159383,14.9902069 33.1397606,14.5377931 32.0888504,14.7308966 C32.0888504,14.7308966 31.491491,14.8453793 31.0960169,15.0771034 C30.7005428,15.3074483 30.2953893,15.6922759 30.1612599,15.9902069 C30.0271306,16.2881379 29.9980923,16.4798621 29.9884129,16.6343448 C29.9787334,16.7874483 29.9884129,17.0384828 29.9884129,17.0384828 C29.9884129,17.0384828 30.0464895,16.6329655 30.2013605,16.421931 C30.3562314,16.2095172 30.5677962,16.0177931 30.8872176,15.9405517 C31.206639,15.8633103 31.6104097,15.9115862 31.8330368,16.0467586 C32.0556638,16.181931 32.4704967,16.5171034 32.7207793,16.7584828 C32.9710618,16.9998621 33.5117275,17.4895172 33.8491249,17.7005517 C34.1865224,17.9115862 34.6013554,18.0646897 35.1807387,18.141931 C35.7601221,18.2191724 36.4252376,18.1046897 36.7626351,17.9888276 C37.1000326,17.8729655 37.5826216,17.5653793 37.9780957,17.2577931 C38.3735697,16.9502069 38.8851971,16.5074483 39.1741974,16.0246897 C39.4631976,15.5446897 39.6180686,15.0053793 39.6083892,14.2453793 C39.6000925,13.4853793 39.1562213,12.8398621 38.9626325,12.6108966 C38.7690438,12.3805517 38.6763978,12.3171034 38.6763978,12.3171034 L38.6763978,6.9377931 C38.6763978,6.81641379 38.6943739,6.67986207 38.8575415,6.52675862 C39.0207092,6.37503448 39.1493074,6.29917241 39.1493074,6.29917241 C39.1493074,6.29917241 38.922532,6.23848276 38.7275605,6.11710345 C38.532589,5.99572414 37.6075115,5.404 37.3973295,5.20675862 L37.1207742,4.94882759 L35.3545537,6.25917241 C35.3545537,6.25917241 35.5661186,6.23434483 35.7375828,6.29365517 C35.9090471,6.35296552 36.0611526,6.45089655 36.1266962,6.63572414 C36.1926546,6.82055172 36.1797948,7.13641379 36.1797948,7.24124138 L36.1797948,12.1446897 L35.3197078,12.9184828 L34.3877164,12.3143448 L34.3877164,6.20689655 L32.8030545,4.97724138 L31.3055075,6.25724138 C31.3055075,6.25724138 31.4811201,6.24896552 31.5696178,6.29406897 C31.6581155,6.34027586 31.7673549,6.4182069 31.830686,6.54786207 C31.8942938,6.67751724 31.8915282,6.85958621 31.8915282,6.91613793 L31.8901454,7.31613793 L31.8790832,7.32537931 Z M11.6200243,13.1708966 C11.0886233,13.5750345 10.6919047,14.0302069 10.4557264,14.3405517 C10.2192717,14.6508966 9.85504832,15.2853793 9.85504832,15.2853793 C9.85504832,15.2853793 9.03367907,14.1005517 7.83896014,13.541931 C6.64424122,12.981931 5.25040248,12.9350345 4.20474687,13.0522759 C3.15936781,13.1681379 2.13887874,13.866069 1.66569261,14.261931 C1.19305959,14.6577931 0.745039994,15.3791724 0.745039994,15.3791724 C0.745039994,15.3791724 0.869489882,13.9115862 1.36728943,13.026069 C1.86508898,12.1405517 2.91046804,11.3253793 3.63227739,11.0688276 C3.86831734,10.9846897 4.16672052,10.8936552 4.5034266,10.8150345 L4.5034266,3.31296552 L1.61646576,3.31296552 C0.94443637,3.31296552 0.347076909,2.89365517 0.147957089,2.2177931 C-0.0511627316,1.54193103 0.147957089,0.795724138 0.471526796,0.539172414 C0.795096504,0.28262069 1.11866621,0.237103448 1.56668581,0.213655172 C1.56668581,0.213655172 1.29289605,0.376413793 1.29289605,0.656413793 C1.29289605,0.935034483 1.64135574,1.05227586 1.98981543,1.05227586 L10.1042247,1.05227586 C10.6764176,1.05227586 12.7172575,1.42468966 12.7172575,3.5902069 L12.7172575,12.4936552 C12.7172575,12.4936552 12.1517019,12.7612414 11.6193329,13.1653793 L11.6200243,13.1708966 Z M10.0288633,4.17917241 C10.0288633,3.89917241 9.97908338,3.31710345 9.05843077,3.31710345 L4.85078006,3.31710345 L4.85078006,10.746069 C5.4730295,10.6288276 6.19041397,10.5708966 6.89175822,10.6771034 C8.1362571,10.8633103 9.10738105,11.3515862 9.40606079,11.5157241 C9.70418741,11.6784828 10.0278954,11.8646897 10.0278954,11.8646897 L10.0278954,4.17931034 L10.0288633,4.17917241 Z M1.35691861,8.25917241 L1.35691861,10.724 C1.35691861,11.3764138 0.87958415,12.0136552 0.87958415,12.0136552 C0.87958415,12.0136552 2.33841339,11.1198621 3.0685194,10.5364138 C3.7986254,9.95296552 3.87329534,9.51158621 3.87329534,9.1377931 L3.87329534,3.64137931 C3.87329534,3.64137931 3.19158651,3.856 2.61635147,4.18758621 C1.92772876,4.58413793 1.58480018,5.22537931 1.48524027,5.69103448 C1.45343641,5.84055172 1.42854643,6.14841379 1.41057034,6.49765517 C1.41057034,6.49765517 1.02062736,6.65958621 0.814593653,6.80110345 C0.608559951,6.94275862 0.44954065,7.11006897 0.302966338,7.35034483 C0.156392025,7.59034483 0.109377623,7.83489655 0.101080964,8.03668966 C0.0927843051,8.23834483 0.1107604,8.44413793 0.1107604,8.44413793 C0.1107604,8.44413793 0.149478143,8.16965517 0.257334712,8.01931034 C0.365191281,7.86896552 0.464751192,7.79172414 0.619622163,7.74441379 C0.774493134,7.69751724 0.908622457,7.71503448 0.986057943,7.74027586 C1.06349343,7.76648276 1.2183644,7.83958621 1.29579989,7.98096552 C1.37461815,8.12303448 1.36355594,8.23682759 1.36493871,8.25710345 L1.35691861,8.25917241 Z M78.0502681,7.59710345 L81.5788372,4.93089655 C81.5788372,4.93089655 81.7890193,5.44124138 82.1645814,5.71848276 C82.5416645,5.99572414 82.6845053,6.11848276 83.1267173,6.17365517 C83.5692058,6.22882759 83.8900099,6.17365517 84.1112542,6.02882759 L84.3324984,5.8177931 C84.3324984,5.8177931 84.2440007,6.17227586 84.0126622,6.49503448 C83.7796644,6.81641379 82.8732543,7.84951724 82.5859134,8.19434483 C82.2989873,8.53917241 81.5690195,9.39296552 81.5690195,9.39296552 L83.9133788,9.39296552 C83.9133788,9.39296552 84.8204803,9.81503448 84.8204803,10.2591724 L84.8204803,11.9364138 L81.3809619,14.524 C81.3809619,14.524 80.9937845,13.924 80.2197062,13.5350345 C79.4453513,13.146069 79.1141763,13.2122759 78.6156854,13.3129655 C78.1178859,13.4122759 77.9081187,13.546069 77.7760635,13.6343448 L77.6426256,13.7226207 C77.6426256,13.7226207 77.742462,13.3667586 78.00837,12.9888276 C78.2738631,12.6108966 80.16481,10.3998621 80.16481,10.3998621 L79.0147547,10.3998621 C78.7063955,10.3998621 78.0758495,9.95572414 78.0758495,9.54331034 C78.0744667,9.13186207 78.0523423,7.58813793 78.0523423,7.58813793 L78.0502681,7.59710345 Z M80.4300265,9.39710345 L81.0757831,9.39710345 L82.4922994,7.72413793 C82.4922994,7.72413793 82.2212752,7.71682759 81.8755811,7.67241379 C81.5298869,7.62827586 81.3031116,7.53227586 81.0237907,7.3262069 C80.7447464,7.12013793 80.5688573,6.85448276 80.5176945,6.80275862 C80.4655639,6.75131034 80.4291968,6.72896552 80.4291968,6.72896552 L80.4291968,9.39793103 L80.4300265,9.39710345 Z M79.4335977,11.8977931 C79.4335977,11.8977931 79.5881921,11.8508966 79.837645,11.8164138 C80.0865448,11.781931 80.2877388,11.7612414 80.6718741,11.8302069 C81.0554563,11.8964138 81.3646451,12.0453793 81.7352293,12.324 C82.1049837,12.5998621 82.2797667,12.8302069 82.2797667,12.8302069 L82.3136447,12.8302069 L82.3136447,10.404 L80.6780966,10.404 L79.4335977,11.8964138 L79.4335977,11.8977931 Z M70.9336704,7.59572414 L74.4621013,4.92951724 C74.4621013,4.92951724 74.6722833,5.43986207 75.0478454,5.71710345 C75.4243755,5.99434483 75.5683225,6.11710345 76.0102579,6.17227586 C76.4524698,6.22744828 76.7731357,6.17227586 76.9950713,6.02744828 C77.2156242,5.88262069 77.2156242,5.81641379 77.2156242,5.81641379 C77.2156242,5.81641379 77.1275413,6.17089655 76.8959262,6.49365517 C76.6627901,6.81503448 75.7572098,7.84813793 75.4695922,8.19296552 C75.1823896,8.53641379 74.4518687,9.39158621 74.4518687,9.39158621 L76.7965046,9.39158621 C77.0841221,9.39158621 77.703606,9.81365517 77.703606,10.2577931 L77.703606,11.9350345 L74.2646408,14.524 C74.2646408,14.524 73.8774634,13.924 73.1031085,13.5350345 C72.3287536,13.146069 71.9968873,13.2122759 71.4990877,13.3129655 C71.0012882,13.4122759 70.7911061,13.546069 70.6597424,13.6343448 L70.525613,13.7226207 C70.525613,13.7226207 70.625173,13.3667586 70.8906661,12.9888276 C71.1561591,12.6108966 73.0477974,10.3998621 73.0477974,10.3998621 L71.8973274,10.3998621 C71.5875854,10.3998621 70.9570393,9.95572414 70.9570393,9.54331034 C70.9542738,9.13158621 70.9321493,7.58786207 70.9321493,7.58786207 L70.9336704,7.59572414 Z M73.3131523,9.39572414 L73.9589089,9.39572414 L75.37584,7.72413793 C75.37584,7.72413793 75.1042627,7.71668966 74.7591217,7.67227586 C74.4139806,7.62813793 74.1859608,7.532 73.9080227,7.32606897 C73.6289784,7.11986207 73.4528127,6.85434483 73.4013734,6.80248276 C73.3502107,6.75075862 73.3131523,6.72841379 73.3131523,6.72841379 L73.3131523,9.39737931 L73.3131523,9.39572414 Z M72.3168618,11.8977931 C72.3168618,11.8977931 72.4717327,11.8508966 72.7206325,11.8164138 C72.9695323,11.781931 73.1718325,11.7612414 73.5549999,11.8302069 C73.938029,11.8977931 74.2477709,12.0467586 74.6180785,12.324 C74.9886626,12.5998621 75.1633072,12.8302069 75.1633072,12.8302069 L75.1962173,12.8302069 L75.1962173,10.404 L73.5614989,10.404 L72.317,11.8964138 L72.3168618,11.8977931 Z M67.6613297,5.1102069 L70.521603,7.63034483 L66.6954603,10.4662069 L66.6954603,11.4377931 C66.6954603,11.4377931 67.288948,12.0471724 67.554856,12.2504828 C67.820349,12.4543448 68.112668,12.6128276 68.3962755,12.6481379 C68.680436,12.6826207 68.9280913,12.6826207 69.1407624,12.524 C69.3526037,12.3653793 70.5133063,11.5074483 70.5133063,11.5074483 L70.7262539,11.7805517 L67.0508339,14.5267586 L64.2075688,12.3708966 L64.2515411,12.2302069 C64.2963431,12.0881379 64.3488886,11.8136552 64.3488886,11.8136552 L64.3488886,8.27158621 C64.3488886,7.98882759 64.0745457,7.88262069 64.0745457,7.88262069 L67.661468,5.10882759 L67.6613297,5.1102069 Z M66.6867488,6.98193103 L66.6867488,9.98606897 L68.5023344,8.61641379 L66.6867488,6.98193103 Z M64.5980649,6.33227586 C64.4408432,6.33917241 64.1550233,6.39710345 63.8043512,6.204 C63.4550618,6.01089655 63.3051688,5.70468966 63.1834845,5.49089655 C63.0612471,5.27710345 62.8754019,4.89227586 62.8754019,4.89227586 L60.7716457,6.67586207 L60.7716457,6.28455172 L59.0675119,5.04524138 L57.0019203,6.90455172 L57.1891483,7.1062069 C57.1891483,7.1062069 57.3481676,6.89048276 57.5367783,6.89048276 C57.7240062,6.89048276 57.9261681,7.02013793 58.0567022,7.23668966 C58.1864067,7.45324138 58.2012024,7.87117241 58.2012024,8.188 L58.2012024,12.2666207 C58.2012024,12.2666207 58.129298,12.6121379 58.0712214,12.7273103 L58.0131448,12.8424828 L60.1523001,14.5289655 L62.2472065,12.6558621 L62.08957,12.4682759 C62.08957,12.4682759 61.9886273,12.6126897 61.7867419,12.6415172 C61.5848566,12.6704828 61.4258373,12.6415172 61.1658753,12.4263448 C60.9059133,12.2111724 60.7759323,12.0097931 60.7759323,12.0097931 L60.7759323,7.14482759 L61.5862393,6.50675862 C61.5862393,6.50675862 61.9084263,7.25572414 62.0729767,7.464 C62.2375271,7.6702069 62.4587713,7.84137931 62.6883122,7.86303448 C62.9178531,7.88468966 63.1100591,7.92 63.5041504,7.75641379 C63.8982417,7.59227586 64.1983042,7.29986207 64.4914528,6.93572414 C64.7846015,6.57158621 64.8703336,6.2937931 64.8703336,6.2937931 C64.8703336,6.2937931 64.7610943,6.32758621 64.6034577,6.33489655 L64.5980649,6.33227586 Z M56.3547809,2.09089655 C56.1382381,1.55710345 55.7657181,1.15572414 55.3320794,0.806758621 C54.8984407,0.459172414 54.1442743,0.101931034 54.1442743,0.101931034 L50.6757177,2.15296552 L50.6757177,0.139172414 L50.3479997,0.139172414 L50.3479997,16.061931 L49.7904642,16.5846897 L49.7904642,1.03986207 L48.2168645,0.0757241379 L46.1028757,1.80813793 C46.1028757,1.80813793 46.7092232,1.87296552 46.7092232,2.29917241 L46.7092232,10.9695172 C46.56818,11.0467586 46.3516372,11.1764138 46.1680045,11.3322759 C45.867942,11.586069 45.4710851,12.0122759 45.230482,12.484 C44.9898789,12.9543448 44.9082951,13.2398621 44.8557496,13.5543448 C44.8018213,13.8674483 44.7714002,14.5267586 44.7714002,14.5267586 C44.7714002,14.5267586 45.1461326,13.9791724 45.4461951,13.7102069 C45.7462576,13.4412414 45.9633536,13.284 46.3159616,13.1267586 C46.4860431,13.049931 46.6174069,13.0026207 46.7059046,12.9726897 L46.7059046,19.9354483 L50.6730904,16.0931034 L50.6730904,12.7275862 C50.7090426,12.7325517 50.7657364,12.7402759 50.8445547,12.7524138 C50.9994257,12.7758621 51.6645412,13.0150345 52.0282114,13.2315862 C52.3918816,13.4481379 52.7790591,13.7267586 53.1441121,14.0586207 C53.5077823,14.3910345 53.7470026,14.8462069 53.7470026,14.8462069 C53.7470026,14.8462069 53.8396487,14.6227586 54.0484479,14.3206897 C54.2572472,14.0186207 54.8532239,13.3468966 55.3261334,12.9386207 C55.7976602,12.5289655 56.6425367,12.0737931 56.6425367,12.0737931 L56.6425367,3.6062069 C56.6425367,3.3662069 56.5651012,2.62413793 56.3480053,2.09172414 L56.3547809,2.09089655 Z M53.9103085,11.3971034 L53.765117,11.284 C53.6199255,11.1708966 53.2609567,10.9571034 53.2609567,10.9571034 C52.7913658,10.6991724 52.1583307,10.4771034 51.6075708,10.3722759 C51.2203934,10.2977931 50.8572762,10.2771034 50.6755794,10.2702069 L50.6755794,2.60813793 C50.8583825,2.50744828 51.6283124,2.09089655 51.7490288,2.03434483 C51.8859237,1.96951724 52.0315301,1.96124138 52.224704,2.00124138 C52.4180161,2.04124138 52.6519819,2.15296552 52.9183047,2.40262069 C53.1846274,2.65227586 53.4266133,2.97365517 53.5716666,3.23158621 C53.7182409,3.48813793 53.9104468,3.89089655 53.9104468,4.22882759 L53.9104468,11.3957241 L53.9103085,11.3971034 Z"></path>
            </g>
        </g>
    </g>
</svg>