<?xml version="1.0" encoding="UTF-8"?>
<svg width="143px" height="20px" viewBox="0 0 143 20" version="1.1" xmlns="http://www.w3.org/2000/svg" xmlns:xlink="http://www.w3.org/1999/xlink">
    <!-- Generator: sketchtool 42 (36781) - http://www.bohemiancoding.com/sketch -->
    <title>BB1B6739-B369-446B-8BCE-8146D89DA3DF</title>
    <desc>Created with sketchtool.</desc>
    <defs></defs>
    <g id="Symbols" stroke="none" stroke-width="1" fill="none" fill-rule="evenodd">
        <g id="Logo:-Capital-Gazette" fill-rule="nonzero" fill="#064992">
            <g id="Shape">
                <path d="M7.5392878,16.2211173 C2.85345432,16.2211173 0.041954226,12.9646927 0.041954226,8.95497207 C0.041954226,4.87240223 3.00142801,1.49446927 6.0841565,0.327932961 L6.18280562,0.473743017 C3.96320029,2.05329609 2.63143709,4.50782123 2.63143709,7.54553073 C2.63143709,12.4544693 5.49226174,14.0582682 9.16688499,14.0582682 C10.0054026,14.0582682 10.5233105,14.0340223 11.3125035,13.7909497 L11.3125035,3.04972067 C10.8439201,3.04972067 10.3999991,3.00111732 10.0793894,2.80670391 C9.6847929,2.56368715 9.46283237,2.34497207 9.26559081,1.93184358 L8.79695077,2.19921788 L8.79695077,9.56256983 C8.79695077,10.5346369 8.50100339,11.1664804 7.81045951,11.8225698 C7.19390247,12.4058101 6.50335859,12.6245251 5.78815242,12.7217877 C5.88680155,12.5759777 5.98545068,12.4787709 6.05943752,12.3086592 C6.25673577,11.8712291 6.33066592,11.5796089 6.33066592,11.1178212 L6.33066592,3.43854749 L4.62913858,4.16759777 L4.43184033,3.7301676 C5.66495441,3.17122905 6.65144567,2.6852514 7.73658605,2.10201117 C9.09295484,1.34860335 9.85742887,0.886927374 11.0905429,0.0120670391 C11.4358149,0.862625698 11.9043982,1.34860335 12.7429725,1.34860335 C13.1868936,1.34860335 13.4828409,1.2027933 13.8033939,0.911173184 L13.8774374,1.00837989 C13.7294638,1.5673743 13.4335164,2.00480447 12.8909462,2.44223464 C12.4963497,2.75810056 12.2004023,2.90391061 11.7318757,3.00111732 L11.7318757,13.596648 C12.2744458,13.4265363 12.7183669,13.1834637 13.2855427,12.8189944 C13.8034506,12.4787709 14.099398,12.2114525 14.5186568,11.7497207 L14.6419682,11.8225698 C13.6800258,14.2283799 10.8192012,16.2211173 7.5392311,16.2211173 L7.5392878,16.2211173 Z M23.7916746,15.1761453 C23.4217971,15.5893296 23.2491044,15.8079888 22.953157,16.2211173 C22.4599114,16.0510056 22.0406526,15.8808939 21.6460561,15.4192179 C21.2761219,15.0060335 21.1280915,14.6901676 21.0294424,14.1311173 L18.7851748,16.2210615 C17.1821265,15.6378212 15.4557101,14.7386592 15.4557101,12.9403352 C15.4557101,11.3364246 16.4668636,10.2428492 17.9219382,9.58670391 L15.7023329,7.13223464 L15.7023329,6.79201117 C16.0969294,6.67055866 16.5161882,6.47614525 16.8121356,6.30597765 C17.3300435,5.9901676 17.6013286,5.77134078 17.9712061,5.30972067 C18.5384386,6.69480447 19.2043202,7.03513966 19.5248731,7.03513966 C19.9935132,7.03513966 20.8566363,6.5977095 21.9171144,5.35821229 C22.2623864,6.03865922 22.7063074,6.64620112 23.2488776,6.64620112 C23.520106,6.64620112 23.6681364,6.62184358 23.9147025,6.47608939 L24.0380706,6.62189944 C23.9640271,6.79195531 23.8407724,7.01072626 23.6681364,7.20513966 C23.4955005,7.39955307 23.3475268,7.49675978 23.0762417,7.64256983 L23.0762417,12.7701117 C23.0762417,13.3291061 23.5201627,14.0581006 24.1613821,14.0581006 C24.3340747,14.0581006 24.4573294,14.0581006 24.6300221,14.0096089 L24.7533335,14.155419 C24.3833426,14.5444134 24.1614387,14.7630726 23.7914478,15.1760894 L23.7916746,15.1761453 Z M20.9555122,8.17726257 L19.8949774,7.35111732 C19.1057844,7.71564246 18.6865823,7.78854749 17.8726704,7.78854749 C17.3794247,7.78854749 17.0588718,7.61843575 16.5902317,7.49692737 L20.0182888,11.2878771 L19.7223415,11.5794972 L18.2426046,9.92698324 C17.8480081,10.3401676 17.5027361,11.0205587 17.5027361,11.7982123 C17.5027361,13.2564246 18.3658593,14.0825698 20.3141228,14.2769832 L20.9553422,13.7423464 L20.9553422,8.17731844 L20.9555122,8.17726257 Z M35.8760791,7.27821229 C35.6047941,7.52122905 35.3581712,7.69134078 35.0868861,7.78854749 L35.0868861,13.3049721 C35.0868861,13.6936872 35.160873,13.9124581 35.3088467,14.2770391 C35.3828335,14.4713408 35.4321581,14.6172626 35.5554695,14.7873184 L35.4074958,14.8602235 C34.9142502,14.8116201 34.6183028,14.7144134 34.1250572,14.7144134 C32.5959957,14.7144134 31.683548,15.1760894 30.6477322,16.2211173 C30.4997585,16.0267039 30.3517848,15.8808939 30.1544865,15.7350838 C29.932526,15.5892737 29.8092146,15.5163128 29.5379295,15.4192179 L29.5379295,17.8250279 C29.5379295,18.0680447 29.5626485,18.3353631 29.7352278,18.6026816 C29.8585392,18.797095 29.932526,18.87 30.0804997,19.0158101 L30.0804997,19.1372626 C29.1926576,19.1372626 28.3294777,19.331676 27.7622452,19.6718994 C27.5896093,19.7691061 27.0963636,19.939162 26.9483899,19.9878212 L26.603118,19.9878212 C26.775754,19.7446927 26.8744031,19.5989944 27.0224335,19.3073743 C27.2690563,18.8213408 27.3429298,18.5297207 27.3429298,17.9950838 L27.3429298,14.8358659 C26.8250218,14.8358659 26.4550876,14.981676 26.0111666,15.3218994 C25.6906136,15.5649162 25.5425832,15.7107263 25.3699472,16.0751955 L25.2959604,16.0751955 L25.2959604,15.5648045 C25.2959604,15.1030168 25.5425832,14.5441341 25.9865043,14.0824022 C26.4058198,13.6449721 26.751035,13.4019553 27.3429298,13.2561453 L27.3429298,8.93044693 C27.3429298,8.44441341 27.2196183,8.07977654 26.8250218,7.78826816 C26.4797499,7.5452514 26.1838025,7.44804469 25.7645437,7.49664804 L25.7645437,7.35083799 C26.2331838,7.08351955 26.7263727,6.79184358 27.2442806,6.30586592 C27.6388771,5.94134078 27.8115698,5.74687151 28.1321228,5.30955307 C28.674693,5.40664804 28.9213158,5.79558659 29.2172631,6.30586592 C29.4885482,6.76765363 29.5378728,7.42374302 29.5378728,8.17703911 L34.0017458,5.28519553 C34.2976931,6.01424581 34.7909388,6.59748603 35.5801318,6.59748603 C35.8760791,6.59748603 36.0487151,6.57312849 36.3200002,6.4273743 L36.4186493,6.54882682 C36.2952812,6.81614525 36.1473076,7.03486034 35.8760791,7.27787709 L35.8760791,7.27821229 Z M32.8672808,7.91005587 C32.6946448,7.83709497 32.5467278,7.76424581 32.3740352,7.6427933 C32.1767369,7.52122905 32.0534822,7.42402235 31.8807895,7.27826816 L29.5380429,8.7849162 L29.5380429,13.1592179 C29.9326394,13.2564246 30.4752096,13.4751397 31.0177798,13.7910615 C31.4864198,14.0583799 31.7823105,14.277095 32.1522447,14.6417318 L32.8674509,14.3744134 L32.8674509,7.91005587 L32.8672808,7.91005587 Z M42.066085,15.2977654 C41.7455321,15.6135754 41.5481771,15.8565922 41.301611,16.2211173 C40.7343218,16.0996648 40.3397253,15.9537989 39.8958043,15.492067 C39.4271642,15.0060335 39.2792472,14.3255866 39.2792472,13.5236313 L39.2792472,8.05586592 C39.081949,7.98296089 38.8846507,7.93430168 38.6873525,7.81284916 C38.4407296,7.66703911 38.3667428,7.56972067 38.2187124,7.42402235 L37.4295194,7.83709497 L37.2322212,7.42396648 C37.8981028,7.10804469 38.3913484,6.81636872 38.8352695,6.50050279 C39.4024452,6.0873743 39.7724362,5.79575419 40.2902874,5.26106145 C40.9068444,6.06301676 41.2767786,6.45178771 41.8193488,6.45178771 C42.1892263,6.45178771 42.4112436,6.35458101 42.707191,6.1601676 C42.682472,6.57335196 42.4852304,6.96212291 42.1892263,7.3022905 C41.9426035,7.59391061 41.720643,7.73972067 41.4247523,7.88553073 L41.4247523,12.5514525 C41.4247523,13.0618436 41.572726,13.4749162 41.8933357,13.790838 C42.1399585,14.0339665 42.3372567,14.1310615 42.6578097,14.1310615 L43.1757176,14.1310615 L43.2496478,14.3741899 C42.8550513,14.6415084 42.4850603,14.8845251 42.0658582,15.2976536 L42.066085,15.2977654 Z M40.2410762,4.33776536 C39.5998569,4.33776536 39.3039095,4.11899441 38.736677,3.65731844 L38.3914051,3.82743017 L38.1941068,3.4872067 C38.6627469,3.26849162 39.1805981,3.02547486 39.4765455,2.83106145 C39.8464797,2.58804469 40.0684402,2.41793296 40.339782,2.12631285 L40.4137689,2.15067039 C40.6356727,2.78251397 40.9563391,3.07413408 41.4248657,3.07413408 C41.5728394,3.07413408 41.9427736,3.00117318 42.1154096,2.92832402 C42.1154096,3.73027933 41.1535239,4.33782123 40.2410762,4.33782123 L40.2410762,4.33776536 Z M48.7988312,15.2490503 C48.3549101,15.6135754 48.083625,15.8322905 47.7136908,16.2211173 C47.0478092,15.6622346 45.888682,14.9817877 45.0748267,14.9817877 C44.6061866,14.9817877 44.3842828,15.0546927 43.9403617,15.2004469 C44.112941,14.7873184 44.2609147,14.52 44.581581,14.2041341 C44.9514586,13.8396089 45.2474626,13.6451397 45.7653706,13.4993855 L45.7653706,6.6949162 L44.7788793,6.6949162 C44.6309056,6.6949162 44.4090018,6.74351955 44.2116468,6.84072626 C44.0883354,6.88932961 44.0390108,6.93793296 43.9156994,7.01083799 L43.8170503,6.98648045 C43.965024,6.71910615 43.965024,6.47608939 43.9896863,6.13586592 C44.0144053,5.82 43.9896863,5.62553073 43.9156994,5.30960894 L44.2856337,5.43111732 C44.5075375,5.47972067 44.6555112,5.5526257 44.8775284,5.5526257 L45.7653706,5.5526257 L45.7653706,4.65363128 C45.7653706,4.43497207 45.6912703,4.26480447 45.5680723,4.0947486 C45.4694232,3.94893855 45.370774,3.9003352 45.2228004,3.80312849 L45.4200986,3.58430168 C45.8640197,3.51134078 46.3571519,3.41413408 46.9243844,3.14687151 C47.5162791,2.87960894 47.8369455,2.63648045 48.3054722,2.17480447 L48.4534458,2.17480447 C48.3300777,2.44217877 48.2807532,2.58798883 48.1821607,2.87960894 C48.0341871,3.34128492 47.9848625,3.7301676 47.9848625,4.09469274 L47.9848625,5.5527933 L48.7247309,5.5527933 C48.996016,5.5527933 49.168652,5.52843575 49.4152748,5.45558659 C49.5879675,5.40698324 49.6865599,5.33402235 49.8345903,5.23681564 L49.9579017,5.33402235 C49.834647,5.65 49.7853224,5.86865922 49.7853224,6.23324022 C49.7853224,6.50055866 49.834647,6.64636872 49.9332961,6.91368715 L49.8099847,6.98659218 C49.7113356,6.93810056 49.6373487,6.88938547 49.5140373,6.84089385 C49.2674145,6.74368715 49.1441598,6.6950838 48.872818,6.6950838 L47.9849759,6.6950838 L47.9849759,13.5481564 C48.256261,13.6453631 48.4042914,13.6938547 48.6755198,13.815419 C48.9468049,13.9369832 49.0948352,14.0584358 49.3414014,14.2042458 L50.007283,13.7911173 L50.3032303,14.1800559 C49.8840283,14.4472067 49.3660637,14.7874302 48.7989446,15.2491061 L48.7988312,15.2490503 Z M59.2553551,15.1761453 C58.8854208,15.5893296 58.7127849,15.8079888 58.4168375,16.2211173 C57.9235919,16.0510056 57.5043331,15.8808939 57.1097366,15.4192179 C56.7398023,15.0060335 56.591772,14.6901676 56.4931795,14.1311173 L54.2489119,16.2210615 C52.6458636,15.6378212 50.9195039,14.7386592 50.9195039,12.9403352 C50.9195039,11.3364246 51.9306575,10.2428492 53.3857321,9.58670391 L51.1661267,7.13223464 L51.1661267,6.79201117 C51.5607232,6.67055866 51.979982,6.47614525 52.2759294,6.30597765 C52.7938373,5.9901676 53.0651224,5.77134078 53.4349999,5.30972067 C54.0022891,6.69480447 54.668114,7.03513966 54.9887804,7.03513966 C55.4573637,7.03513966 56.3205436,6.5977095 57.380965,5.35821229 C57.7262369,6.03865922 58.170158,6.64620112 58.7127282,6.64620112 C58.9840133,6.64620112 59.131987,6.62184358 59.3786098,6.47608939 L59.5019212,6.62189944 C59.4279343,6.79195531 59.3046229,7.01072626 59.131987,7.20513966 C58.959351,7.39955307 58.811434,7.49675978 58.5400922,7.64256983 L58.5400922,12.7701117 C58.5400922,13.3291061 58.9840133,14.0581006 59.6252326,14.0581006 C59.7979252,14.0581006 59.92118,14.0581006 60.0939293,14.0096089 L60.2172407,14.155419 C59.8473065,14.5444134 59.625346,14.7630726 59.2554117,15.1760894 L59.2553551,15.1761453 Z M56.4191927,8.17726257 L55.3587713,7.35111732 C54.5695783,7.71564246 54.1503195,7.78854749 53.3364642,7.78854749 C52.8432186,7.78854749 52.5226089,7.61843575 52.0540256,7.49692737 L55.4820827,11.2878771 L55.1861353,11.5794972 L53.7063984,9.92698324 C53.3118019,10.3401676 52.96653,11.0205587 52.96653,11.7982123 C52.96653,13.2564246 53.8296531,14.0825698 55.7780301,14.2769832 L56.4192494,13.7423464 L56.4192494,8.17731844 L56.4191927,8.17726257 Z M65.6427726,15.2490503 C65.1741892,15.5893855 64.8782985,15.8565922 64.5083076,16.2211173 C63.5958032,15.346257 62.8312725,15.0303911 62.1407286,15.0303911 C61.7461321,15.0303911 61.5734961,15.0789944 61.2528865,15.2005028 C61.2528865,15.2005028 61.1788996,15.1032961 61.1788996,15.0303352 C61.2528865,14.6415084 61.6721453,14.1797765 62.4613383,13.7180447 L62.4613383,4.19184358 C62.4613383,3.63296089 62.4120137,3.17117318 62.1653909,2.80664804 C62.0667418,2.66083799 61.9187681,2.51502793 61.7460754,2.36921788 L61.8693868,2.12620112 C62.3379702,2.07759777 62.8311591,1.90748603 63.3984483,1.66446927 C64.1135977,1.34849162 64.5081942,1.10547486 65.1001457,0.619497207 L65.3467685,0.740949721 C65.1987948,0.935363128 65.0508211,1.15413408 64.9275097,1.44569832 C64.6808869,2.00463687 64.6562246,2.53927374 64.6562246,3.21972067 L64.6562246,13.4994413 C64.9275097,13.5723464 65.1494702,13.6452514 65.4206986,13.7910615 C65.716646,13.9611173 65.889282,14.0826816 66.1358481,14.35 L66.7277429,13.9854749 L67.0236903,14.3013408 C66.4565712,14.6415642 66.1605671,14.8602793 65.6426025,15.2490503 L65.6427726,15.2490503 Z M83.152709,16.2211173 C78.9354021,16.2211173 75.0634806,13.4993296 75.0634806,9.17374302 C75.0634806,4.9452514 78.5901302,1.8103352 81.7962268,0.595251397 L81.9195382,0.765363128 C79.45331,2.15055866 77.8502617,5.18826816 77.8502617,8.63910615 C77.8502617,12.7702793 79.8971744,15.6378771 83.2019768,15.6378771 C83.6212356,15.6378771 83.8925207,15.5892737 84.2871172,15.492067 L84.2871172,7.95865922 L83.3252882,9.22234637 L83.3252882,11.2393296 C83.3252882,12.1384358 82.8813672,12.7217318 82.166161,13.2806704 C81.5742662,13.7424022 81.1056829,13.9368156 80.3411522,13.9853631 C80.4398013,13.7909497 80.5384504,13.6694972 80.612494,13.4750279 C80.7604677,13.0862011 80.9330469,12.8189385 80.9330469,12.3815084 L80.9330469,4.16759777 L79.8972311,4.62932961 L79.8972311,4.11899441 C81.1796697,3.51145251 82.2401478,3.00111732 83.5965733,2.15061453 C84.7063193,1.4701676 85.4215822,0.959888268 86.3587489,0.133575419 C86.6053717,0.692625698 87.0492927,1.25145251 87.7398366,1.25145251 C88.0603896,1.25145251 88.6029598,0.959944134 88.8989072,0.692625698 L89.2194601,0.935642458 L84.854293,7.08385475 L85.5448369,7.08385475 C87.9124159,7.08385475 90.1073589,8.68776536 90.1073589,11.0207263 C90.1072456,14.4714525 85.9147711,16.2211732 83.1525956,16.2211732 L83.152709,16.2211173 Z M85.9148845,3.02541899 C85.4461877,3.02541899 84.8297441,2.66089385 84.4104286,2.27212291 L83.4485996,2.83106145 L83.4485996,8.25027933 L87.6657931,2.36927374 C86.9752492,2.7824581 86.3833544,3.02541899 85.9147711,3.02541899 L85.9148845,3.02541899 Z M86.309481,8.34743017 C85.8407842,7.91 85.4461877,7.71558659 84.8050251,7.64273743 L84.8050251,9.97569832 C85.1749593,10.1215084 85.4709067,10.2187151 85.9394901,10.2187151 C86.4081301,10.2187151 86.7286831,10.1458101 87.1479419,9.87849162 C86.9998548,9.19804469 86.8025565,8.80921788 86.3094243,8.3473743 L86.309481,8.34743017 Z M86.0874638,10.7775978 C85.5942181,10.7775978 85.2736085,10.7289944 84.8050251,10.5831844 L84.8050251,12.7217318 C85.1256348,12.6001676 85.495569,12.5029609 85.9641524,12.5029609 C86.432679,12.5029609 86.7040208,12.5758659 87.1231662,12.7702793 C87.1724908,12.6244693 87.2464776,12.502905 87.2711399,12.3085475 C87.3451267,11.9440223 87.2958022,11.5794972 87.2958022,10.5344693 C86.9259246,10.6802793 86.4572846,10.777486 86.0874071,10.777486 L86.0874638,10.7775978 Z M85.8408409,13.0619553 C85.4215255,13.0619553 85.1749593,13.1348603 84.8050251,13.3292737 L84.8050251,15.3463687 C85.2735518,15.249162 85.7421918,15.0304469 86.1861129,14.6173184 C86.6299206,14.2041899 86.8025565,13.8882682 86.9753059,13.3293296 C86.605315,13.1592179 86.3094243,13.0620112 85.8408409,13.0620112 L85.8408409,13.0619553 Z M99.5528427,15.1761453 C99.1829085,15.5893296 99.0102725,15.8079888 98.7143251,16.2211173 C98.2210795,16.0510056 97.8018207,15.8808939 97.4072242,15.4192179 C97.03729,15.0060335 96.8893163,14.6901676 96.7906671,14.1311173 L94.5463995,16.2210615 C92.9434079,15.6378212 91.2169915,14.7386592 91.2169915,12.9403352 C91.2169915,11.3364246 92.2281451,10.2428492 93.6832197,9.58670391 L91.4636143,7.13223464 L91.4636143,6.79201117 C91.8582108,6.67055866 92.2774696,6.47614525 92.573417,6.30597765 C93.0913249,5.9901676 93.36261,5.77134078 93.7325442,5.30972067 C94.2997767,6.69480447 94.9656583,7.03513966 95.2862113,7.03513966 C95.7547946,7.03513966 96.6179745,6.5977095 97.6784526,5.35821229 C98.0237245,6.03865922 98.4676456,6.64620112 99.0101024,6.64620112 C99.2813875,6.64620112 99.4294179,6.62184358 99.675984,6.47608939 L99.7992954,6.62189944 C99.7253086,6.79195531 99.6019972,7.01072626 99.4294179,7.20513966 C99.2567819,7.39955307 99.1088082,7.49675978 98.8375231,7.64256983 L98.8375231,12.7701117 C98.8375231,13.3291061 99.2814442,14.0581006 99.9226635,14.0581006 C100.095356,14.0581006 100.218611,14.0581006 100.391304,14.0096089 L100.514615,14.155419 C100.144681,14.5444134 99.9227202,14.7630726 99.552786,15.1760894 L99.5528427,15.1761453 Z M96.716737,8.17726257 L95.6562589,7.35111732 C94.8670659,7.71564246 94.4478638,7.78854749 93.6339518,7.78854749 C93.1407062,7.78854749 92.8201532,7.61843575 92.3515132,7.49692737 L95.779627,11.2878771 L95.4836796,11.5794972 L94.0039427,9.92698324 C93.6093462,10.3401676 93.2640743,11.0205587 93.2640743,11.7982123 C93.2640743,13.2564246 94.1272541,14.0825698 96.0755744,14.2769832 L96.7167937,13.7423464 L96.7167937,8.17731844 L96.716737,8.17726257 Z M108.135317,16.2211173 C107.000852,15.6135754 105.693751,15.2004469 104.041378,15.2004469 C103.227523,15.2004469 102.73422,15.2976536 101.945027,15.5163128 L101.402457,16.1968715 L100.958536,15.9052514 L104.633216,11.3365363 L102.758769,11.3365363 C102.635458,11.3365363 102.561471,11.3607821 102.438216,11.3851397 C102.290243,11.4094413 102.240918,11.4094413 102.092944,11.433743 L102.857418,10.1943017 L105.570269,10.1943017 L108.233796,6.88927374 C106.704734,7.81273743 105.101686,8.20156425 104.263168,8.20156425 C103.054773,8.20156425 102.26558,7.88569832 101.279032,7.2052514 C101.624304,7.05944134 101.895589,6.88927374 102.265524,6.64625698 C103.005392,6.16022346 103.399989,5.84430168 104.016546,5.21251397 C104.213844,6.40324022 105.175616,6.54905028 106.137502,6.54905028 C107.074668,6.54905028 108.874958,6.40324022 109.590221,5.30972067 L109.910717,5.60134078 L106.236094,10.1943017 L107.617182,10.1943017 C107.765156,10.1943017 108.061103,10.1699441 108.258401,10.1456983 C108.431037,10.1213966 108.529686,10.1213966 108.652998,10.0727374 L107.81448,11.3364246 L105.298927,11.3364246 L102.635401,14.6172067 C104.38648,13.6207821 105.446901,13.4264804 106.65541,13.4264804 C107.715831,13.4264804 108.357107,13.6451397 109.294217,14.1311173 L109.935436,13.5478771 L110.231384,13.7667039 L108.135203,16.2211173 L108.135317,16.2211173 Z M114.399253,12.0899441 L114.399253,13.4022346 C114.744525,13.4750838 114.991147,13.5722905 115.311814,13.7180447 C115.681748,13.8881564 115.879103,14.0096648 116.224375,14.2770391 L116.914919,13.7908939 L117.235528,14.1068715 L114.424028,16.2210615 C113.634835,15.3219553 112.870361,14.9817318 112.179817,14.9817318 C111.711234,14.9817318 111.464611,15.0788268 111.070015,15.2975978 L111.070015,14.9330726 C111.070015,14.5685475 111.217988,14.3741899 111.464611,14.1068156 C111.661909,13.8637989 111.859208,13.7423464 112.155269,13.5965363 L112.155269,8.44446927 C112.155269,8.03134078 112.081225,7.78837989 111.859321,7.42379888 C111.735953,7.22938547 111.612698,7.08357542 111.440006,6.93776536 L111.440006,6.79195531 C112.007238,6.79195531 114.103532,6.64614525 115.139348,6.28162011 C115.657256,6.11150838 116.224488,5.74698324 116.791721,5.23664804 C117.161655,6.08731844 117.482265,6.6947486 118.024835,7.42379888 C118.51808,8.10424581 118.814028,8.44446927 119.381317,9.00340782 L114.399536,12.0897765 L114.399253,12.0899441 Z M115.040472,6.76793296 L114.349928,6.91374302 L114.349928,11.4580447 L117.03806,9.82977654 L115.040415,6.76787709 L115.040472,6.76793296 Z M125.053358,15.2490503 C124.609437,15.6135754 124.338209,15.8322905 123.968218,16.2211173 C123.302336,15.6622346 122.143209,14.9817877 121.329354,14.9817877 C120.86077,14.9817877 120.63881,15.0546927 120.194889,15.2004469 C120.367525,14.7873184 120.515498,14.52 120.836108,14.2041341 C121.206042,13.8396089 121.50199,13.6451397 122.019898,13.4993855 L122.019898,6.6949162 L121.033406,6.6949162 C120.885433,6.6949162 120.663529,6.74351955 120.466231,6.84072626 C120.342919,6.88932961 120.293595,6.93793296 120.170283,7.01083799 L120.071634,6.98648045 C120.219608,6.71910615 120.219608,6.47608939 120.24427,6.13586592 C120.268989,5.82 120.24427,5.62553073 120.17034,5.30960894 L120.540217,5.43111732 C120.762178,5.47972067 120.910152,5.5526257 121.132112,5.5526257 L122.019954,5.5526257 L122.019954,4.65363128 C122.019954,4.43497207 121.945911,4.26480447 121.822656,4.0947486 C121.724007,3.94893855 121.625358,3.9003352 121.477384,3.80312849 L121.674682,3.58430168 C122.118603,3.51134078 122.611849,3.41413408 123.179025,3.14687151 C123.77092,2.87960894 124.091529,2.63648045 124.560113,2.17480447 L124.708086,2.17480447 C124.584718,2.44217877 124.535394,2.58798883 124.436745,2.87960894 C124.288771,3.34128492 124.239446,3.7301676 124.239446,4.09469274 L124.239446,5.5527933 L124.979315,5.5527933 C125.250657,5.5527933 125.423236,5.52843575 125.669859,5.45558659 C125.842551,5.40698324 125.9412,5.33402235 126.089231,5.23681564 L126.212542,5.33402235 C126.089231,5.65 126.039906,5.86865922 126.039906,6.23324022 C126.039906,6.50055866 126.089231,6.64636872 126.18788,6.91368715 L126.064512,6.98659218 C125.965863,6.93810056 125.891819,6.88938547 125.768564,6.84089385 C125.521942,6.74368715 125.398574,6.6950838 125.127345,6.6950838 L124.239503,6.6950838 L124.239503,13.5481564 C124.510731,13.6453631 124.658705,13.6938547 124.930047,13.815419 C125.201389,13.9369832 125.349306,14.0584358 125.595872,14.2042458 L126.261753,13.7911173 L126.557701,14.1800559 C126.138442,14.4472067 125.620534,14.7874302 125.053302,15.2491061 L125.053358,15.2490503 Z M131.983176,15.2490503 C131.539255,15.6135754 131.268026,15.8322905 130.898036,16.2211173 C130.232154,15.6622346 129.073027,14.9817877 128.259171,14.9817877 C127.790588,14.9817877 127.568628,15.0546927 127.124706,15.2004469 C127.297342,14.7873184 127.445316,14.52 127.765926,14.2041341 C128.13586,13.8396089 128.431807,13.6451397 128.949715,13.4993855 L128.949715,6.6949162 L127.963224,6.6949162 C127.81525,6.6949162 127.593346,6.74351955 127.396048,6.84072626 C127.272737,6.88932961 127.223412,6.93793296 127.100101,7.01083799 L127.001452,6.98648045 C127.149425,6.71910615 127.149425,6.47608939 127.174088,6.13586592 C127.198807,5.82 127.174088,5.62553073 127.100158,5.30960894 L127.470035,5.43111732 C127.691996,5.47972067 127.839969,5.5526257 128.06193,5.5526257 L128.949772,5.5526257 L128.949772,4.65363128 C128.949772,4.43497207 128.875728,4.26480447 128.752474,4.0947486 C128.653825,3.94893855 128.555175,3.9003352 128.407202,3.80312849 L128.6045,3.58430168 C129.048421,3.51134078 129.541667,3.41413408 130.108842,3.14687151 C130.700737,2.87960894 131.021347,2.63648045 131.48993,2.17480447 L131.637904,2.17480447 C131.514536,2.44217877 131.465211,2.58798883 131.366562,2.87960894 C131.218588,3.34128492 131.169264,3.7301676 131.169264,4.09469274 L131.169264,5.5527933 L131.909132,5.5527933 C132.180474,5.5527933 132.353053,5.52843575 132.599676,5.45558659 C132.772369,5.40698324 132.871018,5.33402235 133.019048,5.23681564 L133.14236,5.33402235 C133.019048,5.65 132.969724,5.86865922 132.969724,6.23324022 C132.969724,6.50055866 133.019048,6.64636872 133.117698,6.91368715 L132.994329,6.98659218 C132.89568,6.93810056 132.821637,6.88938547 132.698382,6.84089385 C132.451759,6.74368715 132.328391,6.6950838 132.057163,6.6950838 L131.169321,6.6950838 L131.169321,13.5481564 C131.440549,13.6453631 131.588523,13.6938547 131.859864,13.815419 C132.131206,13.9369832 132.279123,14.0584358 132.525689,14.2042458 L133.191571,13.7911173 L133.487518,14.1800559 C133.068316,14.4472067 132.550352,14.7874302 131.983119,15.2491061 L131.983176,15.2490503 Z M137.507243,12.0899441 L137.507243,13.4022346 C137.852629,13.4750838 138.099138,13.5722905 138.419861,13.7180447 C138.789739,13.8881564 138.987094,14.0096648 139.332366,14.2770391 L140.02291,13.7908939 L140.343519,14.1068715 L137.532019,16.2210615 C136.742826,15.3219553 135.978295,14.9817318 135.287752,14.9817318 C134.819168,14.9817318 134.572545,15.0788268 134.177949,15.2975978 L134.177949,14.9330726 C134.177949,14.5685475 134.325923,14.3741899 134.572545,14.1068156 C134.769844,13.8637989 134.967142,13.7423464 135.263089,13.5965363 L135.263089,8.44446927 C135.263089,8.03134078 135.189102,7.78837989 134.967142,7.42379888 C134.84383,7.22938547 134.720519,7.08357542 134.547883,6.93776536 L134.547883,6.79195531 C135.115116,6.79195531 137.211409,6.64614525 138.247225,6.28162011 C138.765133,6.11150838 139.332366,5.74698324 139.899598,5.23664804 C140.269476,6.08731844 140.590142,6.6947486 141.132712,7.42379888 C141.625958,8.10424581 141.921905,8.44446927 142.489138,9.00340782 L137.507357,12.0897765 L137.507243,12.0899441 Z M138.148463,6.76793296 L137.457919,6.91374302 L137.457919,11.4580447 L140.146108,9.82977654 L138.148519,6.76787709 L138.148463,6.76793296 Z"></path>
            </g>
        </g>
    </g>
</svg>