<?xml version="1.0" encoding="UTF-8"?>
<svg width="108px" height="16px" viewBox="0 0 108 16" version="1.1" xmlns="http://www.w3.org/2000/svg" xmlns:xlink="http://www.w3.org/1999/xlink">
    <!-- Generator: sketchtool 42 (36781) - http://www.bohemiancoding.com/sketch -->
    <title>DD29151C-82E1-459C-8CB2-E18C926ACDEB</title>
    <desc>Created with sketchtool.</desc>
    <defs></defs>
    <g id="Symbols" stroke="none" stroke-width="1" fill="none" fill-rule="evenodd">
        <g id="Logo:-Hoops-Loyal" transform="translate(0.000000, -2.000000)">
            <g transform="translate(0.000000, 2.000000)">
                <path d="M29.37,4.294 L29.37,13 L27.558,13 L27.558,9.25 L23.724,9.25 L23.724,13 L21.912,13 L21.912,4.294 L23.724,4.294 L23.724,7.99 L27.558,7.99 L27.558,4.294 L29.37,4.294 Z M39.606,8.644 C39.606,9.28000318 39.4990011,9.86999728 39.285,10.414 C39.0709989,10.9580027 38.7690019,11.427998 38.379,11.824 C37.988998,12.220002 37.5200027,12.5309989 36.972,12.757 C36.4239973,12.9830011 35.8160033,13.096 35.148,13.096 C34.4799967,13.096 33.8720027,12.9830011 33.324,12.757 C32.7759973,12.5309989 32.306002,12.220002 31.914,11.824 C31.521998,11.427998 31.2190011,10.9580027 31.005,10.414 C30.7909989,9.86999728 30.684,9.28000318 30.684,8.644 C30.684,8.00799682 30.7909989,7.41900271 31.005,6.877 C31.2190011,6.33499729 31.521998,5.86600198 31.914,5.47 C32.306002,5.07399802 32.7759973,4.76300113 33.324,4.537 C33.8720027,4.31099887 34.4799967,4.198 35.148,4.198 C35.8160033,4.198 36.4239973,4.31099887 36.972,4.537 C37.5200027,4.76300113 37.988998,5.07499801 38.379,5.473 C38.7690019,5.87100199 39.0709989,6.34099729 39.285,6.883 C39.4990011,7.42500271 39.606,8.01199684 39.606,8.644 Z M37.764,8.644 C37.764,8.18799772 37.7040006,7.77900181 37.584,7.417 C37.4639994,7.05499819 37.2910011,6.74700127 37.065,6.493 C36.8389989,6.23899873 36.5650016,6.04500067 36.243,5.911 C35.9209984,5.77699933 35.556002,5.71 35.148,5.71 C34.739998,5.71 34.3740016,5.77699933 34.05,5.911 C33.7259984,6.04500067 33.4510011,6.23899873 33.225,6.493 C32.9989989,6.74700127 32.8260006,7.05499819 32.706,7.417 C32.5859994,7.77900181 32.526,8.18799772 32.526,8.644 C32.526,9.1040023 32.5859994,9.51499819 32.706,9.877 C32.8260006,10.2390018 32.9989989,10.5459987 33.225,10.798 C33.4510011,11.0500013 33.7259984,11.2429993 34.05,11.377 C34.3740016,11.5110007 34.739998,11.578 35.148,11.578 C35.556002,11.578 35.9209984,11.5110007 36.243,11.377 C36.5650016,11.2429993 36.8389989,11.0500013 37.065,10.798 C37.2910011,10.5459987 37.4639994,10.2390018 37.584,9.877 C37.7040006,9.51499819 37.764,9.1040023 37.764,8.644 Z M49.338,8.644 C49.338,9.28000318 49.2310011,9.86999728 49.017,10.414 C48.8029989,10.9580027 48.5010019,11.427998 48.111,11.824 C47.720998,12.220002 47.2520027,12.5309989 46.704,12.757 C46.1559973,12.9830011 45.5480033,13.096 44.88,13.096 C44.2119967,13.096 43.6040027,12.9830011 43.056,12.757 C42.5079973,12.5309989 42.038002,12.220002 41.646,11.824 C41.253998,11.427998 40.9510011,10.9580027 40.737,10.414 C40.5229989,9.86999728 40.416,9.28000318 40.416,8.644 C40.416,8.00799682 40.5229989,7.41900271 40.737,6.877 C40.9510011,6.33499729 41.253998,5.86600198 41.646,5.47 C42.038002,5.07399802 42.5079973,4.76300113 43.056,4.537 C43.6040027,4.31099887 44.2119967,4.198 44.88,4.198 C45.5480033,4.198 46.1559973,4.31099887 46.704,4.537 C47.2520027,4.76300113 47.720998,5.07499801 48.111,5.473 C48.5010019,5.87100199 48.8029989,6.34099729 49.017,6.883 C49.2310011,7.42500271 49.338,8.01199684 49.338,8.644 Z M47.496,8.644 C47.496,8.18799772 47.4360006,7.77900181 47.316,7.417 C47.1959994,7.05499819 47.0230011,6.74700127 46.797,6.493 C46.5709989,6.23899873 46.2970016,6.04500067 45.975,5.911 C45.6529984,5.77699933 45.288002,5.71 44.88,5.71 C44.471998,5.71 44.1060016,5.77699933 43.782,5.911 C43.4579984,6.04500067 43.1830011,6.23899873 42.957,6.493 C42.7309989,6.74700127 42.5580006,7.05499819 42.438,7.417 C42.3179994,7.77900181 42.258,8.18799772 42.258,8.644 C42.258,9.1040023 42.3179994,9.51499819 42.438,9.877 C42.5580006,10.2390018 42.7309989,10.5459987 42.957,10.798 C43.1830011,11.0500013 43.4579984,11.2429993 43.782,11.377 C44.1060016,11.5110007 44.471998,11.578 44.88,11.578 C45.288002,11.578 45.6529984,11.5110007 45.975,11.377 C46.2970016,11.2429993 46.5709989,11.0500013 46.797,10.798 C47.0230011,10.5459987 47.1959994,10.2390018 47.316,9.877 C47.4360006,9.51499819 47.496,9.1040023 47.496,8.644 Z M53.598,8.626 C54.1620028,8.626 54.5749987,8.49000136 54.837,8.218 C55.0990013,7.94599864 55.23,7.57400236 55.23,7.102 C55.23,6.88599892 55.1970003,6.68900089 55.131,6.511 C55.0649997,6.33299911 54.9650007,6.18100063 54.831,6.055 C54.6969993,5.92899937 54.528001,5.83200034 54.324,5.764 C54.119999,5.69599966 53.8780014,5.662 53.598,5.662 L52.458,5.662 L52.458,8.626 L53.598,8.626 Z M53.598,4.294 C54.194003,4.294 54.7089978,4.3639993 55.143,4.504 C55.5770022,4.6440007 55.9339986,4.83899875 56.214,5.089 C56.4940014,5.33900125 56.7009993,5.63599828 56.835,5.98 C56.9690007,6.32400172 57.036,6.69799798 57.036,7.102 C57.036,7.53000214 56.9660007,7.92199822 56.826,8.278 C56.6859993,8.63400178 56.4740014,8.93999872 56.19,9.196 C55.9059986,9.45200128 55.5480022,9.65099929 55.116,9.793 C54.6839978,9.93500071 54.1780029,10.006 53.598,10.006 L52.458,10.006 L52.458,13 L50.658,13 L50.658,4.294 L53.598,4.294 Z M62.898,5.962 C62.8419997,6.05400046 62.7850003,6.12099979 62.727,6.163 C62.6689997,6.20500021 62.5940005,6.226 62.502,6.226 C62.4139996,6.226 62.3190005,6.19500031 62.217,6.133 C62.1149995,6.07099969 61.9960007,6.00400036 61.86,5.932 C61.7239993,5.85999964 61.5680009,5.79300031 61.392,5.731 C61.2159991,5.66899969 61.0100012,5.638 60.774,5.638 C60.3579979,5.638 60.046001,5.73099907 59.838,5.917 C59.629999,6.10300093 59.526,6.3459985 59.526,6.646 C59.526,6.83800096 59.5829994,6.99699937 59.697,7.123 C59.8110006,7.24900063 59.9609991,7.35799954 60.147,7.45 C60.3330009,7.54200046 60.5439988,7.62399964 60.78,7.696 C61.0160012,7.76800036 61.2579988,7.84699957 61.506,7.933 C61.7540012,8.01900043 61.9959988,8.11999942 62.232,8.236 C62.4680012,8.35200058 62.6789991,8.49799912 62.865,8.674 C63.0510009,8.85000088 63.2009994,9.06499873 63.315,9.319 C63.4290006,9.57300127 63.486,9.88199818 63.486,10.246 C63.486,10.642002 63.4170007,11.0129983 63.279,11.359 C63.1409993,11.7050017 62.9420013,12.0069987 62.682,12.265 C62.4219987,12.5230013 62.1010019,12.7259993 61.719,12.874 C61.3369981,13.0220007 60.9040024,13.096 60.42,13.096 C60.1439986,13.096 59.8690014,13.0680003 59.595,13.012 C59.3209986,12.9559997 59.0570013,12.8780005 58.803,12.778 C58.5489987,12.6779995 58.3100011,12.5580007 58.086,12.418 C57.8619989,12.2779993 57.6660008,12.1220009 57.498,11.95 L58.026,11.098 C58.0700002,11.0339997 58.1279996,10.9810002 58.2,10.939 C58.2720004,10.8969998 58.3479996,10.876 58.428,10.876 C58.5360005,10.876 58.6499994,10.9159996 58.77,10.996 C58.8900006,11.0760004 59.0279992,11.1639995 59.184,11.26 C59.3400008,11.3560005 59.520999,11.4439996 59.727,11.524 C59.933001,11.6040004 60.1799986,11.644 60.468,11.644 C60.8880021,11.644 61.2129988,11.548001 61.443,11.356 C61.6730011,11.163999 61.788,10.8780019 61.788,10.498 C61.788,10.2779989 61.7310006,10.1000007 61.617,9.964 C61.5029994,9.82799932 61.3540009,9.71400046 61.17,9.622 C60.9859991,9.52999954 60.7760012,9.45100033 60.54,9.385 C60.3039988,9.31899967 60.0620012,9.2460004 59.814,9.166 C59.5659988,9.0859996 59.3240012,8.99000056 59.088,8.878 C58.8519988,8.76599944 58.6420009,8.61800092 58.458,8.434 C58.2739991,8.24999908 58.1250006,8.02200136 58.011,7.75 C57.8969994,7.47799864 57.84,7.14000202 57.84,6.736 C57.84,6.41199838 57.9039994,6.09800152 58.032,5.794 C58.1600006,5.48999848 58.3479988,5.22000118 58.596,4.984 C58.8440012,4.74799882 59.1489982,4.55800072 59.511,4.414 C59.8730018,4.26999928 60.2879977,4.198 60.756,4.198 C61.2800026,4.198 61.7649978,4.27899919 62.211,4.441 C62.6570022,4.60300081 63.0339985,4.82799856 63.342,5.116 L62.898,5.962 Z M73.032,12.478 L73.032,13 L68.394,13 L68.394,4.51 L69.012,4.51 L69.012,12.478 L73.032,12.478 Z M82.008,8.752 C82.008,9.40800328 81.910001,10.0029973 81.714,10.537 C81.517999,11.0710027 81.2420018,11.5269981 80.886,11.905 C80.5299982,12.2830019 80.1030025,12.574999 79.605,12.781 C79.1069975,12.987001 78.558003,13.09 77.958,13.09 C77.357997,13.09 76.8100025,12.987001 76.314,12.781 C75.8179975,12.574999 75.3920018,12.2830019 75.036,11.905 C74.6799982,11.5269981 74.404001,11.0710027 74.208,10.537 C74.011999,10.0029973 73.914,9.40800328 73.914,8.752 C73.914,8.09999674 74.011999,7.50700267 74.208,6.973 C74.404001,6.43899733 74.6799982,5.98300189 75.036,5.605 C75.3920018,5.22699811 75.8179975,4.93400104 76.314,4.726 C76.8100025,4.51799896 77.357997,4.414 77.958,4.414 C78.558003,4.414 79.1069975,4.51699897 79.605,4.723 C80.1030025,4.92900103 80.5299982,5.2219981 80.886,5.602 C81.2420018,5.9820019 81.517999,6.43899733 81.714,6.973 C81.910001,7.50700267 82.008,8.09999674 82.008,8.752 Z M81.372,8.752 C81.372,8.15999704 81.2900008,7.62800236 81.126,7.156 C80.9619992,6.68399764 80.7300015,6.28400164 80.43,5.956 C80.1299985,5.62799836 79.7700021,5.37700087 79.35,5.203 C78.9299979,5.02899913 78.4660025,4.942 77.958,4.942 C77.4539975,4.942 76.9920021,5.02899913 76.572,5.203 C76.1519979,5.37700087 75.7910015,5.62799836 75.489,5.956 C75.1869985,6.28400164 74.9530008,6.68399764 74.787,7.156 C74.6209992,7.62800236 74.538,8.15999704 74.538,8.752 C74.538,9.34800298 74.6209992,9.88099765 74.787,10.351 C74.9530008,10.8210023 75.1869985,11.2199984 75.489,11.548 C75.7910015,11.8760016 76.1519979,12.1259991 76.572,12.298 C76.9920021,12.4700009 77.4539975,12.556 77.958,12.556 C78.4660025,12.556 78.9299979,12.4700009 79.35,12.298 C79.7700021,12.1259991 80.1299985,11.8760016 80.43,11.548 C80.7300015,11.2199984 80.9619992,10.8210023 81.126,10.351 C81.2900008,9.88099765 81.372,9.34800298 81.372,8.752 Z M86.586,9.502 L86.586,13 L85.974,13 L85.974,9.502 L82.83,4.51 L83.37,4.51 C83.4260003,4.51 83.4719998,4.52299987 83.508,4.549 C83.5440002,4.57500013 83.5739999,4.61199976 83.598,4.66 L86.028,8.56 C86.0800003,8.65200046 86.1279998,8.74099957 86.172,8.827 C86.2160002,8.91300043 86.2539998,8.99799958 86.286,9.082 C86.3180002,8.99799958 86.3539998,8.91300043 86.394,8.827 C86.4340002,8.74099957 86.4799997,8.65200046 86.532,8.56 L88.962,4.66 C88.9820001,4.61599978 89.0109998,4.58000014 89.049,4.552 C89.0870002,4.52399986 89.1339997,4.51 89.19,4.51 L89.73,4.51 L86.586,9.502 Z M95.682,9.916 L93.954,5.626 C93.8939997,5.4859993 93.8360003,5.31800098 93.78,5.122 C93.7559999,5.21800048 93.7300001,5.30899957 93.702,5.395 C93.6739999,5.48100043 93.6440002,5.55999964 93.612,5.632 L91.884,9.916 L95.682,9.916 Z M97.56,13 L97.086,13 C97.0299997,13 96.9840002,12.9850001 96.948,12.955 C96.9119998,12.9249998 96.8840001,12.8860002 96.864,12.838 L95.868,10.372 L91.698,10.372 L90.702,12.838 C90.6859999,12.8820002 90.6580002,12.9199998 90.618,12.952 C90.5779998,12.9840002 90.5300003,13 90.474,13 L90.006,13 L93.48,4.51 L94.086,4.51 L97.56,13 Z M103.608,12.478 L103.608,13 L98.97,13 L98.97,4.51 L99.588,4.51 L99.588,12.478 L103.608,12.478 Z" id="HOOPS-LOYAL" fill="#1E1E1E"></path>
                <g id="Page-1" fill="#F26F26">
                    <path d="M1.75914667,6.62506667 C2.2208,6.61504 2.64,6.77333333 3.01248,7.1008 C3.33248,6.72490667 3.68746667,6.35669333 4.08341333,6.00341333 C3.94090667,5.53664 3.84256,5.09994667 3.77749333,4.6976 C3.52576,3.15413333 3.70581333,1.92426667 3.93088,1.10677333 C1.7216,2.41002667 0.194133333,4.74581333 0.0100266667,7.45088 C0.475093333,7.04170667 1.09248,6.64490667 1.75914667,6.62506667 Z" id="Fill-1"></path>
                    <path d="M8.89834667,2.15744 C8.59242667,2.52416 8.50176,3.00501333 8.6176,3.61664 C10.40832,3.17162667 12.41088,3.13408 14.6075733,3.50506667 C13.9957333,2.60586667 13.2042667,1.83914667 12.28672,1.25333333 C11.3608533,1.21002667 9.60576,1.30922667 8.89834667,2.15744 Z" id="Fill-2"></path>
                    <path d="M4.54826667,4.63253333 C4.59328,4.89493333 4.65408,5.17504 4.73258667,5.46752 C4.93248,5.31584 5.1392,5.16757333 5.35573333,5.02592 C6.13504,4.51754667 6.97408,4.11925333 7.87093333,3.82912 C7.69002667,2.95424 7.83573333,2.22677333 8.30677333,1.66250667 C8.91157333,0.9376 9.94922667,0.644266667 10.8642133,0.534186667 C9.97162667,0.190933333 9.00330667,0 7.98912,0 C6.90176,0 5.86410667,0.21824 4.91925333,0.611626667 C4.68416,1.16416 4.20501333,2.60992 4.54826667,4.63253333 Z" id="Fill-3"></path>
                    <path d="M8.83754667,4.3584 C10.02176,7.27338667 14.4616533,8.78677333 15.90592,9.15157333 C15.9598933,8.77589333 15.98912,8.39168 15.98912,8 C15.98912,6.69994667 15.6765867,5.47242667 15.12576,4.38741333 C12.79424,3.91338667 10.68992,3.90421333 8.83754667,4.3584 Z" id="Fill-4"></path>
                    <path d="M4.36074667,6.80085333 C4.0576,7.09077333 3.78005333,7.39093333 3.52746667,7.69578667 C4.91413333,9.67168 4.65002667,12.3383467 4.08170667,14.9800533 C5.23754667,15.6283733 6.57002667,16 7.98912,16 C9.2192,16 10.3842133,15.7216 11.42592,15.2258133 C7.24586667,12.06336 5.26250667,9.12490667 4.36074667,6.80085333 Z" id="Fill-5"></path>
                    <path d="M8.09173333,4.57002667 C7.26592,4.8384 6.49408,5.20661333 5.77834667,5.67253333 C5.49589333,5.85664 5.23157333,6.05248 4.98005333,6.25578667 C5.7984,8.54592 7.75253333,11.54496 12.1717333,14.8200533 C13.9392,13.7341867 15.2516267,11.9799467 15.7582933,9.90997333 C14.00832,9.49162667 9.33589333,7.75338667 8.09173333,4.57002667 Z" id="Fill-6"></path>
                    <path d="M0.0100266667,8.54912 C0.07424,9.5008 0.305066667,10.40576 0.67328,11.2375467 C0.983253333,10.3392 1.55328,9.0176 2.53162667,7.70410667 C2.29824,7.48906667 2.05077333,7.38581333 1.78176,7.39669333 C1.11082667,7.41589333 0.395093333,8.09408 0.0100266667,8.54912 Z" id="Fill-7"></path>
                    <path d="M3.02912,8.3424 C1.87925333,9.95498667 1.36170667,11.5549867 1.18421333,12.2058667 C1.75338667,13.1249067 2.50410667,13.9191467 3.38581333,14.5416533 C3.85578667,12.2624 4.05333333,10.0034133 3.02912,8.3424 Z" id="Fill-8"></path>
                </g>
                <g id="Group" transform="translate(104.233766, 3.123967)" fill-rule="nonzero" fill="#272727">
                    <polygon id="Shape" points="1.00008951 2.1447695 1.00008951 0.884065403 0.535619582 0.884065403 0.535619582 0.718183284 1.66361799 0.718183284 1.66361799 0.884065403 1.19914806 0.884065403 1.19914806 2.1447695"></polygon>
                    <path d="M1.86267653,2.1447695 L1.86267653,0.718183284 L2.16126434,0.718183284 L2.49302858,1.713476 C2.526205,1.81300527 2.55938143,1.87935811 2.55938143,1.91253454 C2.55938143,1.84618169 2.59255785,1.77982884 2.62573428,1.68029957 L2.95749851,0.685006861 L3.2229099,0.685006861 L3.2229099,2.11159308 L3.05702778,2.11159308 L3.05702778,0.917241827 L2.6589107,2.11159308 L2.49302858,2.11159308 L2.0949115,0.884065403 L2.0949115,2.11159308 L1.86267653,2.11159308 L1.86267653,2.1447695 Z" id="Shape"></path>
                </g>
            </g>
        </g>
    </g>
</svg>