<?xml version="1.0" encoding="UTF-8"?>
<svg width="130px" height="20px" viewBox="0 0 130 20" version="1.1" xmlns="http://www.w3.org/2000/svg" xmlns:xlink="http://www.w3.org/1999/xlink">
    <!-- Generator: sketchtool 42 (36781) - http://www.bohemiancoding.com/sketch -->
    <title>B4BC4FDD-2B5B-4CF5-AE13-0930F6796177</title>
    <desc>Created with sketchtool.</desc>
    <defs></defs>
    <g id="Symbols" stroke="none" stroke-width="1" fill="none" fill-rule="evenodd">
        <g id="Logo:-Hartford-Courant" fill-rule="nonzero" fill="#1D1D1D">
            <g id="Shape">
                <path d="M59.6661687,15.7560976 C58.864458,15.295122 57.8849661,15.1043902 57.3971579,13.8085366 C56.9054743,12.5109756 57.0604878,7.55560976 57.1639109,6.67195122 C57.8856928,6.07682927 59.4600491,5.02609756 59.4600491,5.02609756 C59.0168072,4.48463415 57.2947036,3.02609756 57.5514448,1.70243902 C58.1957199,1.10731707 59.82094,0.0541463415 59.9783757,0 L60.0558825,0.134146341 C59.6320173,0.14804878 59.4891142,1.12121951 59.903291,1.60780488 C60.3150457,2.09463415 62.3810857,4.34365854 62.7395545,4.77682927 C63.1004455,5.20853659 64.0547476,5.97195122 64.2218716,7.61414634 C64.4035281,9.3904878 64.4180606,11.8629268 63.8779353,12.8636585 C63.3353879,13.8636585 59.6974136,15.6758537 59.6731928,15.7563415 L59.6661687,15.7560976 Z M61.8169817,14.0326829 C62.0228591,13.0880488 62.0901931,9.89121951 61.8581572,8.61902439 C61.6249102,7.34902439 60.9547188,6.48658537 59.7158215,5.32390244 C59.3791514,6.64780488 59.2255911,10.5434146 59.6387991,12.0531707 C60.0602422,13.5843902 61.3778574,14.1936585 61.8162551,14.0326829 L61.8169817,14.0326829 Z M15.069497,13.6873171 C14.9665583,13.8687805 14.4748747,14.1034146 14.3198611,13.9970732 C14.1648476,13.8946341 13.4430657,13.4004878 13.3660434,12.6987805 C13.2892632,11.9963415 13.3922019,3.97365854 13.5210569,2.72560976 C13.6503963,1.47853659 14.6291616,1.3997561 14.9646206,1.34853659 C14.9646206,1.34853659 14.8875982,1.16560976 14.809607,1.06073171 C14.3481995,1.08756098 11.5366413,2.61926829 11.0984858,2.90707317 C11.0984858,2.90707317 10.9173137,3.42658537 10.9434722,4.20463415 C10.9492852,4.39487805 10.9517073,5.6802439 10.9507385,7.20463415 C10.405769,7.72658537 9.39575881,7.40219512 8.82802168,7.10707317 L8.82802168,3.50487805 C8.82802168,3.31560976 8.9571189,3.14146341 9.16323848,3.03731707 L8.64684959,1.11634146 L8.18253557,3.06365854 C8.18253557,3.06365854 8.49256267,3.37585366 8.51920562,3.53195122 C8.51920562,3.53195122 8.52259654,5.16853659 8.5240498,7.0904878 C8.2559248,7.26365854 7.60559451,7.67829268 7.14249153,7.98073171 C7.2030437,7.06365854 7.20546579,6.04902439 7.12311484,5.01487805 C6.89083672,2.10731707 5.34312331,1.35365854 5.11060298,1.17073171 C4.87905149,0.98902439 4.43968496,0.963902439 3.69368225,1.50780488 C2.94767954,2.05170732 0.961568428,3.89512195 0.392378049,4.98585366 C0.392378049,4.98585366 0.445663957,5.27195122 0.547391599,5.45317073 C0.547391599,5.45317073 0.833197832,5.47926829 0.934925474,5.42707317 C0.934925474,5.42707317 1.0390752,3.27341463 2.4576914,3.29780488 C3.87461213,3.32463415 4.95970698,5.11487805 4.95970698,7.81731707 C4.95970698,10.2709756 4.61819275,11.7563415 4.28394478,12.6904878 C3.98215278,12.5660976 3.73897527,12.4660976 3.61544885,12.4173171 C3.07387026,12.21 2.40440549,12.6246341 2.11932588,12.8343902 C1.83594173,13.0417073 0.624171748,14.7831707 0.262554201,15.4319512 C0.262554201,15.4319512 0.210479336,15.5612195 0.262554201,15.6904878 C0.314629065,15.8221951 0.546664973,15.7685366 0.726868225,15.7173171 C0.726868225,15.7173171 0.625140583,15.3270732 1.19190888,14.7856098 C1.76109925,14.2368293 2.7929082,14.2368293 3.23130589,14.3953659 C3.66970359,14.5514634 5.83747121,15.4880488 6.48174627,15.8514634 C6.48174627,15.8514634 8.05610264,14.112439 8.52114329,13.6441463 C8.98618394,13.1758537 8.83117039,12.9417073 8.83117039,12.2929268 L8.83117039,8.8804878 C9.27683435,8.61219512 10.4345918,7.91560976 10.9529184,7.5795122 C10.9529184,9.88780488 10.9456521,12.5731707 10.9456521,12.8587805 C10.9456521,13.3514634 10.7397747,13.507561 10.5605403,13.6392683 L12.6241582,15.8197561 C13.5784604,15.507561 15.1528167,14.0246341 15.2569665,13.8734146 C15.3586941,13.7197561 15.07531,13.6904878 15.07531,13.6904878 L15.069497,13.6873171 Z M8.49256267,13.0639024 C8.4404878,14.0492683 7.56296579,14.0234146 7.22896003,13.9207317 C6.98675136,13.8460976 5.49280827,13.2007317 4.47746951,12.7709756 C5.02243902,12.4173171 6.15694444,11.6782927 6.35143801,11.4831707 C6.68810806,11.0221951 6.9768208,9.85634146 7.11027778,8.38317073 C7.54431572,8.50512195 8.18810637,8.75146341 8.52356538,8.92219512 C8.52114329,10.8587805 8.51629912,12.6685366 8.49450034,13.0660976 L8.49256267,13.0639024 Z M17.4889194,15.7207317 C18.2620495,15.6378049 19.6348882,13.9373171 20.2542158,13.5309756 C20.4615464,14.2060976 21.3126677,15.4131707 21.6742852,15.7626829 C22.7056098,15.4919512 23.454519,14.3146341 23.8924322,13.8002439 L23.763335,13.6392683 C23.2474306,13.7782927 22.784812,13.3978049 22.7315261,12.9636585 C22.5304929,11.2734146 22.56198,6.46121951 22.7993445,6.17829268 C22.7993445,6.17829268 22.5280708,5.99292683 22.1671799,5.80268293 C20.6703303,5.0197561 19.071753,4.90512195 18.3766142,4.98560976 C17.3205843,5.4295122 16.1313398,7.61487805 16.0296121,7.80512195 C15.9278845,7.99292683 15.6929421,8.34414634 16.0804759,8.85878049 C16.4680098,9.37341463 17.7735146,9.4295122 17.8582876,10.3392683 C17.2915193,10.6636585 15.7970918,11.6978049 15.3853371,12.3197561 C15.7728709,14.6734146 16.7780369,15.2660976 17.4949746,15.7270732 L17.4889194,15.7207317 Z M18.0476948,10.2036585 C18.0476948,10.2036585 18.0101524,9.69390244 17.8810552,9.31512195 C17.751958,8.93707317 16.7058587,8.36878049 16.4999814,7.9102439 C16.2926507,7.45 16.6709807,6.95756098 17.0376846,6.76292683 C18.1058249,6.19292683 19.6099407,6.9102439 20.2815854,7.20780488 C20.3845241,7.77365854 20.3695071,8.36487805 20.3695071,9.22829268 C19.9020444,9.36634146 18.5359875,9.96292683 18.0467259,10.2039024 L18.0476948,10.2036585 Z M17.8548967,11.2458537 C18.0099102,9.95560976 19.8160603,9.76536585 20.3569123,9.53121951 C20.3569123,9.53121951 20.4092293,10.232439 20.3312381,11.6604878 C20.2561535,13.0897561 19.7644699,13.614878 19.4035789,13.607561 C18.1925356,13.5831707 17.7541379,12.105122 17.8582876,11.2465854 L17.8548967,11.2458537 Z M39.6415667,1.54829268 C39.9164736,1.47853659 39.9847764,1.72219512 39.9847764,1.72219512 C39.9847764,1.72219512 41.2568564,2.79536585 41.3254014,2.93682927 C41.3932199,3.07341463 41.7371562,3.07341463 41.8752151,3.00756098 C41.8752151,3.00756098 43.0765701,1.89780488 43.4205064,1.65634146 C43.4205064,1.65634146 43.1443886,1.58804878 42.766543,1.41487805 C42.3886975,1.24414634 42.0447612,0.827073171 41.3907978,0.202682927 C41.3907978,0.202682927 38.0531623,2.31487805 37.3652896,2.8002439 L37.4500627,2.78317073 L37.4500627,4.99292683 L34.5631775,4.99292683 L34.5631775,2.05121951 L33.5822324,2.44146341 C33.5635823,2.81463415 33.0236992,4.05707317 32.5060993,4.95195122 C32.4649238,4.99463415 32.4225373,5.04585366 32.3716734,5.11536585 C31.8155623,5.8795122 31.5299983,5.84414634 30.7440312,5.52560976 C30.2891633,5.25 29.7805251,5.16073171 29.5402541,5.19317073 C29.0243496,5.51707317 27.8205725,7.4695122 27.7806081,7.37536585 C27.6837246,7.14609756 26.7294224,5.46317073 26.7294224,5.46317073 C26.7294224,5.46317073 26.4726812,4.65341463 25.8276795,5.16317073 C25.1819512,5.67536585 24.3565041,6.35341463 23.7374187,7.05585366 C24.3056402,6.78512195 25.0526118,7.2997561 25.3878286,7.91926829 C25.7244986,8.54121951 25.5174102,12.8387805 25.4665464,13.3241463 C25.4137449,13.8095122 25.2858587,13.9460976 25.2078675,14.0802439 C25.416167,14.4046341 26.4663838,15.3217073 26.7507368,15.6168293 C27.0341209,15.9143902 27.1431148,15.8046341 27.2666413,15.7509756 C27.5524475,15.6241463 29.8510078,14.0509756 29.8510078,13.6973171 L29.7487957,13.6436585 C29.7487957,13.6436585 29.4499102,14.2460976 28.9107537,14.187561 C28.3633621,14.1192683 27.968562,13.694878 27.8401914,13.3436585 C27.7118208,12.994878 27.8508486,9.77780488 27.8668343,8.4802439 C27.8813669,7.33390244 28.3960603,6.9095122 28.846084,7.0997561 C28.846084,7.0997561 29.1599864,7.20219512 29.6976897,7.58756098 C29.9374763,7.75829268 30.4146274,7.67536585 30.5955572,7.49243902 C30.7166616,7.3704878 31.455398,6.68512195 32.0924068,6.06804878 L32.0924068,12.792439 C32.0924068,13.4168293 31.7290938,13.8021951 31.4989956,13.9826829 L33.3567361,15.7509756 C33.3567361,15.7509756 35.2411196,14.4021951 35.7570241,13.9314634 C35.2144766,13.6729268 34.6985722,13.1021951 34.5968445,12.6339024 L34.5968445,5.73170732 L37.3822442,5.73170732 L37.459751,5.65 L37.459751,9.78658537 C37.3289583,13.2939024 38.2323967,19.2158537 34.8535857,19.6304878 C34.8002998,19.7329268 34.7760789,19.8646341 34.8535857,19.995122 C39.4167971,18.4268293 39.6420512,12.3487805 39.6420512,9.92439024 L39.6420512,5.85365854 L41.9454556,5.87878049 L42.4274509,4.97756098 L39.6420512,4.97756098 C39.6396291,3.11902439 39.6396291,1.54756098 39.6396291,1.54756098 L39.6415667,1.54829268 Z M41.7141463,7.81780488 L45.557998,4.9602439 C46.5139956,5.37536585 47.1824915,5.71292683 47.6477744,5.99926829 C48.1120884,6.28536585 48.2598357,6.73146341 48.3441243,7.16756098 C48.5252964,8.10268293 48.447063,11.8431707 48.3700407,13.2465854 C47.570752,13.7929268 45.7144648,14.9612195 45.1995291,15.2490244 C44.6831402,15.5343902 43.9085569,15.7417073 43.9085569,15.7417073 C43.2630708,15.3539024 41.5353963,14.912439 41.5353963,11.9539024 C41.5337009,8.98804878 41.637124,8.67585366 41.7141463,7.82219512 L41.7141463,7.81780488 Z M45.9188889,14.414878 C46.3829607,13.6636585 46.3568022,13.4807317 46.408877,12.3904878 C46.4609519,11.3002439 46.408877,10.21 46.2797798,9.22219512 C46.1506826,8.23439024 45.8680251,7.01243902 43.8044072,6.54658537 C43.6489092,7.92463415 42.9518327,14.7563415 45.9188889,14.4173171 L45.9188889,14.414878 Z M49.0375678,7.0197561 C49.6067581,6.75146341 50.3544563,7.26365854 50.6894309,7.88560976 C51.0261009,8.51 50.8187703,12.805122 50.7669377,13.2904878 C50.7160738,13.7807317 50.5867344,13.912439 50.508501,14.0490244 C50.7155894,14.3709756 51.765564,15.2904878 52.0501592,15.5856098 C52.3325745,15.8831707 52.4435061,15.7782927 52.5665481,15.7221951 C52.853081,15.5929268 55.1516413,14.0197561 55.1516413,13.6660976 L55.0474915,13.612439 C55.0474915,13.612439 54.7481216,14.2173171 54.2094495,14.1563415 C53.6620579,14.0904878 53.2672578,13.6685366 53.139856,13.314878 C53.0107588,12.9685366 53.1507554,9.75390244 53.1657724,8.45390244 C53.1778828,7.30756098 53.6945139,6.88560976 54.1467175,7.07585366 C54.1467175,7.07585366 54.4555335,7.18560976 54.999292,7.56365854 C55.5386907,7.94414634 55.4376897,8.10512195 55.4103201,8.4295122 L55.5386907,8.53926829 C55.5386907,8.53926829 56.4445512,6.64658537 56.7545783,6.24414634 C56.3428235,5.38073171 55.2335078,5.11 54.8459739,5.16365854 C54.3300694,5.48804878 53.1262923,7.43926829 53.0851169,7.34658537 C52.9906555,7.1197561 52.0363533,5.43609756 52.0363533,5.43609756 C52.0363533,5.43609756 51.7796121,4.62804878 51.1353371,5.14097561 C50.491062,5.65390244 49.6651304,6.33365854 49.0450762,7.03609756 L49.0375678,7.0197561 Z M107.04824,15.7221951 C107.822824,15.6392683 109.195904,13.9392683 109.815716,13.5343902 C110.021594,14.21 110.874168,15.4173171 111.233606,15.7660976 C112.266626,15.4953659 113.01384,14.3197561 113.453933,13.805122 L113.324593,13.6441463 C112.810384,13.7831707 112.342437,13.4026829 112.291574,12.9685366 C112.092962,11.2782927 112.122027,6.46609756 112.361087,6.18317073 C112.361087,6.18317073 112.085454,5.99780488 111.728196,5.80756098 C110.228924,5.02463415 108.630347,4.91 107.935208,4.99292683 C106.876756,5.43682927 105.687512,7.62219512 105.583362,7.81 C105.479212,7.99780488 105.246692,8.35146341 105.636648,8.86365854 C106.024182,9.37829268 107.324842,9.43195122 107.412038,10.3441463 C106.845269,10.6685366 105.350842,11.7026829 104.939087,12.3246341 C105.324199,14.6782927 106.329365,15.2709756 107.04388,15.7319512 L107.04824,15.7221951 Z M107.607016,10.207561 C107.607016,10.207561 107.569958,9.69780488 107.44086,9.3197561 C107.31249,8.94170732 106.266148,8.37341463 106.059302,7.91487805 C105.852698,7.45634146 106.23127,6.96365854 106.59749,6.76853659 C107.663692,6.2002439 109.169746,6.91731707 109.837031,7.21487805 C109.941181,7.78073171 109.926648,8.37341463 109.926648,9.23682927 C109.464029,9.37585366 108.100395,9.97097561 107.608711,10.212439 L107.607016,10.207561 Z M107.416882,11.2490244 C107.571895,9.95878049 109.373928,9.76853659 109.918897,9.53439024 C109.918897,9.53439024 109.969761,10.2368293 109.892254,11.6636585 C109.814748,13.0929268 109.325486,13.6197561 108.962173,13.612439 C107.746286,13.5880488 107.307888,12.11 107.412038,11.2514634 L107.416882,11.2490244 Z M126.166255,2.59780488 C125.832007,3.4197561 124.315781,5.22219512 123.492271,5.91487805 L124.669405,5.91487805 L124.669405,12.9636585 C124.669405,13.5856098 124.308515,13.9758537 124.075994,14.1587805 L125.931313,15.9246341 C125.931313,15.9246341 127.813274,14.5758537 128.329179,14.11 C127.786631,13.8514634 127.268305,13.2782927 127.166577,12.812439 L127.166577,5.89512195 L128.711868,5.89512195 L129.157532,5.14146341 L127.13509,5.14146341 L127.13509,2.20731707 L126.158989,2.59634146 L126.166255,2.59780488 Z M81.1835027,7.8195122 L85.0283232,4.96146341 C85.9821409,5.37682927 86.6547544,5.71439024 87.1178574,6.0004878 C87.582898,6.28682927 87.7282232,6.73292683 87.8178404,7.16878049 C87.999497,8.10414634 87.9219902,11.8443902 87.8444834,13.2480488 C87.0451948,13.7943902 85.1874543,14.9626829 84.6715498,15.2497561 C84.1580674,15.535122 83.3829997,15.742439 83.3829997,15.742439 C82.7387246,15.3531707 81.0117768,14.9114634 81.0117768,11.9529268 C81.0069326,8.98707317 81.1110823,8.67487805 81.1885891,7.82 L81.1835027,7.8195122 Z M85.3875186,14.4146341 C85.8525593,13.6617073 85.8273696,13.4804878 85.8792022,12.3885366 C85.9315193,11.2973171 85.8792022,10.2065854 85.7508316,9.2202439 C85.6214922,8.23243902 85.3390769,7.0104878 83.2759434,6.54390244 C83.1185078,7.92146341 82.4209468,14.752439 85.385581,14.4146341 L85.3875186,14.4146341 Z M97.6900237,7.01804878 C98.2599407,6.74878049 99.0086077,7.26146341 99.3435823,7.88292683 C99.6802524,8.50536585 99.473164,12.8009756 99.4210891,13.2868293 C99.3702253,13.7765854 99.2389482,13.9080488 99.1638635,14.0446341 C99.3702253,14.3665854 100.420926,15.284878 100.7031,15.5802439 C100.986484,15.8753659 101.095478,15.7704878 101.216582,15.7168293 C101.50481,15.587561 103.803371,14.0143902 103.803371,13.6607317 L103.701643,13.6070732 C103.701643,13.6070732 103.403726,14.2119512 102.861663,14.1485366 C102.314756,14.0826829 101.918261,13.6582927 101.790132,13.3046341 C101.661762,12.9558537 101.804665,9.74121951 101.816775,8.44121951 C101.831308,7.29243902 102.34479,6.87292683 102.795783,7.06073171 C102.795783,7.06073171 103.10581,7.1704878 103.646904,7.54609756 C104.190662,7.92658537 104.086513,8.08756098 104.061081,8.4095122 L104.190662,8.51682927 C104.190662,8.51682927 105.096523,6.62414634 105.404128,6.22170732 C104.994795,5.35585366 103.880635,5.08756098 103.495523,5.14121951 C102.979619,5.46560976 101.775842,7.41682927 101.734666,7.32170732 C101.637783,7.09487805 100.678637,5.4095122 100.678637,5.4095122 C100.678637,5.4095122 100.424317,4.59731707 99.7776203,5.11195122 C99.128501,5.63146341 98.3049915,6.30707317 97.6849373,7.00707317 L97.6900237,7.01804878 Z M77.3069529,13.9887805 L77.3069529,9.27853659 C77.5699915,9.02243902 78.0766921,8.5304878 78.3721867,8.23268293 C78.3721867,8.23268293 77.7976677,7.88536585 77.3069529,7.37512195 L77.3069529,3.2902439 C77.604143,3.46926829 77.8582199,3.61707317 77.9599475,3.66219512 C78.2699746,3.79926829 78.6841514,4.04268293 79.1976338,3.66219512 C79.7135383,3.28073171 80.2996833,2.96804878 80.9536467,2.3804878 L80.851919,2.17195122 C80.851919,2.17195122 80.3021054,2.31097561 79.7862009,2.24341463 C79.2702964,2.17195122 78.9263601,1.93121951 77.5845241,1.0995122 L73.699497,2.93609756 C74.3098628,6.94195122 73.8811535,10.4246341 72.808169,12.7060976 C70.3739719,10.0109756 72.0064583,4.17804878 73.1763262,3.19878049 L73.0988194,3.08414634 L69.8265803,4.44756098 C69.6207029,6.21341463 68.254646,9.52390244 70.1680945,13.3809756 C70.4587449,13.9646341 70.851123,14.4231707 71.3040532,14.7795122 C69.5625728,16.2514634 67.9809502,15.2521951 67.7532741,15.055122 L67.5134875,15.09 C68.031814,16.6119512 68.7196867,16.1973171 69.5092869,15.9558537 C70.2819326,15.7192683 70.9601169,15.3753659 71.5559502,14.9534146 C74.1015633,16.6607317 78.3353709,15.5778049 79.1831013,15.3485366 C79.1831013,15.3485366 80.2851507,12.5070732 80.5588465,11.5729268 L80.2512415,11.4997561 C80.1955335,13.0704878 78.645398,13.7656098 77.3205166,13.9826829 L77.3069529,13.9887805 Z M73.3347307,13.1929268 C76.137085,9.39780488 75.9312077,3.3904878 75.9312077,2.45146341 C75.9312077,2.45146341 76.5188059,2.81731707 77.0657131,3.14902439 L77.0657131,7.34658537 C76.8574136,7.58073171 76.3681521,8.10756098 75.8982673,8.47829268 C76.084768,8.54170732 76.7895952,9.01 77.0657131,9.35390244 L77.0657131,14.0295122 C76.8089719,14.0612195 76.5716074,14.0758537 76.3536196,14.0758537 C75.0408486,14.0782927 74.0574814,13.7465854 73.3332774,13.1978049 L73.3347307,13.1929268 Z M88.7571257,6.57097561 C89.0332436,6.64902439 89.4885959,7.0904878 89.8712856,7.73926829 C89.9996562,8.44170732 89.9730132,12.7270732 89.8446426,13.5587805 C90.384768,14.3904878 91.4432199,15.4807317 91.9349035,15.7904878 C91.9349035,15.7904878 93.8192869,14.3636585 94.3061264,14.0002439 C94.3061264,14.0002439 95.8538398,15.507561 96.2147307,15.7929268 C96.2147307,15.7929268 98.3292124,13.9490244 98.4600051,13.7953659 C98.5883757,13.6417073 98.3437449,13.605122 98.3437449,13.605122 C98.3437449,13.605122 97.898081,14.0295122 97.7575999,14.0197561 C97.396709,14.0026829 97.0019089,13.5368293 96.8299407,13.2612195 C96.5901541,11.8758537 96.7936094,7.23682927 96.9340904,6.36609756 C96.9340904,6.15878049 96.1420681,5.25878049 95.6964041,4.98317073 C95.6964041,4.98317073 94.2843276,5.78073171 93.8047544,6.05634146 C93.8047544,6.05634146 94.352146,6.40268293 94.352146,6.81731707 L94.352146,13.2926829 C94.352146,13.6756098 94.0760281,13.9170732 93.7652744,13.9853659 C93.4576694,14.055122 92.0843462,13.2609756 92.0843462,12.395122 L92.0843462,6.7804878 C92.0843462,6.40073171 91.225232,5.56829268 90.5366328,4.9804878 L88.7474373,6.57073171 L88.7571257,6.57097561 Z M123.191933,14.2880488 C122.915815,14.21 122.460462,13.7660976 122.080195,13.1173171 C121.951824,12.414878 121.997844,8.1295122 122.131059,7.29780488 C121.600622,6.08073171 120.54217,5.37097561 120.052908,5.05634146 C120.052908,5.05634146 118.086174,6.51 117.59449,6.87097561 C117.59449,6.87097561 116.272031,5.1904878 115.770659,5.03682927 C115.770659,5.03682927 113.646489,6.87097561 113.515696,7.02707317 C113.387326,7.18317073 113.627112,7.21731707 113.627112,7.21731707 C113.627112,7.21731707 114.014646,6.88317073 114.152705,6.88804878 C114.513596,6.90756098 114.966526,7.29536585 115.138494,7.57097561 C115.329839,8.71487805 115.211157,12.0709756 115.082786,13.6978049 C115.053721,14.0417073 114.942305,14.1392683 114.813935,14.3197561 C115.06341,14.5880488 115.787613,15.5758537 116.233277,15.8563415 C116.233277,15.8563415 117.647776,15.0660976 118.129771,14.7904878 C118.129771,14.7904878 117.579958,14.4441463 117.58238,14.0270732 C117.58238,14.0270732 117.609023,7.93195122 117.611445,7.54902439 C117.613867,7.16853659 117.889985,6.9295122 118.200012,6.86121951 C118.507617,6.79292683 119.883362,7.59536585 119.878518,8.46365854 L119.851875,14.0734146 C119.849453,14.4539024 120.70445,15.2880488 121.392322,15.8826829 L123.182244,14.2980488 L123.191933,14.2880488 Z"></path>
            </g>
        </g>
    </g>
</svg>