<?xml version="1.0" encoding="UTF-8"?>
<svg width="130px" height="20px" viewBox="0 0 130 20" version="1.1" xmlns="http://www.w3.org/2000/svg" xmlns:xlink="http://www.w3.org/1999/xlink">
    <!-- Generator: sketchtool 42 (36781) - http://www.bohemiancoding.com/sketch -->
    <title>6D5FD45A-E2F7-480E-A4A1-05CEB1232E04</title>
    <desc>Created with sketchtool.</desc>
    <defs></defs>
    <g id="Symbols" stroke="none" stroke-width="1" fill="none" fill-rule="evenodd">
        <g id="Logo:-Chicago-Tribune" fill-rule="nonzero" fill="#004D89">
            <g id="Shape">
                <path d="M27.746976,2.08235294 L26.2462856,3.60627451 L24.712422,2.15137255 L26.2466805,0.523921569 L27.7473709,2.0827451 L27.746976,2.08235294 Z M36.8344463,5.78078431 C36.7554626,6.81607843 35.9577271,7.85529412 34.8519553,7.85529412 C33.8212179,7.85529412 33.1853991,7.23176471 32.8339216,6.50235294 L32.6957001,6.58862745 L32.6957001,13.7254902 L34.7137338,14.9231373 L35.8195057,13.7937255 L35.9932698,13.947451 L33.355214,16.6698039 L29.6824717,14.4619608 L29.6824717,14.3921569 C30.0615935,14.2717647 30.2195609,13.8956863 30.2195609,13.2960784 L30.2195609,7.76666667 C31.7715907,6.9627451 33.4539437,5.91960784 34.4807318,5.18156863 C34.6821403,5.50862745 35.1402458,5.91803922 35.7247252,5.91803922 C36.210475,5.91803922 36.5895968,5.80823529 36.7791577,5.67882353 L36.850243,5.78078431 L36.8344463,5.78078431 Z M29.3704861,14.4121569 L27.1668407,16.6905882 C25.9267965,16.2631373 25.2198923,15.6631373 25.2198923,14.1219608 L25.2198923,7.40784314 L24.5485308,6.92784314 L23.9285087,7.56117647 L23.7744905,7.40823529 L25.9307457,5.18470588 L28.2252223,6.69058824 L28.2252223,6.72588235 C27.8737448,6.93764706 27.707879,7.12196078 27.707879,7.85529412 L27.707879,13.847451 C27.707879,14.3494118 28.027763,14.8513725 28.5727506,14.9258824 L29.2283154,14.2592157 L29.3823336,14.4160784 L29.3704861,14.4121569 Z M24.232596,14.4827451 L22.0447473,16.6905882 C20.887636,16.3494118 20.1293924,15.6278431 20.1293924,14.2082353 L20.1293924,7.88627451 L18.73533,6.94509804 L17.9612897,7.75019608 L17.9612897,14.632549 L18.7708727,15.1290196 L16.9621458,16.6858824 L14.9125186,14.9917647 L14.9125186,14.9564706 C15.2560978,14.8623529 15.4654046,14.58 15.4654046,13.7760784 L15.4654046,2.0627451 C15.4654046,1.20666667 15.3113864,0.950196078 15.1376222,0.658823529 L15.2600469,0.607843137 C15.6391687,0.934901961 15.8761199,1.20980392 15.9669511,1.78941176 L16.0024938,1.78941176 C16.5593289,0.869019608 17.2504363,0.263921569 18.5892102,0.0937254902 L18.6247528,0.160392157 C18.2535294,0.615294118 17.9691881,1.10941176 17.9691881,1.87411765 L17.9691881,7.42313725 L20.1096465,5.18 C20.887636,5.7054902 22.3409362,6.75647059 23.1959348,7.27019608 L23.1959348,7.32117647 C22.8957967,7.44666667 22.6627948,7.67803922 22.6627948,8.43490196 L22.6627948,13.6231373 C22.6627948,14.38 22.8523557,14.6505882 23.4723778,14.9564706 L24.0900304,14.3215686 L24.2440486,14.4745098 L24.232596,14.4827451 Z M63.2189533,7.32588235 C62.8753742,7.4827451 62.6858133,7.68666667 62.6858133,8.51019608 L62.6858133,14.0396078 C61.6629743,14.4827451 59.3408534,15.7847059 58.1679453,16.7101961 C56.9121044,15.8709804 56.2565396,15.4121569 54.9612068,14.6043137 L54.9612068,14.5533333 C55.3245319,14.3847059 55.4982961,14.1964706 55.4982961,13.3376471 L55.4982961,7.85490196 C57.0700718,7.10196078 58.7761199,6.03921569 59.9806214,5.16627451 C60.7507125,5.67215686 62.3422342,6.70745098 63.2229025,7.27215686 L63.2229025,7.32313725 L63.2189533,7.32588235 Z M60.1662331,15.0984314 L60.1662331,8.00784314 C59.5817537,7.64823529 58.63,6.92941176 58.2350815,6.63803922 L57.9941812,6.77529412 L57.9941812,13.8980392 C58.2864209,14.1031373 59.269768,14.7705882 59.8739934,15.2329412 L60.1701823,15.0956863 L60.1662331,15.0984314 Z M54.1950649,15.8827451 C54.1950649,16.5494118 53.2551588,17.2552941 52.2323198,18.074902 C50.8895968,19.1533333 50.1984894,19.6670588 50.1984894,19.6670588 C49.5350262,19.2945098 49.1519553,19.1886275 48.1646589,19.1886275 C46.9206656,19.1886275 46.2137614,19.3180392 45.3370423,19.6670588 L45.2857028,19.6513725 C45.992607,18.3415686 47.398517,17.2552941 49.3691605,17.2552941 C50.2458796,17.2552941 51.2410743,17.6160784 51.8847915,18.0435294 C52.0546065,17.9376471 52.5916957,17.5376471 52.5916957,17.2396078 C52.5916957,16.365098 50.936987,16.4670588 50.6960867,14.8396078 L48.8518172,16.7023529 C46.6916128,15.3101961 45.4555178,14.5454902 45.4555178,14.5454902 L45.4555178,14.4788235 C45.8820298,14.2984314 45.9886578,14.0866667 45.9886578,13.0239216 L45.9886578,7.85098039 C47.8131814,6.89607843 49.5034328,5.94039216 50.5262717,5.16313725 L53.7330102,7.26901961 L53.7330102,7.32 C53.3369069,7.52392157 53.1990804,7.69647059 53.1990804,8.63764706 L53.1990804,13.5333333 C53.1990804,14.7047059 54.1998039,14.814902 54.1998039,15.8796078 L54.1950649,15.8827451 Z M50.660544,14.5298039 L50.660544,7.94156863 C49.6969428,7.34941176 48.7491384,6.60823529 48.7491384,6.60823529 L48.4924413,6.76509804 L48.4924413,13.82 L50.234032,15.0043137 L50.6684424,14.5415686 L50.660544,14.5298039 Z M44.9895139,14.4788235 L42.8016653,16.6866667 C41.8064706,16.3611765 40.9652941,15.8435294 40.8902596,14.4631373 L38.4220188,16.6905882 C37.2175173,16.1768627 36.3526457,15.0984314 36.3526457,13.7298039 C36.3526457,11.8984314 37.8454377,10.9494118 39.215805,10.4592157 L39.215805,10.4435294 C38.0389478,9.87490196 37.0674482,8.80039216 36.8028528,7.49843137 L40.5980199,5.17294118 L43.9943192,7.43568627 L43.9943192,7.49058824 C43.583604,7.66313725 43.4098398,7.86705882 43.4098398,8.63960784 L43.4098398,13.6470588 C43.4098398,14.2098039 43.6467909,14.8094118 44.2194228,14.9654902 L44.8433941,14.332549 L45.0013615,14.4866667 L44.9895139,14.4788235 Z M40.8863104,10.0631373 L40.8863104,8.02392157 L38.7498012,6.56901961 L38.4773074,6.74156863 C38.5641895,7.94941176 38.7340044,9.52980392 39.5475366,10.3376471 C39.8437255,10.2356863 40.5387821,10.1062745 40.8942088,10.0631373 L40.8863104,10.0631373 Z M40.8863104,14.1376471 L40.8863104,10.2866667 C39.38562,10.4631373 38.5404943,11.5180392 38.5404943,12.8396078 C38.5404943,13.9376471 38.9393621,14.6043137 39.9385059,14.9964706 L40.8863104,14.1415686 L40.8863104,14.1376471 Z M14.7660039,0.62745098 C14.7004474,2.11764706 13.6444352,3.50352941 11.764623,3.50352941 C11.5256973,3.50352941 11.3084921,3.48392157 11.1090583,3.43529412 L11.1090583,15.2145098 C12.317509,15.0623529 13.4114333,14.5466667 14.4196603,13.845098 L14.5065424,14.1015686 C13.3928721,15.3917647 11.2840072,17.5054902 8.0259293,17.5054902 C3.58980944,17.5058824 0.335680751,14.5137255 0.335680751,9.40784314 C0.334495996,4.7254902 4.22562828,2.1254902 6.74797294,1.15686275 L6.95333057,1.26 C4.57592102,2.82745098 3.29835957,4.7227451 3.29835957,8.02313725 C3.29835957,10.9329412 4.35081745,13.0035294 5.93641535,14.2192157 L6.47113505,13.8584314 L6.47113505,4.81960784 C6.47113505,3.99098039 6.35028998,3.70705882 5.95379177,3.60392157 L5.95379177,3.53568627 C7.53899475,2.75058824 10.0562055,1.39764706 11.4526374,0.301960784 C11.8830986,0.801568627 12.4201878,1.02117647 13.0903645,1.02117647 C13.8225435,1.02117647 14.314612,0.764313725 14.6423944,0.524313725 L14.7636344,0.62745098 L14.7660039,0.62745098 Z M10.8326153,15.2490196 L10.8326153,3.34901961 C10.203905,3.11098039 9.76436067,2.62235294 9.36746755,2.04862745 L9.28058547,2.0827451 L9.28058547,12.3219608 L6.14256283,14.392549 C7.21674123,15.1337255 8.78259321,15.2670588 10.3839878,15.2670588 C10.5352416,15.2670588 10.6841259,15.2631373 10.8322204,15.2513725 L10.8326153,15.2490196 Z M121.499845,14.5262745 L119.327004,16.734902 C117.930967,16.2894118 117.395852,15.4847059 117.395852,14.234902 L117.395852,7.83137255 L116.240715,7.00980392 L115.225775,8.05411765 L115.225775,14.6627451 L116.039307,15.1764706 L114.23058,16.734902 L112.19675,15.0564706 L112.19675,15.0054902 C112.63116,14.8 112.733839,14.5866667 112.733839,13.8066667 L112.733839,8.12235294 C112.733839,7.48862745 112.406056,7.02705882 111.821577,6.95843137 L111.166012,7.62509804 L110.992248,7.45411765 L113.199843,5.21098039 C114.495175,5.53647059 115.233673,6.37960784 115.233673,7.67686275 L117.615032,5.21137255 C118.408818,5.79176471 119.554082,6.59960784 120.407106,7.10941176 L120.407106,7.16039216 C120.04773,7.29764706 119.925305,7.57215686 119.925305,8.28980392 L119.925305,13.7015686 C119.925305,14.4466667 120.182002,14.7447059 120.738837,15.0035294 L121.358859,14.3682353 L121.516827,14.5211765 L121.499845,14.5262745 Z M111.482342,14.5427451 L109.361629,16.734902 C108.309961,16.5458824 107.395725,15.5529412 107.395725,14.4917647 L104.878909,16.734902 C103.895562,16.0623529 103.003046,15.4486275 102.15792,14.9537255 L102.15792,14.9019608 C102.619975,14.654902 102.710806,14.5176471 102.710806,13.6517647 L102.710806,8.03686275 C102.710806,7.44156863 102.418567,7.11215686 101.936766,6.94078431 L101.33649,7.55647059 L101.166675,7.39960784 L103.287387,5.20745098 C104.34182,5.56431373 105.218539,6.37215686 105.218539,7.67019608 L105.218539,14.2352941 L106.411193,15.0392157 L107.39454,14.1490196 L107.39454,7.28352941 L106.671839,6.78666667 L108.41343,5.21137255 L110.427514,6.83490196 L110.427514,6.86627451 C110.044444,7.0427451 109.910171,7.2427451 109.910171,7.94470588 L109.910171,13.5094118 C109.910171,14.38 110.032596,14.7054902 110.755297,14.9996078 L111.32398,14.38 L111.497744,14.5329412 L111.482342,14.5427451 Z M90.6022093,2.13019608 L89.1023088,3.65372549 L87.5676553,2.19882353 L89.1023088,0.572156863 L90.6029992,2.12901961 L90.6022093,2.13019608 Z M92.2233499,14.4545098 L90.0165452,16.7329412 C88.7749213,16.3054902 88.0680171,15.7054902 88.0680171,14.1643137 L88.0680171,7.45490196 L87.3954709,6.97529412 L86.774264,7.60862745 L86.619456,7.45411765 L88.7749213,5.22862745 L91.0682132,6.73529412 L91.0682132,6.76980392 C90.7143662,6.98235294 90.5508699,7.13137255 90.5508699,7.64313725 L90.5508699,13.8921569 C90.5508699,14.3952941 90.8691743,14.8945098 91.4129771,14.9705882 L92.0685418,14.3031373 L92.2233499,14.4572549 L92.2233499,14.4545098 Z"></path>
                <path d="M86.8437697,5.93098039 C86.7229246,6.78745098 86.0677548,7.93490196 84.9299945,7.93490196 C84.20058,7.93490196 83.6709942,7.52313725 83.3779647,7.06117647 L83.1884038,7.24941176 C83.1978818,7.34745098 83.2057802,7.55607843 83.2057802,7.66039216 L83.2057802,13.9270588 L85.1053383,14.9882353 L85.7451063,14.3372549 L85.9188705,14.4917647 L83.6796824,16.7517647 L80.2320436,14.5780392 L80.2320436,14.5270588 C80.6309114,14.3545098 80.7493869,14.1294118 80.7493869,13.5333333 L80.7493869,8.31058824 C80.7493869,7.4372549 80.559826,7.04392157 79.8529218,6.90666667 L79.1815603,7.59137255 L79.0117454,7.4372549 L81.199594,5.21137255 C82.2737724,5.49764706 82.9609307,6.1172549 83.1504916,6.99176471 L84.8407429,5.22705882 C85.1685253,5.6545098 85.5634438,5.98 86.0294477,5.98 C86.3414333,5.98 86.5665369,5.92901961 86.7876912,5.82705882 L86.8587766,5.92901961 L86.8437697,5.93098039 Z"></path>
                <path d="M80.331958,0.538039216 C80.0871085,2.43098039 79.3035902,4.11647059 77.2804225,4.11647059 C77.0395222,4.11647059 76.6773819,4.08235294 76.522179,4.0654902 L76.522179,15.2968627 C77.7464264,15.1254902 79.1547059,14.5368627 79.7458989,14.0643137 L79.832781,14.2866667 C78.9102513,15.6003922 76.3653963,17.6082353 73.2131566,17.6082353 C69.2268489,17.6082353 66.1441149,15.0043137 66.1441149,10.7964706 C66.1441149,7.17294118 69.1589229,4.5572549 71.1271969,3.86313725 L71.2997763,3.93372549 C69.9254598,5.17686275 68.9539602,6.87098039 68.9539602,9.53372549 C68.9539602,11.7572549 69.8168572,13.1454902 71.1445733,14.2278431 L71.8854405,13.8513725 L71.8854405,7.02784314 C71.8854405,6.29058824 71.6445402,6.05137255 71.368887,6.00039216 L71.368887,5.93372549 L74.6948909,4.18862745 L74.6948909,12.7141176 L71.3515106,14.392549 C72.2479757,15.0788235 73.6791605,15.4396078 75.0400497,15.4396078 C75.5076333,15.4396078 75.7232588,15.42 76.2469207,15.3376471 L76.2469207,4.06666667 C73.7652527,3.86117647 71.121668,2.81647059 69.0929716,2.81647059 C67.6681055,2.81647059 66.5931373,3.39764706 66.5931373,4.47647059 C66.5931373,5.12823529 67.108111,5.40784314 67.4374731,5.55490196 L67.1618199,5.70941176 C66.5575946,5.43490196 65.799351,4.78 65.799351,3.39568627 C65.799351,1.38 67.4343137,0.0584313725 69.6272963,0.0584313725 C72.6622452,0.0584313725 75.5131621,1.65058824 78.1950539,1.65058824 C79.0212234,1.65058824 79.788945,1.21529412 80.1775449,0.419215686 L80.3315631,0.540784314 L80.331958,0.538039216 Z M129.293168,8.48235294 C127.856849,9.3545098 126.149616,10.4776471 124.845595,11.4098039 L124.845595,13.8243137 L126.966308,14.9882353 L128.138426,13.7894118 L128.293629,13.9266667 L125.552894,16.7345098 L121.761676,14.4403922 L121.761676,14.3886275 C122.140798,14.2866667 122.350105,14.047451 122.350105,13.192549 L122.350105,7.88235294 C123.886338,7.19764706 125.505504,6.06823529 126.678412,5.19490196 L129.300671,8.48235294 L129.293168,8.48235294 Z M126.982894,9.6627451 C126.626678,9.16352941 125.476675,7.47843137 124.983027,6.70196078 L124.845595,6.78705882 L124.845595,11.0843137 L126.982894,9.66313725 L126.982894,9.6627451 Z M100.861403,7.36941176 C100.43884,7.54352941 100.34406,7.86039216 100.34406,8.41372549 L100.34406,14.0980392 C99.3054239,14.5396078 96.9817233,15.794902 95.8096051,16.7352941 C94.976327,16.1596078 93.6541397,15.2580392 92.5847004,14.6294118 L92.5847004,14.5784314 C93.0499144,14.3890196 93.1541729,14.127451 93.1541729,13.1901961 L93.1541729,2.18156863 C93.1541729,1.41098039 93.0159514,1.01686275 92.8437669,0.709019608 L92.9464457,0.658039216 C93.3089809,0.96627451 93.5506711,1.3254902 93.6541397,1.82196078 L93.6881027,1.82196078 C94.2437531,0.902352941 94.9348605,0.314117647 96.2748191,0.143529412 L96.2921955,0.246666667 C95.9193924,0.697647059 95.6544021,1.10941176 95.6544021,1.99176471 L95.6544021,7.4545098 L97.7920961,5.21137255 C98.5345429,5.74470588 100.037208,6.81137255 100.861403,7.3172549 L100.861403,7.36823529 L100.861403,7.36941176 Z M97.8272439,15.125098 L97.8272439,7.93333333 L96.4300221,6.99215686 L95.6544021,7.77921569 L95.6544021,13.8745098 L97.5681773,15.2611765 L97.8248743,15.1239216 L97.8272439,15.125098 Z"></path>
            </g>
        </g>
    </g>
</svg>