<?xml version="1.0" encoding="UTF-8"?>
<svg width="170px" height="19px" viewBox="0 0 170 19" version="1.1" xmlns="http://www.w3.org/2000/svg" xmlns:xlink="http://www.w3.org/1999/xlink">
    <!-- Generator: sketchtool 42 (36781) - http://www.bohemiancoding.com/sketch -->
    <title>A1E5DA75-236D-4E82-BA80-C983F1120B7A</title>
    <desc>Created with sketchtool.</desc>
    <defs></defs>
    <g id="Symbols" stroke="none" stroke-width="1" fill="none" fill-rule="evenodd">
        <g id="Logo:-Orlando-Sentinel" fill-rule="nonzero" fill="#00919E">
            <g id="Shape">
                <path d="M58.5353,18.4388448 L52.2428942,18.4388448 L52.2428942,17.2595345 C53.3932828,17.2595345 53.6582619,16.9296552 53.6582619,15.9387069 L53.6582619,11.0583276 C53.6582619,9.83217241 53.2557106,9.33686207 52.5119394,9.33686207 C51.6207694,9.33686207 50.77941,9.87934483 50.0973091,10.5866034 L50.0973091,15.9622931 C50.0973091,16.8598793 50.3819414,17.2595345 51.4865856,17.2595345 L51.4865856,18.4388448 L45.1582619,18.4388448 L45.1582619,17.2595345 C46.1219454,17.2595345 46.5854893,16.9293276 46.5854893,16.0802241 L46.5854893,11.2470172 C46.5854893,10.1145517 46.3889575,9.87901724 45.657046,9.87901724 L45.1216663,9.87901724 L45.1216663,8.67677586 C46.6458043,8.34656897 48.3769783,7.75724138 49.9258521,7.04965517 L50.0969703,7.16758621 L50.0969703,8.58275862 C50.9261312,7.80506897 52.3638629,6.74368966 53.87648,6.74368966 C55.9976679,6.74368966 57.1429739,7.80506897 57.1429739,10.4929138 L57.1429739,15.9406724 C57.1429739,17.0282586 57.4343831,17.2641207 58.5322503,17.2641207 L58.5322503,18.443431 L58.5353,18.4388448 Z M33.5113813,18.4388448 L27.1952561,18.4388448 L27.1952561,17.2595345 C28.2443293,17.2595345 28.6082519,16.9057414 28.6082519,16.0802241 L28.6082519,4.45681034 C28.6082519,3.41836207 28.3846123,3.20608621 27.6577835,3.20608621 L27.1213873,3.20608621 L27.1213873,2.02677586 C28.842057,1.64939655 30.3289217,1.07546552 31.9262507,0.376724138 L32.0966912,0.471068966 L32.0966912,16.0805517 C32.0966912,16.8346552 32.4592585,17.2598621 33.5117202,17.2598621 L33.5117202,18.4391724 L33.5113813,18.4388448 Z"></path>
                <path d="M28.2429739,7.56887931 L26.3901535,10.0447759 C26.1699023,9.64282759 25.8286825,9.43153448 25.2434921,9.43153448 C24.3780745,9.43153448 23.8528603,9.92618966 23.316464,10.8008448 L23.316464,15.9862069 C23.316464,16.8828103 23.6451465,17.2598621 24.7328483,17.2598621 L24.7328483,18.4391724 L18.4641618,18.4391724 L18.4641618,17.2598621 C19.5145904,17.2598621 19.8805461,16.9296552 19.8805461,16.1755517 L19.8805461,11.0111552 C19.8805461,10.1387931 19.653518,9.85608621 18.9046641,9.85608621 L18.3930038,9.85608621 L18.3930038,8.67677586 C20.0262507,8.30005172 21.6018936,7.75756897 23.1131553,7.04998276 L23.2995216,7.14498276 L23.2995216,8.79601724 L23.3266295,8.79601724 C24.058541,7.59377586 24.960893,6.74532759 26.1560096,6.74532759 C27.2538768,6.74532759 27.8624477,7.09912069 28.2524616,7.57084483 L28.2429739,7.56887931 Z M81.6572653,12.7096897 C81.6572653,16.2486034 79.1148894,18.6511207 75.9249751,18.6511207 C72.72354,18.6511207 70.1205103,16.2253448 70.1205103,12.7096897 C70.1205103,8.84417241 72.6262906,6.74434483 75.9012557,6.74434483 C79.1148894,6.74368966 81.6572653,8.82124138 81.6572653,12.7096897 Z M78.1695037,12.7096897 C78.1695037,9.57632759 77.2190353,8.29972414 75.8765198,8.29972414 C74.5346821,8.29972414 73.6326689,9.76403448 73.6326689,12.7096897 C73.6326689,15.7529655 74.5340044,17.0950862 75.8765198,17.0950862 C77.2190353,17.0950862 78.1695037,15.7529655 78.1695037,12.7096897 L78.1695037,12.7096897 Z"></path>
                <path d="M70.5108631,18.4388448 L66.242057,18.4388448 C66.0346821,18.0247759 65.8523819,17.5432241 65.8279849,17.1422586 C65.1943392,17.8007069 64.2421766,18.5312241 62.7302372,18.5312241 C60.0956946,18.5312241 58.194419,16.7163966 58.194419,12.7526034 C58.194419,8.74294828 60.3942197,6.73812069 63.4377516,6.73812069 C64.5329081,6.73812069 65.2675304,6.95105172 65.6578832,7.13777586 L65.6578832,4.42863793 C65.6578832,3.43605172 65.4410205,3.20018966 64.5356189,3.20018966 L64.1452661,3.20018966 L64.1452661,2.02087931 C65.7310743,1.64415517 67.5229021,1.0545 68.9257325,0.369844828 L69.1202312,0.463206897 L69.1202312,16.0726897 C69.1202312,16.8752759 69.4997409,17.252 70.5108631,17.252 L70.5108631,18.4313103 L70.5108631,18.4388448 Z M65.6331473,15.7745862 L65.6331473,8.88872414 C65.2434722,8.607 64.6572653,8.37015517 63.9982061,8.37015517 C62.2321308,8.37015517 61.7052222,10.2636034 61.7052222,12.5698103 C61.7052222,15.2396379 62.3639426,16.6744655 63.8521626,16.6744655 C64.5095276,16.6744655 65.2414391,16.2289483 65.6311142,15.7801552 L65.6331473,15.7745862 Z M44.6821806,17.3306207 C44.0722543,17.9913621 43.0851904,18.6750345 41.7792705,18.6750345 C40.3777955,18.6750345 39.975583,17.9916897 39.7068766,17.2598621 C38.7669125,18.1318966 38.097349,18.6514483 36.3888778,18.6514483 C34.7064979,18.6514483 33.5113813,17.4705 33.5113813,15.8093103 C33.5113813,13.8283966 34.510305,12.2294483 39.5608332,11.3888621 L39.5608332,10.1866207 C39.5608332,9.31294828 39.1474387,8.81862069 38.2189954,8.81862069 C37.0736895,8.81862069 36.2672314,9.14882759 35.2676301,9.95043103 L34.3425752,8.86612069 C35.7081324,7.63963793 37.2092286,6.74434483 39.2219853,6.74434483 C42.1259119,6.74434483 43.003528,8.22994828 43.0001395,10.4224828 L43.003528,16.0340345 C43.003528,16.5345862 43.2203907,16.7186897 43.491469,16.7186897 C43.7354395,16.7186897 43.9319713,16.6472759 44.0776759,16.5296724 L44.6876022,17.3289828 L44.6821806,17.3306207 Z M39.5608332,16.0104483 L39.5608332,12.8505517 C38.6832171,12.8505517 36.9991429,13.7645172 36.9991429,15.1613448 C36.9991429,16.0340345 37.4870839,16.5293448 38.2189954,16.5293448 C38.6594977,16.5293448 39.0728922,16.4107586 39.5608332,16.0104483 L39.5608332,16.0104483 Z M17.806458,9.31327586 C17.806458,15.4915517 13.3489137,18.6511207 8.90424557,18.6511207 C4.29862468,18.6511207 0,15.5383966 0,9.31327586 C0,2.94762069 4.71269683,0 8.90255133,0 C13.0544549,0 17.8051027,2.99413793 17.8051027,9.31327586 L17.806458,9.31327586 Z M13.4393861,9.33686207 C13.4393861,4.05551724 11.296173,1.79156897 8.95168427,1.79156897 C6.4916484,1.79156897 4.34199721,4.04208621 4.34199721,9.31294828 C4.34199721,14.7246724 6.54112019,16.8572586 8.95236197,16.8572586 C11.4303568,16.8572586 13.4397249,14.5445 13.4397249,9.33260345 L13.4393861,9.33686207 Z M169.227427,18.4103448 L162.936037,18.4103448 L162.936037,17.2310345 C163.986466,17.2310345 164.350728,16.8778966 164.350728,16.0523793 L164.350728,4.42798276 C164.350728,3.39051724 164.100997,3.17856897 163.374846,3.17856897 L162.862507,3.17856897 L162.862507,1.99925862 C164.608252,1.57405172 166.191688,1.0237069 167.642635,0.348224138 L167.837811,0.442568966 L167.837811,16.0553276 C167.837811,16.8120517 168.173271,17.2346379 169.227088,17.2346379 L169.227088,18.4139483 L169.227427,18.4103448 Z M153.106398,18.4218103 L146.813992,18.4218103 L146.813992,17.2431552 C147.963703,17.2431552 148.228344,16.9129483 148.228344,15.922 L148.228344,11.0409655 C148.228344,9.81481034 147.825792,9.31982759 147.081682,9.31982759 C146.191868,9.31982759 145.411162,9.83872414 144.667391,10.5692414 L144.667391,15.944931 C144.667391,16.8425172 144.952023,17.2428276 146.056667,17.2428276 L146.056667,18.4214828 L139.737154,18.4214828 L139.737154,17.2428276 C140.699482,17.2428276 141.150149,16.9126207 141.150149,16.0635172 L141.150149,11.2309655 C141.150149,10.1532069 141.03833,9.86263793 140.221706,9.86263793 L139.682938,9.86263793 L139.682938,8.66039655 C141.303648,8.30660345 142.939266,7.71760345 144.487801,7.03360345 L144.657225,7.15153448 L144.657225,8.5667069 C145.487403,7.79032759 146.998665,6.72894828 148.438768,6.72894828 C150.559956,6.72894828 151.705262,7.86239655 151.705262,10.4798103 L151.705262,15.9242931 C151.705262,17.0086034 152.00006,17.2477414 153.096233,17.2477414 L153.096233,18.4270517 L153.106398,18.4218103 Z M137.911102,3.18905172 C137.911102,4.29465517 136.981981,5.19387931 135.838031,5.19387931 C134.695436,5.19387931 133.764959,4.29465517 133.764959,3.18905172 C133.764959,2.08443103 134.695436,1.18487931 135.838031,1.18487931 C136.981981,1.18487931 137.91178,2.08475862 137.91178,3.18905172 L137.911102,3.18905172 Z M139.009647,18.4218103 L132.691489,18.4218103 L132.691489,17.2431552 C133.741917,17.2431552 134.106179,16.9273621 134.106179,16.0638448 L134.106179,11.1130345 C134.106179,10.0457586 133.879151,9.86263793 133.157405,9.86263793 L132.622025,9.86263793 L132.622025,8.68431034 C134.421308,8.25910345 135.90885,7.70908621 137.403169,7.03327586 L137.599701,7.12827586 L137.599701,16.0648276 C137.599701,16.8182759 137.962268,17.2441379 139.016085,17.2441379 L139.016085,18.4221379 L139.009647,18.4218103 Z M132.276739,16.9597931 C131.227666,18.0211724 130.131154,18.6344138 128.740522,18.6344138 C126.472274,18.6344138 125.594319,17.4311897 125.594319,15.6160345 L125.594319,8.96668966 L123.740821,8.96668966 L124.25587,7.1747931 L125.597708,7.1747931 L125.597708,4.74574138 C127.000538,4.21505172 128.843871,3.00068966 128.843871,3.00068966 L129.064122,3.09503448 L129.064122,7.26848276 L131.818956,7.26848276 L131.405561,9.03744828 L129.037014,9.03744828 L129.037014,15.4974483 C129.037014,16.3468793 129.331812,16.606 129.890911,16.606 C130.40596,16.606 130.941339,16.3937241 131.551266,15.8984138 L132.283177,16.9597931 L132.276739,16.9597931 Z M124.69129,18.4218103 L118.400239,18.4218103 L118.400239,17.2431552 C119.548934,17.2431552 119.813913,16.9129483 119.813913,15.922 L119.813913,11.0409655 C119.813913,9.81481034 119.4117,9.31982759 118.667251,9.31982759 C117.777437,9.31982759 117.073988,9.74437931 116.229241,10.5692414 L116.229241,15.944931 C116.229241,16.8425172 116.537592,17.2428276 117.642914,17.2428276 L117.642914,18.4214828 L111.301375,18.4214828 L111.301375,17.2428276 C112.266075,17.2428276 112.741479,16.9126207 112.741479,16.0635172 L112.741479,11.2309655 C112.741479,10.1532069 112.607295,9.86263793 111.789316,9.86263793 L111.25292,9.86263793 L111.25292,8.66039655 C112.853299,8.30660345 114.512637,7.74086207 116.059139,7.03360345 L116.231951,7.15153448 L116.231951,8.5667069 C117.062129,7.79032759 118.57339,6.72894828 120.013494,6.72894828 C122.138071,6.72894828 123.307096,7.86239655 123.307096,10.4798103 L123.307096,15.9242931 C123.307096,17.0086034 123.601894,17.2477414 124.699761,17.2477414 L124.699761,18.4270517 L124.69129,18.4218103 Z M99.9120191,13.2108966 C99.9120191,16.8896897 97.2774766,18.6815862 93.3021128,18.6815862 C91.2080327,18.6815862 89.7442097,17.955 89.0834562,17.9979138 C89.0834562,17.9979138 88.4227028,18.0273966 88.3752641,18.7546379 L87.0130955,18.7546379 L87.0130955,12.7856897 L88.3549332,12.7856897 C89.1342834,17.0063103 91.4926649,17.195 92.9903727,17.195 C95.2504883,17.195 96.5550528,16.2990517 96.5550528,14.6955172 C96.5550528,13.163069 95.6028902,12.3139655 92.1398645,10.8047759 C89.3511461,9.58877586 87.2401236,8.08712069 87.2401236,5.38158621 C87.2401236,2.24593103 89.8018138,0.571637931 93.1923261,0.571637931 C95.0221048,0.571637931 96.369703,1.39715517 96.8505282,1.39715517 C97.0944987,1.39715517 97.3621886,1.20846552 97.4841738,0.783913793 L98.9242775,0.783913793 L98.9242775,6.15960345 L97.6061591,6.15960345 C97.3384692,3.69386207 95.8732908,2.1755 93.1672513,2.1755 C91.4357385,2.1755 90.3127965,2.88308621 90.3127965,4.06239655 C90.3127965,5.5005 91.1429739,5.9492931 94.948236,7.50532759 C97.5651585,8.57653448 99.9242177,10.0539483 99.9242177,13.2118793 L99.9120191,13.2108966 Z"></path>
                <path d="M163.25286,12.7398276 L156.252262,12.7398276 C156.252262,15.3565862 157.399263,16.6295862 159.105362,16.6295862 C160.545465,16.6295862 161.423082,15.899069 161.886287,15.3569138 L162.862169,16.2512241 C161.493223,17.7450172 160.356388,18.5607069 157.862468,18.5607069 C154.941599,18.5607069 152.801435,16.3200172 152.801435,12.9000172 C152.801435,9.08036207 155.22928,6.72174138 158.155232,6.72174138 C161.594539,6.72174138 163.25286,9.07708621 163.25286,12.7329483 L163.25286,12.7398276 Z M159.643452,11.301069 C159.643452,9.55503448 159.253777,8.23617241 158.083058,8.23617241 C156.886924,8.23617241 156.304106,9.43841379 156.304106,11.301069 L159.645147,11.301069 L159.643452,11.301069 Z M110.936097,12.7398276 L103.936177,12.7398276 C103.936177,15.4037586 105.180765,16.6295862 106.790971,16.6295862 C108.278513,16.6295862 109.105302,15.922 109.569524,15.3569138 L110.542017,16.2512241 C109.173072,17.7450172 108.034543,18.5607069 105.540622,18.5607069 C102.616364,18.5607069 100.468069,16.3200172 100.468069,12.9000172 C100.468069,9.08036207 102.904385,6.72174138 105.832031,6.72174138 C109.271337,6.72174138 110.928304,9.07708621 110.928304,12.7329483 L110.936097,12.7398276 Z M107.32635,11.301069 C107.32635,9.55503448 106.933287,8.23617241 105.764262,8.23617241 C104.568128,8.23617241 103.98531,9.43841379 103.98531,11.301069 L107.32635,11.301069 Z"></path>
            </g>
        </g>
    </g>
</svg>