<?xml version="1.0" encoding="UTF-8"?>
<svg width="40px" height="50px" viewBox="0 0 40 50" version="1.1" xmlns="http://www.w3.org/2000/svg" xmlns:xlink="http://www.w3.org/1999/xlink">
    <!-- Generator: Sketch 40.3 (33839) - http://www.bohemiancoding.com/sketch -->
    <title>Food</title>
    <desc>Created with Sketch.</desc>
    <defs></defs>
    <g id="Page-1" stroke="none" stroke-width="1" fill="none" fill-rule="evenodd">
        <g id="UI:-NFL/NCAAF-Navigation-Bar---1280PX" transform="translate(-573.000000, -307.000000)" fill="white">
            <path d="M591.181818,308.785714 L591.181818,326.642857 C591.181818,327.777535 590.845647,328.809891 590.173295,329.739955 C589.500944,330.67002 588.625005,331.321055 587.545455,331.69308 L587.545455,353.428571 C587.545455,354.395838 587.18561,355.232883 586.465909,355.939732 C585.746209,356.646581 584.893944,357 583.909091,357 L580.272727,357 C579.287874,357 578.43561,356.646581 577.715909,355.939732 C576.996209,355.232883 576.636364,354.395838 576.636364,353.428571 L576.636364,331.69308 C575.556813,331.321055 574.680875,330.67002 574.008523,329.739955 C573.336171,328.809891 573,327.777535 573,326.642857 L573,308.785714 C573,308.302081 573.179922,307.883558 573.539773,307.530134 C573.899623,307.17671 574.325755,307 574.818182,307 C575.310609,307 575.736741,307.17671 576.096591,307.530134 C576.456441,307.883558 576.636364,308.302081 576.636364,308.785714 L576.636364,320.392857 C576.636364,320.876491 576.816286,321.295013 577.176136,321.648438 C577.535987,322.001862 577.962119,322.178571 578.454545,322.178571 C578.946972,322.178571 579.373104,322.001862 579.732955,321.648438 C580.092805,321.295013 580.272727,320.876491 580.272727,320.392857 L580.272727,308.785714 C580.272727,308.302081 580.45265,307.883558 580.8125,307.530134 C581.17235,307.17671 581.598482,307 582.090909,307 C582.583336,307 583.009468,307.17671 583.369318,307.530134 C583.729168,307.883558 583.909091,308.302081 583.909091,308.785714 L583.909091,320.392857 C583.909091,320.876491 584.089013,321.295013 584.448864,321.648438 C584.808714,322.001862 585.234846,322.178571 585.727273,322.178571 C586.219699,322.178571 586.645832,322.001862 587.005682,321.648438 C587.365532,321.295013 587.545455,320.876491 587.545455,320.392857 L587.545455,308.785714 C587.545455,308.302081 587.725377,307.883558 588.085227,307.530134 C588.445078,307.17671 588.87121,307 589.363636,307 C589.856063,307 590.282195,307.17671 590.642045,307.530134 C591.001896,307.883558 591.181818,308.302081 591.181818,308.785714 L591.181818,308.785714 Z M613,308.785714 L613,353.428571 C613,354.395838 612.640155,355.232883 611.920455,355.939732 C611.200754,356.646581 610.34849,357 609.363636,357 L605.727273,357 C604.742419,357 603.890155,356.646581 603.170455,355.939732 C602.450754,355.232883 602.090909,354.395838 602.090909,353.428571 L602.090909,339.142857 L595.727273,339.142857 C595.481059,339.142857 595.267993,339.054502 595.088068,338.87779 C594.908143,338.701078 594.818182,338.491817 594.818182,338.25 L594.818182,315.928571 C594.818182,313.473202 595.708324,311.371289 597.488636,309.622768 C599.268948,307.874247 601.409078,307 603.909091,307 L611.181818,307 C611.674245,307 612.100377,307.17671 612.460227,307.530134 C612.820078,307.883558 613,308.302081 613,308.785714 L613,308.785714 Z" id="Food"></path>
        </g>
    </g>
</svg>
