<?xml version="1.0" encoding="UTF-8"?>
<svg width="50px" height="40px" viewBox="0 0 50 40" version="1.1" xmlns="http://www.w3.org/2000/svg" xmlns:xlink="http://www.w3.org/1999/xlink">
    <!-- Generator: Sketch 40.3 (33839) - http://www.bohemiancoding.com/sketch -->
    <title>Lifestyle</title>
    <desc>Created with Sketch.</desc>
    <defs></defs>
    <g id="Page-1" stroke="none" stroke-width="1" fill="none" fill-rule="evenodd">
        <g id="UI:-NFL/NCAAF-Navigation-Bar---1280PX" transform="translate(-918.000000, -312.000000)" fill="white">
            <path d="M923.177072,327.384615 L938.386043,343.370192 L931.062301,327.384615 L923.177072,327.384615 Z M943,345.942308 L951.519953,327.384615 L934.480047,327.384615 L943,345.942308 Z M931.135538,324.307692 L936.115683,315.076923 L929.719615,315.076923 L922.688822,324.307692 L931.135538,324.307692 Z M947.613957,343.370192 L962.822928,327.384615 L954.937699,327.384615 L947.613957,343.370192 Z M934.675347,324.307692 L951.324653,324.307692 L946.344509,315.076923 L939.655491,315.076923 L934.675347,324.307692 Z M954.864462,324.307692 L963.311178,324.307692 L956.280385,315.076923 L949.884317,315.076923 L954.864462,324.307692 Z M958.306621,312.625 L967.68101,324.932692 C967.908861,325.221155 968.014648,325.553684 967.998372,325.930288 C967.982097,326.306893 967.843761,326.631409 967.58336,326.903846 L944.147386,351.519231 C943.854435,351.839745 943.471977,352 943,352 C942.528023,352 942.145565,351.839745 941.852614,351.519231 L918.41664,326.903846 C918.156239,326.631409 918.017903,326.306893 918.001628,325.930288 C917.985352,325.553684 918.091139,325.221155 918.31899,324.932692 L927.693379,312.625 C927.98633,312.208331 928.401338,312 928.938415,312 L957.061585,312 C957.598662,312 958.01367,312.208331 958.306621,312.625 L958.306621,312.625 Z" id="Lifestyle"></path>
        </g>
    </g>
</svg>
