<?xml version="1.0" encoding="UTF-8"?>
<svg width="50px" height="50px" viewBox="0 0 50 50" version="1.1" xmlns="http://www.w3.org/2000/svg" xmlns:xlink="http://www.w3.org/1999/xlink">
    <!-- Generator: Sketch 40.3 (33839) - http://www.bohemiancoding.com/sketch -->
    <title>Sports</title>
    <desc>Created with Sketch.</desc>
    <defs></defs>
    <g id="Page-1" stroke="none" stroke-width="1" fill="none" fill-rule="evenodd">
        <g id="UI:-NFL/NCAAF-Navigation-Bar---1280PX" transform="translate(-848.000000, -307.000000)" fill="white">
            <path d="M864.992188,329.767857 L873,323.964286 L881.007812,329.767857 L877.966518,339.142857 L868.061384,339.142857 L864.992188,329.767857 Z M873,307 C876.385434,307 879.622008,307.660336 882.709821,308.981027 C885.797634,310.301718 888.457578,312.078114 890.689732,314.310268 C892.921886,316.542422 894.698282,319.202366 896.018973,322.290179 C897.339664,325.377992 898,328.614566 898,332 C898,335.385434 897.339664,338.622008 896.018973,341.709821 C894.698282,344.797634 892.921886,347.457578 890.689732,349.689732 C888.457578,351.921886 885.797634,353.698282 882.709821,355.018973 C879.622008,356.339664 876.385434,357 873,357 C869.614566,357 866.377992,356.339664 863.290179,355.018973 C860.202366,353.698282 857.542422,351.921886 855.310268,349.689732 C853.078114,347.457578 851.301718,344.797634 849.981027,341.709821 C848.660336,338.622008 848,335.385434 848,332 C848,328.614566 848.660336,325.377992 849.981027,322.290179 C851.301718,319.202366 853.078114,316.542422 855.310268,314.310268 C857.542422,312.078114 860.202366,310.301718 863.290179,308.981027 C866.377992,307.660336 869.614566,307 873,307 L873,307 Z M890.271205,344.667411 C893.042797,340.89135 894.428571,336.668922 894.428571,332 L894.428571,331.916295 L891.582589,334.399554 L884.886161,328.149554 L886.643973,319.137277 L890.382812,319.472098 C887.59262,315.640234 883.974725,313.017492 879.529018,311.603795 L881.007812,315.063616 L873,319.5 L864.992188,315.063616 L866.470982,311.603795 C862.025275,313.017492 858.40738,315.640234 855.617188,319.472098 L859.383929,319.137277 L861.113839,328.149554 L854.417411,334.399554 L851.571429,331.916295 L851.571429,332 C851.571429,336.668922 852.957203,340.89135 855.728795,344.667411 L856.565848,340.984375 L865.66183,342.100446 L869.540179,350.415179 L866.303571,352.340402 C868.479922,353.065852 870.712042,353.428571 873,353.428571 C875.287958,353.428571 877.520078,353.065852 879.696429,352.340402 L876.459821,350.415179 L880.33817,342.100446 L889.434152,340.984375 L890.271205,344.667411 Z" id="Sports"></path>
        </g>
    </g>
</svg>
