<?xml version="1.0" encoding="UTF-8"?>
<svg width="30px" height="30px" viewBox="0 0 30 30" version="1.1" xmlns="http://www.w3.org/2000/svg" xmlns:xlink="http://www.w3.org/1999/xlink">
    <!-- Generator: Sketch 40.3 (33839) - http://www.bohemiancoding.com/sketch -->
    <title></title>
    <desc>Created with Sketch.</desc>
    <defs></defs>
    <g id="Page-1" stroke="none" stroke-width="1" fill="none" fill-rule="evenodd">
        <g id="Artboard-Copy" fill="white">
            <g id="Icon_Sports">
                <g id="Page-1">
                    <g id="Artboard">
                        <g id="Icon_Sports">
                            <g id="Page-1">
                                <path d="M10.1953125,13.9464286 L15,10.4642857 L19.8046875,13.9464286 L17.9799107,19.5714286 L12.0368304,19.5714286 L10.1953125,13.9464286 Z M15,0.285714286 C17.0312602,0.285714286 18.973205,0.681915681 20.8258929,1.47433036 C22.6785807,2.26674503 24.2745469,3.33258259 25.6138393,4.671875 C26.9531317,6.01116741 28.0189693,7.60713359 28.8113839,9.45982143 C29.6037986,11.3125093 30,13.2544541 30,15.2857143 C30,17.3169744 29.6037986,19.2589193 28.8113839,21.1116071 C28.0189693,22.964295 26.9531317,24.5602612 25.6138393,25.8995536 C24.2745469,27.238846 22.6785807,28.3046835 20.8258929,29.0970982 C18.973205,29.8895129 17.0312602,30.2857143 15,30.2857143 C12.9687398,30.2857143 11.026795,29.8895129 9.17410714,29.0970982 C7.32141931,28.3046835 5.72545313,27.238846 4.38616071,25.8995536 C3.0468683,24.5602612 1.98103075,22.964295 1.18861607,21.1116071 C0.396201395,19.2589193 0,17.3169744 0,15.2857143 C0,13.2544541 0.396201395,11.3125093 1.18861607,9.45982143 C1.98103075,7.60713359 3.0468683,6.01116741 4.38616071,4.671875 C5.72545313,3.33258259 7.32141931,2.26674503 9.17410714,1.47433036 C11.026795,0.681915681 12.9687398,0.285714286 15,0.285714286 L15,0.285714286 Z M25.3627232,22.8861607 C27.025678,20.6205244 27.8571429,18.0870676 27.8571429,15.2857143 L27.8571429,15.2354911 L26.1495536,16.7254464 L22.1316964,12.9754464 L23.1863839,7.56808036 L25.4296875,7.76897321 C23.755572,5.46985458 21.5848348,3.8962096 18.9174107,3.04799107 L19.8046875,5.12388393 L15,7.78571429 L10.1953125,5.12388393 L11.0825893,3.04799107 C8.41516523,3.8962096 6.24442801,5.46985458 4.5703125,7.76897321 L6.83035714,7.56808036 L7.86830357,12.9754464 L3.85044643,16.7254464 L2.14285714,15.2354911 L2.14285714,15.2857143 C2.14285714,18.0870676 2.97432204,20.6205244 4.63727679,22.8861607 L5.13950893,20.6763393 L10.5970982,21.3459821 L12.9241071,26.3348214 L10.9821429,27.4899554 C12.287953,27.9252254 13.6272253,28.1428571 15,28.1428571 C16.3727747,28.1428571 17.712047,27.9252254 19.0178571,27.4899554 L17.0758929,26.3348214 L19.4029018,21.3459821 L24.8604911,20.6763393 L25.3627232,22.8861607 Z" id=""></path>
                            </g>
                        </g>
                    </g>
                </g>
            </g>
        </g>
    </g>
</svg>
