<?xml version="1.0" encoding="UTF-8"?>
<svg width="50px" height="39px" viewBox="0 0 50 39" version="1.1" xmlns="http://www.w3.org/2000/svg" xmlns:xlink="http://www.w3.org/1999/xlink">
    <!-- Generator: Sketch 40.3 (33839) - http://www.bohemiancoding.com/sketch -->
    <title>Automotive</title>
    <desc>Created with Sketch.</desc>
    <defs></defs>
    <g id="Page-1" stroke="none" stroke-width="1" fill="none" fill-rule="evenodd">
        <g id="UI:-NFL/NCAAF-Navigation-Bar---1280PX" transform="translate(-1092.000000, -312.000000)" fill="white">
            <path d="M1103.71875,335.4 C1103.71875,334.327495 1103.33627,333.409379 1102.57129,332.645625 C1101.80631,331.881871 1100.88672,331.5 1099.8125,331.5 C1098.73828,331.5 1097.81869,331.881871 1097.05371,332.645625 C1096.28873,333.409379 1095.90625,334.327495 1095.90625,335.4 C1095.90625,336.472505 1096.28873,337.390621 1097.05371,338.154375 C1097.81869,338.918129 1098.73828,339.3 1099.8125,339.3 C1100.88672,339.3 1101.80631,338.918129 1102.57129,338.154375 C1103.33627,337.390621 1103.71875,336.472505 1103.71875,335.4 L1103.71875,335.4 Z M1104.59766,327.6 L1129.40234,327.6 L1127.22949,318.898125 C1127.19694,318.768124 1127.08301,318.625938 1126.8877,318.471563 C1126.69238,318.317187 1126.52149,318.24 1126.375,318.24 L1107.625,318.24 C1107.47851,318.24 1107.30762,318.317187 1107.1123,318.471563 C1106.91699,318.625938 1106.80306,318.768124 1106.77051,318.898125 L1104.59766,327.6 Z M1138.09375,335.4 C1138.09375,334.327495 1137.71127,333.409379 1136.94629,332.645625 C1136.18131,331.881871 1135.26172,331.5 1134.1875,331.5 C1133.11328,331.5 1132.19369,331.881871 1131.42871,332.645625 C1130.66373,333.409379 1130.28125,334.327495 1130.28125,335.4 C1130.28125,336.472505 1130.66373,337.390621 1131.42871,338.154375 C1132.19369,338.918129 1133.11328,339.3 1134.1875,339.3 C1135.26172,339.3 1136.18131,338.918129 1136.94629,338.154375 C1137.71127,337.390621 1138.09375,336.472505 1138.09375,335.4 L1138.09375,335.4 Z M1142,333.06 L1142,342.42 C1142,342.647501 1141.92676,342.834374 1141.78027,342.980625 C1141.63379,343.126876 1141.44662,343.2 1141.21875,343.2 L1138.875,343.2 L1138.875,346.32 C1138.875,347.620007 1138.41928,348.724995 1137.50781,349.635 C1136.59635,350.545005 1135.48959,351 1134.1875,351 C1132.88541,351 1131.77865,350.545005 1130.86719,349.635 C1129.95572,348.724995 1129.5,347.620007 1129.5,346.32 L1129.5,343.2 L1104.5,343.2 L1104.5,346.32 C1104.5,347.620007 1104.04428,348.724995 1103.13281,349.635 C1102.22135,350.545005 1101.11459,351 1099.8125,351 C1098.51041,351 1097.40365,350.545005 1096.49219,349.635 C1095.58072,348.724995 1095.125,347.620007 1095.125,346.32 L1095.125,343.2 L1092.78125,343.2 C1092.55338,343.2 1092.36621,343.126876 1092.21973,342.980625 C1092.07324,342.834374 1092,342.647501 1092,342.42 L1092,333.06 C1092,331.548742 1092.53304,330.260943 1093.59912,329.196563 C1094.66521,328.132182 1095.95507,327.6 1097.46875,327.6 L1098.15234,327.6 L1100.71582,317.386875 C1101.09017,315.859367 1101.93652,314.579693 1103.25488,313.547813 C1104.57325,312.515932 1106.02994,312 1107.625,312 L1126.375,312 C1127.97006,312 1129.42675,312.515932 1130.74512,313.547813 C1132.06348,314.579693 1132.90983,315.859367 1133.28418,317.386875 L1135.84766,327.6 L1136.53125,327.6 C1138.04493,327.6 1139.33479,328.132182 1140.40088,329.196563 C1141.46696,330.260943 1142,331.548742 1142,333.06 L1142,333.06 Z" id="Automotive"></path>
        </g>
    </g>
</svg>
