<?xml version="1.0" encoding="utf-8"?>
<!-- Generator: Adobe Illustrator 20.0.0, SVG Export Plug-In . SVG Version: 6.00 Build 0)  -->
<svg version="1.1" id="Layer_1" xmlns="http://www.w3.org/2000/svg" xmlns:xlink="http://www.w3.org/1999/xlink" x="0px" y="0px"
	 viewBox="0 0 72 63.6" style="enable-background:new 0 0 72 63.6;" xml:space="preserve">
<path fill="white" d="M65.5,46.4c0.6-1.4,0.8-2.8,0.8-4.5c0-8.4-6.5-14.9-14.9-14.9c-4.5,0-8.7,2-11.5,5.6c-0.6,0.6-1.1,0.8-1.7,0.8
	c0,0,0,0-0.3,0c-0.8,0-1.4-0.3-2-0.6c-0.8-0.8-1.7-1.4-2.8-1.7c-1.1-0.6-2.2-0.6-3.4-0.6c-2.8,0-5.3,1.1-7,3.1
	c-1.1,1.4-2,3.1-2.2,5.1c0,0.3,0,0.6,0,0.8c0,1.7-1.1,2.8-2.8,2.8c-3.9,0-7.3,3.4-7.3,7.6c0,4.2,3.7,7.9,7.6,7.9h40.2
	c3.9,0,7.6-3.7,7.6-7.6c0-0.8,0-1.4,0-2C65.2,47.8,65.2,47,65.5,46.4z M18.8,29.2c2.8-2.8,6.5-4.5,10.7-4.5c1.7,0,3.1,0.3,4.8,0.8
	c-0.6-3.7-3.9-6.7-7.9-6.7c-4.2,0-7.9,3.7-7.9,7.9C18.6,27.6,18.8,28.4,18.8,29.2z M70.9,47.8c0.3,0.8,0.3,1.7,0.3,2.2
	c0,7.3-6.2,13.5-13.2,13.5H17.7c-7,0-13.2-6.2-13.2-13.2c0-6.8,4.5-12.1,10.4-13.2c0.3-0.8,0.3-1.7,0.6-2.5
	c-1.7-2.2-2.5-4.8-2.5-7.9c0-7.3,6.2-13.5,13.5-13.5c6.8,0,12.4,5.1,13.2,11.8c3.4-2.2,7.3-3.7,11.8-3.7c11.2,0,20.5,9.3,20.5,20.5
	C72,44.2,71.7,45.8,70.9,47.8z M12.4,26.7c0-1.7-1.1-2.8-2.8-2.8H2.8C1.1,23.9,0,25,0,26.7c0,1.7,1.1,2.8,2.8,2.8h6.8
	C11.3,29.5,12.4,28.4,12.4,26.7z M12.4,16.3c0.6,0.6,1.4,0.8,2,0.8c0.8,0,1.4-0.3,2-0.8c1.1-1.1,1.1-2.8,0-3.9l-4.8-4.5
	c-1.1-1.1-2.8-1.1-3.9,0c-1.1,1.1-1.1,2.8,0,3.9L12.4,16.3z M38.5,17.2c0.6,0,1.4-0.3,2-0.8l4.8-4.5c1.1-1.1,1.1-2.8,0-3.9
	c-1.1-1.1-2.8-1.1-3.9,0l-4.8,4.5c-1.1,1.1-1.1,2.8,0,3.9C37.1,16.9,37.7,17.2,38.5,17.2z M23.6,9.8v-7c0-1.7,1.1-2.8,2.8-2.8
	c1.7,0,2.8,1.1,2.8,2.8v7c0,1.7-1.1,2.8-2.8,2.8C24.8,12.7,23.6,11.5,23.6,9.8z"/>
</svg>
