<?xml version="1.0" encoding="UTF-8"?>
<svg width="50px" height="50px" viewBox="0 0 50 50" version="1.1" xmlns="http://www.w3.org/2000/svg" xmlns:xlink="http://www.w3.org/1999/xlink">
    <!-- Generator: Sketch 40.3 (33839) - http://www.bohemiancoding.com/sketch -->
    <title>Travel</title>
    <desc>Created with Sketch.</desc>
    <defs></defs>
    <g id="Page-1" stroke="none" stroke-width="1" fill="none" fill-rule="evenodd">
        <g id="UI:-NFL/NCAAF-Navigation-Bar---1280PX" transform="translate(-658.000000, -307.000000)" fill="white">
            <path d="M706.86371,307.908821 C707.905314,309.14562 708.047349,310.905655 707.289819,313.188977 C706.532288,315.472299 705.253974,317.517744 703.454839,319.325374 L697.737879,325.069328 L703.41933,349.900331 C703.537694,350.352238 703.395659,350.744679 702.993221,351.077663 L698.44806,354.502629 C698.28235,354.645337 698.057462,354.716689 697.773388,354.716689 C697.678696,354.716689 697.595843,354.704797 697.524824,354.681013 C697.169732,354.609659 696.921171,354.419385 696.779134,354.110185 L686.872103,335.986407 L677.675253,345.226679 L679.557234,352.147965 C679.675598,352.552303 679.580908,352.920959 679.273162,353.253943 L675.864291,356.678909 C675.651235,356.892971 675.379002,357 675.047582,357 L674.976564,357 C674.621472,356.952431 674.337402,356.797833 674.124346,356.536203 L667.413132,347.545667 L658.464846,340.802765 C658.204445,340.636273 658.050574,340.362754 658.003228,339.9822 C657.979555,339.673 658.086081,339.375697 658.32281,339.090282 L661.731681,335.629639 C661.944736,335.415578 662.21697,335.308549 662.548389,335.308549 C662.690426,335.308549 662.785116,335.320441 662.832462,335.344226 L669.721222,337.235092 L678.918071,327.994819 L660.879463,318.041012 C660.548043,317.850735 660.346827,317.565324 660.275809,317.18477 C660.228463,316.804217 660.334989,316.483129 660.59539,316.221499 L665.140551,311.654877 C665.471971,311.345678 665.827058,311.250541 666.205824,311.369464 L689.819356,317.042064 L695.500807,311.333787 C697.299942,309.526157 699.335775,308.241808 701.608367,307.4807 C703.880959,306.719593 705.632722,306.862298 706.86371,307.908821 L706.86371,307.908821 Z" id="Travel"></path>
        </g>
    </g>
</svg>
