<?xml version="1.0" encoding="UTF-8"?>
<svg width="50px" height="50px" viewBox="0 0 50 50" version="1.1" xmlns="http://www.w3.org/2000/svg" xmlns:xlink="http://www.w3.org/1999/xlink">
    <!-- Generator: Sketch 40.3 (33839) - http://www.bohemiancoding.com/sketch -->
    <title>Breaking</title>
    <desc>Created with Sketch.</desc>
    <defs></defs>
    <g id="Page-1" stroke="none" stroke-width="1" fill="none" fill-rule="evenodd">
        <g id="UI:-NFL/NCAAF-Navigation-Bar---1280PX" transform="translate(-1018.000000, -307.000000)" fill="white">
            <path d="M1047.16667,320.541667 L1047.16667,335.125 C1047.16667,335.428821 1047.06901,335.678384 1046.8737,335.873698 C1046.67838,336.069011 1046.42882,336.166667 1046.125,336.166667 L1035.70833,336.166667 C1035.40451,336.166667 1035.15495,336.069011 1034.95964,335.873698 C1034.76432,335.678384 1034.66667,335.428821 1034.66667,335.125 L1034.66667,333.041667 C1034.66667,332.737846 1034.76432,332.488282 1034.95964,332.292969 C1035.15495,332.097655 1035.40451,332 1035.70833,332 L1043,332 L1043,320.541667 C1043,320.237846 1043.09766,319.988282 1043.29297,319.792969 C1043.48828,319.597655 1043.73785,319.5 1044.04167,319.5 L1046.125,319.5 C1046.42882,319.5 1046.67838,319.597655 1046.8737,319.792969 C1047.06901,319.988282 1047.16667,320.237846 1047.16667,320.541667 L1047.16667,320.541667 Z M1060.70833,332 C1060.70833,328.788178 1059.91624,325.825968 1058.33203,323.113281 C1056.74782,320.400594 1054.59941,318.252178 1051.88672,316.667969 C1049.17403,315.083759 1046.21182,314.291667 1043,314.291667 C1039.78818,314.291667 1036.82597,315.083759 1034.11328,316.667969 C1031.40059,318.252178 1029.25218,320.400594 1027.66797,323.113281 C1026.08376,325.825968 1025.29167,328.788178 1025.29167,332 C1025.29167,335.211822 1026.08376,338.174032 1027.66797,340.886719 C1029.25218,343.599406 1031.40059,345.747822 1034.11328,347.332031 C1036.82597,348.916241 1039.78818,349.708333 1043,349.708333 C1046.21182,349.708333 1049.17403,348.916241 1051.88672,347.332031 C1054.59941,345.747822 1056.74782,343.599406 1058.33203,340.886719 C1059.91624,338.174032 1060.70833,335.211822 1060.70833,332 L1060.70833,332 Z M1068,332 C1068,336.535613 1066.88239,340.718514 1064.64714,344.548828 C1062.41188,348.379142 1059.37914,351.411881 1055.54883,353.647135 C1051.71851,355.88239 1047.53561,357 1043,357 C1038.46439,357 1034.28149,355.88239 1030.45117,353.647135 C1026.62086,351.411881 1023.58812,348.379142 1021.35286,344.548828 C1019.11761,340.718514 1018,336.535613 1018,332 C1018,327.464387 1019.11761,323.281486 1021.35286,319.451172 C1023.58812,315.620858 1026.62086,312.588119 1030.45117,310.352865 C1034.28149,308.11761 1038.46439,307 1043,307 C1047.53561,307 1051.71851,308.11761 1055.54883,310.352865 C1059.37914,312.588119 1062.41188,315.620858 1064.64714,319.451172 C1066.88239,323.281486 1068,327.464387 1068,332 L1068,332 Z" id="Breaking"></path>
        </g>
    </g>
</svg>
