<?xml version="1.0" encoding="utf-8"?>
<svg version="1.1" id="Layer_1" xmlns="http://www.w3.org/2000/svg" xmlns:xlink="http://www.w3.org/1999/xlink" x="0px" y="0px" viewBox="0 0 512 512"><path fill="white" d="m483 121c-4-26-14-46-28-61-13-13-29-21-48-25-19-4-36-6-51-6-16 0-34 1-54 5-19 3-39 9-59 17-21 8-41 18-61 31-21 12-40 28-57 47-18 18-33 38-46 59-13 22-23 43-31 65-9 22-14 43-18 64-3 20-5 39-5 56 1 19 4 35 9 49 5 14 12 26 22 35 12 11 26 18 44 21 18 4 34 5 48 5 17 0 35-1 56-5 20-3 41-9 62-17 21-8 42-18 63-31 21-12 40-28 59-46 26-26 47-55 63-87 15-31 26-62 31-92 6-31 6-59 1-84z m-155-67c4 0 8-1 12-1 8-1 16-2 23-2 4 0 14 1 23 2 4 1 5 6 1 8-2 1-4 2-7 3-3 2-6 3-10 5-6 3-13 3-20-1-4-1-7-3-11-5-4-1-9-3-13-4-3-1-2-4 2-5z m-246 186c6-12 12-24 19-36 12-21 27-40 44-58 4-3 7-7 11-11 4-3 8-7 12-10 1-1 2-2 3-3 1-1 3-2 4-3 3-2 6-4 9-6 3-2 6-4 8-6 2-1 3-2 4-3 2-1 3-2 4-2 4-3 7-5 11-7 4-2 7-4 11-6 0 0 1-1 2-1 0-1 1-1 2-1 4-3 8-5 12-7 5-2 9-3 13-5 2-1 3-1 4-1 1-1 3-1 4-2l0 0c12-4 25-5 38-3 4 1 8 2 12 3 6 2 12 4 18 6 6 2 7 10 1 13 0 1-1 1-2 2-4 3-8 7-12 7-6 1-11-4-16-5-6-3-12-4-18-5-9 0-14 0-15 0-2 0-4 1-5 3-2 2-2 4-2 6 0 2 1 4 3 5 2 2 4 2 6 2 1 0 4 0 9 0 4 0 7 1 11 2 4 1 5 7 2 9-4 3-8 6-12 9-4 3-9 7-13 10-3 3-8 3-11 2-9-4-17-7-24-7-9 0-14 0-14 0-3 0-4 1-6 3-1 2-1 4-1 6 0 2 1 4 3 5 1 2 3 2 6 2 7 0 14 1 19 2 4 1 6 7 3 9-4 3-7 6-10 9-4 4-8 8-11 11-3 3-6 4-9 3-8-4-15-5-21-5-8 0-12 0-12 0-3 0-5 1-6 3-1 2-2 4-2 6 1 2 2 4 3 5 2 2 4 2 6 2 7 0 13 0 18 1 3 1 4 5 2 7-4 5-8 9-12 13-3 4-6 8-9 11-3 4-9 6-14 5-6-2-11-3-16-3-7 0-10 0-11 0-2 0-4 1-5 3-2 2-2 4-2 6 1 2 2 4 3 5 2 1 4 2 6 2 0 0 3 0 7 0 0 0 1 0 1 0 7 0 11 8 6 14-1 2-3 4-5 7-2 2-3 5-5 7-4 6-11 8-18 6-6-3-13-5-19-6-3-1-5-2-7-2-13-3-20-17-15-28z m104 197c0 2-1 5-1 8-2 7-8 12-16 12l0 0c-1 0-2 0-3 0-2 0-3 0-4 1-3 0-6 0-9 0-3 0-5 0-8 1-1 0-2 0-3 0 0 0-1 0-2 0 0 0-1 0-1 0-1 0-1 0-2 0-1 0-1 0-2 0-1 0-1 0-1 0-3 0-6 0-8 0-2-1-5-1-7-1 0 0-1 0-1 0 0 0 0 0 0 0-3-1-5-1-7-1-2-1-5-1-7-2-1 0-1 0-2 0 0 0-1 0-1 0-2-1-4-1-6-2-2 0-4-1-5-1l-1 0c-2-1-4-2-5-3-2 0-3-1-5-2 0 0-1-1-2-1-5-4-7-10-4-15 5-12 12-26 20-43 6-11 12-22 19-34 2-5 1-10-2-13-5-5-13-3-16 2-5 9-10 17-14 25-8 16-14 29-20 40-1 3-6 3-6 0-3-12-4-26-4-43 1-19 4-39 10-61 0-3 3-6 7-6 1 0 1 0 2 0 8 0 16 1 24 2 5 1 10 3 15 4 4 2 6 7 3 11-1 1-1 2-2 4-3 4-2 10 2 13l1 1c4 3 10 2 13-2 0 0 0 0 0 0 5-8 15-10 22-4 10 9 19 20 26 33 10 17 15 36 15 57 0 7-1 14-2 20z m274-268c0 5-7 7-9 2-6-14-14-27-24-40-6-8-13-16-21-23-2-2-5-3-8-2l-2 1c-5 2-7 9-2 13 0 0 0 0 0 0 9 9 18 19 25 30 8 11 14 23 20 36 0 1 1 2 1 4 8 21 8 43 0 64-1 2-2 4-3 6-5 12-11 24-17 36-7 12-15 23-23 35-9 11-18 22-29 32-3 4-7 8-11 11-4 4-8 7-13 11-1 1-2 2-3 3-2 0-3 1-4 2-3 3-6 5-9 7-4 3-7 5-10 7-1 1-3 2-4 2-1 1-2 2-3 3-5 2-9 5-14 7-4 3-8 5-13 7 0 0-1 1-1 1 0 0-1 0-1 0-4 2-8 4-12 6-5 2-9 4-13 5-2 1-3 1-4 2-2 0-3 1-5 1-3 1-6 3-10 4-1 0-3 1-6 2-7 2-13-3-12-10 0 0 0-1 0-1 1-5 1-11 1-16 0-26-6-51-19-73-10-18-23-33-38-45-7-6-8-15-3-22 1-2 3-3 4-5 2-3 5-7 8-11 3-4 8-4 12-1 2 2 3 4 5 6 4 4 8 10 12 16 0 1 1 2 2 3 2 1 3 1 4 1 1 0 2 0 2 0 1 0 2 0 2 0 2-1 3-3 4-5 1-2 1-4 0-6-4-8-9-14-13-20-3-3-6-7-10-9-3-3-3-7 0-10 3-4 7-8 11-13 4-4 8-9 12-14 2-2 6-2 8 0 3 2 5 5 7 7 4 5 8 10 11 16 1 2 2 3 3 3 1 1 3 1 4 1 1 0 1 0 2 0 0 0 1 0 2-1 2-1 3-2 4-4 0-2 0-4-1-6-3-7-7-13-11-18-2-3-4-5-6-7-4-4-4-10 0-14 2-2 5-5 8-7 2-3 5-5 8-8 5-4 12-4 16 1 0 1 1 1 1 2 3 4 6 8 9 13 1 2 2 3 3 3 1 1 3 1 4 1 1 0 1 0 2 0 1 0 1 0 2 0 2-1 3-3 4-5 0-2 0-4-1-6-3-6-6-11-9-15-2-2-3-4-5-6-3-3-3-8 1-11 4-3 8-6 13-10 4-3 8-6 12-9 5-3 11-2 15 2 0 1 1 2 1 3 3 3 6 8 8 12 1 2 2 3 3 3 2 1 3 1 5 1 0 0 1 0 2 0 0 0 1 0 1 0 2-1 4-3 4-5 1-2 1-4 0-6-3-5-5-9-8-13-2-3-3-5-5-7-2-2-2-6 1-8 4-2 7-4 11-6l0 0c9-6 20-6 29-1 3 2 7 2 10 1l2-1c5-2 8-7 7-13-1-5 2-11 8-13 1-1 3-2 4-2 6-2 11-4 17-6 6-2 13-1 18 4 8 7 18 21 19 45 1 16 3 32 1 50z" ></path></svg>
