<?xml version="1.0" encoding="UTF-8"?>
<svg width="13px" height="13px" viewBox="0 0 13 13" version="1.1" xmlns="http://www.w3.org/2000/svg" xmlns:xlink="http://www.w3.org/1999/xlink">
    <!-- Generator: Sketch 42 (36781) - http://www.bohemiancoding.com/sketch -->
    <title>Icon: Link</title>
    <desc>Created with Sketch.</desc>
    <defs></defs>
    <g id="Symbols" stroke="none" stroke-width="1" fill="none" fill-rule="evenodd">
        <g id="UI:-Brand-Bar-(Template)" transform="translate(-276.000000, -13.000000)" fill="#666666">
            <path d="M287.375,22.5 C287.375,22.2916656 287.302084,22.1145841 287.15625,21.96875 L285.53125,20.34375 C285.385416,20.1979159 285.208334,20.125 285,20.125 C284.781249,20.125 284.593751,20.2083325 284.4375,20.375 C284.453125,20.3906251 284.502604,20.4388017 284.585938,20.5195312 C284.669271,20.6002608 284.72526,20.6562498 284.753906,20.6875 C284.782552,20.7187502 284.821614,20.7682288 284.871094,20.8359375 C284.920573,20.9036462 284.954427,20.9700518 284.972656,21.0351562 C284.990886,21.1002607 285,21.1718746 285,21.25 C285,21.4583344 284.927084,21.6354159 284.78125,21.78125 C284.635416,21.9270841 284.458334,22 284.25,22 C284.171875,22 284.100261,21.9908855 284.035156,21.9726562 C283.970052,21.954427 283.903646,21.9205732 283.835938,21.8710938 C283.768229,21.8216143 283.71875,21.7825522 283.6875,21.7539062 C283.65625,21.7252603 283.600261,21.6692713 283.519531,21.5859375 C283.438802,21.5026037 283.390625,21.4531251 283.375,21.4375 C283.203124,21.5989591 283.117188,21.7890614 283.117188,22.0078125 C283.117188,22.2161469 283.190103,22.3932284 283.335938,22.5390625 L284.945312,24.15625 C285.085938,24.2968757 285.26302,24.3671875 285.476562,24.3671875 C285.684897,24.3671875 285.861978,24.2994798 286.007812,24.1640625 L287.15625,23.0234375 C287.302084,22.8776034 287.375,22.703126 287.375,22.5 Z M281.882812,16.9921875 C281.882812,16.7838531 281.809897,16.6067716 281.664062,16.4609375 L280.054688,14.84375 C279.908853,14.6979159 279.731772,14.625 279.523438,14.625 C279.320311,14.625 279.14323,14.6953118 278.992188,14.8359375 L277.84375,15.9765625 C277.697916,16.1223966 277.625,16.296874 277.625,16.5 C277.625,16.7083344 277.697916,16.8854159 277.84375,17.03125 L279.46875,18.65625 C279.609376,18.7968757 279.786457,18.8671875 280,18.8671875 C280.218751,18.8671875 280.406249,18.7864591 280.5625,18.625 C280.546875,18.6093749 280.497396,18.5611983 280.414062,18.4804688 C280.330729,18.3997392 280.27474,18.3437502 280.246094,18.3125 C280.217448,18.2812498 280.178386,18.2317712 280.128906,18.1640625 C280.079427,18.0963538 280.045573,18.0299482 280.027344,17.9648438 C280.009114,17.8997393 280,17.8281254 280,17.75 C280,17.5416656 280.072916,17.3645841 280.21875,17.21875 C280.364584,17.0729159 280.541666,17 280.75,17 C280.828125,17 280.899739,17.0091145 280.964844,17.0273438 C281.029948,17.045573 281.096354,17.0794268 281.164062,17.1289062 C281.231771,17.1783857 281.28125,17.2174478 281.3125,17.2460938 C281.34375,17.2747397 281.399739,17.3307287 281.480469,17.4140625 C281.561198,17.4973963 281.609375,17.5468749 281.625,17.5625 C281.796876,17.4010409 281.882812,17.2109386 281.882812,16.9921875 Z M288.875,22.5 C288.875,23.1250031 288.653648,23.6536437 288.210938,24.0859375 L287.0625,25.2265625 C286.630206,25.6588563 286.101566,25.875 285.476562,25.875 C284.846351,25.875 284.315106,25.653648 283.882812,25.2109375 L282.273438,23.59375 C281.841144,23.1614562 281.625,22.6328156 281.625,22.0078125 C281.625,21.3671843 281.854164,20.8229189 282.3125,20.375 L281.625,19.6875 C281.177081,20.1458356 280.63542,20.375 280,20.375 C279.374997,20.375 278.843752,20.1562522 278.40625,19.71875 L276.78125,18.09375 C276.343748,17.6562478 276.125,17.1250031 276.125,16.5 C276.125,15.8749969 276.346352,15.3463563 276.789062,14.9140625 L277.9375,13.7734375 C278.369794,13.3411437 278.898434,13.125 279.523438,13.125 C280.153649,13.125 280.684894,13.346352 281.117188,13.7890625 L282.726562,15.40625 C283.158856,15.8385438 283.375,16.3671844 283.375,16.9921875 C283.375,17.6328157 283.145836,18.1770811 282.6875,18.625 L283.375,19.3125 C283.822919,18.8541644 284.36458,18.625 285,18.625 C285.625003,18.625 286.156248,18.8437478 286.59375,19.28125 L288.21875,20.90625 C288.656252,21.3437522 288.875,21.8749969 288.875,22.5 Z" id="Icon:-Link"></path>
        </g>
    </g>
</svg>