<svg width="57" height="9" viewBox="0 0 57 9" xmlns="http://www.w3.org/2000/svg"><title>18202FCC-C05E-4A34-8FD8-22502CAC2F07</title><g fill="none" fill-rule="evenodd"><path fill="#3098FF" d="M0 .5h6V5H0z"/><path fill="#272727" d="M0 5.5h6v3H0zM54.732.143h-.406v1.11h-.17V.144h-.406V0h.982v.143zM56.222 0v1.254h-.149V.333a.633.633 0 0 1 .005-.083l-.431.784c-.013.027-.034.04-.061.04h-.025c-.027 0-.048-.013-.061-.04l-.44-.787c.004.03.006.06.006.086v.92h-.149V0h.125c.016 0 .027.001.035.004.009.003.016.011.024.025l.433.772a1.025 1.025 0 0 1 .04.09A1.298 1.298 0 0 1 55.613.8l.425-.771c.007-.014.015-.022.023-.025A.113.113 0 0 1 56.097 0h.125z"/><g fill-rule="nonzero"><path d="M8.075 7.856l.564-.757c.587.469 1.184.8 1.983.8.885 0 1.332-.47 1.332-1.056 0-.693-.8-1.002-1.535-1.279-.959-.341-2.014-.8-2.014-1.94 0-1.077.863-1.908 2.313-1.908.842 0 1.577.352 2.089.768l-.544.724c-.458-.34-.938-.597-1.534-.597-.842 0-1.237.459-1.237.97 0 .64.736.874 1.492 1.162.97.363 2.047.768 2.047 2.036 0 1.098-.874 2.015-2.462 2.015-.949-.011-1.855-.405-2.494-.938zM13.585 1.887h.938l.096.97h.042c.64-.64 1.333-1.14 2.26-1.14 1.417 0 2.046.916 2.046 2.632v4.263h-1.14V4.51c0-1.258-.384-1.802-1.28-1.802-.692 0-1.16.363-1.843 1.045v4.882h-1.14V1.887h.02zM20.32 6.545V2.814H19.32v-.863l1.055-.064L20.513 0h.959v1.887h1.812v.927h-1.812v3.741c0 .832.266 1.3 1.045 1.3.234 0 .543-.095.767-.18l.224.863c-.373.128-.832.245-1.247.245-1.45 0-1.94-.917-1.94-2.238z" fill="#272727"/><path d="M26.087 2.59v1.492h.021c.054-.234.139-.447.256-.65.117-.192.267-.362.437-.511.17-.15.362-.267.565-.342.203-.085.426-.127.66-.127.47-.011.864.106 1.184.362.32.256.522.608.629 1.045h.021c.117-.427.352-.757.693-1.024.34-.256.746-.383 1.215-.383.362 0 .671.053.916.16.246.106.437.255.587.447.149.192.255.426.32.693.063.266.095.565.095.895v3.965h-.234V4.658a3.81 3.81 0 0 0-.075-.81 1.556 1.556 0 0 0-.266-.618 1.185 1.185 0 0 0-.512-.395c-.213-.096-.49-.138-.81-.138-.288 0-.554.053-.789.17a1.824 1.824 0 0 0-.596.459 2.06 2.06 0 0 0-.373.671 2.511 2.511 0 0 0-.128.8v3.826h-.235v-3.87c0-.276-.021-.543-.064-.799a1.887 1.887 0 0 0-.245-.66 1.175 1.175 0 0 0-.49-.448c-.213-.107-.48-.16-.82-.16-.3 0-.566.064-.81.203-.246.138-.449.32-.62.554-.17.234-.298.5-.383.8-.085.308-.138.628-.138.959v3.41h-.235V2.59h.224zM35.008 6.78c.085.35.224.65.416.905.191.256.426.458.724.608.299.149.661.223 1.088.223.628 0 1.161-.17 1.577-.5.416-.33.682-.832.778-1.493h.234c-.085.704-.362 1.247-.83 1.631-.47.384-1.045.576-1.738.576-.47.01-.874-.064-1.205-.224a2.058 2.058 0 0 1-.81-.661 2.956 2.956 0 0 1-.469-1.013c-.106-.383-.149-.8-.149-1.247 0-.5.075-.948.224-1.332.15-.394.341-.725.586-.991.245-.267.523-.48.842-.619.32-.138.65-.213.98-.213.47 0 .875.086 1.216.267.34.18.618.415.831.714.213.298.373.64.47 1.023.095.384.138.778.127 1.194H34.86c.01.426.064.81.149 1.151zm4.508-2.41a2.944 2.944 0 0 0-.447-.874 2.282 2.282 0 0 0-.746-.597c-.299-.149-.64-.213-1.034-.213a2.208 2.208 0 0 0-1.663.735 2.87 2.87 0 0 0-.522.864 3.734 3.734 0 0 0-.235 1.14h4.807a4.202 4.202 0 0 0-.16-1.055zM45.762.245v8.367h-.234V6.928h-.022c-.16.544-.447.98-.863 1.311-.416.341-.938.501-1.556.501-.394 0-.757-.074-1.077-.234a2.402 2.402 0 0 1-.81-.65 2.913 2.913 0 0 1-.511-.992c-.117-.383-.17-.8-.17-1.257 0-.427.053-.821.17-1.205.117-.384.277-.714.49-1.012.213-.288.48-.523.8-.693.32-.17.692-.256 1.097-.256.64 0 1.173.17 1.588.5.416.342.693.779.832 1.323h.021V.245h.245zm-.895 3.198c-.448-.501-1.034-.757-1.77-.757-.404 0-.756.085-1.055.267a2.12 2.12 0 0 0-.724.682c-.192.277-.33.586-.416.938a4.394 4.394 0 0 0-.139 1.044c0 .384.054.746.15 1.098.096.352.245.661.437.927.191.267.437.48.724.64.299.16.64.234 1.024.234.394 0 .735-.074 1.033-.234a2.43 2.43 0 0 0 .768-.629c.202-.266.362-.575.48-.927a3.84 3.84 0 0 0 .16-1.12c-.011-.937-.235-1.662-.672-2.163zM47.137 1.428V.245h.414v1.183h-.414zm0 7.195V2.59h.414v6.022h-.414v.011zM48.821 3.667c.107-.245.245-.459.437-.64s.426-.32.703-.426c.278-.107.608-.15.981-.15.266 0 .522.033.757.086.234.053.447.149.629.288.18.138.32.32.437.533.106.223.17.49.18.82v3.838c0 .117.022.202.075.255a.287.287 0 0 0 .192.107c.075.021.16.032.256.021.085 0 .17-.01.256-.021v.234h-.352a.788.788 0 0 1-.448-.128c-.127-.085-.191-.234-.191-.458v-.778h-.022a1.93 1.93 0 0 1-.298.565c-.139.181-.31.341-.512.48a2.445 2.445 0 0 1-.714.33 2.818 2.818 0 0 1-.863.128c-.608 0-1.098-.139-1.471-.405-.362-.267-.554-.672-.554-1.215 0-.373.064-.672.181-.906.117-.224.277-.405.48-.533a1.71 1.71 0 0 1 .671-.267c.245-.053.501-.085.746-.096.416-.02.768-.042 1.066-.063.298-.022.544-.054.735-.118a.818.818 0 0 0 .427-.266c.085-.117.138-.299.138-.523 0-.18-.01-.362-.042-.564a1.34 1.34 0 0 0-.224-.544 1.333 1.333 0 0 0-.533-.405c-.235-.107-.554-.16-.949-.16-.629 0-1.13.15-1.481.458-.352.31-.544.747-.586 1.311h-.235a1.645 1.645 0 0 1 .128-.788zm3.858 1.407a.792.792 0 0 1-.362.255c-.16.064-.352.107-.565.139a4.542 4.542 0 0 1-.682.053l-.725.032c-.234.011-.458.043-.682.086a1.628 1.628 0 0 0-.597.234c-.17.117-.309.267-.416.47-.106.202-.149.457-.149.777 0 .17.032.341.086.512.053.17.16.32.298.447.139.128.32.235.544.32.223.085.5.128.83.128.395 0 .736-.064 1.045-.202a2.224 2.224 0 0 0 1.237-1.269c.106-.277.16-.575.16-.863v-1.12h-.022z" stroke="#666" stroke-width=".2" fill="#666"/></g></g></svg>