<?xml version="1.0" encoding="UTF-8"?>
<svg width="66px" height="15px" viewBox="0 0 66 15" version="1.1" xmlns="http://www.w3.org/2000/svg" xmlns:xlink="http://www.w3.org/1999/xlink">
    <!-- Generator: Sketch 43.1 (39012) - http://www.bohemiancoding.com/sketch -->
    <title>SNT Badge / Expanded</title>
    <desc>Created with Sketch.</desc>
    <defs>
        <path d="M0,7.5 C0,3.35786438 3.3636868,0 7.50678191,0 L58.4932181,0 C62.6390993,0 66,3.36629279 66,7.5 L66,7.5 C66,11.6421356 62.6363132,15 58.4932181,15 L7.50678191,15 C3.36090074,15 0,11.6337072 0,7.5 L0,7.5 Z" id="path-1"></path>
        <filter x="-12.9%" y="-43.3%" width="125.8%" height="213.3%" filterUnits="objectBoundingBox" id="filter-2">
            <feOffset dx="0" dy="2" in="SourceAlpha" result="shadowOffsetOuter1"></feOffset>
            <feGaussianBlur stdDeviation="2.5" in="shadowOffsetOuter1" result="shadowBlurOuter1"></feGaussianBlur>
            <feComposite in="shadowBlurOuter1" in2="SourceAlpha" operator="out" result="shadowBlurOuter1"></feComposite>
            <feColorMatrix values="0 0 0 0 0   0 0 0 0 0   0 0 0 0 0  0 0 0 0.1 0" type="matrix" in="shadowBlurOuter1"></feColorMatrix>
        </filter>
        <path d="M22.7196896,8.53190559 L22.7196896,2.71416084 L22.8661968,2.71416084 C22.9404275,2.71416084 22.9794958,2.75349611 22.9834026,2.83216783 L23.0185644,3.81162587 C23.2451633,3.44973595 23.5118038,3.16062171 23.8184938,2.94427448 C24.1251838,2.72792724 24.4641005,2.61975524 24.835254,2.61975524 C25.2767313,2.61975524 25.6263917,2.75349517 25.8842457,3.02097902 C26.1420997,3.28846288 26.310093,3.66411471 26.3882306,4.1479458 C26.4468338,3.88832912 26.5376673,3.6631347 26.660734,3.47235577 C26.7838007,3.28157684 26.9273764,3.122269 27.0914653,2.99442745 C27.2555542,2.8665859 27.4352679,2.77218125 27.6306119,2.71121066 C27.8259558,2.65024008 28.0271571,2.61975524 28.2342216,2.61975524 C28.51161,2.61975524 28.7626233,2.66794095 28.9872688,2.76431381 C29.2119143,2.86068667 29.4023718,3.00131026 29.558647,3.18618881 C29.7149221,3.37106736 29.8350569,3.59921193 29.9190548,3.87062937 C30.0030527,4.14204681 30.045051,4.45476222 30.045051,4.80878497 L30.045051,8.53190559 L29.7344557,8.53190559 L29.7344557,4.80878497 C29.7344557,4.17941119 29.6006471,3.6985375 29.3330258,3.36614948 C29.0654046,3.03376145 28.683513,2.86756993 28.1873393,2.86756993 C27.9685541,2.86756993 27.7585625,2.90788858 27.5573583,2.9885271 C27.356154,3.06916561 27.1783937,3.19110495 27.024072,3.35434878 C26.8697502,3.5175926 26.7457087,3.72016924 26.6519436,3.96208479 C26.5581785,4.20400034 26.5112967,4.4862309 26.5112967,4.80878497 L26.5112967,8.53190559 L26.2007013,8.53190559 L26.2007013,4.80878497 C26.2007013,4.19121195 26.0795899,3.7132884 25.8373634,3.375 C25.5951369,3.0367116 25.2396163,2.86756993 24.7707908,2.86756993 C24.4191717,2.86756993 24.096859,2.97770869 23.8038431,3.19798951 C23.5108272,3.41827033 23.252977,3.72115192 23.0302849,4.10664336 L23.0302849,8.53190559 L22.7196896,8.53190559 Z M35.5472113,5.0625 C35.5472113,4.71241084 35.4973993,4.40067881 35.3977739,4.12729458 C35.2981485,3.85391035 35.1614098,3.62281563 34.9875537,3.4340035 C34.8136976,3.24519136 34.6076128,3.10161762 34.3692932,3.00327797 C34.1309736,2.90493832 33.8731234,2.85576923 33.595735,2.85576923 C33.2675572,2.85576923 32.973569,2.90788846 32.7137615,3.0121285 C32.4539541,3.11636853 32.2302886,3.26485918 32.0427584,3.4576049 C31.8552282,3.65035061 31.7038389,3.88242871 31.588586,4.15384615 C31.4733331,4.42526359 31.3981268,4.72814518 31.3629649,5.0625 L35.5472113,5.0625 Z M35.6761376,7.81796329 C35.5980001,7.91630294 35.4886091,8.01267435 35.3479614,8.10708042 C35.2073138,8.20148649 35.0461575,8.28507394 34.8644876,8.35784528 C34.6828177,8.43061662 34.4855233,8.48961953 34.2725984,8.53485577 C34.0596735,8.58009201 33.8418683,8.60270979 33.6191762,8.60270979 C33.2245814,8.60270979 32.868084,8.53288968 32.5496734,8.39324738 C32.2312628,8.25360507 31.9597388,8.05201181 31.7350932,7.78846154 C31.5104477,7.52491127 31.3375709,7.20137867 31.2164576,6.81785402 C31.0953444,6.43432938 31.0347887,5.99672449 31.0347887,5.50502622 C31.0347887,5.08019892 31.0924143,4.69176312 31.2076672,4.33970717 C31.3229201,3.98765121 31.4899367,3.68378624 31.7087219,3.42810315 C31.9275071,3.17242005 32.1951243,2.97377693 32.5115815,2.83216783 C32.8280387,2.69055873 33.1874662,2.61975524 33.5898747,2.61975524 C33.902425,2.61975524 34.1944599,2.67482462 34.4659879,2.78496503 C34.737516,2.89510545 34.9748554,3.05736344 35.1780131,3.27174388 C35.3811708,3.48612432 35.5403737,3.75065402 35.6556266,4.06534091 C35.7708796,4.3800278 35.8285052,4.73994553 35.8285052,5.1451049 C35.8285052,5.2277102 35.7933438,5.26901224 35.7230199,5.26901224 L31.345384,5.26901224 C31.3414771,5.3083481 31.3395237,5.34669999 31.3395237,5.38406906 L31.3395237,5.50502622 C31.3395237,5.96918938 31.3942192,6.3782762 31.5036118,6.73229895 C31.6130044,7.0863217 31.7673238,7.383303 31.9665746,7.62325175 C32.1658255,7.8632005 32.4070716,8.04512613 32.6903203,8.16903409 C32.9735691,8.29294205 33.2890448,8.3548951 33.636757,8.3548951 C33.9454005,8.3548951 34.2130177,8.32047674 34.4396166,8.25163899 C34.6662156,8.18280123 34.8556964,8.10708083 35.0080647,8.02447552 C35.160433,7.94187022 35.2786143,7.86614982 35.3626122,7.79731206 C35.4466101,7.72847431 35.5003288,7.69405594 35.5237701,7.69405594 C35.5550252,7.69405594 35.5804195,7.70585653 35.5999539,7.72945804 L35.6761376,7.81796329 Z M40.8442615,3.88833042 C40.602035,3.51463974 40.3344178,3.25011004 40.0414019,3.09473339 C39.7483859,2.93935674 39.4123994,2.86166958 39.0334321,2.86166958 C38.6544649,2.86166958 38.3243386,2.93148969 38.0430433,3.07113199 C37.761748,3.2107743 37.5273388,3.40450051 37.3398086,3.65231643 C37.1522784,3.90013236 37.0116329,4.19318013 36.9178678,4.53146853 C36.8241027,4.86975694 36.7772208,5.23754172 36.7772208,5.63483392 C36.7772208,6.55922665 36.9500976,7.24366036 37.2958564,7.68815559 C37.6416152,8.13265082 38.1465717,8.3548951 38.8107412,8.3548951 C39.2170566,8.3548951 39.593088,8.24278958 39.9388468,8.01857517 C40.2846056,7.79436077 40.5864075,7.48361213 40.8442615,7.08631993 L40.8442615,3.88833042 Z M41.1548568,0 L41.1548568,8.53190559 L41.0142098,8.53190559 C40.9360723,8.53190559 40.8950507,8.49257032 40.8911438,8.4138986 L40.855982,7.37543706 C40.598128,7.75699491 40.2904659,8.05692636 39.9329865,8.27524038 C39.5755071,8.49355441 39.1799415,8.60270979 38.746278,8.60270979 C38.0117847,8.60270979 37.4472492,8.35883111 37.0526544,7.87106643 C36.6580597,7.38330176 36.4607652,6.63789837 36.4607652,5.63483392 C36.4607652,5.21000662 36.514484,4.81468714 36.6219232,4.44886364 C36.7293623,4.08304013 36.889542,3.76442443 37.1024669,3.49300699 C37.3153918,3.22158955 37.5791022,3.00819571 37.8936059,2.85281906 C38.2081097,2.6974424 38.5724207,2.61975524 38.9865498,2.61975524 C39.400679,2.61975524 39.7591298,2.69940917 40.0619129,2.85871941 C40.364696,3.01802964 40.6254762,3.25699141 40.8442615,3.57561189 L40.8442615,0 L41.1548568,0 Z M42.9415938,2.71416084 L42.9415938,8.53190559 L42.6368588,8.53190559 L42.6368588,2.71416084 L42.9415938,2.71416084 Z M43.1935862,1.26923077 C43.1935862,1.32430097 43.1818658,1.37543683 43.1584245,1.42263986 C43.1349832,1.46984289 43.1047054,1.51212831 43.06759,1.54949738 C43.0304747,1.58686645 42.9874997,1.6163679 42.9386637,1.63800262 C42.8898277,1.65963735 42.8400157,1.67045455 42.7892263,1.67045455 C42.6798337,1.67045455 42.5850933,1.63013589 42.5050023,1.54949738 C42.4249113,1.46885886 42.3848663,1.37543759 42.3848663,1.26923077 C42.3848663,1.15909036 42.4249113,1.06370233 42.5050023,0.983063811 C42.5850933,0.902425296 42.6798337,0.862106643 42.7892263,0.862106643 C42.8400157,0.862106643 42.8898277,0.872923843 42.9386637,0.894558566 C42.9874997,0.91619329 43.0304747,0.945694743 43.06759,0.983063811 C43.1047054,1.02043288 43.1349832,1.06370168 43.1584245,1.1128715 C43.1818658,1.16204133 43.1935862,1.21416056 43.1935862,1.26923077 Z M47.711218,5.61713287 C46.5313405,5.65646873 45.6591429,5.80397599 45.0945989,6.05965909 C44.5300549,6.31534219 44.2477871,6.67525992 44.2477871,7.13942308 C44.2477871,7.35577031 44.2839252,7.54261285 44.3562025,7.69995629 C44.4284797,7.85729974 44.5241968,7.98808951 44.6433566,8.09232955 C44.7625165,8.19656958 44.8982785,8.27327336 45.0506467,8.32244318 C45.203015,8.37161301 45.3592878,8.39619755 45.5194699,8.39619755 C45.7695101,8.39619755 45.9980591,8.36767948 46.2051237,8.31064248 C46.4121883,8.25360548 46.6036225,8.17591832 46.779432,8.07757867 C46.9552416,7.97923902 47.119328,7.86319997 47.2716963,7.72945804 C47.4240646,7.59571611 47.5705703,7.45410914 47.711218,7.30463287 L47.711218,5.61713287 Z M44.2536474,3.54020979 C44.5427565,3.24125725 44.845535,3.01311267 45.1619922,2.85576923 C45.4784494,2.69842579 45.8398303,2.61975524 46.2461457,2.61975524 C46.5469754,2.61975524 46.8087323,2.66794095 47.0314244,2.76431381 C47.2541165,2.86068667 47.4387138,2.9993435 47.5852218,3.18028846 C47.7317297,3.36123342 47.840144,3.58052756 47.9104678,3.83817745 C47.9807916,4.09582734 48.015953,4.38592496 48.015953,4.70847902 L48.015953,8.53190559 L47.9104678,8.53190559 C47.8323302,8.53190559 47.7874018,8.49060356 47.7756812,8.40799825 L47.7170783,7.5465472 C47.5568962,7.71175782 47.3967166,7.86123185 47.2365346,7.99497378 C47.0763525,8.1287157 46.9064058,8.24180461 46.7266894,8.33424388 C46.546973,8.42668315 46.3535854,8.49847002 46.1465208,8.54960664 C45.9394562,8.60074326 45.7109072,8.62631119 45.460867,8.62631119 C45.2772437,8.62631119 45.0955765,8.5987765 44.9158601,8.54370629 C44.7361437,8.48863609 44.5740106,8.40209849 44.4294561,8.28409091 C44.2849016,8.16608333 44.1686737,8.01365915 44.0807689,7.82681381 C43.9928641,7.63996847 43.9489124,7.41477405 43.9489124,7.15122378 C43.9489124,6.89554068 44.0221653,6.66346258 44.1686732,6.45498252 C44.3151812,6.24650245 44.5427535,6.06654359 44.8513969,5.91510052 C45.1600403,5.76365746 45.5507224,5.64368488 46.0234547,5.5551792 C46.4961871,5.46667351 47.0587692,5.41455427 47.711218,5.39881993 L47.711218,4.70847902 C47.711218,4.12630828 47.5861997,3.67395266 47.3361595,3.3513986 C47.0861192,3.02884454 46.7149713,2.86756993 46.2227046,2.86756993 C45.9296886,2.86756993 45.6776987,2.90985535 45.4667273,2.99442745 C45.2557558,3.07899955 45.0799489,3.1734042 44.9393012,3.27764423 C44.7986536,3.38188426 44.6863325,3.47628891 44.6023346,3.56086101 C44.5183367,3.64543312 44.4548509,3.68771853 44.4118752,3.68771853 C44.3728064,3.68771853 44.3376451,3.66608413 44.30639,3.62281469 L44.2536474,3.54020979 Z" id="path-3"></path>
        <rect id="path-4" x="0" y="0" width="5.86028908" height="5.57255245"></rect>
        <rect id="path-6" x="0" y="0" width="5.86028908" height="3.27797203"></rect>
    </defs>
    <g id="Symbols" stroke="none" stroke-width="1" fill="none" fill-rule="evenodd">
        <g id="SNT-Badge-/-Expanded">
            <g id="Icon-BG">
                <g>
                    <use fill="black" fill-opacity="1" filter="url(#filter-2)" xlink:href="#path-1"></use>
                    <use fill-opacity="0.75" fill="#FFFFFF" fill-rule="evenodd" xlink:href="#path-1"></use>
                </g>
            </g>
            <g id="Logo:-SNT" transform="translate(9.000000, 3.000000)">
                <path d="M10.9212998,3.53594843 C10.8744173,3.62248732 10.8021411,3.66575612 10.7044691,3.66575612 C10.645866,3.66575612 10.57945,3.64412172 10.5052193,3.60085227 C10.4309886,3.55758283 10.340155,3.50939712 10.2327159,3.45629371 C10.1252767,3.40319029 9.99732834,3.35402121 9.84886694,3.30878497 C9.70040554,3.26354872 9.52459863,3.24093094 9.32144093,3.24093094 C9.14563137,3.24093094 8.98740515,3.26354872 8.84675751,3.30878497 C8.70610987,3.35402121 8.58597514,3.41597426 8.48634973,3.49464598 C8.38672432,3.5733177 8.31054132,3.66477221 8.25779846,3.76901224 C8.20505559,3.87325227 8.17868456,3.98634117 8.17868456,4.10828234 C8.17868456,4.2616922 8.22263628,4.38953183 8.31054106,4.49180507 C8.39844584,4.59407831 8.51467374,4.68258267 8.65922826,4.7573208 C8.80378278,4.83205894 8.96786923,4.89794552 9.15149254,4.95498252 C9.33511585,5.01201952 9.52361993,5.07298919 9.71701044,5.13789336 C9.91040095,5.20279753 10.098905,5.2745844 10.2825283,5.35325612 C10.4661516,5.43192784 10.6302381,5.53026602 10.7747926,5.6482736 C10.9193471,5.76628118 11.035575,5.91083831 11.1234798,6.0819493 C11.2113846,6.2530603 11.2553363,6.45858709 11.2553363,6.69853584 C11.2553363,6.97388687 11.2065011,7.22858275 11.1088291,7.46263112 C11.0111571,7.69667949 10.8666048,7.89925614 10.6751677,8.07036713 C10.4837306,8.24147813 10.2493214,8.37620143 9.97193301,8.47454108 C9.69454461,8.57288074 9.37418534,8.62204983 9.0108456,8.62204983 C8.59671644,8.62204983 8.22166169,8.55419648 7.8856701,8.41848776 C7.54967851,8.28277904 7.26448063,8.10872047 7.0300679,7.89630682 L7.27620004,7.49508304 C7.30745507,7.44394642 7.34456986,7.40461115 7.38754553,7.37707605 C7.4305212,7.34954095 7.48521668,7.3357736 7.55163362,7.3357736 C7.62195744,7.3357736 7.69618703,7.36330829 7.77432461,7.4183785 C7.85246219,7.4734487 7.94720258,7.53441837 8.05854863,7.60128934 C8.16989468,7.6681603 8.30565668,7.72912997 8.46583872,7.78420017 C8.62602076,7.83927038 8.82526859,7.86680507 9.06358821,7.86680507 C9.26674591,7.86680507 9.44450623,7.84025376 9.59687451,7.78715035 C9.74924279,7.73404694 9.87621445,7.66226007 9.9777933,7.57178759 C10.0793722,7.48131511 10.1545784,7.37707664 10.2034144,7.25906906 C10.2522504,7.14106147 10.276668,7.01518861 10.276668,6.88144668 C10.276668,6.71623606 10.2327163,6.579546 10.1448115,6.47137238 C10.0569068,6.36319876 9.94067886,6.27076087 9.79612434,6.19405594 C9.65156982,6.11735102 9.48650666,6.05048105 9.30092991,5.99344406 C9.11535317,5.93640706 8.92587238,5.87642077 8.73248187,5.81348339 C8.53909137,5.75054601 8.34961058,5.67875914 8.16403383,5.59812063 C7.97845708,5.51748211 7.81339393,5.41619379 7.66883941,5.29425262 C7.52428488,5.17231145 7.40805698,5.02185404 7.3201522,4.84287587 C7.23224743,4.66389771 7.1882957,4.44657033 7.1882957,4.19088724 C7.1882957,3.96273924 7.23517754,3.74344511 7.32894264,3.53299825 C7.42270773,3.3225514 7.55944644,3.13767562 7.73916287,2.97836538 C7.9188793,2.81905515 8.13961465,2.6921989 8.40137554,2.59779283 C8.66313643,2.50338677 8.96200818,2.45618444 9.29799977,2.45618444 C9.68868766,2.45618444 10.0393248,2.51813749 10.3499217,2.64204545 C10.6605185,2.76595342 10.9291124,2.93607846 11.1557114,3.1524257 L10.9212998,3.53594843 Z M13.1976966,3.41794143 C13.3266236,3.27239875 13.4633623,3.14062559 13.6079168,3.02261801 C13.7524713,2.90461042 13.905814,2.8033221 14.0679495,2.71875 C14.230085,2.6341779 14.4019851,2.5692747 14.5836549,2.52403846 C14.7653248,2.47880222 14.9616425,2.45618444 15.172614,2.45618444 C15.496885,2.45618444 15.7830595,2.51027044 16.0311464,2.61844406 C16.2792332,2.72661767 16.4862946,2.88002523 16.652337,3.07867133 C16.8183793,3.27731743 16.9443743,3.5162792 17.0303256,3.79556381 C17.116277,4.07484842 17.159252,4.3836303 17.159252,4.72191871 L17.159252,8.52764423 L16.1102603,8.52764423 L16.1102603,4.72191871 C16.1102603,4.2695563 16.0077062,3.91848901 15.8025951,3.66870629 C15.5974839,3.41892358 15.285915,3.29403409 14.867879,3.29403409 C14.5592355,3.29403409 14.2711075,3.36877111 14.0034863,3.51824738 C13.7358651,3.66772365 13.4887587,3.8703003 13.2621598,4.12598339 L13.2621598,8.52764423 L12.213168,8.52764423 L12.213168,2.55059003 L12.8402189,2.55059003 C12.9886803,2.55059003 13.0804906,2.62336029 13.1156525,2.76890297 L13.1976966,3.41794143 Z M20.2502289,8.62204983 C19.7814034,8.62204983 19.4209993,8.49027667 19.1690056,8.2267264 C18.9170119,7.96317613 18.7910169,7.58359076 18.7910169,7.08795892 L18.7910169,3.42974213 L18.0760617,3.42974213 C18.0135516,3.42974213 17.9608095,3.41105788 17.9178339,3.37368881 C17.8748582,3.33631974 17.8533707,3.27830022 17.8533707,3.1996285 L17.8533707,2.78070367 L18.8261787,2.65679633 L19.0664505,0.809986888 C19.0781712,0.750983097 19.1045422,0.70279739 19.1455644,0.665428322 C19.1865867,0.628059254 19.2403054,0.609375 19.3067224,0.609375 L19.8341484,0.609375 L19.8341484,2.66859703 L21.5512131,2.66859703 L21.5512131,3.42974213 L19.8341484,3.42974213 L19.8341484,7.01715472 C19.8341484,7.26890423 19.8947041,7.45574677 20.0158174,7.57768794 C20.1369306,7.69962911 20.2932034,7.76059878 20.4846405,7.76059878 C20.5940331,7.76059878 20.6887735,7.74584805 20.7688645,7.71634615 C20.8489555,7.68684426 20.9183016,7.65439266 20.9769048,7.61899038 C21.0355079,7.58358811 21.0853199,7.55113651 21.1263421,7.52163462 C21.1673644,7.49213272 21.2035025,7.47738199 21.2347575,7.47738199 C21.2894538,7.47738199 21.338289,7.51081697 21.3812647,7.57768794 L21.6859997,8.07921766 C21.5062833,8.24836186 21.2894548,8.3811184 21.0355077,8.47749126 C20.7815605,8.57386412 20.5198036,8.62204983 20.2502289,8.62204983 Z" id="snt" fill="#000000" fill-rule="evenodd"></path>
                <g id="media">
                    <use fill="#000000" fill-rule="evenodd" xlink:href="#path-3"></use>
                    <use fill="black" fill-opacity="1" xlink:href="#path-3"></use>
                </g>
                <g id="Group" stroke-width="1" fill-rule="evenodd" transform="translate(0.000000, 0.046875)">
                    <mask id="mask-5" fill="white">
                        <use xlink:href="#path-4"></use>
                    </mask>
                    <use id="Mask" fill="#E0DFE0" xlink:href="#path-4"></use>
                    <g mask="url(#mask-5)" id="Rectangle-2">
                        <g transform="translate(3.130721, 2.775348) rotate(-45.000000) translate(-3.130721, -2.775348) translate(-2.130191, -2.310589)">
                            <rect fill="#3098FF" x="0.00394984603" y="0.0288028734" width="2.64526938" height="10.0633741"></rect>
                            <rect fill="#2D94F9" x="2.62619783" y="0.0983391608" width="2.64526938" height="10.0633741"></rect>
                            <rect fill="#2A8FF2" x="5.24844582" y="0.0751603983" width="2.64526938" height="10.0633741"></rect>
                            <rect fill="#2388EF" x="7.84767242" y="0.0751603983" width="2.64526938" height="10.0633741"></rect>
                        </g>
                    </g>
                </g>
                <g id="Group" stroke-width="1" fill-rule="evenodd" transform="translate(0.000000, 5.718750)">
                    <mask id="mask-7" fill="white">
                        <use xlink:href="#path-6"></use>
                    </mask>
                    <use id="Mask" fill="#000000" xlink:href="#path-6"></use>
                    <g mask="url(#mask-7)" id="Rectangle-2">
                        <g transform="translate(2.204225, 1.734209) rotate(-45.000000) translate(-2.204225, -1.734209) translate(-1.751470, -3.346648)">
                            <rect fill="#171818" x="0.00394984603" y="0.0288028734" width="2.64526938" height="10.0633741"></rect>
                            <rect fill="#202123" x="2.62619783" y="0.0983391608" width="2.64526938" height="10.0633741"></rect>
                            <rect fill="#161718" x="5.24844582" y="0.0751603983" width="2.64526938" height="10.0633741"></rect>
                        </g>
                    </g>
                </g>
            </g>
        </g>
    </g>
</svg>