<?xml version="1.0" encoding="UTF-8"?>
<svg width="13px" height="10px" viewBox="0 0 13 10" version="1.1" xmlns="http://www.w3.org/2000/svg" xmlns:xlink="http://www.w3.org/1999/xlink">
    <!-- Generator: Sketch 42 (36781) - http://www.bohemiancoding.com/sketch -->
    <title>Icon: Twitter</title>
    <desc>Created with Sketch.</desc>
    <defs></defs>
    <g id="Symbols" stroke="none" stroke-width="1" fill="none" fill-rule="evenodd">
        <g id="UI:-Brand-Bar-(Template)" transform="translate(-246.000000, -15.000000)" fill="#00ACED">
            <path d="M258.65625,16.1875 C258.30729,16.6979192 257.885419,17.1328107 257.390625,17.4921875 C257.395833,17.5651045 257.398438,17.6744784 257.398438,17.8203125 C257.398438,18.4973992 257.29948,19.1731737 257.101562,19.8476562 C256.903645,20.5221388 256.602867,21.1692677 256.199219,21.7890625 C255.795571,22.4088573 255.315107,22.9570289 254.757812,23.4335938 C254.200518,23.9101586 253.52865,24.2903632 252.742188,24.5742188 C251.955725,24.8580743 251.114588,25 250.21875,25 C248.807285,25 247.515631,24.6223996 246.34375,23.8671875 C246.526043,23.8880209 246.729166,23.8984375 246.953125,23.8984375 C248.125006,23.8984375 249.169266,23.5390661 250.085938,22.8203125 C249.53906,22.8098958 249.049481,22.6419287 248.617188,22.3164062 C248.184894,21.9908838 247.888022,21.5755234 247.726562,21.0703125 C247.898438,21.0963543 248.057291,21.109375 248.203125,21.109375 C248.427084,21.109375 248.648436,21.0807295 248.867188,21.0234375 C248.283851,20.9036452 247.800783,20.6132836 247.417969,20.1523438 C247.035154,19.6914039 246.84375,19.156253 246.84375,18.546875 L246.84375,18.515625 C247.197918,18.7135427 247.578123,18.8203124 247.984375,18.8359375 C247.640623,18.6067697 247.367189,18.3072935 247.164062,17.9375 C246.960936,17.5677065 246.859375,17.1666688 246.859375,16.734375 C246.859375,16.2760394 246.973957,15.8515645 247.203125,15.4609375 C247.833336,16.236983 248.600256,16.8580706 249.503906,17.3242188 C250.407557,17.7903669 251.374995,18.0494789 252.40625,18.1015625 C252.364583,17.9036448 252.34375,17.7109384 252.34375,17.5234375 C252.34375,16.8255173 252.589841,16.2304712 253.082031,15.7382812 C253.574221,15.2460913 254.169267,15 254.867188,15 C255.596358,15 256.210935,15.2656223 256.710938,15.796875 C257.278649,15.6874995 257.812498,15.4843765 258.3125,15.1875 C258.119791,15.7864613 257.750003,16.2499984 257.203125,16.578125 C257.687502,16.5260414 258.171873,16.3958344 258.65625,16.1875 Z" id="Icon:-Twitter"></path>
        </g>
    </g>
</svg>